<svg xmlns="http://www.w3.org/2000/svg" xmlns:xlink="http://www.w3.org/1999/xlink" width="171" height="116" viewBox="0 0 171 116"><defs><clipPath id="clip-path"><path id="Oval" fill="#313742" d="M58.253,116A57.893,57.893,0,0,0,116,58.253C116,25.967,90.033,0,58.253,0A58.109,58.109,0,0,0,0,58.253C0,90.033,25.967,116,58.253,116Z"/></clipPath><clipPath id="clip-account_overview4"><rect width="171" height="116"/></clipPath></defs><g id="account_overview4" clip-path="url(#clip-account_overview4)"><g id="Group_3" data-name="Group 3" transform="translate(25.5)"><g id="graph_4"><g id="pie"><path id="Oval-2" fill="#313742" d="M58.253,116A57.893,57.893,0,0,0,116,58.253C116,25.967,90.033,0,58.253,0A58.109,58.109,0,0,0,0,58.253C0,90.033,25.967,116,58.253,116Z" data-name="Oval"/><g id="pie-2" clip-path="url(#clip-path)" data-name="pie"><circle id="Oval-3" cx="33.35" cy="33.35" r="33.35" fill="#fff" data-name="Oval" transform="translate(24.608 24.608)"/></g></g></g><g id="Group_19" data-name="Group 19" transform="translate(26.1 35.767)"><text id="黃金" fill="#4a4a4a" font-family="YuGothicUI-Regular, Yu Gothic UI" font-size="18" transform="translate(0 21.267)"><tspan x="13.138" y="19">黃金</tspan></text><text id="_100_" fill="#3e3e3e" data-name="100%" font-family="MicrosoftJhengHeiBold, Microsoft JhengHei" font-size="16" transform="translate(0.967 0)"><tspan x="9.418" y="17">100%</tspan></text></g></g></g></svg>