<svg xmlns="http://www.w3.org/2000/svg" xmlns:xlink="http://www.w3.org/1999/xlink" width="352" height="236.4" viewBox="0 0 352 236.4"><defs><filter id="Shape" width="302.944" height="89" x="50.284" y="37.809" filterUnits="userSpaceOnUse"><feOffset dy="2" input="SourceAlpha"/><feGaussianBlur result="blur" stdDeviation="2"/><feFlood flood-opacity=".502"/><feComposite in2="blur" operator="in"/><feComposite in="SourceGraphic"/></filter><filter id="Shape_Copy_10" width="302.944" height="89" x="50.284" y="58.809" filterUnits="userSpaceOnUse"><feOffset dy="2" input="SourceAlpha"/><feGaussianBlur result="blur-2" stdDeviation="2"/><feFlood flood-opacity=".502"/><feComposite in2="blur-2" operator="in"/><feComposite in="SourceGraphic"/></filter><clipPath id="clip-rate_table"><rect width="352" height="236.4"/></clipPath></defs><g id="rate_table" clip-path="url(#clip-rate_table)"><g id="走勢圖" transform="translate(0 -0.191)"><g id="Group_8" data-name="Group 8" transform="translate(53 6)"><path id="Shape-2" fill="none" stroke="#878787" stroke-miterlimit="10" stroke-width="1" d="M0,0H4" data-name="Shape"/><path id="Shape-3" fill="none" stroke="#878787" stroke-miterlimit="10" stroke-width="1" d="M0,0H4" data-name="Shape" transform="translate(0 37)"/><path id="Shape-4" fill="none" stroke="#878787" stroke-miterlimit="10" stroke-width="1" d="M0,0H4" data-name="Shape" transform="translate(0 75)"/><path id="Shape-5" fill="none" stroke="#e0e0e0" stroke-miterlimit="10" stroke-width="1" d="M0,0H295" data-name="Shape" transform="translate(4)"/><path id="Shape-6" fill="none" stroke="#e0e0e0" stroke-miterlimit="10" stroke-width="1" d="M0,0H295" data-name="Shape" transform="translate(4 37)"/><path id="Shape-7" fill="none" stroke="#e0e0e0" stroke-miterlimit="10" stroke-width="1" d="M0,0H295" data-name="Shape" transform="translate(4 75)"/><path id="Shape-8" fill="none" stroke="#e0e0e0" stroke-miterlimit="10" stroke-width="1" d="M0,0H295" data-name="Shape" transform="translate(4 113)"/><g filter="url(#Shape)" transform="matrix(1, 0, 0, 1, -53, -5.81)"><path id="Shape-9" fill="none" stroke="#3e3e3e" stroke-linecap="round" stroke-linejoin="round" stroke-miterlimit="10" stroke-width="4" d="M0,43.487l3.131,5.7L7.98,53.548l4.864-5.033H19.11l2.5,5.033L28.192,38.67l4.7,1.465,1.881,3.019,6.262-1.01,3.136-5.366L48.24,38.67l2.193-1.893,4.7,1.893,2.5,6.493h5.639L66.1,38.67l2.82-1.893,3.131,4.362,3.136-2.469L78.313,51.2l9.713.338,3.131,4.7L94.6,52.877l2.82,12.409L100.555,73H111.2l2.83-15.761,2.82-2.348,1.876-13.752,3.763-6.038h6.578L132.3,21.688l3.136-4.7h3.338L141.279,0l3.55,27.277,8.77-4.917,5.012,2.9,1.669,7.159,3.55-14.09,9.61-.222,3.131,5.589,2.716-6.26,3.965,3.13,2.923-7.154,9.4-.894L205.6,17.887l2.509,5.366,2.711,26.161H217.5l3.338-5.594,3.551-.894,3.136,3.13,3.131,6.487,2.3-13.874h6.894l2.089-9.607,4.178-2.459,3.338-3.579,2.3,10.061,4.592-6.482,8.35-.222,4.39-1.343,3.551,1.565,6.054-1.787L286,23.924" data-name="Shape" transform="translate(59 43.81)"/></g><g filter="url(#Shape_Copy_10)" transform="matrix(1, 0, 0, 1, -53, -5.81)"><path id="Shape_Copy_10-2" fill="none" stroke="#888" stroke-linecap="round" stroke-linejoin="round" stroke-miterlimit="10" stroke-width="4" d="M0,43.487l3.131,5.7L7.98,53.548l4.864-5.033H19.11l2.5,5.033L28.192,38.67l4.7,1.465,1.881,3.019,6.262-1.01,3.136-5.366L48.24,38.67l2.193-1.893,4.7,1.893,2.5,6.493h5.639L66.1,38.67l2.82-1.893,3.131,4.362,3.136-2.469L78.313,51.2l9.713.338,3.131,4.7L94.6,52.877l2.82,12.409L100.555,73H111.2l2.83-15.761,2.82-2.348,1.876-13.752,3.763-6.038h6.578L132.3,21.688l3.136-4.7h3.338L141.279,0l3.55,27.277,8.77-4.917,5.012,2.9,1.669,7.159,3.55-14.09,9.61-.222,3.131,5.589,2.716-6.26,3.965,3.13,2.923-7.154,9.4-.894L205.6,17.887l2.509,5.366,2.711,26.161H217.5l3.338-5.594,3.551-.894,3.136,3.13,3.131,6.487,2.3-13.874h6.894l2.089-9.607,4.178-2.459,3.338-3.579,2.3,10.061,4.592-6.482,8.35-.222,4.39-1.343,3.551,1.565,6.054-1.787L286,23.924" data-name="Shape Copy 10" transform="translate(59 64.81)"/></g><path id="Shape-10" fill="none" stroke="#878787" stroke-miterlimit="10" stroke-width="1" d="M0,0H3V191" data-name="Shape" transform="translate(1)"/><path id="Shape-11" fill="none" stroke="#e0e0e0" stroke-miterlimit="10" stroke-width="1" d="M0,0H295" data-name="Shape" transform="translate(4 150)"/><path id="Shape_Copy" fill="none" stroke="#e0e0e0" stroke-miterlimit="10" stroke-width="1" d="M0,0H295" data-name="Shape Copy" transform="translate(4 186.5)"/><path id="Shape-12" fill="none" stroke="#878787" stroke-miterlimit="10" stroke-width="1" d="M0,0H4" data-name="Shape" transform="translate(0 113)"/><path id="Shape_Copy_2" fill="none" stroke="#878787" stroke-miterlimit="10" stroke-width="1" d="M0,0H4" data-name="Shape Copy 2" transform="translate(0 150.5)"/><path id="Shape-13" fill="none" stroke="#878787" stroke-miterlimit="10" stroke-width="1" d="M0,0H3V295H0" data-name="Shape" transform="translate(299 184) rotate(90)"/><g id="Group_2" data-name="Group 2" transform="translate(41.5 183)"><path id="Shape_Copy_4" fill="none" stroke="#878787" stroke-miterlimit="10" stroke-width="1" d="M.5,0V8" data-name="Shape Copy 4" transform="translate(70)"/><path id="Shape_Copy_3" fill="none" stroke="#878787" stroke-miterlimit="10" stroke-width="1" d="M.5,0V8" data-name="Shape Copy 3" transform="translate(35)"/><path id="Shape_Copy_2-2" fill="none" stroke="#878787" stroke-miterlimit="10" stroke-width="1" d="M.5,0V8" data-name="Shape Copy 2" transform="translate(0.5)"/><path id="Shape_Copy_5" fill="none" stroke="#878787" stroke-miterlimit="10" stroke-width="1" d="M.5,0V8" data-name="Shape Copy 5" transform="translate(105)"/><path id="Shape_Copy_6" fill="none" stroke="#878787" stroke-miterlimit="10" stroke-width="1" d="M.5,0V8" data-name="Shape Copy 6" transform="translate(140)"/><path id="Shape_Copy_7" fill="none" stroke="#878787" stroke-miterlimit="10" stroke-width="1" d="M.5,0V8" data-name="Shape Copy 7" transform="translate(175)"/><path id="Shape_Copy_8" fill="none" stroke="#878787" stroke-miterlimit="10" stroke-width="1" d="M.5,0V8" data-name="Shape Copy 8" transform="translate(210)"/><path id="Shape_Copy_9" fill="none" stroke="#878787" stroke-miterlimit="10" stroke-width="1" d="M.5,0V8" data-name="Shape Copy 9" transform="translate(245)"/></g></g><text id="_30.003" fill="#727272" data-name="30.003" font-family="MicrosoftJhengHeiBold, Microsoft JhengHei" font-size="13" transform="translate(0 148.144)"><tspan x=".972" y="14">30.003</tspan></text><text id="_30.414" fill="#727272" data-name="30.414" font-family="MicrosoftJhengHeiBold, Microsoft JhengHei" font-size="13" transform="translate(0 124)"><tspan x="0" y="0">30.414</tspan></text><g id="Group" transform="translate(31 198)"><text id="_04-15" fill="#727272" data-name="04-15" font-family="MicrosoftJhengHeiBold, Microsoft JhengHei" font-size="13" transform="translate(10.308 36.471) rotate(-45)"><tspan x="0" y="0">04-15</tspan></text><text id="_05-28" fill="#727272" data-name="05-28" font-family="MicrosoftJhengHeiBold, Microsoft JhengHei" font-size="13" transform="translate(44.899 36.062) rotate(-45)"><tspan x="0" y="0">05-28</tspan></text><text id="_05-28_copy" fill="#727272" data-name="05-28 copy" font-family="MicrosoftJhengHeiBold, Microsoft JhengHei" font-size="13" transform="translate(182.899 36.062) rotate(-45)"><tspan x="0" y="0">05-28</tspan></text><text id="_07-10" fill="#727272" data-name="07-10" font-family="MicrosoftJhengHeiBold, Microsoft JhengHei" font-size="13" transform="translate(79.899 36.062) rotate(-45)"><tspan x="0" y="0">07-10</tspan></text><text id="_07-10_copy" fill="#727272" data-name="07-10 copy" font-family="MicrosoftJhengHeiBold, Microsoft JhengHei" font-size="13" transform="translate(215.899 36.062) rotate(-45)"><tspan x="0" y="0">07-10</tspan></text><text id="_08-22" fill="#727272" data-name="08-22" font-family="MicrosoftJhengHeiBold, Microsoft JhengHei" font-size="13" transform="translate(112.899 36.062) rotate(-45)"><tspan x="0" y="0">08-22</tspan></text><text id="_08-22_copy" fill="#727272" data-name="08-22 copy" font-family="MicrosoftJhengHeiBold, Microsoft JhengHei" font-size="13" transform="translate(250.083 36.062) rotate(-45)"><tspan x="0" y="0">08-22</tspan></text><text id="_10-05" fill="#727272" data-name="10-05" font-family="MicrosoftJhengHeiBold, Microsoft JhengHei" font-size="13" transform="translate(150.899 36.062) rotate(-45)"><tspan x="0" y="0">10-05</tspan></text><text id="_10-05_copy" fill="#727272" data-name="10-05 copy" font-family="MicrosoftJhengHeiBold, Microsoft JhengHei" font-size="13" transform="translate(285.9 36.062) rotate(-45)"><tspan x="0" y="0">10-05</tspan></text></g><text id="_30.825" fill="#727272" data-name="30.825" font-family="MicrosoftJhengHeiBold, Microsoft JhengHei" font-size="13" transform="translate(0 85.968)"><tspan x="0" y="0">30.825</tspan></text><text id="_31.236" fill="#727272" data-name="31.236" font-family="MicrosoftJhengHeiBold, Microsoft JhengHei" font-size="13" transform="translate(0.335 48.239)"><tspan x="0" y="0">31.236</tspan></text><text id="_31.647" fill="#727272" data-name="31.647" font-family="MicrosoftJhengHeiBold, Microsoft JhengHei" font-size="13" transform="translate(0.335 14.191)"><tspan x="0" y="0">31.647</tspan></text></g></g></svg>