<?xml version="1.0" encoding="UTF-8"?>
<svg width="344px" height="48px" viewBox="0 0 344 48" version="1.1" xmlns="http://www.w3.org/2000/svg" xmlns:xlink="http://www.w3.org/1999/xlink">
    <title>CIS/Logo/scsb_logo</title>
    <defs>
        <filter id="filter-1">
            <feColorMatrix in="SourceGraphic" type="matrix" values="0 0 0 0 1.000000 0 0 0 0 1.000000 0 0 0 0 1.000000 0 0 0 1.000000 0"></feColorMatrix>
        </filter>
    </defs>
    <g id="CIS/Logo/scsb_logo" stroke="none" stroke-width="1" fill="none" fill-rule="evenodd">
        <g filter="url(#filter-1)" id="Group-2">
            <g transform="translate(0.000000, -0.000750)">
                <path d="M73.7683214,10.0128 C75.0526882,10.0833 75.976531,9.2958 76.8808454,9.3453 C78.4896838,9.4278 78.9238148,11.3268 79.9948716,11.9643 C79.5517275,13.2168 78.998924,14.3793 78.007483,15.1308 C76.5879197,15.3648 74.8438847,15.1563 73.2380507,15.3153 C72.593614,16.2483 72.4418934,17.6463 72.3742952,19.2168 C72.3622777,19.6458 72.2390987,20.2233 72.3097013,20.4948 C72.4749415,21.0918 73.8509415,21.4038 74.8889502,21.3498 C75.8353258,21.2943 77.0130376,21.0738 78.1381729,20.9808 C78.6819633,20.9403 79.2633083,20.8563 79.7965834,20.7978 C80.3704175,20.7378 81.0418934,20.5773 81.3873956,20.6178 C82.55309,20.7483 83.0803563,22.4043 83.6406707,23.2353 C83.8569852,23.5518 84.2295266,23.8293 84.3016314,24.1533 C84.61709,25.5093 83.4318672,26.5398 82.6462253,27.1338 C82.2826969,27.4143 81.7839721,27.8943 81.3197974,27.9258 C80.8781555,27.9588 80.1796402,27.5433 79.6658934,27.4413 C78.3740157,27.1728 77.0310638,27.3153 75.6926183,27.1338 C75.1007581,27.0558 74.5810026,26.8083 74.0312035,26.7093 C70.669317,26.1138 67.3179459,27.2118 64.5599371,27.6228 C63.6916751,27.7533 62.8038847,27.8328 61.9100856,28.0488 C61.0853869,28.2483 60.0428716,28.2918 59.3248279,28.6578 C58.8291074,28.9128 58.5406882,30.0408 57.8662079,30.1173 C57.0385048,30.2193 56.6839895,29.4708 56.2753956,29.0223 C56.1822603,27.7143 56.4075878,26.5113 56.2753956,25.3068 C56.2108017,24.6798 55.8668017,23.9433 56.0801118,23.3568 C56.4105921,22.4478 58.776531,21.9393 59.9196926,21.7728 C61.6952734,21.5208 63.4573345,21.5913 65.1548017,21.7143 C66.0711336,18.0633 66.38509,12.6633 64.8934218,9.3453 C64.681614,8.8728 64.3616489,8.3493 64.0281642,7.8198 C63.7217188,7.3278 63.2605485,6.6768 63.3026096,6.1758 C63.3657013,5.3058 64.6620856,4.9413 65.4236926,4.5288 C66.1883039,4.1148 67.2894044,3.4848 68.0735441,3.4353 C69.2001817,3.3603 69.2317275,4.2603 69.7935441,4.7133 C71.234138,5.4318 72.9301031,6.2733 73.2380507,8.0043 C73.3582253,8.6808 73.1043563,9.6063 73.7683214,10.0128" id="Fill-9" fill="#FFFFFF"></path>
                <path d="M100.071252,12.26865 C96.7364052,12.02415 95.784021,9.58965 93.97389,7.94265 C94.5942917,6.62265 95.6307983,5.68515 96.8235319,4.89765 C99.1714445,4.66965 99.8399162,5.68065 100.666117,7.15065 C101.574938,8.75865 101.861855,11.25615 100.071252,12.26865" id="Fill-23" fill="#FFFFFF"></path>
                <path d="M98.215455,17.8716 C96.6952454,18.1371 95.8059528,18.7716 94.3037694,18.3651 C93.9657782,18.2691 93.2747738,17.8221 92.7159616,17.4471 C91.4871755,16.6281 91.2573415,15.7821 91.7230183,14.0316 C91.8732367,13.4631 92.1346166,12.6606 92.785062,12.5751 C94.1565555,12.3846 94.7694463,13.4451 96.1604681,13.7361 C96.7418131,13.8516 97.8369048,13.7601 98.215455,13.9101 C98.5774812,14.0616 99.3736384,15.3396 99.4066865,15.8001 C99.4787913,16.7916 98.4573066,17.0301 98.215455,17.8716" id="Fill-27" fill="#FFFFFF"></path>
                <path d="M100.002302,18.9072 C100.111962,21.9567 100.380852,25.9602 99.0769572,28.4157 C98.731455,29.0577 98.0314376,30.2562 97.2217607,30.2442894 C96.4826865,30.2307 95.913359,29.3232 95.6309485,29.0847 C95.1457432,28.6842 94.4922934,28.3962 94.1032279,27.9267 C93.3566428,27.0057 93.0682236,24.9372 93.7111581,23.6607 C94.1317694,22.8222 95.3275074,21.8682 96.2919092,21.0432 C97.3689747,20.1252 98.477586,19.4157 99.4074376,18.9702 C99.5366253,18.9072 99.7424245,18.7932 100.002302,18.9072" id="Fill-29" fill="#FFFFFF"></path>
                <path d="M107.095011,24.3909 C107.452531,24.3714 107.819064,24.1929 108.154051,24.3324 C108.492042,23.7069 108.516077,22.7694 107.688374,22.6284 C107.557684,23.2764 107.001876,23.5419 107.095011,24.3909 M113.318557,22.6914 C112.684636,21.4749 111.757789,23.0574 111.529457,23.8419 C111.748776,24.1929 112.277544,24.2529 112.72219,24.3909 C113.285509,24.1584 113.090225,23.2269 113.318557,22.6914 M108.154051,17.0214 C108.187099,17.4099 108.223151,17.8119 108.550627,17.9349 C109.031326,18.0459 109.433911,17.3139 109.21309,16.7784 C108.708356,16.7169 108.502557,16.9389 108.154051,17.0214 M112.523902,16.7784 C112.612531,17.1039 112.729701,17.4039 112.923483,17.6319 C113.889387,17.9634 114.216863,16.9509 114.113212,16.2909 C113.486802,16.1409 113.109754,16.6869 112.523902,16.7784 M117.625317,10.3824 C116.686452,10.3974 116.422068,11.3994 115.639431,11.4789 C115.064094,11.5359 114.476741,10.8519 113.85033,11.3559 C113.183361,10.8009 111.883972,10.6959 110.8024,10.8054 C109.444426,10.9449 108.304269,11.8404 107.755972,12.5754 C110.659693,12.3189 113.984024,12.4539 116.501684,11.8419 C116.716496,12.1719 116.880234,12.7014 117.227238,12.9969 C117.42102,13.1649 117.698924,13.2174 117.891203,13.3674 C119.026854,14.2329 119.558627,15.7959 118.682854,17.0829 C119.435448,17.7504 120.925614,17.0829 122.065771,17.2629 C122.888968,17.3919 123.889422,18.0834 123.850365,18.7299 C123.836845,19.0074 123.302068,19.4349 123.123308,19.6989 C122.471361,20.6799 122.086802,21.8214 120.939134,22.3254 C120.383326,22.0854 119.457981,21.9159 118.682854,22.0794 C118.564182,22.9389 118.084985,23.3289 118.15709,24.0264 C118.272758,25.1739 119.820007,25.5534 119.675797,26.7084 C119.441457,28.6359 115.717544,27.0264 115.836217,29.3919 C114.987483,29.8779 114.745631,31.0089 113.581439,31.0344 C112.273038,31.0734 111.891483,29.7174 111.003693,29.0844 C109.572112,29.1879 108.283238,28.8804 107.095011,29.2659 C106.617317,29.4204 106.097562,29.9214 105.636391,29.9409 C105.173719,29.9559 104.401597,29.5479 104.111675,29.3289 C103.609946,28.9569 102.785247,27.6459 102.653055,26.9529 C102.41571,25.7214 103.80523,24.1524 103.051134,23.1114 C102.686103,22.6134 101.350662,22.6464 101.128339,22.0164 C101.415256,21.0009 100.49592,20.0409 101.062243,19.1544 C102.089736,18.7359 103.824758,18.9699 104.439151,18.1824 C104.715553,16.9899 105.565789,15.3309 104.774138,14.0979 C105.142173,13.4604 105.643902,12.9489 106.497142,12.7584 C106.014941,12.6054 105.526732,12.4704 105.305911,12.0834 C105.103116,9.8889 106.793072,8.7969 105.968374,6.7869 C105.791116,6.3549 105.451623,5.9184 105.106121,5.5689 C104.656968,5.1099 104.251378,4.7424 104.243867,4.3479 C104.219832,3.5769 105.80764,2.4984 106.692426,2.3949 C108.254697,2.2269 109.503011,3.1824 110.207535,3.9204 C110.88502,4.6314 111.20799,5.5539 112.857387,5.3859 C113.928444,5.2719 115.07461,4.5324 116.300391,4.8969 C116.955343,5.0904 118.475553,6.8049 118.552164,7.4559 C118.696374,8.6619 117.48261,9.1479 117.625317,10.3824" id="Fill-25" fill="#FFFFFF"></path>
                <path d="M143.861852,22.56345 C143.616996,22.80945 143.391668,23.06445 143.199389,23.35545 C143.635022,24.04545 143.935459,24.78195 145.251371,24.51795 C145.523266,24.19395 145.741083,23.82945 145.984437,23.47845 C145.688507,23.22195 145.741083,22.64745 145.317467,22.50195 C144.893852,22.59045 144.324524,22.69245 143.861852,22.56345 M143.861852,16.59495 C143.266987,17.25495 143.638026,18.55545 143.926445,19.27695 C144.103703,18.59445 144.953939,16.95795 143.861852,16.59495 M143.731162,10.56345 C143.376646,11.16045 142.962044,11.99745 143.199389,12.93945 C143.601974,13.13595 144.0331,13.30695 144.658009,13.30395 C145.509747,12.78945 145.406096,11.68395 145.186777,10.56345 C144.716594,10.57545 144.151773,10.39395 143.731162,10.56345 M150.352786,10.25745 C150.130463,10.92045 150.566096,11.73795 150.352786,12.39045 C151.456891,12.62295 152.427301,12.44895 153.202428,12.75795 C154.805258,13.39695 155.649485,15.01845 155.652489,16.90095 C155.655493,18.28845 155.278445,19.79895 155.389607,21.34845 C155.424157,21.80295 155.565362,22.23795 155.587895,22.69095 C155.67352,24.38145 154.895389,26.34495 155.587895,27.80445 C155.25441,28.71945 154.707616,29.43045 154.261467,30.24345 C152.748769,30.22095 152.313135,31.81995 150.749362,31.58445 C150.309223,31.51695 149.697834,30.95895 149.293747,30.66795 C148.429991,30.05295 147.183179,29.29545 147.638341,27.86595 C148.18814,27.43995 148.97979,27.23295 149.890114,27.13395 C150.958166,25.80495 150.33476,23.14845 150.152996,20.86395 C150.019301,19.13445 150.089904,17.37645 149.361345,16.29045 C149.015843,16.32195 148.536646,16.22445 148.299301,16.35045 C148.194148,17.55195 148.234707,18.89145 147.838131,19.82595 C148.255738,20.37345 149.166061,20.63745 149.493537,21.34845 C149.754917,21.90795 149.528087,22.42695 149.428943,23.17695 C148.303808,23.88795 148.743948,25.62945 147.905729,26.52495 C146.58531,27.93195 143.535878,26.30595 142.071249,27.62295 C141.435825,27.35445 141.154917,26.75745 140.548035,26.46495 C140.926585,24.20895 138.210638,21.79695 140.615633,20.43195 C139.989223,19.60245 139.628699,18.53745 138.823528,17.87145 C138.898638,20.65845 139.146498,23.78445 139.421397,26.76945 C139.493502,27.53295 139.751878,28.39695 139.685782,28.96245 C139.613677,29.62995 138.566655,31.03245 137.898183,31.03395 C137.750969,31.03395 136.842148,30.55395 136.706952,30.42795 C136.559738,30.28845 136.612314,30.03945 136.439563,29.81445 C136.223249,29.51445 135.80414,29.28195 135.647913,29.02245 C134.757118,27.55395 135.431598,25.79145 135.580314,23.90745 C135.647913,23.06445 135.560786,22.06845 135.512716,21.10245 C135.469153,20.14845 135.665939,19.13295 135.512716,18.29745 C135.317432,17.21595 134.178777,16.24095 134.587371,14.76645 C135.484175,14.31345 136.91876,14.35245 137.566201,13.66845 C137.405467,13.08945 137.417485,12.34695 137.237223,11.78295 C136.163162,11.79345 135.330952,12.05445 134.653467,11.71995 C134.250882,11.52045 134.145729,11.03295 133.854306,10.68345 C133.366096,10.09095 132.627022,9.72195 132.135808,9.28245 C131.682148,8.29995 130.21752,6.84045 132.002114,6.23595 C134.087144,5.53245 139.089415,7.05495 140.352751,5.44545 C140.26262,4.37295 139.215598,4.08645 139.221607,3.06945 C139.232122,2.20095 140.095878,1.45845 141.278096,1.54095 C141.877467,1.58745 142.566969,1.87845 143.26248,1.96995 C144.55586,2.14395 145.876279,2.22645 146.577799,2.70345 C147.393485,3.15195 147.172664,5.12295 148.099511,5.44545 C148.461537,5.56845 149.571651,5.30295 150.352786,5.19945 C152.936541,4.86495 156.152716,4.54545 157.575284,6.17595 C157.872716,6.51195 158.306847,7.40445 158.23324,7.94295 C158.176157,8.39745 157.404035,9.02745 156.846725,9.52845 C156.46517,9.86895 155.831249,10.63395 155.05462,10.68345 C154.495808,10.72095 154.141293,10.32495 153.599004,10.19595 C153.218952,10.10145 152.789328,10.16445 152.406271,10.13745 C151.695738,10.07895 150.863528,9.73995 150.352786,10.25745" id="Fill-1" fill="#FFFFFF"></path>
                <path d="M177.782805,13.5525 C177.862421,14.5065 179.689076,14.8335 179.765687,13.6695 C179.294002,13.371 178.367155,13.2765 177.782805,13.5525 M183.545181,9.222 C184.22567,9.6675 184.991783,9.066 185.334281,8.6745 C186.214561,7.668 186.693757,5.8725 187.78284,5.1345 C188.606037,5.4945 189.614002,6.1485 189.642543,6.966 C189.66808,7.8855 188.434788,8.1435 188.183923,8.979 C189.384168,9.594 190.357583,8.6595 191.494735,8.9175 C192.429093,9.129 193.387486,11.034 193.21774,12.2685 C193.06001,13.4085 191.856762,14.823 190.701583,14.829 C190.129251,14.8335 189.226438,14.2245 188.648098,13.911 C187.949583,13.542 187.202997,13.0275 186.656203,12.939 C186.390316,12.8925 184.366875,12.9555 184.138543,13.2435 C183.369425,14.2335 185.406386,14.571 185.86305,15.1935 C186.046316,15.441 186.157478,16.0485 186.128936,16.5375 C185.463469,16.863 184.526107,17.13 183.811067,17.022 C183.35891,16.9515 183.068989,16.563 182.619836,16.5375 C181.928831,16.4865 181.072587,17.0175 180.235871,17.022 C179.504307,17.025 178.892919,16.734 178.63905,17.505 C179.226403,18.2955 181.218299,17.781 182.086561,18.2985 C182.975853,18.024 183.866648,18.501 183.741967,19.3965 C183.488098,21.297 179.275976,18.753 179.6365,21.102 C181.413583,20.97 184.058928,20.928 184.736412,22.1385 C185.053373,22.7055 184.733408,24.024 185.200587,24.333 C185.482997,24.5175 185.918631,24.3375 186.261128,24.3915 C187.751294,24.6495 188.858403,26.3835 188.844884,28.05 C188.338648,28.497 187.910526,29.0175 186.99119,29.085 C186.561565,29.313 186.478945,29.892 185.99374,29.94 C184.616238,30.0735 184.466019,27.3795 182.816622,27.558 C182.532709,27.0405 181.754578,26.9115 181.688482,26.3445 C181.632901,25.8315 182.341932,25.485 182.152657,24.882 C180.159259,24.6915 181.584831,27.498 181.29491,28.6575 C181.201775,29.0145 180.600901,29.2665 180.432657,29.6955 C180.183294,30.3015 180.316989,30.7305 180.235871,31.401 C178.57746,31.7655 177.805338,30.879 176.855958,30.243 C176.349722,29.904 175.726316,29.7345 175.464936,29.5125 C174.698823,28.8615 174.719853,27.591 174.53208,26.589 C175.074369,26.313 176.241565,26.6145 176.78836,26.3445 C176.893513,25.851 176.96712,24.8835 176.587067,24.6405 C173.172604,23.8725 172.706928,26.3445 172.616797,28.8405 C172.085024,29.2605 171.632866,29.9895 170.824692,30 C169.776168,30.0105 169.333024,28.4535 168.772709,27.684 C168.572919,27.414 168.286002,27.099 168.242438,26.8275 C167.967539,25.152 169.911364,25.107 170.824692,24.333 C170.291417,21.198 174.58015,22.503 176.391783,21.534 C176.543504,21.267 176.825914,21.1155 176.855958,20.7375 C176.342211,20.373 175.606141,20.2665 174.868569,20.4315 C174.527574,20.5035 174.218124,20.871 174.00181,20.865 C173.477548,20.817 173.211661,20.223 173.011871,19.8885 C174.058893,19.365 174.886596,18.6435 175.328238,17.5695 C174.716849,17.0685 173.282264,17.2635 172.616797,17.5695 C172.146613,17.2695 171.58029,17.0505 171.490159,16.5375 C171.275347,15.3 173.154578,14.898 173.674334,14.16 C173.123032,13.3335 171.374491,13.8075 170.159224,13.9755 C168.919923,14.1435 167.619032,14.4885 166.783818,14.829 C164.228604,14.427 164.462945,10.662 166.387242,9.5865 C167.226962,9.1185 168.186858,9.2415 169.236884,9.1005 C169.785181,7.77 167.901443,7.4355 168.110246,5.9325 C168.216901,5.1465 169.163277,3.963 169.897845,3.7995 C170.730054,3.6165 172.319364,4.2135 172.81208,4.5285 C174.085932,5.346 173.461024,7.9665 173.540639,9.528 C174.356325,9.867 175.045827,9.2655 175.464936,8.8545 C176.043277,6.96 173.636779,6.477 173.872622,4.6515 C173.932709,4.194 174.323277,3.9555 174.605687,3.5565 C174.933163,3.0765 174.987242,2.406 175.661722,2.337 C176.388779,2.2605 177.769286,3.4035 178.179382,3.7995 C178.487329,4.0905 179.074683,4.752 179.104727,5.2005 C179.16181,6.036 177.731731,8.1195 178.974037,9.039 C179.641006,8.706 179.950456,8.004 180.235871,7.3335 C180.485233,6.741 180.904342,5.958 181.024517,5.2635 C181.249845,4.0035 180.285443,2.31 181.822176,2.094 C182.938299,1.935 183.5587,2.817 184.207644,3.4935 C184.679329,3.99 185.323766,4.3605 185.400377,4.7745 C185.669268,6.1845 183.982316,6.603 183.741967,7.8195 C183.642823,8.3265 183.762997,8.6745 183.545181,9.222" id="Fill-5" fill="#FFFFFF"></path>
                <path d="M212.761296,16.7166 C212.016213,15.8316 213.480842,15.4536 214.485803,14.5866 C214.843322,14.2716 215.008562,13.6026 215.809226,13.7916 C215.996999,13.8381 216.33499,14.2431 216.407095,14.3406 C216.781139,14.8356 216.880283,15.6636 216.07361,16.0446 C215.753645,16.1961 215.363078,16.1046 215.011567,16.1661 C214.252964,16.3086 213.558955,16.8621 212.761296,16.7166" id="Fill-11" fill="#FFFFFF"></path>
                <path d="M217.135804,18.0606 C216.877429,18.6171 216.335141,18.9036 215.87397,19.2771 C215.477394,19.2771 215.255071,19.1151 215.011717,18.9696 C214.223071,19.5921 212.367874,20.2221 212.429464,18.4806 C213.722844,18.0456 215.525464,17.7561 216.604031,17.3271 C216.979577,17.3916 217.003612,17.7726 217.135804,18.0606" id="Fill-13" fill="#FFFFFF"></path>
                <path d="M222.4992,26.52525 C223.816615,26.82075 225.356353,26.43825 225.482536,25.24725 C224.717925,24.15225 221.710554,24.59625 222.4992,26.52525 M215.147514,23.35575 C215.186571,22.84125 214.674327,22.20675 214.154571,22.1977409 C213.415497,22.19325 212.372982,23.86425 212.892737,24.44925 C214.074955,24.53775 215.085925,24.14475 215.147514,23.35575 M222.637401,22.80975 C223.639357,22.70025 224.307829,23.21325 225.21665,22.99125 C225.559148,22.65675 225.284248,22.15725 225.21665,21.71325 C224.055462,21.38175 221.716562,21.23025 222.637401,22.80975 M218.590519,14.27925 C218.994606,14.23125 219.427235,14.65425 219.916947,14.58675 C221.402606,14.37525 219.969523,12.75225 219.254484,12.7582334 C218.719707,12.76275 217.866466,13.17825 217.004213,13.30425 C216.170501,13.42425 215.255672,13.52925 214.351357,13.48425 C214.068947,13.47225 213.655846,13.37625 213.42451,13.42425 C213.140597,13.49025 212.946816,13.80225 212.762047,13.91025 C212.502169,14.06625 212.16568,14.12325 211.833698,14.21625 C210.484737,14.60475 209.00058,14.49525 208.785768,13.30425 C208.474816,13.72575 207.54196,14.02875 207.65913,14.82975 C207.777803,15.62175 209.224405,15.44775 209.581925,16.22775 C209.829785,16.77825 209.616475,17.47125 209.648021,18.11925 C209.700597,19.16175 209.766693,20.22675 209.847811,21.34875 C210.379584,21.31725 210.7341,20.69925 211.369523,20.67525 C211.596353,20.66925 211.866746,20.84325 212.098082,20.86425 C213.8992,20.97975 216.021785,19.95375 217.866466,20.61825 C218.485366,20.14875 219.741191,19.37025 219.65106,18.54525 C219.583462,17.88525 218.590519,17.89725 218.195445,17.38575 C217.977628,16.52025 217.411305,14.42325 218.590519,14.27925 M223.691934,14.16075 C224.85913,14.49225 225.889628,13.42425 225.34734,12.57525 C224.201174,12.55125 224.023916,13.42425 223.691934,14.16075 M208.721174,4.04175 C209.532353,4.73625 210.094169,5.96625 210.779165,6.96675 C211.202781,7.60725 211.642921,7.92075 211.50472,8.91675 C211.378536,9.80475 210.648475,10.12575 210.37658,10.98825 C211.015008,11.16975 211.671462,10.70175 212.16568,10.44225 C212.602816,10.20975 213.370431,9.80025 213.489104,9.22125 C213.673872,8.34225 212.913768,6.80025 213.154117,5.81025 C213.257768,5.41575 214.070449,4.70475 214.415951,4.71225 C214.792999,4.72275 215.287217,5.54175 215.544091,5.75175 C216.226082,6.30825 218.820353,7.58625 219.057698,8.61525 C219.227445,9.37125 218.617558,10.22175 219.12079,10.80525 C219.723165,10.29825 220.520824,9.86775 220.776196,8.97975 C220.849803,8.72025 220.776196,8.41875 220.843794,8.12775 C220.99251,7.45725 221.633942,6.56775 222.171724,6.17625 C222.662938,5.81025 223.465104,5.85075 223.825628,5.32275 C224.672859,5.43225 225.288755,5.76525 226.212597,5.81025 C226.460458,6.46125 226.993733,6.71175 227.071846,7.39575 C227.131934,7.93275 226.507025,8.46825 227.00575,8.97975 C227.210047,9.18825 227.797401,9.20775 228.000196,9.34425 C229.265034,10.17525 227.552545,11.63925 227.798903,12.81375 C227.925086,13.39875 229.123829,14.58825 230.185872,14.58675 C230.746187,15.36525 231.893855,15.61425 232.041069,16.77825 C231.564877,17.23125 230.740178,17.36625 230.185872,17.75325 C228.72575,17.52525 226.756388,17.58225 225.679322,18.11925 C225.242187,18.33675 224.692388,18.73725 224.886169,19.33725 C226.042851,19.59225 227.345244,19.08075 228.399776,19.45725 C229.170397,19.73325 230.179864,20.71725 229.918484,21.77325 C229.799811,22.25475 229.290571,22.37475 229.057733,22.87125 C229.051724,24.30525 230.007113,25.55325 229.658606,27.19575 C229.463322,28.08825 228.108353,29.60775 227.071846,29.45025 C226.624196,29.37975 226.356807,28.71675 225.813017,28.47375 C224.612772,27.94575 222.948353,28.12875 221.510763,28.41675 C221.072126,28.16475 220.722117,27.76875 220.378117,27.44025 C220.097209,27.17325 219.494833,26.78775 219.38968,26.40375 C219.140318,25.55325 219.672091,24.40875 219.52037,23.54175 C219.409209,22.90125 219.014134,22.55625 218.327637,22.25925 C216.992196,22.91775 218.039217,25.38825 216.801418,26.10075 C216.051829,26.52975 214.629261,26.31525 213.690397,26.58825 C213.215707,26.72475 212.975357,26.95875 212.631357,27.19575 C210.911357,26.30325 211.055567,23.68875 209.913907,22.25925 C209.320545,24.01425 210.325506,26.31525 209.712615,27.86625 C209.355095,28.77075 208.348632,28.87125 207.593034,29.45025 C204.925156,28.51425 205.848999,24.54825 206.005226,21.28575 C206.071322,19.82925 206.526484,18.41475 206.268108,17.20275 C204.771934,17.35275 204.162047,18.60525 203.023392,19.33725 C202.706431,19.53675 202.257279,19.81275 202.031951,19.82625 C201.135148,19.87275 200.178257,18.41925 200.372038,17.50575 C200.459165,17.08725 201.189226,16.52175 201.564772,16.04475 C204.153034,12.77475 206.343217,8.05425 207.925017,4.10175 C208.169872,4.06275 208.405715,4.01775 208.721174,4.04175" id="Fill-15" fill="#FFFFFF"></path>
                <path d="M249.397597,27.01305 C249.250383,27.75555 250.183238,28.46355 250.525736,27.68505 C250.358994,27.27855 250.031518,26.60805 249.397597,27.01305 M248.135762,24.51705 C248.331046,24.74505 248.723116,24.79155 249.133212,24.82005 C249.430645,24.58455 249.576356,24.21255 249.597387,23.72355 C248.873334,23.53155 248.218383,23.91105 248.135762,24.51705 M253.572164,23.84205 C253.226662,24.20205 253.402417,24.96555 253.639762,25.30755 C254.282697,25.36755 254.476479,25.02255 255.095378,25.06305 C255.5235,26.26905 254.114452,26.67255 253.971745,27.74655 C254.420898,27.65055 255.015762,27.54255 255.427361,27.74655 C256.7613,26.97705 256.22502,24.20805 255.22757,23.47905 C254.596653,23.53155 254.027326,23.63505 253.572164,23.84205 M253.971745,20.73705 C253.226662,21.33255 251.641859,21.15555 250.393544,21.28605 C250.318435,21.70755 249.953404,21.85455 249.995466,22.38555 C250.573806,22.67205 251.796583,22.78905 252.377928,22.62855 C252.849614,22.49205 253.104985,21.82305 253.639762,21.59205 C254.300723,21.30405 254.873055,21.71355 255.298173,21.10305 C254.853527,20.98155 254.293212,20.96955 253.971745,20.73705 M251.518679,19.39605 C252.220199,19.45605 252.849614,19.40355 253.244688,19.02855 C252.896182,18.97605 252.930732,18.39705 253.043396,18.11955 C252.069981,17.62005 251.665893,18.94155 251.518679,19.39605 M247.609998,15.62055 C247.902924,15.44205 248.179326,15.25305 248.206365,14.82855 C247.453771,13.91055 246.354173,15.31005 247.609998,15.62055 M251.119099,14.82855 C251.233265,15.48105 250.567797,15.41205 250.653422,16.04505 C251.894225,17.08305 253.599203,15.99405 253.504566,14.52555 C252.676863,13.49205 251.933282,14.48805 251.119099,14.82855 M252.445527,7.57905 C253.268723,7.89105 254.449439,7.69305 254.963186,7.20555 C255.015762,6.50055 255.233579,6.03555 255.095378,5.38605 C255.015762,5.01855 254.586138,4.76505 254.56661,4.46955 C254.554592,4.24755 254.830994,3.82905 254.963186,3.68055 C255.391308,3.17205 256.298627,2.63355 257.148863,2.46255 C257.826348,3.34155 259.466732,3.65655 259.268444,5.13555 C259.588409,5.79105 260.64895,5.41905 261.194243,5.81055 C261.418068,5.97405 261.949841,7.04505 261.855203,7.45605 C261.593824,8.55255 259.633474,7.83555 258.343099,8.18805 C257.988583,8.28405 257.787291,8.70405 257.416252,8.91705 C256.776321,9.28905 256.001195,9.35505 255.298173,9.40455 C255.215553,9.63855 255.194522,10.17405 255.22757,10.32105 C257.794802,10.10205 261.212269,10.08855 263.181631,9.28305 C264.351832,9.65055 264.967728,10.54905 265.762383,11.47905 C266.019256,11.77755 266.432356,12.08655 266.490941,12.33255 C266.64116,12.95805 266.250592,13.34205 265.762383,13.73505 C265.440915,13.98855 264.852059,14.52555 264.505055,14.58555 C263.817055,14.70105 262.076024,14.25105 261.194243,14.16105 C259.975972,14.02905 258.804269,13.89705 257.812828,14.09805 C257.641579,14.61405 258.035151,14.68005 258.014121,15.01005 C257.97957,15.43605 257.333631,15.81255 256.885981,16.22805 C256.584042,16.50705 255.706767,17.24355 255.693247,17.38605 C255.670714,17.64705 256.626103,18.31305 256.885981,18.48105 C257.299081,18.76005 258.08923,18.96555 258.404688,19.27755 C259.023588,19.87305 258.61199,20.68305 258.343099,21.59205 C259.45171,21.95205 260.471693,22.39305 260.99295,23.29155 C260.584356,24.95055 260.162243,26.72955 259.732618,28.41705 C259.588409,28.97805 259.565876,29.68905 259.33454,30.11805 C259.124234,30.52005 258.011116,31.43355 257.479343,31.40055 C257.090278,31.37505 256.735762,30.81705 256.35571,30.60855 C255.75033,30.27555 254.721334,29.95605 253.572164,29.94105 C252.687378,29.92605 252.304321,30.22905 251.383483,30.30105 C251.180688,30.32205 250.884758,30.21855 250.59033,30.24405 C249.758121,30.32205 248.509806,31.12605 247.609998,30.85305 C247.202907,30.73005 246.656112,30.03105 246.549457,29.57505 C246.424776,29.02155 246.731221,28.49355 246.614051,27.92655 C246.559972,27.65655 246.215972,27.48855 246.020688,27.13455 C245.718749,26.59305 245.759308,25.55355 245.556514,24.69405 C245.43033,24.17805 245.132898,23.78505 245.355221,23.11155 C245.53999,22.57605 246.061247,22.32555 246.549457,21.83505 C246.565981,21.45105 246.116828,21.50055 246.020688,21.22305 C246.492374,20.66955 246.354173,19.89105 246.876933,19.45605 C247.335099,19.07955 248.114732,19.18755 248.406155,18.60405 C247.787256,18.54555 247.305055,18.71355 246.876933,18.54555 C246.520915,18.40455 245.655658,17.22405 245.62261,16.77855 C245.571535,16.09305 246.599029,15.32355 245.355221,15.13155 C244.749841,15.04005 243.656252,15.35505 242.971256,15.86505 C242.487553,15.74355 241.916723,15.70005 241.380444,15.62055 C240.880217,14.62005 240.162173,13.81455 239.263867,13.18305 C239.196269,12.89955 239.211291,12.57105 239.326959,12.26805 C239.501212,11.82405 240.159169,10.89255 240.522697,10.74405 C241.140094,10.49205 242.133038,10.93005 242.906662,10.98855 C244.936112,11.14155 247.42523,10.33755 249.067116,10.19655 C249.133212,9.54855 247.728671,9.02655 247.015134,9.46755 C245.708234,9.10455 244.876024,8.30055 244.166994,7.39455 C244.275151,7.13055 244.333736,6.82005 244.297684,6.41955 C246.577998,6.71055 245.62261,4.51155 246.215972,3.13005 C246.406749,2.69355 247.237457,1.81455 248.006575,1.97055 C248.742645,2.12655 249.172269,3.43605 249.729579,3.68055 C250.151693,3.85905 250.563291,3.82905 250.923815,3.98355 C252.184147,4.51905 252.410976,5.68605 252.445527,7.57905" id="Fill-3" fill="#FFFFFF"></path>
                <path d="M292.52378,19.58115 C292.397597,20.82465 291.572898,22.34865 292.329998,23.47965 C294.18219,22.74315 294.855169,20.92665 295.442522,19.02915 C294.545719,18.42765 293.091605,18.97965 292.52378,19.58115 M292.591378,15.98715 C292.719064,16.58415 293.11564,16.92765 293.455134,17.32665 C294.57426,17.21565 295.254749,16.37715 295.112042,15.31515 C294.16116,15.26565 292.948898,15.20265 292.591378,15.98715 M287.426872,7.27665 C288.983134,6.80415 289.618557,7.51665 290.208915,8.43015 C290.455273,8.81415 290.734679,9.33915 290.739186,9.77265 C290.745195,10.45365 290.082732,11.83665 289.417265,11.96415 C288.935064,12.05415 288.688706,11.70765 288.221527,11.59815 C287.946627,11.53365 287.685247,11.60565 287.491466,11.53665 C286.650243,11.26665 285.82254,9.84465 284.975308,9.83115 C284.058976,9.81915 283.767553,11.05515 283.516688,11.59815 C284.933247,12.33615 286.540583,10.70415 287.293177,11.96415 C287.434383,12.20265 287.634173,12.64365 287.623658,12.87915 C287.568077,14.27865 285.235186,14.04315 285.302784,15.49365 C285.784985,15.81315 286.734365,15.48165 287.426872,15.67965 C288.220024,16.68165 287.937614,17.76465 287.159483,18.54615 C286.312252,19.39065 284.3504,19.65015 285.172094,21.28515 C286.3453,21.07365 286.629212,19.12515 288.153928,20.00565 C288.25157,20.78715 288.212514,21.69615 288.421317,22.38465 C288.29964,22.94865 286.268688,23.46315 287.228583,24.21165 C287.57709,24.48465 288.189981,24.32865 288.421317,24.21165 C288.941072,23.95065 289.445806,22.95165 289.546452,22.19865 C289.585509,21.90015 289.463832,21.55065 289.480356,21.22365 C289.495378,20.95065 289.624566,20.72265 289.611046,20.49465 C289.584007,19.68015 289.005666,19.09065 289.148374,18.29865 C289.217474,17.91465 289.630575,17.55915 289.677142,17.20365 C289.882941,15.53565 289.879937,13.74315 289.879937,12.14865 C290.94799,11.32365 292.714557,12.20565 293.256845,12.99615 C294.529195,12.86565 294.769544,13.68315 295.374924,14.16015 C295.627291,13.66965 295.942749,12.92565 295.708409,12.45165 C295.27578,11.59515 293.76909,12.47715 292.791169,12.14865 C292.513265,11.70765 292.314976,11.10315 292.194802,10.38165 C292.101666,9.81015 291.880845,8.76765 292.065614,8.37315 C292.274417,7.90815 292.911343,7.96665 293.52123,7.81965 C294.010941,7.70265 294.745509,7.34115 295.513125,7.02765 C296.09447,6.78915 297.09192,6.27915 297.628199,6.35715 C298.042802,6.42315 298.244094,6.89265 298.61964,7.27665 C299.60357,8.26365 300.946522,9.05265 301.53688,10.25715 C301.090732,11.65815 300.465824,13.00815 300.013666,14.46165 C299.570522,15.89715 299.086819,17.33115 298.491955,18.66465 C299.173946,19.85415 298.365771,21.42465 298.15847,22.32465 C300.189422,22.44765 301.296531,23.41965 302.731116,24.09165 C303.202802,25.16865 304.255832,26.89815 303.525771,28.35165 C303.241859,28.91715 302.456217,29.73465 301.670575,29.75415 C300.163885,29.79765 299.911518,27.93165 299.019221,27.07665 C298.576077,26.65065 297.809963,26.19015 297.096426,25.73565 C296.421946,25.30065 295.481579,24.40815 294.713963,24.69315 C294.062016,24.94215 293.614365,26.88165 293.256845,27.62265 C292.68902,28.80615 292.146732,29.50215 291.267955,30.05565 C289.590016,29.51265 289.023693,27.93915 288.024741,26.76915 C287.45992,27.22515 286.860548,28.32165 285.769963,28.47465 C284.846121,28.60665 283.722487,28.27815 282.725038,28.35165 C281.738103,28.43115 280.844304,28.92465 280.204374,29.32965 C279.58247,29.72565 278.588024,30.65415 277.951099,30.6693001 C275.972723,30.69465 277.522976,27.46515 276.827466,26.22315 C277.132409,25.09515 279.69964,25.71915 279.669597,24.44865 C279.660583,23.83815 279.106278,23.77065 278.816356,23.29215 C279.124304,22.07865 279.474313,19.71915 280.999029,19.94565 C281.448182,20.01165 282.044548,20.88315 282.32095,21.22365 C282.89178,20.95665 282.676968,20.26965 282.32095,19.94565 C282.03854,19.77015 281.721579,19.94565 281.331011,19.76115 C280.665544,19.44615 279.854365,18.00015 280.069177,17.26365 C280.293003,16.48965 282.360007,16.34715 282.725038,15.61965 C282.597352,14.92665 281.617928,15.00765 281.266417,14.52465 C280.398155,15.63465 279.280531,17.52615 277.8835,18.54615 C277.308164,18.96615 276.104915,19.56765 275.301247,19.45665 C274.173107,19.29615 274.152077,17.94615 273.650348,17.08365 C273.808077,16.00515 273.799064,15.13065 274.440496,14.58615 C274.871623,14.21565 275.397387,14.01165 275.766924,13.73565 C277.652164,12.29115 278.948548,9.65115 279.872391,7.20615 C280.243431,6.22815 280.333562,5.10465 280.802243,3.98415 C281.15826,3.12615 282.48619,2.76765 283.716479,2.82765 C284.2813,3.27615 284.7635,3.80865 285.236688,4.34865 C285.878121,4.64865 286.555605,4.63065 286.830505,5.20065 C287.109911,5.77815 286.503029,6.90915 287.426872,7.27665" id="Fill-7" fill="#FFFFFF"></path>
                <path d="M322.404611,9.65025 C319.17041,9.41775 318.240559,11.62275 316.708332,12.75825 C315.852087,12.75825 315.48255,12.06525 315.182114,11.41275 C314.723948,10.40775 314.055476,9.34425 314.722445,8.18775 C315.467528,6.88575 317.469939,6.00825 318.100856,4.16625 C318.498934,3.00225 318.419319,2.04525 319.82386,2.03175 C320.843843,2.02125 320.947493,2.69325 321.611459,3.18975 C322.209328,3.64425 322.892821,3.72675 323.134672,4.22775 C323.343476,4.65225 323.329956,5.49675 323.334463,6.29625 C323.343476,7.93275 323.582323,9.07575 322.404611,9.65025" id="Fill-17" fill="#FFFFFF"></path>
                <path d="M334.197652,3.4356 C335.292744,4.3731 336.697286,4.8666 336.9827,6.7266 C337.236569,8.4036 336.994718,9.0066 335.722369,9.7071 C335.121495,10.0386 334.582211,10.5081 334.068465,10.6836 C332.522718,11.2176 329.82029,10.7856 328.635067,9.9546 C328.226473,9.6666 327.897495,9.1941 327.506928,8.7981 C326.919574,8.1951 326.438875,7.8651 326.58008,6.8466 C326.785879,5.3601 328.943015,3.6381 330.620954,3.4356 C331.900814,3.2766 333.009425,3.4551 334.197652,3.4356" id="Fill-19" fill="#FFFFFF"></path>
                <path d="M326.114554,13.3035 C327.613733,13.065 329.629663,13.2675 331.282065,13.182 C332.214921,13.1355 333.032108,12.8805 333.934921,12.6975 C334.82872,12.5085 335.746554,12.4605 336.58327,12.2685 C338.273226,11.88 339.958676,11.3175 341.882973,11.478 C342.634065,12.492 341.665156,13.8615 341.749279,15.1305 C341.795846,15.8205 342.354659,16.3905 342.279549,17.022 C342.186414,17.8215 341.294117,18.2325 340.823934,18.7305 C339.198571,18.768 337.286292,18.084 336.054501,18.849 C335.995916,21.3705 335.872737,23.7375 335.459637,26.1 C335.291392,27.0555 335.133663,28.329 334.661977,29.2665 C334.256388,30.0735 333.431689,31.131 332.60699,31.278 C331.937017,31.401 330.485907,31.2915 330.026239,31.035 C329.526012,30.7635 329.264632,29.709 328.435427,29.3925 C328.010309,29.226 327.526606,29.3445 327.1781,29.2065 C326.769506,29.0475 325.90575,27.8685 325.851672,27.441 C325.779567,26.8515 326.1461,26.544 326.515637,26.223 C328.91913,27.1365 330.527969,25.4265 330.685698,23.0535 C330.793855,21.4665 330.849436,19.59 330.289121,19.029 C329.027287,18.6645 327.597209,19.314 326.515637,18.9705 C326.105541,18.8415 325.693942,17.988 325.452091,17.631 C325.091567,17.085 324.806152,16.653 324.328458,16.3515 C323.168772,17.0505 321.638047,17.409 320.883951,18.4815 C320.768283,21.606 321.579462,25.6155 320.419776,27.984 C320.14037,28.5495 319.553017,29.5095 318.698274,29.5125 C317.905121,29.5125 317.017331,28.416 316.577191,27.684 C315.790047,26.379 316.147567,24.435 316.377401,22.692 C315.581244,23.0505 314.317907,23.5785 313.463165,24.153 C313.10865,24.3855 312.76465,24.903 312.335025,24.942 C311.683078,25.002 310.667602,24.0225 310.479829,23.541 C310.063724,22.4655 311.022117,20.7285 311.541872,20.127 C311.842309,19.776 312.471724,19.461 312.92989,19.0905 C315.842624,16.779 319.219532,13.779 321.013139,10.563 C323.625436,9.129 324.798641,12.159 326.114554,13.3035" id="Fill-21" fill="#FFFFFF"></path>
                <path d="M335.746704,38.3025 C335.590477,39.8445 335.725673,41.6505 335.680608,43.299 C339.706459,44.2215 339.698948,37.4505 335.746704,38.3025 M333.960608,36.7785 C335.901429,36.837 337.606407,36.582 338.797638,37.2645 C341.123018,38.6055 341.178599,43.353 338.39956,44.517 C337.139228,45.039 335.82632,44.7255 333.89301,44.8185 L333.89301,36.9585 C333.890005,36.876 333.880992,36.7875 333.960608,36.7785" id="Fill-31" fill="#FFFFFF"></path>
                <path d="M153.36196,43.4829 C156.142501,43.7919 156.064388,37.5639 153.228266,38.1819 C151.224353,38.6109 151.328003,43.2549 153.36196,43.4829 M153.160667,36.6564 C154.114554,36.5544 155.209645,36.7959 155.815025,37.2639 C157.580091,38.6439 157.79941,42.7734 155.815025,44.3289 C154.813069,45.1164 152.552283,45.2574 151.373069,44.3289 C149.816807,43.1139 149.632038,39.8874 150.512318,38.3019 C151.044091,37.3404 151.811707,36.8049 153.160667,36.6564" id="Fill-33" fill="#FFFFFF"></path>
                <path d="M86.6424838,37.14315 L86.6424838,38.97015 C86.0025537,38.74065 85.5098376,38.16315 84.5935057,38.05965 C83.8078638,37.96665 82.7172786,38.14215 82.8044052,38.97015 C82.8960384,39.83415 85.7742218,40.00365 86.4487022,40.80165 C86.7100821,41.10765 86.8708157,41.54865 86.9098725,42.01965 C87.1502218,44.95365 83.4848943,45.65415 80.8816105,44.39565 L80.8816105,42.44715 C81.590641,42.75015 82.2440908,43.43415 83.2655755,43.54365 C84.0452087,43.62165 84.9930865,43.47765 85.0576803,42.80715 C85.1493135,41.86365 84.1083004,41.89665 83.4007721,41.71365 C81.9887197,41.35215 80.9356891,40.68915 80.9477066,39.15915 C80.9657328,36.77865 84.2014358,35.93715 86.6424838,37.14315" id="Fill-35" fill="#FFFFFF"></path>
                <path d="M117.915539,37.26465 L117.915539,39.15915 C116.942124,38.62515 115.884587,37.75515 114.535626,38.23965 C112.255312,39.06315 112.590299,44.19615 115.995748,43.54365 C116.150473,43.11465 116.016779,42.42465 116.060342,41.89665 L114.670823,41.89665 L114.670823,40.37265 L117.915539,40.37265 L117.915539,44.39565 C116.375801,45.12165 113.906211,45.23265 112.684936,44.27115 C111.002491,42.95265 110.804203,39.48315 112.217757,37.81215 C113.42401,36.39915 116.027294,36.25365 117.915539,37.26465" id="Fill-37" fill="#FFFFFF"></path>
                <path d="M149.120996,37.26465 L149.120996,39.21615 C148.363895,38.93415 148.111528,38.25465 147.331895,38.11965 C143.914428,37.52565 144.168297,44.56515 147.662376,43.36065 C148.282777,43.14315 148.503598,42.60915 149.120996,42.38415 L149.120996,44.21415 C148.225694,45.00015 146.40655,45.29565 145.080122,44.70165 C142.637572,43.60215 142.440786,39.14415 144.285467,37.45065 C145.324978,36.49065 147.788559,36.28815 149.120996,37.26465" id="Fill-39" fill="#FFFFFF"></path>
                <path d="M196.420695,37.26465 L196.420695,39.21615 C195.662093,38.93415 195.41273,38.25465 194.636101,38.11965 C191.218634,37.52565 191.469499,44.56515 194.968084,43.36065 C195.583979,43.14315 195.803298,42.60915 196.420695,42.38415 L196.420695,44.21415 C195.653079,44.74065 194.968084,45.08715 193.704748,45.00765 C190.179123,44.76465 189.313866,39.54165 191.586669,37.45065 C192.629184,36.49065 195.088259,36.29565 196.420695,37.26465" id="Fill-41" fill="#FFFFFF"></path>
                <path d="M223.71672,43.1775 C222.985156,42.5505 222.3963,41.7915 221.669244,41.166 C220.586169,42.531 222.463899,44.523 223.71672,43.1775 M222.52699,39.7035 C222.968632,39.378 223.21499,38.2815 222.722274,37.812 C221.137471,37.3695 221.616667,39.591 222.52699,39.7035 M223.187951,40.3725 C223.593541,40.956 224.125314,41.424 224.646571,41.8965 L224.646571,40.128 L226.435672,40.128 C226.477733,41.3505 226.271934,42.3315 225.708615,42.9915 C226.258414,43.6215 226.949418,44.124 227.428615,44.8185 C226.237383,44.814 224.828335,45.018 224.578973,44.1525 C223.577017,45.09 221.404859,45.378 220.272213,44.3295 C219.1621,43.3095 219.339357,40.9965 220.805488,40.3725 C219.943235,39.708 219.441506,38.0265 220.473506,37.143 C221.627183,36.1515 224.56996,36.4485 224.778763,38.1195 C224.904947,39.1485 224.301069,40.0425 223.187951,40.3725" id="Fill-43" fill="#FFFFFF"></path>
                <path d="M236.771294,37.14315 L236.771294,38.97015 C235.958613,38.58615 234.887556,37.72515 233.592674,38.11965 C233.208115,38.23665 232.882141,38.52915 232.925705,38.97015 C233.023347,39.89865 236.006683,39.89865 236.703696,40.98165 C236.883958,41.25615 236.999626,41.62215 237.032674,42.01965 C237.29105,44.95065 233.600185,45.65415 231.007417,44.39565 L231.007417,42.44715 C231.705932,42.75915 232.371399,43.42965 233.389879,43.54365 C234.16801,43.62315 235.114386,43.47615 235.17898,42.80715 C235.270613,41.86365 234.231102,41.89665 233.525076,41.71365 C232.081478,41.34615 230.95484,40.59615 231.07201,38.97015 C231.237251,36.67065 234.441408,36.00465 236.771294,37.14315" id="Fill-45" fill="#FFFFFF"></path>
                <path d="M272.546543,37.26465 L272.546543,39.15915 C271.573128,38.62515 270.514089,37.75515 269.166631,38.23965 C266.88181,39.06315 267.228814,44.19165 270.622246,43.54365 C270.776971,43.11465 270.644779,42.42465 270.691347,41.89665 L269.300325,41.89665 L269.300325,40.37265 L272.546543,40.37265 L272.546543,44.39565 C270.8656,45.22365 268.29236,45.17265 267.114648,44.09115 C264.672098,41.84865 265.95346,36.86265 269.432517,36.59715 C270.683836,36.50115 271.54008,36.84015 272.546543,37.26465" id="Fill-47" fill="#FFFFFF"></path>
                <path d="M279.502854,37.14315 L279.502854,38.97015 C278.862924,38.74065 278.364199,38.16315 277.446365,38.05965 C276.660723,37.96665 275.570138,38.14215 275.658767,38.97015 C275.747396,39.83415 278.625579,40.00365 279.300059,40.80165 C279.570452,41.10765 279.725177,41.54865 279.767238,42.01965 C280.003081,44.95515 276.340758,45.65415 273.737474,44.39565 L273.737474,42.44715 C274.440496,42.75765 275.095448,43.43415 276.125946,43.54365 C276.898068,43.62165 277.844444,43.47765 277.912042,42.80715 C278.030714,41.61165 275.221631,41.71365 274.398435,40.85865 C274.022889,40.46565 273.799064,39.82065 273.805072,39.15915 C273.826103,36.64065 277.108374,36.03315 279.502854,37.14315" id="Fill-49" fill="#FFFFFF"></path>
                <path d="M62.3317485,36.7791 L62.3317485,38.3031 L60.2106655,38.3031 C60.058945,40.3536 60.1866306,42.6711 60.149076,44.8191 L58.3584734,44.8191 L58.3584734,38.3031 L56.1727965,38.3031 L56.1727965,36.7791 L62.3317485,36.7791 Z" id="Fill-51" fill="#FFFFFF"></path>
                <path d="M65.1806393,36.7791 L65.1806393,39.7041 L67.8304908,39.7041 C67.9837135,38.8476 67.8515214,37.7301 67.8980891,36.7791 L69.6871895,36.7791 L69.6871895,44.8191 L67.8980891,44.8191 L67.8980891,41.2221 L65.2452332,41.2221 C65.0920105,42.2991 65.2257048,43.6416 65.1806393,44.8191 L63.3945432,44.8191 L63.3945432,36.7791 L65.1806393,36.7791 Z" id="Fill-53" fill="#FFFFFF"></path>
                <path d="M76.5116087,36.7791 L76.5116087,38.3031 L73.2653904,38.3031 C73.1076611,38.6451 73.2383511,39.2571 73.1977921,39.7041 L76.2412157,39.7041 L76.2412157,41.2221 L73.1977921,41.2221 L73.1977921,43.2336 C74.1727092,43.3806 75.4270323,43.2576 76.5116087,43.2981 L76.5116087,44.8191 L71.4101939,44.8191 L71.4101939,36.7791 L76.5116087,36.7791 Z" id="Fill-55" fill="#FFFFFF"></path>
                <path d="M89.8272629,36.7791 L89.8272629,39.7041 L92.4786166,39.7041 C92.6288349,38.8476 92.498145,37.7301 92.5417083,36.7791 L94.3293066,36.7791 L94.3293066,44.8191 L92.5417083,44.8191 L92.5417083,41.2221 L89.893359,41.2221 C89.7371319,42.2991 89.8708262,43.6416 89.8272629,44.8191 L88.0381624,44.8191 L88.0381624,36.7791 L89.8272629,36.7791 Z" id="Fill-57" fill="#FFFFFF"></path>
                <path d="M98.1054952,41.7141 L99.8330061,41.7141 C99.4995214,40.7961 99.3823511,39.6861 98.898648,38.9136 C98.6733205,39.8766 98.3563598,40.7661 98.1054952,41.7141 L98.1054952,41.7141 Z M100.026788,36.7791 C100.896552,39.4341 101.70022,42.1416 102.61505,44.7621 C102.12684,44.9031 101.353216,44.7801 100.755347,44.8191 C100.62015,44.2611 100.414351,43.7601 100.295679,43.1781 L97.7089188,43.1781 C97.4685694,43.6626 97.3604122,44.2791 97.178648,44.8191 L95.3910498,44.8191 C96.3073817,42.1731 97.0524646,39.3666 98.0409013,36.7791 L100.026788,36.7791 Z" id="Fill-59" fill="#FFFFFF"></path>
                <path d="M105.660426,36.7791 C106.528688,38.3136 107.464548,39.7926 108.310278,41.3496 C108.465003,39.9471 108.33281,38.2806 108.374872,36.7791 L109.967186,36.7791 L109.967186,44.8191 L108.310278,44.8191 C107.264758,42.9981 106.192199,41.2041 105.193247,39.3396 C105.040024,41.0436 105.178225,43.0086 105.128653,44.8191 L103.537841,44.8191 L103.537841,36.7791 L105.660426,36.7791 Z" id="Fill-61" fill="#FFFFFF"></path>
                <path d="M121.229355,36.7791 L121.229355,39.7041 L123.877705,39.7041 C124.03243,38.8476 123.900238,37.7301 123.943801,36.7791 L125.734403,36.7791 L125.734403,44.8191 L123.943801,44.8191 L123.943801,41.2221 L121.298456,41.2221 C121.142229,42.2991 121.269914,43.6416 121.229355,44.8191 L119.441757,44.8191 L119.441757,36.7791 L121.229355,36.7791 Z" id="Fill-63" fill="#FFFFFF"></path>
                <path d="M129.511944,41.7141 L131.234948,41.7141 C130.910477,40.7946 130.785796,39.6906 130.305097,38.9136 C130.075263,39.8796 129.7568,40.7631 129.511944,41.7141 L129.511944,41.7141 Z M131.430232,36.7791 C132.299997,39.4311 133.106669,42.1416 134.01549,44.7621 C133.52728,44.9031 132.758162,44.7801 132.160293,44.8191 C132.019088,44.2611 131.814791,43.7601 131.694617,43.1781 L129.113866,43.1781 C128.870512,43.6626 128.766861,44.2791 128.58059,44.8191 L126.792992,44.8191 C127.710826,42.1701 128.461918,39.3711 129.442844,36.7791 L131.430232,36.7791 Z" id="Fill-65" fill="#FFFFFF"></path>
                <path d="M138.718676,36.7791 L138.718676,38.2401 L137.596545,38.2401 L137.596545,43.2981 C137.836894,43.4376 138.367165,43.3191 138.718676,43.3611 L138.718676,44.8191 L134.677803,44.8191 L134.677803,43.3611 L135.80444,43.3611 L135.80444,38.3031 C135.559584,38.1636 135.032318,38.2806 134.677803,38.2401 L134.677803,36.7791 L138.718676,36.7791 Z" id="Fill-67" fill="#FFFFFF"></path>
                <path d="M160.714547,36.7791 C161.190739,38.1426 161.778093,39.4146 162.236259,40.8021 C162.898721,39.5631 163.284783,38.0646 163.891665,36.7791 L165.946652,36.7791 L165.946652,44.8191 L164.159053,44.8191 L164.159053,39.5181 C163.649813,40.5951 163.304311,41.8191 162.832625,42.9306 L161.641394,42.9306 C161.193743,41.8191 160.780643,40.6791 160.382564,39.5181 C160.227839,41.1666 160.361534,43.0761 160.313464,44.8191 L158.594966,44.8191 L158.594966,36.7791 L160.714547,36.7791 Z" id="Fill-69" fill="#FFFFFF"></path>
                <path d="M169.790739,36.7791 C170.265429,38.1486 170.855787,39.4116 171.313953,40.8021 C171.976416,39.5631 172.362477,38.0646 172.967857,36.7791 L175.021341,36.7791 L175.021341,44.8191 L173.235245,44.8191 L173.235245,39.5181 C172.71549,40.5876 172.392521,41.8356 171.91032,42.9306 L170.717586,42.9306 C170.271438,41.8191 169.856835,40.6791 169.458756,39.5181 C169.307036,41.1666 169.436224,43.0761 169.391158,44.8191 L167.67266,44.8191 L167.67266,36.7791 L169.790739,36.7791 Z" id="Fill-71" fill="#FFFFFF"></path>
                <path d="M181.846362,36.7791 L181.846362,38.3031 L178.601645,38.3031 C178.448423,38.6451 178.580615,39.2571 178.534047,39.7041 L181.584982,39.7041 L181.584982,41.2221 L178.534047,41.2221 L178.534047,43.2336 C179.510466,43.3806 180.763287,43.2576 181.846362,43.2981 L181.846362,44.8191 L176.746449,44.8191 L176.746449,36.7791 L181.846362,36.7791 Z" id="Fill-73" fill="#FFFFFF"></path>
                <path d="M185.095584,38.24025 L185.095584,40.43475 C187.898659,41.20875 188.003811,37.42875 185.095584,38.24025 M187.743934,41.40825 C188.448458,42.59025 189.319724,43.61775 189.998711,44.81925 L187.81003,44.81925 C187.574187,44.40225 187.215165,43.96875 186.817086,43.36125 C186.45506,42.80325 186.246257,41.72325 185.160178,41.89725 C185.005453,42.74925 185.136143,43.86675 185.095584,44.81925 L183.306484,44.81925 L183.306484,36.77925 C186.153121,36.74325 188.882589,36.44925 189.136458,38.66625 C189.271654,39.87225 188.735375,40.82025 187.743934,41.40825" id="Fill-75" fill="#FFFFFF"></path>
                <path d="M201.524363,36.7791 L201.524363,38.2401 L200.40073,38.2401 L200.40073,43.2981 C200.644084,43.4376 201.169848,43.3191 201.524363,43.3611 L201.524363,44.8191 L197.481988,44.8191 L197.481988,43.3611 L198.608625,43.3611 L198.608625,38.3031 C198.365272,38.1636 197.836503,38.2806 197.481988,38.2401 L197.481988,36.7791 L201.524363,36.7791 Z" id="Fill-77" fill="#FFFFFF"></path>
                <path d="M204.970222,41.7141 L206.693226,41.7141 C206.37927,40.7631 206.209523,39.6831 205.764877,38.8476 C205.565086,39.8631 205.209069,40.7361 204.970222,41.7141 L204.970222,41.7141 Z M206.893017,36.7791 C207.756772,39.4341 208.566449,42.1416 209.47527,44.7621 C208.985558,44.9031 208.21644,44.7801 207.618571,44.8191 C207.48037,44.2611 207.274571,43.7601 207.154397,43.1781 L204.572143,43.1781 C204.32879,43.6626 204.226641,44.2791 204.044877,44.8191 L202.254274,44.8191 C203.170606,42.1731 203.920196,39.3666 204.901121,36.7791 L206.893017,36.7791 Z" id="Fill-79" fill="#FFFFFF"></path>
                <path d="M212.256713,36.7791 L212.256713,43.2336 C213.207595,43.3806 214.440887,43.2576 215.502931,43.2981 L215.502931,44.8191 L210.469114,44.8191 C210.511176,42.1626 210.381988,39.3396 210.53521,36.7791 L212.256713,36.7791 Z" id="Fill-81" fill="#FFFFFF"></path>
                <path d="M240.214299,41.7141 L241.937303,41.7141 C241.617338,40.7661 241.461111,39.6771 241.008954,38.8476 C240.821181,39.8721 240.450141,40.7286 240.214299,41.7141 L240.214299,41.7141 Z M242.132587,36.7791 C242.999347,39.4341 243.812028,42.1371 244.720849,44.7621 C244.237146,44.9031 243.460517,44.7801 242.86415,44.8191 C242.725949,44.2611 242.517146,43.7601 242.399976,43.1781 L239.820727,43.1781 C239.571364,43.6626 239.466211,44.2791 239.288954,44.8191 L237.499853,44.8191 C238.416185,42.1731 239.16277,39.3606 240.149705,36.7791 L242.132587,36.7791 Z" id="Fill-83" fill="#FFFFFF"></path>
                <path d="M244.915983,36.837 C245.404192,36.7005 246.177817,36.822 246.771179,36.7785 C247.305956,38.709 247.956402,40.5285 248.432594,42.5055 C249.159651,40.7235 249.61331,38.6775 250.21869,36.7785 L252.009293,36.7785 C251.157555,39.4515 250.280279,42.0975 249.488629,44.8185 L247.433642,44.8185 C246.638987,42.1185 245.799266,39.4635 244.915983,36.837" id="Fill-85" fill="#FFFFFF"></path>
                <path d="M256.780828,36.7791 L256.780828,38.2401 L255.649684,38.2401 L255.649684,43.2981 C255.897544,43.4376 256.421806,43.3191 256.780828,43.3611 L256.780828,44.8191 L252.73695,44.8191 L252.73695,43.3611 L253.863588,43.3611 L253.863588,38.3031 C253.620234,38.1636 253.091466,38.2806 252.73695,38.2401 L252.73695,36.7791 L256.780828,36.7791 Z" id="Fill-87" fill="#FFFFFF"></path>
                <path d="M260.35302,36.7791 C261.221282,38.3166 262.163151,39.7851 263.004374,41.3496 C263.159099,39.9471 263.025404,38.2806 263.07047,36.7791 L264.65978,36.7791 L264.65978,44.8191 L263.004374,44.8191 C261.960356,42.9981 260.8893,41.2041 259.890348,39.3396 C259.737125,41.0436 259.867815,43.0086 259.824252,44.8191 L258.236444,44.8191 L258.236444,36.7791 L260.35302,36.7791 Z" id="Fill-89" fill="#FFFFFF"></path>
                <path d="M288.180066,41.6511 C287.836066,41.1996 286.888189,41.3991 285.992887,41.3496 L285.992887,43.3611 C287.601726,43.7601 289.009272,42.7431 288.180066,41.6511 L288.180066,41.6511 Z M285.992887,39.9471 C286.749988,39.9726 287.492066,39.9831 287.781988,39.5826 C288.208608,38.4186 287.242704,38.0616 285.992887,38.2401 L285.992887,39.9471 Z M288.710337,40.3731 C290.102861,40.6431 290.564031,42.5886 289.772381,43.7886 C288.827507,45.2076 286.541184,44.7411 284.203787,44.8191 C284.248852,42.1626 284.121167,39.3381 284.269883,36.7791 C285.740521,36.9186 287.501079,36.5121 288.645743,36.9591 C290.035263,37.5066 290.002215,39.7416 288.710337,40.3731 L288.710337,40.3731 Z" id="Fill-91" fill="#FFFFFF"></path>
                <path d="M293.547668,41.7141 L295.26917,41.7141 C294.941694,40.7961 294.824524,39.6861 294.339319,38.9136 C294.124507,39.8886 293.785013,40.7556 293.547668,41.7141 L293.547668,41.7141 Z M295.468961,36.7791 C296.331214,39.4341 297.143895,42.1416 298.051214,44.7621 C297.564507,44.9031 296.792384,44.7801 296.19752,44.8191 C296.05331,44.2611 295.850515,43.7601 295.730341,43.1781 L293.148087,43.1781 C292.907738,43.6626 292.796576,44.2791 292.616314,44.8191 L290.827214,44.8191 C291.749555,42.1731 292.494638,39.3666 293.478568,36.7791 L295.468961,36.7791 Z" id="Fill-93" fill="#FFFFFF"></path>
                <path d="M301.098243,36.7791 C301.958994,38.3226 302.909876,39.7821 303.749597,41.3496 C303.901317,39.9471 303.770627,38.2806 303.817195,36.7791 L305.406505,36.7791 L305.406505,44.8191 L303.749597,44.8191 C302.704077,42.9981 301.630016,41.2041 300.634068,39.3396 C300.479343,41.0436 300.61454,43.0086 300.567972,44.8191 L298.978662,44.8191 L298.978662,36.7791 L301.098243,36.7791 Z" id="Fill-95" fill="#FFFFFF"></path>
                <path d="M307.127556,36.7791 L308.91215,36.7791 L308.91215,40.3731 C309.760884,39.4011 310.620133,37.9176 311.49891,36.7791 L313.486299,36.7791 C312.642072,38.0736 311.670159,39.2556 310.768849,40.4946 C311.709216,41.9451 312.738211,43.3146 313.618491,44.8191 L311.435818,44.8191 C310.72829,43.7631 310.080849,42.6471 309.313233,41.6511 C308.608709,42.1806 309.030823,43.7481 308.91215,44.8191 L307.127556,44.8191 L307.127556,36.7791 Z" id="Fill-97" fill="#FFFFFF"></path>
                <path d="M323.02952,36.7791 L323.02952,43.2336 C323.9789,43.3806 325.216699,43.2576 326.272734,43.2981 L326.272734,44.8191 L321.241921,44.8191 C321.28248,42.1626 321.150288,39.3396 321.306515,36.7791 L323.02952,36.7791 Z" id="Fill-99" fill="#FFFFFF"></path>
                <path d="M332.90232,36.7791 L332.90232,38.3031 L330.778232,38.3031 C330.626512,40.3536 330.757202,42.6711 330.712136,44.8191 L328.923036,44.8191 L328.923036,38.3031 L326.738861,38.3031 L326.738861,36.7791 L332.90232,36.7791 Z" id="Fill-101" fill="#FFFFFF"></path>
                <path d="M316.470686,42.6846 C315.907368,44.0406 315.321516,45.3696 314.812276,46.7721 L313.750232,46.7721 C314.083717,45.4251 314.375141,44.0511 314.683088,42.6846 L316.470686,42.6846 Z" id="Fill-103" fill="#FFFFFF"></path>
                <polygon id="Fill-106" fill="#FFFFFF" points="341.446288 44.8188 343.299983 44.8188 343.299983 43.2333 341.446288 43.2333"></polygon>
                <g id="Group" fill="#FFFFFF">
                    <path d="M-8.8817842e-14,23.2761 C-8.8817842e-14,23.8641 0.0285414847,24.4416 0.0691004367,25.0131 L6.57505677,25.0131 L6.5990917,25.1901 C7.30962445,31.3836 11.4301135,36.5646 17.0738166,38.9016 L17.0738166,27.3516 L13.5557031,27.3516 L13.5557031,31.4586 L13.1846638,30.9696 C11.9363493,29.3241 11.0755983,27.3666 10.7481223,25.2471 L10.7090655,25.0131 L19.1257991,25.0131 L19.1257991,42.0111 L18.8689258,41.9451 C11.7035109,40.1286 6.1198952,34.4676 4.55462009,27.3516 L0.366532751,27.3516 C2.26379039,37.9101 11.4391266,46.0221 22.6409083,46.5576 L22.6409083,21.5406 L10.7090655,21.5406 L10.7481223,21.3066 C11.0755983,19.1826 11.9363493,17.2371 13.1846638,15.5841 L13.5557031,15.0921 L13.5557031,19.2066 L17.0738166,19.2066 L17.0738166,7.6566 C11.4301135,9.9921 7.30962445,15.1731 6.5990917,21.3651 L6.57505677,21.5406 L4.19259389,21.5406 L4.21362445,21.3216 C5.05184279,13.2171 11.0049956,6.6036 18.8689258,4.6101 L19.1257991,4.5456 L19.1257991,19.2066 L22.6409083,19.2066 L22.6409083,0.0006 C10.0345852,0.6006 -8.8817842e-14,10.7916 -8.8817842e-14,23.2761" id="Fill-108"></path>
                    <path d="M41.6444297,21.459 L41.5828402,21.5415 L35.9196087,21.5415 L34.0809362,19.0845 L34.0809362,15.0915 L34.4534777,15.588 C35.2751721,16.674 35.930124,17.8905 36.380779,19.206 L40.6469799,19.206 C39.3295651,13.986 35.5440629,9.7155 30.5658271,7.6575 L30.5658271,19.0905 C30.5658271,19.296 30.6274166,19.5045 30.7596087,19.68 L32.1566393,21.5415 L28.5123424,21.5415 L28.5123424,4.5465 L28.7737223,4.611 C35.9917135,6.441 41.6083773,12.1725 43.1180716,19.371 L43.1391022,19.464 L41.6444297,21.459 Z M43.1180716,27.1785 C41.6083773,34.3815 35.9917135,40.116 28.7737223,41.9445 L28.5123424,42.0105 L28.5123424,25.0125 L34.75091,25.0125 L36.4153293,27.2385 L36.380779,27.333 C35.9376349,28.653 35.2796786,29.877 34.4534777,30.9705 L34.0809362,31.458 L34.0809362,27.348 L30.5658271,27.348 L30.5658271,38.901 C35.266159,36.9525 38.919469,33.0375 40.4051284,28.2045 C40.492255,27.918 40.4456873,27.594 40.2534079,27.333 L38.5198882,25.0125 L41.5828402,25.0125 L43.1391022,27.0915 L43.1180716,27.1785 Z M44.4054428,23.2755 L47.0402725,19.761 C47.2190323,19.5255 47.282124,19.2375 47.2265432,18.9705 C45.1355039,8.5455 36.1178969,0.531 24.9972332,7.10542736e-15 L24.9972332,46.557 C36.1178969,46.0245 45.1355039,38.0145 47.2265432,27.5805 C47.282124,27.321 47.2190323,27.0315 47.0402725,26.8005 L44.4054428,23.2755 Z" id="Fill-109"></path>
                </g>
            </g>
        </g>
    </g>
</svg>