<?xml version="1.0" encoding="UTF-8"?>
<svg width="150px" height="150px" viewBox="0 0 150 150" version="1.1" xmlns="http://www.w3.org/2000/svg" xmlns:xlink="http://www.w3.org/1999/xlink">
    <!-- Generator: Sketch 63.1 (92452) - https://sketch.com -->
    <title>icon/footer-icon/credit_default</title>
    <desc>Created with Sketch.</desc>
    <g id="icon/footer-icon/credit_default" stroke="none" stroke-width="1" fill="none" fill-rule="evenodd">
        <path d="M16.875,15.6997623 C12.5186756,15.6997623 8.3205675,17.1961423 5.15625,20.2280849 C1.9919325,23.2600275 0,27.8376762 0,33.0885211 L0,114.236062 C0,119.486888 1.991925,124.004101 5.15625,127.036121 C8.320575,130.068141 12.5186887,131.624821 16.875,131.624821 L133.125,131.624821 C137.481311,131.624821 141.679425,130.068141 144.84375,127.036121 C148.008075,124.004101 150,119.486888 150,114.236062 L150,33.0885211 C150,27.8376762 148.008067,23.2600275 144.84375,20.2280849 C141.679432,17.1961423 137.481324,15.6997623 133.125,15.6997623 L16.875,15.6997623 Z M16.875,23.4280995 L133.125,23.4280995 C135.786009,23.4280995 138.102246,24.3285088 139.746094,25.9035826 C141.389942,27.4786563 142.5,29.7182898 142.5,33.0885211 L142.5,114.236062 C142.5,117.60639 141.389936,119.785588 139.746094,121.360623 C138.102251,122.935658 135.786023,123.896484 133.125,123.896484 L16.875,123.896484 C14.2139775,123.896484 11.8977488,122.935658 10.2539063,121.360623 C8.61006375,119.785588 7.5,117.60639 7.5,114.236062 L7.5,33.0885211 C7.5,29.7182898 8.61005813,27.4786563 10.2539063,25.9035826 C11.8977544,24.3285088 14.2139906,23.4280995 16.875,23.4280995 Z M99.375,35.0206054 C92.17068,35.0206054 86.25,41.1215287 86.25,48.5451956 C86.25,55.9688431 92.17068,62.0697857 99.375,62.0697857 C103.035199,62.0697857 106.360571,60.4870512 108.75,57.9641066 C111.139429,60.4870512 114.464799,62.0697857 118.125,62.0697857 C125.32932,62.0697857 131.25,55.9688431 131.25,48.5451956 C131.25,41.121548 125.32932,35.0206054 118.125,35.0206054 C114.464799,35.0206054 111.139429,36.6033399 108.75,39.1262845 C106.360571,36.6033418 103.035199,35.0206054 99.375,35.0206054 Z M20.2734375,35.080983 C18.3096731,35.1754233 16.6064194,37.1027895 16.6984706,39.1263213 C16.7905144,41.149853 18.6612731,42.9045778 20.625,42.8093203 L60,42.8093203 C61.9811719,42.8381856 63.8034075,40.986845 63.8034075,38.9451516 C63.8034075,36.9034583 61.9811719,35.0521119 60,35.080983 C46.7680331,35.0809811 33.4794825,35.080983 20.2734375,35.080983 Z M99.375,42.7489426 C102.52602,42.7489426 105,45.2982313 105,48.5451956 C105,51.7921405 102.52602,54.3414485 99.375,54.3414485 C96.22398,54.3414485 93.75,51.7921405 93.75,48.5451956 C93.75,45.2982313 96.22398,42.7489426 99.375,42.7489426 Z M118.125,42.7489426 C121.276018,42.7489426 123.75,45.2982506 123.75,48.5451956 C123.75,51.7921405 121.276018,54.3414485 118.125,54.3414485 C114.973982,54.3414485 112.5,51.7921405 112.5,48.5451956 C112.5,45.2982506 114.973982,42.7489426 118.125,42.7489426 Z M20.2734375,50.4772799 C18.3096731,50.5717201 16.6064194,52.4990863 16.6984706,54.5226181 C16.79052,56.5461499 18.6612731,58.3008746 20.625,58.2056171 L39.375,58.2056171 C41.3561719,58.2344824 43.1784075,56.3831419 43.1784075,54.3414485 C43.1784075,52.2997551 41.3561719,50.4484087 39.375,50.4772799 C33.021495,50.4772702 26.5996406,50.4772799 20.2734375,50.4772799 Z M20.2734375,92.9831347 C18.3096731,93.0775749 16.6064194,95.0049411 16.6984706,97.0284729 C16.79052,99.0520047 18.6612731,100.806729 20.625,100.711472 L129.375,100.711472 C131.356172,100.740337 133.178408,98.8889967 133.178408,96.8473033 C133.178408,94.8056099 131.356172,92.9542635 129.375,92.9831347 C93.0154388,92.9831347 56.6081025,92.9831347 20.2734375,92.9831347 Z M20.2734375,108.439809 C18.3096731,108.534249 16.6064194,110.461616 16.6984706,112.485147 C16.79052,114.508679 18.6612731,116.263404 20.625,116.168146 L129.375,116.168146 C131.356172,116.197012 133.178408,114.345671 133.178408,112.303978 C133.178408,110.262284 131.356172,108.410938 129.375,108.439809 C93.0154388,108.439809 56.6081025,108.439809 20.2734375,108.439809 Z" id="Shape" fill="#3E3E3E" fill-rule="nonzero"></path>
    </g>
</svg>