<svg xmlns="http://www.w3.org/2000/svg" xmlns:xlink="http://www.w3.org/1999/xlink" width="150" height="150" version="1.1" viewBox="0 0 150 150"><title>icon/footer-icon/more_default</title><desc>Created with Sketch.</desc><g id="icon/footer-icon/more_default" fill="none" fill-rule="evenodd" stroke="none" stroke-width="1"><g id="noun_menu_1807551-(1)" fill="#3E3E3E" fill-rule="nonzero" transform="translate(12.000000, 22.000000)"><g id="Group"><path id="Shape" d="M6.64875052,0.615241667 C2.97681183,0.615241667 0,3.65730577 0,7.41011346 C0,11.1629212 2.97681183,14.2049853 6.64875052,14.2049853 L119.677509,14.2049853 C123.349448,14.2049853 126.32626,11.1629212 126.32626,7.41011346 C126.32626,3.65730577 123.349448,0.615241667 119.677509,0.615241667 L6.64875052,0.615241667 Z M6.64875052,46.4806263 C2.97681183,46.4806263 0,49.5227244 0,53.2755321 C0,57.0283397 2.97681183,60.0704038 6.64875052,60.0704038 L119.677509,60.0704038 C123.349448,60.0704038 126.32626,57.0283397 126.32626,53.2755321 C126.32626,49.5227244 123.349448,46.4806263 119.677509,46.4806263 L6.64875052,46.4806263 Z M6.64875052,92.3460449 C2.97681183,92.3460449 0,95.388109 0,99.1409167 C0,102.893724 2.97681183,105.935788 6.64875052,105.935788 L119.677509,105.935788 C123.349448,105.935788 126.32626,102.893724 126.32626,99.1409167 C126.32626,95.388109 123.349448,92.3460449 119.677509,92.3460449 L6.64875052,92.3460449 Z"/></g></g></g></svg>