<svg xmlns="http://www.w3.org/2000/svg" xmlns:xlink="http://www.w3.org/1999/xlink" width="150" height="150" version="1.1" viewBox="0 0 150 150"><title>icon/footer-icon/finance_default</title><desc>Created with Sketch.</desc><g id="icon/footer-icon/finance_default" fill="none" fill-rule="evenodd" stroke="none" stroke-width="1"><g id="noun_progress-up_1484116" fill="#3E3E3E" fill-rule="nonzero" transform="translate(0.000000, 10.000000)"><g id="Group"><path id="Shape" d="M76.875,0.663146479 L76.875,7.98709014 L86.5429688,7.98709014 L49.8632813,43.8057521 L55.1367188,49.0126183 L91.875,13.136738 L91.875,22.6349775 L99.375,22.6349775 L99.375,4.32511831 L99.375,0.663146479 L95.625,0.663146479 L76.875,0.663146479 Z M108.75,0.663146479 L108.75,4.32511831 L108.75,121.508217 L91.875,121.508217 L91.875,75.733569 L91.875,72.0715972 L88.125,72.0715972 L61.875,72.0715972 L58.125,72.0715972 L58.125,75.733569 L58.125,121.508217 L41.25,121.508217 L41.25,39.1138507 L41.25,35.4518789 L37.5,35.4518789 L11.25,35.4518789 L7.5,35.4518789 L7.5,39.1138507 L7.5,121.508217 L0,121.508217 L0,128.832161 L150,128.832161 L150,121.508217 L142.5,121.508217 L142.5,4.32511831 L142.5,0.663146479 L138.75,0.663146479 L112.5,0.663146479 L108.75,0.663146479 Z M116.25,7.98709014 L135,7.98709014 L135,121.508217 L116.25,121.508217 L116.25,7.98709014 Z M15,42.7758225 L33.75,42.7758225 L33.75,121.508217 L15,121.508217 L15,42.7758225 Z M65.625,79.3955408 L84.375,79.3955408 L84.375,121.508217 L65.625,121.508217 L65.625,79.3955408 Z"/></g></g></g></svg>