<svg xmlns="http://www.w3.org/2000/svg" xmlns:xlink="http://www.w3.org/1999/xlink" width="150" height="150" version="1.1" viewBox="0 0 150 150"><title>icon/footer-icon/home_default</title><desc>Created with Sketch.</desc><g id="icon/footer-icon/home_default" fill="none" fill-rule="evenodd" stroke="none" stroke-width="1"><g id="noun_Home_1706883" fill="#3E3E3E" fill-rule="nonzero" transform="translate(0.000000, 8.000000)"><g id="Group"><path id="Shape" d="M72.5583875,0.732260237 C71.7961689,0.750444504 71.0850277,1.03135102 70.4014051,1.55307786 L1.37796756,62.1673626 C-0.210097717,63.5859375 -0.435404748,66.2038658 0.75357791,67.9129849 C1.92545057,69.5976563 4.41812303,69.8673895 5.91898318,68.5443831 L72.6719129,9.95067349 L139.424843,68.5443831 C140.925703,69.8673895 143.349824,69.5875539 144.533485,67.9129849 C145.708264,66.2511449 145.581951,63.4905711 143.965858,62.1673626 L74.9424207,1.55307786 C74.1339201,0.960614224 73.320606,0.714581088 72.5583875,0.732260237 Z M27.2617566,55.0956425 L19.9961316,61.4727236 L19.9961316,126.001616 C19.9961316,128.233278 21.6226802,130.042565 23.6289441,130.042565 L56.3242566,130.042565 C58.3305205,130.042565 59.9568686,128.233278 59.9570691,126.001616 L59.9570691,89.6330819 L85.3867566,89.6330819 L85.3867566,126.001616 C85.3869571,128.233278 87.0133052,130.042565 89.0195691,130.042565 L121.714882,130.042565 C123.721146,130.042565 125.347694,128.233278 125.347694,126.001616 L125.347694,61.4727236 L118.082069,55.0956425 L118.082069,121.960668 L92.6523816,121.960668 L92.6523816,85.5921336 C92.6521811,83.3604719 91.025833,81.5514084 89.0195691,81.5511853 L56.3242566,81.5511853 C54.3179927,81.5514084 52.6916446,83.3604719 52.6914441,85.5921336 L52.6914441,121.960668 L27.2617566,121.960668 L27.2617566,55.0956425 L27.2617566,55.0956425 Z"/></g></g></g></svg>