<?xml version="1.0" encoding="UTF-8"?>
<svg width="150px" height="150px" viewBox="0 0 150 150" version="1.1" xmlns="http://www.w3.org/2000/svg" xmlns:xlink="http://www.w3.org/1999/xlink">
    <!-- Generator: Sketch 63.1 (92452) - https://sketch.com -->
    <title>icon/i_add</title>
    <desc>Created with Sketch.</desc>
    <g id="icon/i_add" stroke="none" stroke-width="1" fill="none" fill-rule="evenodd">
        <g id="noun_account_1402853" transform="translate(11.000000, 27.000000)" fill="#3E3E3E" fill-rule="nonzero">
            <g id="Group">
                <path d="M39.6713121,46.6623314 C52.4590866,46.6623314 62.8592033,36.2623768 62.8592033,23.4746023 C62.8592033,10.7133868 52.4590868,0.313270082 39.6713121,0.313270082 C26.8835374,0.313270082 16.483583,10.7133866 16.483583,23.4746023 C16.483583,36.2623768 26.8835374,46.6623314 39.6713121,46.6623314 Z" id="Path"></path>
                <path d="M57.2611208,53.2949844 L22.0815032,53.2949844 C10.0897766,53.2949844 0.326530612,63.0316788 0.326530612,75.0235673 L0.326530612,93.1969719 C0.326530612,94.6826799 1.52027869,95.8500332 2.97959184,95.8500332 L76.3631939,95.8500332 C77.8223452,95.8500332 79.0162552,94.6826799 79.0162552,93.1969719 L79.0162552,75.0235673 C79.0162552,63.0316788 69.2530095,53.2949844 57.2611208,53.2949844 Z" id="Path"></path>
                <path d="M101.275478,13.1010446 C86.7367541,13.1010446 74.8774863,24.9337533 74.8774863,39.4990337 C74.8774863,54.0377575 86.7367541,65.8704737 101.275478,65.8704737 C115.840758,65.8704737 127.673469,54.0377572 127.673469,39.4990337 C127.673469,24.9337533 115.840758,13.1010446 101.275478,13.1010446 Z M112.133209,42.1415694 L103.933073,42.1415694 L103.933073,50.3391142 C103.933073,51.8042569 102.74645,52.9921754 101.280012,52.9921754 C99.8135737,52.9921754 98.6269507,51.8042569 98.6269507,50.3391142 L98.6269507,42.1415694 L90.4294059,42.1415694 C88.9629677,42.1415694 87.7763447,40.9536509 87.7763447,39.4885082 C87.7763447,38.0233655 88.9629677,36.835447 90.4294059,36.835447 L98.6269507,36.835447 L98.6269507,28.636607 C98.6269507,27.1714643 99.8135737,25.9835458 101.280012,25.9835458 C102.74645,25.9835458 103.933073,27.1714643 103.933073,28.636607 L103.933073,36.835447 L112.133209,36.835447 C113.599647,36.835447 114.78627,38.0233655 114.78627,39.4885082 C114.78627,40.9536509 113.599647,42.1415694 112.133209,42.1415694 Z" id="Shape"></path>
            </g>
        </g>
    </g>
</svg>