<svg xmlns="http://www.w3.org/2000/svg" xmlns:xlink="http://www.w3.org/1999/xlink" width="48" height="48" version="1.1" viewBox="0 0 48 48"><title>Icons/i_all_close</title><g id="Icons/i_all_close" fill="none" fill-rule="evenodd" stroke="none" stroke-width="1"><g id="Group-12" fill="#B82B22" transform="translate(5.000000, 4.000000)"><path id="Fill-1" d="M14.2959,4.8994 C13.7429,4.8994 13.2959,5.3474 13.2959,5.8994 L13.2979,12.8964 L1.7069,1.3054 C1.3169,0.9154 0.6839,0.9154 0.2929,1.3054 C-0.0981,1.6964 -0.0981,2.3294 0.2929,2.7194 L11.8839,14.3104 L4.8739,14.3084 C4.3219,14.3084 3.8739,14.7554 3.8739,15.3084 C3.8739,15.8604 4.3209,16.3084 4.8739,16.3084 L14.2919,16.3114 C14.3989,16.3114 14.4959,16.2824 14.5919,16.2514 C14.6179,16.2424 14.6479,16.2454 14.6739,16.2344 C14.7959,16.1834 14.9069,16.1104 14.9999,16.0174 C15.0009,16.0164 15.0019,16.0164 15.0029,16.0154 C15.0039,16.0144 15.0039,16.0134 15.0049,16.0124 C15.0979,15.9204 15.1709,15.8084 15.2219,15.6854 C15.2319,15.6624 15.2299,15.6354 15.2369,15.6114 C15.2699,15.5124 15.2989,15.4134 15.2989,15.3044 L15.2959,5.8994 C15.2959,5.3464 14.8479,4.8994 14.2959,4.8994"/><path id="Fill-4" d="M37.7197,37.3057 L26.1297,25.7147 L33.1387,25.7167 C33.6907,25.7167 34.1387,25.2697 34.1387,24.7167 C34.1387,24.1647 33.6917,23.7167 33.1387,23.7167 L23.7207,23.7137 C23.6027,23.7137 23.4917,23.7427 23.3877,23.7817 C23.3717,23.7857 23.3557,23.7847 23.3407,23.7897 C23.2167,23.8417 23.1057,23.9147 23.0127,24.0087 C23.0117,24.0087 23.0117,24.0087 23.0107,24.0097 C23.0097,24.0107 23.0097,24.0117 23.0097,24.0117 C22.8267,24.1937 22.7137,24.4437 22.7137,24.7207 L22.7177,34.1257 C22.7177,34.6787 23.1657,35.1257 23.7177,35.1257 C24.2707,35.1257 24.7177,34.6777 24.7177,34.1257 L24.7147,27.1277 L36.3057,38.7197 C36.5007,38.9147 36.7567,39.0127 37.0127,39.0127 C37.2687,39.0127 37.5247,38.9147 37.7197,38.7197 C38.1107,38.3287 38.1107,37.6967 37.7197,37.3057"/><path id="Fill-6" d="M15.2217,24.3398 C15.1707,24.2168 15.0977,24.1058 15.0047,24.0128 C15.0037,24.0118 15.0037,24.0108 15.0027,24.0098 C15.0017,24.0088 15.0007,24.0088 14.9997,24.0078 C14.9077,23.9148 14.7957,23.8418 14.6727,23.7908 C14.6497,23.7808 14.6227,23.7828 14.5987,23.7758 C14.4997,23.7428 14.4007,23.7138 14.2917,23.7138 L4.8867,23.7168 C4.3337,23.7168 3.8867,24.1648 3.8867,24.7168 C3.8867,25.2698 4.3347,25.7168 4.8867,25.7168 L11.8837,25.7148 L0.2927,37.3058 C-0.0973,37.6958 -0.0973,38.3288 0.2927,38.7198 C0.4887,38.9148 0.7437,39.0128 0.9997,39.0128 C1.2557,39.0128 1.5117,38.9148 1.7067,38.7198 L13.2977,27.1288 L13.2957,34.1388 C13.2957,34.6908 13.7427,35.1388 14.2957,35.1388 C14.8477,35.1388 15.2957,34.6918 15.2957,34.1388 L15.2987,24.7208 C15.2987,24.6118 15.2697,24.5128 15.2377,24.4138 C15.2297,24.3898 15.2317,24.3628 15.2217,24.3398"/><path id="Fill-9" d="M22.7783,15.6719 C22.8293,15.7959 22.9023,15.9069 22.9963,15.9999 C22.9963,16.0009 22.9963,16.0009 22.9973,16.0019 C22.9983,16.0029 22.9993,16.0029 22.9993,16.0029 C23.1803,16.1859 23.4303,16.2989 23.7083,16.2989 L33.1133,16.2949 C33.6663,16.2949 34.1133,15.8469 34.1133,15.2949 C34.1133,14.7419 33.6653,14.2949 33.1133,14.2949 L26.1153,14.2979 L37.7073,2.7069 C38.0973,2.3169 38.0973,1.6839 37.7073,1.2929 C37.3163,0.9019 36.6833,0.9019 36.2933,1.2929 L24.7023,12.8829 L24.7043,5.8739 C24.7043,5.3219 24.2573,4.8739 23.7043,4.8739 C23.1523,4.8739 22.7043,5.3209 22.7043,5.8739 L22.7013,15.2919 C22.7013,15.4069 22.7303,15.5149 22.7663,15.6179 C22.7733,15.6359 22.7703,15.6539 22.7783,15.6719"/></g></g></svg>