<svg xmlns="http://www.w3.org/2000/svg" xmlns:xlink="http://www.w3.org/1999/xlink" width="48" height="48" version="1.1" viewBox="0 0 48 48"><title>Icons/all_open</title><g id="Icons/all_open" fill="none" fill-rule="evenodd" stroke="none" stroke-width="1"><g id="Group-10" fill="#B82B22" transform="translate(5.000000, 5.000000)"><path id="Fill-1" d="M3.415,2.0137 L10.425,2.0157 C10.977,2.0157 11.425,1.5687 11.425,1.0157 C11.425,0.4637 10.977,0.0157 10.425,0.0157 L1.007,0.0127 C0.898,0.0127 0.799,0.0417 0.7,0.0747 C0.676,0.0817 0.649,0.0797 0.626,0.0897 C0.503,0.1407 0.392,0.2137 0.299,0.3067 C0.298,0.3077 0.297,0.3077 0.296,0.3087 C0.295,0.3097 0.295,0.3107 0.294,0.3117 C0.201,0.4047 0.128,0.5157 0.077,0.6377 C0.066,0.6637 0.069,0.6937 0.061,0.7197 C0.029,0.8157 0,0.9127 0,1.0197 L0.003,10.4247 C0.003,10.9777 0.451,11.4247 1.003,11.4247 C1.556,11.4247 2.003,10.9767 2.003,10.4247 L2.001,3.4277 L13.592,15.0187 C13.787,15.2137 14.043,15.3117 14.299,15.3117 C14.555,15.3117 14.811,15.2137 15.006,15.0187 C15.396,14.6277 15.396,13.9947 15.006,13.6047 L3.415,2.0137 Z"/><path id="Fill-3" d="M37.9355,37.3867 C37.9455,37.3637 37.9435,37.3367 37.9515,37.3127 C37.9835,37.2137 38.0125,37.1147 38.0125,37.0057 L38.0095,27.6007 C38.0095,27.0477 37.5615,26.6007 37.0095,26.6007 C36.4565,26.6007 36.0095,27.0487 36.0095,27.6007 L36.0115,34.5977 L24.4205,23.0067 C24.0305,22.6157 23.3975,22.6157 23.0065,23.0067 C22.6165,23.3977 22.6165,24.0307 23.0065,24.4207 L34.5975,36.0117 L27.5875,36.0097 C27.0365,36.0097 26.5875,36.4567 26.5875,37.0097 C26.5875,37.5617 27.0355,38.0097 27.5875,38.0097 L37.0055,38.0127 C37.1125,38.0127 37.2095,37.9837 37.3055,37.9517 C37.3315,37.9437 37.3615,37.9467 37.3875,37.9357 C37.5095,37.8847 37.6215,37.8117 37.7125,37.7187 C37.7145,37.7177 37.7155,37.7177 37.7165,37.7167 C37.7175,37.7157 37.7175,37.7147 37.7185,37.7137 C37.8115,37.6207 37.8845,37.5097 37.9355,37.3867"/><path id="Fill-5" d="M13.5918,23.0068 L2.0008,34.5978 L2.0028,27.5878 C2.0028,27.0358 1.5558,26.5878 1.0028,26.5878 C0.4508,26.5878 0.0028,27.0348 0.0028,27.5878 L-0.0002,37.0058 C-0.0002,37.1118 0.0288,37.2098 0.0608,37.3058 C0.0698,37.3318 0.0668,37.3608 0.0768,37.3878 C0.1278,37.5098 0.2008,37.6208 0.2938,37.7138 C0.2948,37.7148 0.2948,37.7158 0.2958,37.7168 C0.2968,37.7178 0.2978,37.7178 0.2988,37.7188 C0.3918,37.8118 0.5028,37.8848 0.6248,37.9358 C0.6518,37.9458 0.6808,37.9438 0.7068,37.9518 C0.8028,37.9838 0.9008,38.0128 1.0068,38.0128 L10.4118,38.0098 C10.9648,38.0098 11.4118,37.5618 11.4118,37.0098 C11.4118,36.4568 10.9638,36.0098 10.4118,36.0098 L3.4148,36.0118 L15.0058,24.4208 C15.3968,24.0298 15.3968,23.3978 15.0058,23.0068 C14.6148,22.6158 13.9828,22.6158 13.5918,23.0068"/><path id="Fill-8" d="M23.7012,15.2988 C23.9572,15.2988 24.2132,15.2008 24.4082,15.0058 L35.9992,3.4148 L35.9972,10.4248 C35.9972,10.9768 36.4442,11.4248 36.9972,11.4248 C37.5492,11.4248 37.9972,10.9778 37.9972,10.4248 L38.0002,1.0068 C38.0002,0.8988 37.9712,0.7988 37.9382,0.6998 C37.9302,0.6758 37.9322,0.6498 37.9232,0.6258 C37.8722,0.5028 37.7992,0.3918 37.7062,0.2998 C37.7052,0.2978 37.7052,0.2968 37.7042,0.2958 C37.7032,0.2948 37.7022,0.2948 37.7012,0.2938 C37.6082,0.2008 37.4972,0.1278 37.3742,0.0768 C37.3502,0.0678 37.3242,0.0698 37.3002,0.0618 C37.2012,0.0288 37.1012,-0.0002 36.9932,-0.0002 L27.5882,0.0028 C27.0352,0.0028 26.5882,0.4508 26.5882,1.0028 C26.5882,1.5558 27.0362,2.0028 27.5882,2.0028 L34.5852,2.0008 L22.9942,13.5918 C22.6032,13.9828 22.6032,14.6148 22.9942,15.0058 C23.1892,15.2008 23.4452,15.2988 23.7012,15.2988"/></g></g></svg>