<svg xmlns="http://www.w3.org/2000/svg" xmlns:xlink="http://www.w3.org/1999/xlink" width="48" height="48" version="1.1" viewBox="0 0 48 48"><title>Icons/i_bell_w</title><g id="Icons/i_bell_w" fill="none" fill-rule="evenodd" stroke="none" stroke-width="1"><path id="Fill-1" fill="#FFF" d="M12,33.8428 C12.552,33.8428 13,33.3958 13,32.8428 L13,21.3148 C13,15.0748 17.935,9.9998 24,9.9998 C30.065,9.9998 35,15.0748 35,21.3148 L35,32.8428 C35,33.3958 35.447,33.8428 36,33.8428 C37.103,33.8428 38,34.7758 38,35.9208 C38,37.0678 37.103,37.9998 36,37.9998 L12,37.9998 C10.897,37.9998 10,37.0678 10,35.9208 C10,34.7758 10.897,33.8428 12,33.8428 M22.5,6.4998 C22.5,5.6728 23.173,4.9998 24,4.9998 C24.827,4.9998 25.5,5.6728 25.5,6.4998 C25.5,7.3268 24.827,7.9998 24,7.9998 C23.173,7.9998 22.5,7.3268 22.5,6.4998 M24,42.9998 C22.142,42.9998 20.589,41.7208 20.142,39.9998 L27.858,39.9998 C27.411,41.7208 25.858,42.9998 24,42.9998 M12,39.9998 L18.09,39.9998 C18.569,42.8328 21.033,44.9998 24,44.9998 C26.967,44.9998 29.432,42.8328 29.909,39.9998 L36,39.9998 C38.206,39.9998 40,38.1698 40,35.9208 C40,34.0248 38.724,32.4258 37,31.9718 L37,21.3148 C37,15.0148 32.701,9.7348 26.953,8.3598 C27.295,7.8198 27.5,7.1848 27.5,6.4998 C27.5,4.5708 25.93,2.9998 24,2.9998 C22.07,2.9998 20.5,4.5708 20.5,6.4998 C20.5,7.1848 20.705,7.8198 21.047,8.3598 C15.299,9.7348 11,15.0148 11,21.3148 L11,31.9718 C9.277,32.4258 8,34.0248 8,35.9208 C8,38.1698 9.794,39.9998 12,39.9998"/></g></svg>