<svg xmlns="http://www.w3.org/2000/svg" xmlns:xlink="http://www.w3.org/1999/xlink" width="150" height="150" version="1.1" viewBox="0 0 150 150"><title>icon/i_bills</title><desc>Created with Sketch.</desc><g id="icon/i_bills" fill="none" fill-rule="evenodd" stroke="none" stroke-width="1"><line id="Path" x1="122" x2="122" y1="108" y2="130" stroke="#3E3E3E" stroke-linecap="round" stroke-width=".75"/><line id="Path" x1="122" x2="122" y1="131.666" y2="134.334" stroke="#3E3E3E" stroke-linecap="round" stroke-width=".75"/><path id="Path" stroke="#3E3E3E" d="M30.9975737,143 C26.0281272,143 22,138.977992 22,134.016094 L22,8.98390563 C22,4.02200819 26.0281272,0 30.9975737,0 L90.2400252,0 L97,5.6079311"/><path id="Path" stroke="#3E3E3E" d="M106,7 L106,19.6750999 C106,23.1537949 108.737832,26 112.084071,26 L128,26"/><path id="Path" stroke="#3E3E3E" stroke-linecap="round" d="M124.360479,24.2522393 L128,27.2132269 L128,141.016094 C128,145.977992 123.893228,150 118.826759,150 L38.1732411,150 C33.1067719,150 29,145.977992 29,141.016094 L29,15.9839056 C29,11.0220082 33.1067719,7 38.1732411,7 L103.153229,7 L122.209749,22.5048079"/><path id="Path" fill="#3E3E3E" stroke="#3E3E3E" stroke-width=".75" d="M85.0203026,105.747706 L84.5223464,105.49331 C79.9162516,103.119648 73.6060854,99.8734709 73.2693527,97.6091361 C73.1571085,96.8585627 74.0387358,95.8514908 74.5795489,95.3174694 C78.9366656,90.9696101 83.9733701,95.843081 84.5345912,96.412844 L88.2549771,92.584289 C86.8162102,91.0957569 84.422347,89.3717508 81.6264454,88.5538991 L81.6264454,84 L76.3672933,84 L76.3672933,88.3163226 C74.5428145,88.7157875 72.6918052,89.6597859 70.922428,91.4216361 C68.6734619,93.662844 67.714284,96.021789 68.0734655,98.4311927 C68.8244814,103.46445 75.0101586,106.649656 82.1733809,110.337347 L82.6713371,110.593846 C84.0386759,111.296063 84.7366308,112.258983 84.7427533,113.446865 C84.7488757,115.061544 83.5590869,116.775038 81.7795057,117.714832 C79.1182972,119.119266 75.7285216,118.532683 72.4754799,116.093846 L69.3857025,120.475344 C71.6550767,122.178326 74.0305726,123.250573 76.3713749,123.681575 L76.3713749,128 L81.630527,128 L81.630527,123.515482 C82.4999096,123.292622 83.3550065,122.968846 84.1774505,122.535742 C87.7325312,120.658257 90.0202726,117.079893 90,113.419534 C89.9814973,110.169151 88.1651817,107.370795 85.0203026,105.747706 Z"/><line id="Path" x1="44" x2="112" y1="44" y2="44" stroke="#3E3E3E" stroke-width=".75"/><line id="Path" x1="44" x2="112" y1="51" y2="51" stroke="#3E3E3E" stroke-width=".75"/><line id="Path" x1="44" x2="112" y1="66" y2="66" stroke="#3E3E3E" stroke-width=".75"/></g></svg>