<?xml version="1.0" encoding="UTF-8"?>
<svg width="48px" height="48px" viewBox="0 0 48 48" version="1.1" xmlns="http://www.w3.org/2000/svg" xmlns:xlink="http://www.w3.org/1999/xlink" >
    <title>Icons/i_business</title>
    <g id="Icons/i_business" stroke="none" stroke-width="1" fill="none" fill-rule="evenodd">
        <path d="M41,23 C41,24.654 39.654,26 38,26 L29,26 L29,25.988 C29,24.334 27.654,22.988 26,22.988 L22,22.988 C20.346,22.988 19,24.334 19,25.988 L19,26 L10,26 C8.346,26 7,24.654 7,23 L7,17 C7,15.346 8.346,14 10,14 L38,14 C39.654,14 41,15.346 41,17 L41,23 Z M21,27.988 L21,25.988 C21,25.437 21.448,24.988 22,24.988 L26,24.988 C26.552,24.988 27,25.437 27,25.988 L27,27.988 C27,28.54 26.552,28.988 26,28.988 L22,28.988 C21.448,28.988 21,28.54 21,27.988 L21,27.988 Z M41,38 C41,39.654 39.654,41 38,41 L10,41 C8.346,41 7,39.654 7,38 L7,26.975 C7.838,27.609 8.87,28 10,28 L19.001,28 C19.008,29.648 20.35,30.988 22,30.988 L26,30.988 C27.65,30.988 28.992,29.648 28.999,28 L38,28 C39.13,28 40.162,27.609 41,26.975 L41,38 Z M19,11 C19,9.346 20.346,8 22,8 L26,8 C27.654,8 29,9.346 29,11 L29,12 L19,12 L19,11 Z M38,12 L31,12 L31,11 C31,8.243 28.757,6 26,6 L22,6 C19.243,6 17,8.243 17,11 L17,12 L10,12 C7.243,12 5,14.243 5,17 L5,23 L5,38 C5,40.757 7.243,43 10,43 L38,43 C40.757,43 43,40.757 43,38 L43,23 L43,17 C43,14.243 40.757,12 38,12 L38,12 Z" id="Fill-1" fill="#B82B22"></path>
    </g>
</svg>