<svg xmlns="http://www.w3.org/2000/svg" xmlns:xlink="http://www.w3.org/1999/xlink" width="150" height="150" version="1.1" viewBox="0 0 150 150"><title>icon/i_close</title><desc>Created with Sketch.</desc><defs><circle id="path-1" cx="65" cy="65" r="65"/><filter id="filter-2" width="110.8%" height="110.8%" x="-5.4%" y="-3.8%" filterUnits="objectBoundingBox"><feOffset dx="0" dy="2" in="SourceAlpha" result="shadowOffsetOuter1"/><feGaussianBlur in="shadowOffsetOuter1" result="shadowBlurOuter1" stdDeviation="2"/><feColorMatrix in="shadowBlurOuter1" type="matrix" values="0 0 0 0 0.239215686 0 0 0 0 0.28627451 0 0 0 0 0.325490196 0 0 0 0.2 0"/></filter></defs><g id="icon/i_close" fill="none" fill-rule="evenodd" stroke="none" stroke-width="1"><g id="Group-2" transform="translate(10.000000, 10.000000)"><g id="Group-4"><g id="Oval"><use fill="#000" fill-opacity="1" filter="url(#filter-2)" xlink:href="#path-1"/><use fill="#B8B8B8" fill-rule="evenodd" xlink:href="#path-1"/></g></g><g id="noun_Cross_407017" fill="#FFF" fill-rule="nonzero" transform="translate(34.000000, 34.000000)"><polygon id="Path" points="3.121 4.974 5.079 3.057 31.882 29.307 58.684 3.057 60.643 4.974 33.84 31.224 60.643 57.474 58.684 59.392 31.882 33.142 5.079 59.392 3.121 57.474 29.924 31.224"/><path id="Path" d="M5.32381438,7.0119863 C5.93574707,6.41267123 6.54767976,5.81335616 7.28199898,5.09417808 C5.81336053,5.09417808 4.34472208,5.09417808 2.99847017,5.09417808 C11.9326874,13.8441781 20.8669046,22.5941781 29.8011219,31.3441781 C31.0249873,32.5428082 32.9831719,32.5428082 34.0846507,31.3441781 C43.0188679,22.5941781 51.9530852,13.8441781 60.8873024,5.09417808 C59.4186639,5.09417808 57.9500255,5.09417808 56.6037736,5.09417808 C57.2157063,5.69349315 57.827639,6.29280822 58.5619582,7.0119863 C58.5619582,5.57363014 58.5619582,4.13527397 58.5619582,2.81678082 C49.6277409,11.5667808 40.6935237,20.3167808 31.7593065,29.0667808 C30.5354411,30.265411 30.5354411,32.1832192 31.7593065,33.2619863 C40.6935237,42.0119863 49.6277409,50.7619863 58.5619582,59.5119863 C58.5619582,58.0736301 58.5619582,56.635274 58.5619582,55.3167808 C57.9500255,55.9160959 57.3380928,56.515411 56.6037736,57.234589 C58.072412,57.234589 59.5410505,57.234589 60.8873024,57.234589 C51.9530852,48.484589 43.0188679,39.734589 34.0846507,30.984589 C32.8607853,29.7859589 30.9026007,29.7859589 29.8011219,30.984589 C20.8669046,39.734589 11.9326874,48.484589 2.99847017,57.234589 C4.46710862,57.234589 5.93574707,57.234589 7.28199898,57.234589 C6.67006629,56.635274 6.05813361,56.0359589 5.32381438,55.3167808 C5.32381438,56.755137 5.32381438,58.1934932 5.32381438,59.5119863 C14.2580316,50.7619863 23.1922489,42.0119863 32.1264661,33.2619863 C33.3503315,32.0633562 33.3503315,30.1455479 32.1264661,29.0667808 C23.1922489,20.3167808 14.2580316,11.5667808 5.32381438,2.81678082 C2.50892402,0.0599315068 -1.77460479,4.375 1.04028557,7.0119863 C9.9745028,15.7619863 18.90872,24.5119863 27.8429373,33.2619863 C27.8429373,31.8236301 27.8429373,30.385274 27.8429373,29.0667808 C18.90872,37.8167808 9.85211627,46.6866438 0.917899031,55.4366438 C-0.305966344,56.635274 -0.305966344,58.5530822 0.917899031,59.6318493 C1.52983172,60.2311644 2.14176441,60.8304795 2.87608363,61.5496575 C4.09994901,62.7482877 6.05813361,62.7482877 7.15961244,61.5496575 C16.0938297,52.7996575 25.0280469,44.0496575 33.9622642,35.2996575 C32.4936257,35.2996575 31.0249873,35.2996575 29.6787353,35.2996575 C38.6129526,44.0496575 47.5471698,52.7996575 56.481387,61.5496575 C57.7052524,62.7482877 59.663437,62.7482877 60.7649159,61.5496575 C61.3768485,60.9503425 61.9887812,60.3510274 62.7231005,59.6318493 C63.9469658,58.4332192 63.9469658,56.515411 62.7231005,55.4366438 C53.9112698,46.6866438 44.854666,37.8167808 35.9204488,29.0667808 C35.9204488,30.505137 35.9204488,31.9434932 35.9204488,33.2619863 C44.854666,24.5119863 53.7888832,15.7619863 62.7231005,7.0119863 C63.9469658,5.81335616 63.9469658,3.89554795 62.7231005,2.81678082 C62.1111678,2.21746575 61.4992351,1.61815068 60.7649159,0.898972603 C59.5410505,-0.299657534 57.5828659,-0.299657534 56.481387,0.898972603 C47.6695563,9.6489726 38.6129526,18.5188356 29.6787353,27.2688356 C31.1473738,27.2688356 32.6160122,27.2688356 33.9622642,27.2688356 C25.1504335,18.5188356 16.0938297,9.6489726 7.15961244,0.898972603 C5.93574707,-0.299657534 3.97756247,-0.299657534 2.87608363,0.898972603 C2.26415094,1.49828767 1.65221826,2.09760274 0.917899031,2.81678082 C-1.77460479,5.57363014 2.50892402,9.76883562 5.32381438,7.0119863 Z"/></g></g></g></svg>