<?xml version="1.0" encoding="UTF-8"?>
<svg width="150px" height="150px" viewBox="0 0 150 150" version="1.1" xmlns="http://www.w3.org/2000/svg" xmlns:xlink="http://www.w3.org/1999/xlink">
    <!-- Generator: Sketch 63.1 (92452) - https://sketch.com -->
    <title>icon/i_colon</title>
    <desc>Created with Sketch.</desc>
    <g id="icon/i_colon" stroke="none" stroke-width="1" fill="none" fill-rule="evenodd">
        <path d="M75,55 C77.1609195,55 79.0344828,54.2283688 80.6206897,52.6851064 C82.2068966,51.141844 83,49.258156 83,47.0340426 C83,44.8099291 82.2183908,42.9148936 80.6551724,41.3489362 C79.091954,39.7829787 77.2068966,39 75,39 C72.8850575,39 71.0229885,39.7829787 69.4137931,41.3489362 C67.8045977,42.9148936 67,44.8099291 67,47.0340426 C67,49.3035461 67.8045977,51.1985816 69.4137931,52.7191489 C71.0229885,54.2397163 72.8850575,55 75,55 Z M75,111 C77.1609195,111 79.0344828,110.217021 80.6206897,108.651064 C82.2068966,107.085106 83,105.212766 83,103.034043 C83,100.809929 82.2183908,98.9148936 80.6551724,97.3489362 C79.091954,95.7829787 77.2068966,95 75,95 C72.8850575,95 71.0229885,95.7829787 69.4137931,97.3489362 C67.8045977,98.9148936 67,100.809929 67,103.034043 C67,105.303546 67.8045977,107.198582 69.4137931,108.719149 C71.0229885,110.239716 72.8850575,111 75,111 Z" id=":" stroke="#313742" stroke-width="3" fill="#313742" fill-rule="nonzero"></path>
    </g>
</svg>