<svg xmlns="http://www.w3.org/2000/svg" xmlns:xlink="http://www.w3.org/1999/xlink" width="48" height="48" version="1.1" viewBox="0 0 48 48"><title>Icons/i_customer_service</title><defs><polygon id="path-1" points="0 0 38 0 38 38 0 38"/></defs><g id="Icons/i_customer_service" fill="none" fill-rule="evenodd" stroke="none" stroke-width="1"><g id="Group-3" transform="translate(5.000000, 5.000000)"><mask id="mask-2" fill="#fff"><use xlink:href="#path-1"/></mask><path id="Fill-1" fill="#B82B22" d="M27.8496,14.5986 C27.9436,14.0786 27.9996,13.5456 27.9996,12.9996 L27.9996,11.0736 C28.5946,11.4196 28.9996,12.0586 28.9996,12.7946 C28.9996,13.5926 28.5276,14.2776 27.8496,14.5986 L27.8496,14.5986 Z M35.9996,25.9996 L30.0996,25.9996 C28.2246,23.6056 25.8796,21.8316 23.3706,20.8616 C25.0256,19.9376 26.3536,18.5056 27.1576,16.7796 C29.2886,16.6946 30.9996,14.9476 30.9996,12.7946 C30.9996,10.9346 29.7186,9.3816 27.9966,8.9356 C27.9946,8.6326 27.9786,8.3326 27.9476,8.0376 L32.9996,8.0376 C34.6546,8.0376 35.9996,9.3836 35.9996,11.0376 L35.9996,25.9996 Z M35.9996,28.0376 C35.9996,29.6926 34.6546,31.0376 32.9996,31.0376 L4.9996,31.0376 C3.3456,31.0376 1.9996,29.6926 1.9996,28.0376 L1.9996,27.9996 L35.9996,27.9996 L35.9996,28.0376 Z M1.9996,11.0376 C1.9996,9.3836 3.3456,8.0376 4.9996,8.0376 L10.0526,8.0376 C10.0216,8.3326 10.0056,8.6326 10.0026,8.9356 C8.2816,9.3816 6.9996,10.9346 6.9996,12.7946 C6.9996,14.6446 8.2676,16.1896 9.9746,16.6456 C9.9326,16.7556 9.9036,16.8736 9.9036,16.9996 C9.9036,17.5526 10.3506,17.9996 10.9036,17.9996 L11.5216,17.9996 C12.3146,19.1826 13.3816,20.1646 14.6296,20.8616 C12.1206,21.8316 9.7756,23.6056 7.9006,25.9996 L1.9996,25.9996 L1.9996,11.0376 Z M10.1506,14.5986 C9.4726,14.2776 8.9996,13.5926 8.9996,12.7946 C8.9996,12.0586 9.4056,11.4196 9.9996,11.0736 L9.9996,12.9996 C9.9996,13.5456 10.0566,14.0786 10.1506,14.5986 L10.1506,14.5986 Z M27.4576,25.9996 L10.5416,25.9996 C12.9726,23.4756 16.0186,21.9996 18.9996,21.9996 C21.9816,21.9996 25.0276,23.4756 27.4576,25.9996 L27.4576,25.9996 Z M11.9996,11.7616 C13.8586,11.6896 17.8456,11.3016 20.8366,9.3516 C21.7236,10.2816 23.4896,11.7416 25.9996,12.0626 L25.9996,12.9996 C25.9996,16.8596 22.8596,19.9996 18.9996,19.9996 C17.0986,19.9996 15.3736,19.2356 14.1106,17.9996 L17.0966,17.9996 C17.6496,17.9996 18.0966,17.5526 18.0966,16.9996 C18.0966,16.4476 17.6496,15.9996 17.0966,15.9996 L12.6856,15.9996 C12.2506,15.0886 11.9996,14.0746 11.9996,12.9996 L11.9996,11.7616 Z M11.9996,8.9996 C11.9996,5.1406 15.1406,1.9996 18.9996,1.9996 C22.8596,1.9996 25.9996,5.1406 25.9996,8.9996 L25.9996,10.0386 C23.3836,9.5766 21.8346,7.4486 21.8196,7.4266 C21.6606,7.1996 21.4136,7.0486 21.1406,7.0096 C20.8676,6.9716 20.5876,7.0466 20.3716,7.2216 C17.8486,9.2586 13.8326,9.6836 11.9996,9.7636 L11.9996,8.9996 Z M32.9996,6.0376 L27.4896,6.0376 C26.2606,2.5286 22.9236,-0.0004 18.9996,-0.0004 C15.0766,-0.0004 11.7396,2.5286 10.5106,6.0376 L4.9996,6.0376 C2.2436,6.0376 -0.0004,8.2816 -0.0004,11.0376 L-0.0004,28.0376 C-0.0004,30.7946 2.2436,33.0376 4.9996,33.0376 L17.9996,33.0376 L17.9996,35.9996 L6.9996,35.9996 C6.4476,35.9996 5.9996,36.4476 5.9996,36.9996 C5.9996,37.5526 6.4476,37.9996 6.9996,37.9996 L30.9996,37.9996 C31.5526,37.9996 31.9996,37.5526 31.9996,36.9996 C31.9996,36.4476 31.5526,35.9996 30.9996,35.9996 L19.9996,35.9996 L19.9996,33.0376 L32.9996,33.0376 C35.7566,33.0376 37.9996,30.7946 37.9996,28.0376 L37.9996,11.0376 C37.9996,8.2816 35.7566,6.0376 32.9996,6.0376 L32.9996,6.0376 Z" mask="url(#mask-2)"/></g></g></svg>