<svg xmlns="http://www.w3.org/2000/svg" xmlns:xlink="http://www.w3.org/1999/xlink" width="48" height="48" version="1.1" viewBox="0 0 48 48"><title>Icons/i_date</title><g id="Icons/i_date" fill="none" fill-rule="evenodd" stroke="none" stroke-width="1"><g id="Group-15" fill="#B82B22" transform="translate(5.000000, 6.000000)"><path id="Fill-1" d="M33,35 L5,35 C3.346,35 2,33.654 2,32 L2,13 L36,13 L36,32 C36,33.654 34.654,35 33,35 M5,5 L9.002,5 L9.002,8 C9.002,8.553 9.449,9 10.002,9 C10.555,9 11.002,8.553 11.002,8 L11.002,5 L27.002,5 L27.002,8 C27.002,8.553 27.449,9 28.002,9 C28.555,9 29.002,8.553 29.002,8 L29.002,5 L33,5 C34.654,5 36,6.346 36,8 L36,11 L2,11 L2,8 C2,6.346 3.346,5 5,5 M33,3 L29.002,3 L29.002,1 C29.002,0.447 28.555,0 28.002,0 C27.449,0 27.002,0.447 27.002,1 L27.002,3 L11.002,3 L11.002,1 C11.002,0.447 10.555,0 10.002,0 C9.449,0 9.002,0.447 9.002,1 L9.002,3 L5,3 C2.243,3 0,5.243 0,8 L0,32 C0,34.757 2.243,37 5,37 L33,37 C35.757,37 38,34.757 38,32 L38,8 C38,5.243 35.757,3 33,3"/><path id="Fill-3" d="M9,20.5 C8.173,20.5 7.5,19.827 7.5,19 C7.5,18.173 8.173,17.5 9,17.5 C9.827,17.5 10.5,18.173 10.5,19 C10.5,19.827 9.827,20.5 9,20.5 M9,15.5 C7.07,15.5 5.5,17.07 5.5,19 C5.5,20.93 7.07,22.5 9,22.5 C10.93,22.5 12.5,20.93 12.5,19 C12.5,17.07 10.93,15.5 9,15.5"/><path id="Fill-5" d="M19,20.5 C18.173,20.5 17.5,19.827 17.5,19 C17.5,18.173 18.173,17.5 19,17.5 C19.827,17.5 20.5,18.173 20.5,19 C20.5,19.827 19.827,20.5 19,20.5 M19,15.5 C17.07,15.5 15.5,17.07 15.5,19 C15.5,20.93 17.07,22.5 19,22.5 C20.93,22.5 22.5,20.93 22.5,19 C22.5,17.07 20.93,15.5 19,15.5"/><path id="Fill-7" d="M29.001,20.5 C28.174,20.5 27.501,19.827 27.501,19 C27.501,18.173 28.174,17.5 29.001,17.5 C29.828,17.5 30.501,18.173 30.501,19 C30.501,19.827 29.828,20.5 29.001,20.5 M29.001,15.5 C27.071,15.5 25.501,17.07 25.501,19 C25.501,20.93 27.071,22.5 29.001,22.5 C30.931,22.5 32.501,20.93 32.501,19 C32.501,17.07 30.931,15.5 29.001,15.5"/><path id="Fill-9" d="M9,30.5 C8.173,30.5 7.5,29.827 7.5,29 C7.5,28.173 8.173,27.5 9,27.5 C9.827,27.5 10.5,28.173 10.5,29 C10.5,29.827 9.827,30.5 9,30.5 M9,25.5 C7.07,25.5 5.5,27.07 5.5,29 C5.5,30.93 7.07,32.5 9,32.5 C10.93,32.5 12.5,30.93 12.5,29 C12.5,27.07 10.93,25.5 9,25.5"/><path id="Fill-11" d="M19,30.5 C18.173,30.5 17.5,29.827 17.5,29 C17.5,28.173 18.173,27.5 19,27.5 C19.827,27.5 20.5,28.173 20.5,29 C20.5,29.827 19.827,30.5 19,30.5 M19,25.5 C17.07,25.5 15.5,27.07 15.5,29 C15.5,30.93 17.07,32.5 19,32.5 C20.93,32.5 22.5,30.93 22.5,29 C22.5,27.07 20.93,25.5 19,25.5"/><path id="Fill-13" d="M29.001,30.5 C28.174,30.5 27.501,29.827 27.501,29 C27.501,28.173 28.174,27.5 29.001,27.5 C29.828,27.5 30.501,28.173 30.501,29 C30.501,29.827 29.828,30.5 29.001,30.5 M29.001,25.5 C27.071,25.5 25.501,27.07 25.501,29 C25.501,30.93 27.071,32.5 29.001,32.5 C30.931,32.5 32.501,30.93 32.501,29 C32.501,27.07 30.931,25.5 29.001,25.5"/></g></g></svg>