<svg xmlns="http://www.w3.org/2000/svg" xmlns:xlink="http://www.w3.org/1999/xlink" width="150" height="150" version="1.1" viewBox="0 0 150 150"><title>icon/i_delet</title><desc>Created with Sketch.</desc><g id="icon/i_delet" fill="none" fill-rule="evenodd" stroke="none" stroke-width="1"><g id="001-rubbish" fill="#484848" fill-rule="nonzero" transform="translate(25.000000, 6.000000)"><path id="Shape" d="M95.5102151,13.805914 L70.9255376,13.805914 L70.9255376,4.48817204 C70.9255376,2.00967742 68.916129,0 66.4373656,0 L33.5629032,0 C31.0844086,0 29.0747312,2.0094086 29.0747312,4.48817204 L29.0747312,13.805914 L4.49005376,13.805914 C2.01155914,13.805914 0.00188172043,15.8153226 0.00188172043,18.294086 L0.00188172043,32.0997312 C0.00188172043,34.5782258 2.01129032,36.5879032 4.49005376,36.5879032 L95.5096774,36.5879032 C97.988172,36.5879032 99.9978495,34.5784946 99.9978495,32.0997312 L99.9978495,18.294086 C99.9978495,15.8150538 97.9887097,13.805914 95.5102151,13.805914 Z M61.9489247,13.805914 L38.0510753,13.805914 L38.0510753,8.97607527 L61.9489247,8.97607527 L61.9489247,13.805914 Z"/><path id="Shape" d="M6.2344086,45.5637097 L9.95591398,133.336828 C10.0575269,135.739247 12.0352151,137.634677 14.4397849,137.634677 L85.5602151,137.634677 C87.9647849,137.634677 89.9424731,135.739247 90.044086,133.336559 L93.7653226,45.5637097 L6.2344086,45.5637097 Z M36.4327957,119.383065 C36.4327957,121.861559 34.4233871,123.871237 31.9446237,123.871237 C29.466129,123.871237 27.4564516,121.861828 27.4564516,119.383065 L27.4564516,63.8147849 C27.4564516,61.3362903 29.4658602,59.3266129 31.9446237,59.3266129 C34.4231183,59.3266129 36.4327957,61.3360215 36.4327957,63.8147849 L36.4327957,119.383065 Z M54.4873656,119.383065 C54.4873656,121.861559 52.477957,123.871237 49.9991935,123.871237 C47.5204301,123.871237 45.5110215,121.861828 45.5110215,119.383065 L45.5110215,63.8147849 C45.5110215,61.3362903 47.5204301,59.3266129 49.9991935,59.3266129 C52.477957,59.3266129 54.4873656,61.3360215 54.4873656,63.8147849 L54.4873656,119.383065 Z M72.5419355,119.383065 C72.5419355,121.861559 70.5325269,123.871237 68.0537634,123.871237 C65.575,123.871237 63.5655914,121.861828 63.5655914,119.383065 L63.5655914,63.8147849 C63.5655914,61.3362903 65.575,59.3266129 68.0537634,59.3266129 C70.5325269,59.3266129 72.5419355,61.3360215 72.5419355,63.8147849 L72.5419355,119.383065 Z"/></g></g></svg>