<svg xmlns="http://www.w3.org/2000/svg" xmlns:xlink="http://www.w3.org/1999/xlink" width="48" height="48" version="1.1" viewBox="0 0 48 48"><title>Icons/i_deposit</title><defs><polygon id="path-1" points="0 0 38 0 38 38.5 0 38.5"/></defs><g id="Icons/i_deposit" fill="none" fill-rule="evenodd" stroke="none" stroke-width="1"><g id="Group-3" transform="translate(5.000000, 5.000000)"><mask id="mask-2" fill="#fff"><use xlink:href="#path-1"/></mask><path id="Fill-1" fill="#B82B22" d="M36,23.3691 C36,23.9731 35.493,24.4631 34.872,24.4631 C34.871,24.4631 32.802,24.4601 32.678,24.4591 C32.253,24.4061 31.842,24.6571 31.668,25.0521 C30.628,27.4221 28.764,29.3771 26.42,30.5581 C26.083,30.7281 25.87,31.0731 25.87,31.4511 L25.87,36.2451 C25.87,36.3861 25.745,36.5001 25.592,36.5001 L21.758,36.5001 C21.604,36.5001 21.479,36.3861 21.479,36.2451 L21.479,32.6761 C21.479,32.1231 21.032,31.6761 20.479,31.6761 L14.112,31.6761 C13.56,31.6761 13.112,32.1231 13.112,32.6761 L13.112,36.2451 C13.112,36.3861 12.988,36.5001 12.835,36.5001 L9,36.5001 C8.847,36.5001 8.722,36.3861 8.722,36.2451 L8.722,31.4511 C8.722,31.0731 8.509,30.7281 8.172,30.5581 C4.365,28.6381 2,24.8411 2,20.6481 C2,14.5051 7.094,9.5071 13.355,9.5071 L21.237,9.5071 C21.792,9.5071 23.872,9.5811 23.874,9.5811 C24.261,9.6121 24.618,9.3861 24.797,9.0431 C26.018,6.6941 27.136,5.8931 27.819,5.6261 L27.819,11.4351 C27.819,11.7301 27.949,12.0101 28.175,12.2001 C29.444,13.2701 30.988,14.6961 31.668,16.2441 C31.831,16.6141 32.211,16.8901 32.616,16.8411 C32.784,16.8381 34.866,16.8341 34.87,16.8341 C35.493,16.8341 36,17.3241 36,17.9271 L36,23.3691 Z M15,2.0001 C17.206,2.0001 19,3.7941 19,6.0001 C19,6.5181 18.897,7.0301 18.704,7.5071 L13.355,7.5071 C12.678,7.5071 12.017,7.5721 11.365,7.6691 C11.127,7.1481 11,6.5821 11,6.0001 C11,3.7941 12.794,2.0001 15,2.0001 L15,2.0001 Z M34.868,14.8341 C34.069,14.8351 33.546,14.8371 33.202,14.8381 C32.369,13.3251 31.021,12.0131 29.819,10.9741 L29.819,4.5471 C29.819,4.1131 29.54,3.7291 29.127,3.5961 C28.813,3.4931 26.045,2.7651 23.325,7.5611 C22.648,7.5391 21.609,7.5071 21.237,7.5071 L20.805,7.5071 C20.932,7.0161 21,6.5111 21,6.0001 C21,2.6911 18.309,0.0001 15,0.0001 C11.691,0.0001 9,2.6911 9,6.0001 C9,6.7241 9.145,7.4301 9.394,8.0981 C6.975,8.8381 4.855,10.2461 3.24,12.0921 C2.51,11.7891 2,11.0711 2,10.2501 C2,9.1471 2.897,8.2501 4,8.2501 C4.553,8.2501 5,7.8031 5,7.2501 C5,6.6971 4.553,6.2501 4,6.2501 C1.794,6.2501 0,8.0441 0,10.2501 C0,11.7171 0.812,13.0261 2.027,13.7221 C0.75,15.7361 0,18.1041 0,20.6481 C0,25.3941 2.56,29.7091 6.722,32.0511 L6.722,36.2451 C6.722,37.4881 7.744,38.5001 9,38.5001 L12.835,38.5001 C14.091,38.5001 15.112,37.4881 15.112,36.2451 L15.112,33.6761 L19.479,33.6761 L19.479,36.2451 C19.479,37.4881 20.502,38.5001 21.758,38.5001 L25.592,38.5001 C26.848,38.5001 27.87,37.4881 27.87,36.2451 L27.87,32.0511 C30.174,30.7521 32.042,28.7981 33.216,26.4591 C33.562,26.4601 34.083,26.4621 34.87,26.4631 C36.596,26.4631 38,25.0751 38,23.3691 L38,17.9271 C38,16.2221 36.596,14.8341 34.868,14.8341 L34.868,14.8341 Z" mask="url(#mask-2)"/></g></g></svg>