<svg xmlns="http://www.w3.org/2000/svg" xmlns:xlink="http://www.w3.org/1999/xlink" width="48" height="48" version="1.1" viewBox="0 0 48 48"><title>Icons/i_edit</title><g id="Icons/i_edit" fill="none" fill-rule="evenodd" stroke="none" stroke-width="1"><path id="Fill-1" fill="#B82B22" d="M39.9412,14.6192 L38.5262,16.0332 L34.9912,12.4972 L31.4562,8.9622 L32.8702,7.5482 C33.6262,6.7922 34.9422,6.7922 35.6982,7.5482 L39.9412,11.7902 C40.7202,12.5702 40.7202,13.8392 39.9412,14.6192 L39.9412,14.6192 Z M18.7272,35.8322 L11.6562,28.7612 L30.0422,10.3762 L33.5772,13.9112 L37.1122,17.4472 L18.7272,35.8322 Z M7.5812,39.9072 L10.6792,30.6122 L16.8762,36.8082 L7.5812,39.9072 Z M41.3552,10.3762 L37.1122,6.1342 C35.6022,4.6222 32.9652,4.6222 31.4562,6.1342 L29.3352,8.2552 L9.5352,28.0542 C9.5252,28.0632 9.5212,28.0782 9.5122,28.0882 C9.4442,28.1612 9.3892,28.2452 9.3452,28.3372 C9.3352,28.3602 9.3222,28.3812 9.3122,28.4052 C9.3072,28.4192 9.2982,28.4312 9.2942,28.4442 L5.0512,41.1722 C4.9312,41.5312 5.0252,41.9282 5.2932,42.1952 C5.4832,42.3862 5.7392,42.4882 6.0002,42.4882 C6.1052,42.4882 6.2122,42.4722 6.3162,42.4362 L19.0442,38.1942 C19.0562,38.1902 19.0662,38.1822 19.0782,38.1782 C19.1012,38.1692 19.1222,38.1562 19.1442,38.1452 C19.2392,38.1012 19.3252,38.0452 19.4012,37.9752 C19.4112,37.9662 19.4242,37.9632 19.4342,37.9532 L39.2332,18.1542 L41.3552,16.0332 C42.9142,14.4732 42.9142,11.9352 41.3552,10.3762 L41.3552,10.3762 Z"/></g></svg>