<svg xmlns="http://www.w3.org/2000/svg" xmlns:xlink="http://www.w3.org/1999/xlink" width="150" height="150" version="1.1" viewBox="0 0 150 150"><title>icon/i_empty</title><desc>Created with Sketch.</desc><g id="icon/i_empty" fill="none" fill-rule="evenodd" stroke="none" stroke-width="1"><g id="noun_Box_1591414" fill="#3E3E3E" fill-rule="nonzero" stroke="#3E3E3E" transform="translate(9.000000, 27.000000)"><g id="Group" transform="translate(0.120879, 0.000000)"><path id="Shape" d="M65.7122093,0.557642222 L18.5625,10.0844279 C18.1991326,10.1600553 17.8753793,10.3651704 17.6511628,10.6618089 L0.335755814,33.4683565 C0.0298732955,33.8618809 -0.0669412048,34.3796969 0.0760015078,34.8576623 C0.21894422,35.3356278 0.583918977,35.7144739 1.05523256,35.8741105 L16.8837209,40.9743089 L16.8837209,79.0814517 C16.8919291,79.7393343 17.3159161,80.319306 17.9389535,80.5249041 L65.5203488,95.9217295 C65.831905,96.024533 66.168095,96.024533 66.4796512,95.9217295 L114.061047,80.5249041 C114.684084,80.319306 115.108071,79.7393343 115.116279,79.0814517 L115.116279,40.9743089 L130.944767,35.8741105 C131.416081,35.7144739 131.781056,35.3356278 131.923998,34.8576623 C132.066941,34.3796969 131.970127,33.8618809 131.664244,33.4683565 L114.348837,10.6618089 C114.124621,10.3651704 113.800867,10.1600553 113.4375,10.0844279 L66.2877907,0.557642222 C66.0976465,0.521236753 65.9023535,0.521236753 65.7122093,0.557642222 Z M66,3.6370073 L108.065407,12.1533763 L66,22.0169676 L23.934593,12.1533763 L66,3.6370073 Z M18.8502907,14.1260946 L64.369186,24.8557573 L48.4927326,47.9991105 L4.07703488,33.6127017 L18.8502907,14.1260946 Z M113.149709,14.1260946 L127.922965,33.6127017 L83.5072674,47.9991105 L67.630814,24.8557573 L113.149709,14.1260946 Z M64.4651163,30.148416 L64.4651163,92.3612137 L19.9534884,77.9266898 L19.9534884,41.9847256 L48.6366279,51.2709359 C49.2761488,51.4784607 49.9758822,51.244487 50.3633721,50.6935549 L64.4651163,30.148416 Z M67.5348837,30.148416 L81.6366279,50.6935549 C82.0241178,51.244487 82.7238512,51.4784607 83.3633721,51.2709359 L112.046512,41.9847256 L112.046512,77.9266898 L67.5348837,92.3612137 L67.5348837,30.148416 Z"/></g></g></g></svg>