<?xml version="1.0" encoding="UTF-8"?>
<svg width="150px" height="150px" viewBox="0 0 150 150" version="1.1" xmlns="http://www.w3.org/2000/svg" xmlns:xlink="http://www.w3.org/1999/xlink">
    <!-- Generator: Sketch 63.1 (92452) - https://sketch.com -->
    <title>icon/i_error</title>
    <desc>Created with Sketch.</desc>
    <g id="icon/i_error" stroke="none" stroke-width="1" fill="none" fill-rule="evenodd">
        <circle id="Oval" fill="#FFFFFF" cx="75" cy="75" r="65"></circle>
        <g id="noun_Exclamation-Mark_1012355" transform="translate(10.000000, 10.000000)" fill="#3E3E3E" fill-rule="nonzero">
            <path d="M65,130 C100.898509,130 130,100.898509 130,65 C130,29.1014913 100.898509,0 65,0 C29.1014913,0 0,29.1014913 0,65 C0,100.898509 29.1014913,130 65,130 Z M56.875,38.59375 C56.875,34.1064365 60.5126865,30.4687502 65,30.4687502 C69.4873135,30.4687502 73.125,34.1064365 73.125,38.59375 L73.125,67.03125 C73.125,71.5185636 69.4873136,75.15625 65,75.15625 C60.5126864,75.15625 56.875,71.5185636 56.875,67.03125 L56.875,38.59375 Z M65,83.28125 C69.4873136,83.28125 73.125,86.9189364 73.125,91.40625 C73.125,95.8935636 69.4873136,99.53125 65,99.53125 C60.5126864,99.53125 56.875,95.8935636 56.875,91.40625 C56.875,86.9189364 60.5126864,83.28125 65,83.28125 L65,83.28125 Z" id="Shape"></path>
        </g>
    </g>
</svg>