<?xml version="1.0" encoding="UTF-8"?>
<svg width="48px" height="48px" viewBox="0 0 48 48" version="1.1" xmlns="http://www.w3.org/2000/svg" xmlns:xlink="http://www.w3.org/1999/xlink">
    <title>Icons/i_faceid</title>
    <g id="Icons/i_faceid" stroke="none" stroke-width="1" fill="none" fill-rule="evenodd">
        <g id="Group-15" transform="translate(5.000000, 5.000000)" fill="#B82B22">
            <path d="M15.0068,13.0127 C15.0068,14.1167 14.1108,15.0127 13.0068,15.0127 C11.9028,15.0127 11.0068,14.1167 11.0068,13.0127 C11.0068,11.9087 11.9028,11.0127 13.0068,11.0127 C14.1108,11.0127 15.0068,11.9087 15.0068,13.0127" id="Fill-1"></path>
            <path d="M27.0068,13.0127 C27.0068,14.1167 26.1108,15.0127 25.0068,15.0127 C23.9028,15.0127 23.0068,14.1167 23.0068,13.0127 C23.0068,11.9087 23.9028,11.0127 25.0068,11.0127 C26.1108,11.0127 27.0068,11.9087 27.0068,13.0127" id="Fill-3"></path>
            <path d="M11.0127,38.0127 L5.0127,38.0127 C2.2557,38.0127 0.0127,35.7697 0.0127,33.0127 L0.0127,27.0127 C0.0127,26.4597 0.4597,26.0127 1.0127,26.0127 C1.5657,26.0127 2.0127,26.4597 2.0127,27.0127 L2.0127,33.0127 C2.0127,34.6667 3.3587,36.0127 5.0127,36.0127 L11.0127,36.0127 C11.5657,36.0127 12.0127,36.4597 12.0127,37.0127 C12.0127,37.5657 11.5657,38.0127 11.0127,38.0127" id="Fill-5"></path>
            <path d="M1,12 C0.447,12 0,11.553 0,11 L0,5 C0,2.243 2.243,0 5,0 L11,0 C11.553,0 12,0.447 12,1 C12,1.553 11.553,2 11,2 L5,2 C3.346,2 2,3.346 2,5 L2,11 C2,11.553 1.553,12 1,12" id="Fill-7"></path>
            <path d="M33,38.0127 L27,38.0127 C26.447,38.0127 26,37.5657 26,37.0127 C26,36.4597 26.447,36.0127 27,36.0127 L33,36.0127 C34.654,36.0127 36,34.6667 36,33.0127 L36,27.0127 C36,26.4597 36.447,26.0127 37,26.0127 C37.553,26.0127 38,26.4597 38,27.0127 L38,33.0127 C38,35.7697 35.757,38.0127 33,38.0127" id="Fill-9"></path>
            <path d="M37.0127,12 C36.4597,12 36.0127,11.553 36.0127,11 L36.0127,5 C36.0127,3.346 34.6667,2 33.0127,2 L27.0127,2 C26.4597,2 26.0127,1.553 26.0127,1 C26.0127,0.447 26.4597,0 27.0127,0 L33.0127,0 C35.7697,0 38.0127,2.243 38.0127,5 L38.0127,11 C38.0127,11.553 37.5657,12 37.0127,12" id="Fill-11"></path>
            <path d="M19.0068,28.0127 C15.1868,28.0127 11.7048,26.2447 10.1388,23.5097 C9.8638,23.0307 10.0298,22.4187 10.5098,22.1447 C10.9908,21.8717 11.5998,22.0367 11.8748,22.5157 C13.0908,24.6397 15.8908,26.0127 19.0068,26.0127 C22.1218,26.0127 24.9218,24.6397 26.1398,22.5157 C26.4138,22.0357 27.0258,21.8697 27.5038,22.1457 C27.9838,22.4197 28.1498,23.0307 27.8738,23.5097 C26.3068,26.2447 22.8258,28.0127 19.0068,28.0127" id="Fill-13"></path>
        </g>
    </g>
</svg>