<?xml version="1.0" encoding="UTF-8"?>
<svg width="150px" height="150px" viewBox="0 0 150 150" version="1.1" xmlns="http://www.w3.org/2000/svg" xmlns:xlink="http://www.w3.org/1999/xlink">
    <!-- Generator: Sketch 63.1 (92452) - https://sketch.com -->
    <title>icon/i_fault</title>
    <desc>Created with Sketch.</desc>
    <g id="icon/i_fault" stroke="none" stroke-width="1" fill="none" fill-rule="evenodd">
        <circle id="Oval" fill="#FFFFFF" cx="75" cy="75" r="65"></circle>
        <g id="noun_wrong_1890786" transform="translate(10.000000, 10.000000)" fill="#3E3E3E" fill-rule="nonzero">
            <path d="M65,0 C29.1473684,0 0,29.1473684 0,65 C0,100.852632 29.1473684,130 65,130 C100.852632,130 130,100.852632 130,65 C130,29.1473684 100.852632,0 65,0 Z M89.2210526,77.8631579 C92.3684211,81.0105263 92.3684211,86.0736842 89.2210526,89.2210526 C87.7157895,90.7263158 85.6631579,91.5473684 83.6105263,91.5473684 C81.5578947,91.5473684 79.5052632,90.7263158 78,89.2210526 L65,76.3578947 L52.1368421,89.2210526 C50.6315789,90.7263158 48.5789474,91.5473684 46.5263158,91.5473684 C44.4736842,91.5473684 42.4210526,90.7263158 40.9157895,89.2210526 C37.7684211,86.0736842 37.7684211,81.0105263 40.9157895,77.8631579 L53.7789474,65 L40.9157895,52.1368421 C37.7684211,48.9894737 37.7684211,43.9263158 40.9157895,40.7789474 C44.0631579,37.6315789 49.1263158,37.6315789 52.2736842,40.7789474 L65.1368421,53.6421053 L78,40.7789474 C81.1473684,37.6315789 86.2105263,37.6315789 89.3578947,40.7789474 C92.5052632,43.9263158 92.5052632,48.9894737 89.3578947,52.1368421 L76.3578947,65 L89.2210526,77.8631579 Z" id="Shape"></path>
        </g>
    </g>
</svg>