<?xml version="1.0" encoding="UTF-8"?>
<svg width="48px" height="48px" viewBox="0 0 48 48" version="1.1" xmlns="http://www.w3.org/2000/svg" xmlns:xlink="http://www.w3.org/1999/xlink">
    <title>Icons/i_filter</title>
    <g id="Icons/i_filter" stroke="none" stroke-width="1" fill="none" fill-rule="evenodd">
        <path d="M28.3213,23.2656 C28.1163,23.4536 28.0003,23.7206 28.0003,23.9996 L28.0003,36.3816 L20.0003,40.3816 L20.0003,23.9996 C20.0003,23.7206 19.8833,23.4536 19.6783,23.2656 L8.5573,12.9996 L39.4423,12.9996 L28.3213,23.2656 Z M7.0003,10.9996 L41.0003,10.9996 L41.0003,6.9996 L7.0003,6.9996 L7.0003,10.9996 Z M42.9343,12.3276 C42.9643,12.2416 42.9813,12.1546 42.9873,12.0646 C42.9883,12.0416 43.0003,12.0226 43.0003,11.9996 L43.0003,5.9996 C43.0003,5.4476 42.5523,4.9996 42.0003,4.9996 L6.0003,4.9996 C5.4473,4.9996 5.0003,5.4476 5.0003,5.9996 L5.0003,11.9996 C5.0003,12.0236 5.0113,12.0416 5.0123,12.0646 C5.0193,12.1556 5.0363,12.2416 5.0663,12.3276 C5.0783,12.3636 5.0913,12.3976 5.1073,12.4316 C5.1453,12.5106 5.1953,12.5826 5.2553,12.6516 C5.2733,12.6726 5.2873,12.6976 5.3073,12.7176 C5.3133,12.7226 5.3153,12.7296 5.3213,12.7346 L18.0003,24.4376 L18.0003,41.9996 C18.0003,42.3466 18.1793,42.6676 18.4743,42.8506 C18.6343,42.9506 18.8173,42.9996 19.0003,42.9996 C19.1533,42.9996 19.3053,42.9646 19.4473,42.8946 L29.4473,37.8946 C29.7863,37.7246 30.0003,37.3786 30.0003,36.9996 L30.0003,24.4376 L42.6783,12.7346 C42.6843,12.7296 42.6863,12.7226 42.6923,12.7176 C42.7133,12.6976 42.7263,12.6726 42.7453,12.6516 C42.8043,12.5826 42.8543,12.5116 42.8923,12.4316 C42.9093,12.3976 42.9223,12.3636 42.9343,12.3276 L42.9343,12.3276 Z" id="Fill-1" fill="#B82B22"></path>
    </g>
</svg>