<?xml version="1.0" encoding="UTF-8"?>
<svg width="48px" height="48px" viewBox="0 0 48 48" version="1.1" xmlns="http://www.w3.org/2000/svg" xmlns:xlink="http://www.w3.org/1999/xlink">
    <title>Flag/i_flag_eur</title>
    <defs>
        <circle id="path-1" cx="24" cy="24" r="24"></circle>
    </defs>
    <g id="Flag/i_flag_eur" stroke="none" stroke-width="1" fill="none" fill-rule="evenodd">
        <mask id="mask-2" fill="white">
            <use xlink:href="#path-1"></use>
        </mask>
        <use id="Oval" fill="#003399" xlink:href="#path-1"></use>
        <g id="Group-14" mask="url(#mask-2)" fill="#FFCC00">
            <g transform="translate(4.000000, 4.000000)">
                <polygon id="Fill-2" points="19.8553 0.5569 19.2323 2.4749 17.2143 2.4749 18.8463 3.6619 18.2223 5.5819 19.8553 4.3949 21.4893 5.5819 20.8653 3.6619 22.4983 2.4749 20.4783 2.4749"></polygon>
                <polygon id="Fill-3" points="20.4784 35.8084 19.8554 33.8894 19.2324 35.8084 17.2144 35.8084 18.8464 36.9954 18.2224 38.9144 19.8554 37.7284 21.4894 38.9144 20.8654 36.9954 22.4984 35.8084"></polygon>
                <polygon id="Fill-4" points="3.1893 21.0623 4.8213 22.2483 4.1993 20.3283 5.8323 19.1433 3.8123 19.1433 3.1893 17.2233 2.5643 19.1433 0.5463 19.1433 2.1803 20.3283 1.5563 22.2483"></polygon>
                <polygon id="Fill-5" points="11.5233 2.7883 10.8983 4.7093 8.8803 4.7093 10.5123 5.8933 9.8903 7.8133 11.5233 6.6293 13.1553 7.8133 12.5313 5.8933 14.1663 4.7093 12.1463 4.7093"></polygon>
                <polygon id="Fill-6" points="5.4227 8.8889 4.7987 10.8079 2.7797 10.8079 4.4117 11.9959 3.7887 13.9139 5.4227 12.7289 7.0547 13.9139 6.4317 11.9959 8.0637 10.8079 6.0447 10.8079"></polygon>
                <polygon id="Fill-7" points="6.0468 27.4768 5.4228 25.5568 4.7988 27.4768 2.7798 27.4768 4.4118 28.6628 3.7888 30.5818 5.4228 29.3948 7.0548 30.5818 6.4318 28.6628 8.0638 27.4768"></polygon>
                <polygon id="Fill-8" points="12.1464 33.5774 11.5234 31.6574 10.8984 33.5774 8.8804 33.5774 10.5124 34.7624 9.8884 36.6824 11.5234 35.4954 13.1554 36.6824 12.5314 34.7624 14.1664 33.5774"></polygon>
                <polygon id="Fill-9" points="39.1659 19.1428 37.1459 19.1428 36.5229 17.2228 35.8979 19.1428 33.8809 19.1428 35.5129 20.3288 34.8889 22.2478 36.5229 21.0618 38.1549 22.2478 37.5309 20.3288"></polygon>
                <polygon id="Fill-10" points="28.1893 2.7883 27.5643 4.7093 25.5483 4.7093 27.1803 5.8933 26.5563 7.8133 28.1893 6.6293 29.8213 7.8133 29.1993 5.8933 30.8323 4.7093 28.8123 4.7093"></polygon>
                <polygon id="Fill-11" points="33.2811 11.9959 32.6561 13.9139 34.2891 12.7289 35.9241 13.9139 35.2991 11.9959 36.9311 10.8089 34.9131 10.8089 34.2891 8.8889 33.6651 10.8089 31.6481 10.8089"></polygon>
                <polygon id="Fill-12" points="34.913 27.4768 34.289 25.5568 33.665 27.4768 31.648 27.4768 33.281 28.6628 32.656 30.5818 34.289 29.3948 35.924 30.5818 35.299 28.6628 36.932 27.4768"></polygon>
                <polygon id="Fill-13" points="28.8124 33.5774 28.1894 31.6574 27.5644 33.5774 25.5484 33.5774 27.1804 34.7624 26.5564 36.6824 28.1894 35.4954 29.8214 36.6824 29.1994 34.7624 30.8324 33.5774"></polygon>
            </g>
        </g>
    </g>
</svg>