<?xml version="1.0" encoding="UTF-8"?>
<svg width="48px" height="48px" viewBox="0 0 48 48" version="1.1" xmlns="http://www.w3.org/2000/svg" xmlns:xlink="http://www.w3.org/1999/xlink">
    <title>Flag/i_flag_si</title>
    <defs>
        <circle id="path-1" cx="24" cy="24" r="24"></circle>
        <circle id="path-3" cx="24" cy="24" r="24"></circle>
    </defs>
    <g id="Flag/i_flag_si" stroke="none" stroke-width="1" fill="none" fill-rule="evenodd">
        <mask id="mask-2" fill="white">
            <use xlink:href="#path-1"></use>
        </mask>
        <use id="Oval" fill="#FFFFFF" xlink:href="#path-1"></use>
        <g id="Group-16" mask="url(#mask-2)">
            <g transform="translate(-0.000000, 0.000000)">
                <polygon id="Fill-1" fill="#E8303D" points="0 24 48 24 48 0 0 0"></polygon>
                <g id="Group-15" stroke-width="1" fill="none" transform="translate(6.760000, 4.880000)">
                    <path d="M4.64968421,8.99971579 C4.64968421,4.47034737 8.23168421,0.786031579 12.7174737,0.601294737 C11.7956842,0.277294737 10.8094737,0.0944526316 9.77778947,0.0944526316 C4.85905263,0.0944526316 0.872526316,4.08192632 0.872526316,8.99971579 C0.872526316,13.9175053 4.85905263,17.9068737 9.77778947,17.9068737 C10.8094737,17.9068737 11.7956842,17.7221368 12.7174737,17.4000316 C8.23168421,17.2152947 4.64968421,13.5290842 4.64968421,8.99971579" id="Fill-3" fill="#FFFFFF"></path>
                    <polygon id="Fill-5" fill="#FFFFFF" points="10.8797684 9.21438947 9.67187368 8.28596842 8.46018947 9.21438947 8.92534737 7.71754737 7.71271579 6.79575789 9.20955789 6.79954737 9.66997895 5.30081053 10.1304 6.79954737 11.6272421 6.79575789 10.4155579 7.71754737"></polygon>
                    <polygon id="Fill-7" fill="#FFFFFF" points="20.3738211 9.21438947 19.1640316 8.28596842 17.9532947 9.21438947 18.4194 7.71754737 17.2058211 6.79575789 18.7026632 6.79954737 19.1621368 5.30081053 19.6244526 6.79954737 21.1203474 6.79575789 19.9077158 7.71754737"></polygon>
                    <polygon id="Fill-9" fill="#FFFFFF" points="15.6313895 5.69141053 14.4234947 4.76298947 13.2108632 5.69141053 13.6769684 4.19456842 12.4643368 3.27277895 13.9602316 3.27467368 14.4216 1.77783158 14.8820211 3.27467368 16.3788632 3.27088421 15.1662316 4.19456842"></polygon>
                    <polygon id="Fill-11" fill="#FFFFFF" points="12.6570316 14.8523684 11.4462947 13.9239474 10.2374526 14.8523684 10.7026105 13.3555263 9.48808421 12.4337368 10.9868211 12.4375263 11.4462947 10.9387895 11.9057684 12.4375263 13.4045053 12.4337368 12.1899789 13.3555263"></polygon>
                    <polygon id="Fill-13" fill="#FFFFFF" points="18.5956105 14.8523684 17.3877158 13.9239474 16.1788737 14.8523684 16.6430842 13.3555263 15.4295053 12.4337368 16.9282421 12.4375263 17.3877158 10.9387895 17.8462421 12.4375263 19.3430842 12.4337368 18.1314 13.3555263"></polygon>
                </g>
            </g>
        </g>
        <mask id="mask-4" fill="white">
            <use xlink:href="#path-3"></use>
        </mask>
        <circle stroke="#E3E3E3" cx="24" cy="24" r="23.5"></circle>
    </g>
</svg>