<svg xmlns="http://www.w3.org/2000/svg" xmlns:xlink="http://www.w3.org/1999/xlink" width="48" height="48" version="1.1" viewBox="0 0 48 48"><title>Flag/i_flag_aus</title><defs><circle id="path-1" cx="24" cy="24" r="24"/></defs><g id="Flag/i_flag_aus" fill="none" fill-rule="evenodd" stroke="none" stroke-width="1"><mask id="mask-2" fill="#fff"><use xlink:href="#path-1"/></mask><use id="Oval" fill="#00008B" xlink:href="#path-1"/><g id="Group-12" mask="url(#mask-2)"><g transform="translate(-23.000000, -1.000000)"><polygon id="Fill-2" fill="#FFF" points="27.647 29.407 28.901 33.304 32.724 31.855 30.461 35.26 33.979 37.347 29.905 37.703 30.465 41.751 27.647 38.79 24.829 41.751 25.391 37.703 21.316 37.347 24.834 35.26 22.571 31.855 26.395 33.304"/><g id="Group" fill="none" stroke-width="1" transform="translate(51.000000, 12.000000)"><polygon id="Fill-3" fill="#FFF" points="6.07 26.091 6.548 27.573 8.004 27.023 7.142 28.319 8.484 29.115 6.93 29.25 7.144 30.792 6.07 29.662 4.997 30.792 5.211 29.25 3.658 29.115 4.999 28.319 4.137 27.023 5.593 27.573"/><polygon id="Fill-4" fill="#FFF" points="2.412 9.381 2.889 10.866 4.347 10.311 3.484 11.611 4.825 12.404 3.272 12.54 3.485 14.081 2.412 12.954 1.339 14.081 1.552 12.54 0 12.404 1.34 11.611 .478 10.311 1.935 10.866"/><polygon id="Fill-5" fill="#FFF" points="11.07 0 11.548 1.484 13.004 .933 12.142 2.23 13.484 3.026 11.93 3.16 12.144 4.702 11.07 3.574 9.997 4.702 10.211 3.16 8.658 3.026 9.999 2.23 9.137 .933 10.593 1.484"/><polygon id="Fill-6" fill="#FFF" points="17.768 7.073 18.244 8.555 19.702 8.004 18.84 9.3 20.18 10.096 18.627 10.231 18.84 11.776 17.768 10.645 16.695 11.776 16.909 10.231 15.354 10.096 16.696 9.3 15.833 8.004 17.291 8.555"/><polygon id="Fill-7" fill="#FFF" points="13.535 14.019 13.912 14.944 14.906 15.017 14.146 15.662 14.383 16.63 13.535 16.105 12.687 16.63 12.925 15.662 12.161 15.017 13.158 14.944"/></g><g id="Group-2" fill="none" stroke-width="1"><polygon id="Fill-8" fill="#FFF" points="41.95 0 27.551 7.2 27.551 0 19.68 0 19.68 7.2 5.281 0 .001 0 .001 2.639 10.461 7.87 .001 7.87 .001 15.745 10.463 15.745 .001 20.976 .001 23.618 5.281 23.618 19.68 16.418 19.68 23.618 27.551 23.618 27.551 16.417 41.95 23.618 47.23 23.618 47.23 20.976 36.767 15.745 47.232 15.745 47.232 7.87 36.77 7.87 47.23 2.639 47.23 0"/><polygon id="Fill-9" fill="red" points="21.255 0 21.255 9.446 .001 9.446 .001 14.168 21.255 14.168 21.255 23.618 25.978 23.618 25.978 14.168 47.229 14.168 47.229 9.446 25.978 9.446 25.978 0"/><path id="Fill-10" fill="red" d="M43.7110691,-8.67185112e-14 L27.9674182,7.87025455 L31.4883491,7.87025455 L47.2299055,-8.67185112e-14 L43.7110691,-8.67185112e-14 Z M-1.8215732e-13,-8.67185112e-14 L-1.8215732e-13,1.76256 L12.2248145,7.87025455 L15.7436509,7.87025455 L-1.8215732e-13,-8.67185112e-14 Z"/><path id="Fill-11" fill="red" d="M31.4881396,15.7442793 L47.2317905,23.6187229 L47.2317905,21.8572102 L35.0080233,15.7442793 L31.4881396,15.7442793 Z M15.7434415,15.7442793 L0.000837818182,23.6187229 L3.52176873,23.6187229 L19.2643724,15.7442793 L15.7434415,15.7442793 Z"/></g></g></g></g></svg>