<?xml version="1.0" encoding="UTF-8"?>
<svg width="48px" height="48px" viewBox="0 0 48 48" version="1.1" xmlns="http://www.w3.org/2000/svg" xmlns:xlink="http://www.w3.org/1999/xlink">
    <title>Flag/i_flag_tw</title>
    <defs>
        <circle id="path-1" cx="24" cy="24" r="24"></circle>
    </defs>
    <g id="Flag/i_flag_tw" stroke="none" stroke-width="1" fill="none" fill-rule="evenodd">
        <mask id="mask-2" fill="white">
            <use xlink:href="#path-1"></use>
        </mask>
        <use id="Oval" fill="#E50012" xlink:href="#path-1"></use>
        <g id="Group-9" mask="url(#mask-2)">
            <g transform="translate(-12.000000, 0.000000)">
                <polygon id="Fill-2" fill="#1D2087" points="0 23.999669 36 23.999669 36 -0.000331034483 0 -0.000331034483"></polygon>
                <g id="Group" stroke-width="1" fill="none" transform="translate(15.717793, 4.884055)">
                    <polygon id="Fill-3" fill="#FFFFFF" points="8.54121234 4.1200726 10.8297931 -4.37544737e-14 10.7513902 4.71279855 14.7938439 2.28936479 12.3696261 6.33025045 17.0824247 6.25341561 12.9623521 8.54199637 17.0824247 10.8297931 12.3696261 10.7521742 14.7938439 14.7938439 10.7513902 12.3696261 10.8297931 17.0824247 8.54121234 12.9623521 6.25263158 17.0824247 6.33025045 12.3696261 2.28858076 14.7938439 4.71279855 10.7521742 6.05831175e-14 10.8297931 4.1200726 8.54199637 6.05831175e-14 6.25341561 4.71279855 6.33025045 2.28858076 2.28936479 6.33025045 4.71279855 6.25263158 -4.37544737e-14"></polygon>
                    <g id="Group-8" transform="translate(3.501474, 3.780353)">
                        <path d="M9.46103521,4.76140835 C9.46103521,7.20287477 7.48136189,9.18254809 5.03989546,9.18254809 C2.59764501,9.18254809 0.618755717,7.20287477 0.618755717,4.76140835 C0.618755717,2.31915789 2.59764501,0.339484574 5.03989546,0.339484574 C7.48136189,0.339484574 9.46103521,2.31915789 9.46103521,4.76140835" id="Fill-4" fill="#1D2087"></path>
                        <path d="M8.90821633,4.76140835 C8.90821633,6.89788748 7.17629619,8.62980762 5.03981706,8.62980762 C2.90333793,8.62980762 1.17141779,6.89788748 1.17141779,4.76140835 C1.17141779,2.62414519 2.90333793,0.892225045 5.03981706,0.892225045 C7.17629619,0.892225045 8.90821633,2.62414519 8.90821633,4.76140835" id="Fill-6" fill="#FFFFFF"></path>
                    </g>
                </g>
            </g>
        </g>
    </g>
</svg>