<svg xmlns="http://www.w3.org/2000/svg" xmlns:xlink="http://www.w3.org/1999/xlink" width="48" height="48" version="1.1" viewBox="0 0 48 48"><title>Flag/i_flag_eng</title><defs><circle id="path-1" cx="24" cy="24" r="24"/></defs><g id="Flag/i_flag_eng" fill="none" fill-rule="evenodd" stroke="none" stroke-width="1"><mask id="mask-2" fill="#fff"><use xlink:href="#path-1"/></mask><use id="Oval" fill="#FFF" xlink:href="#path-1"/><g id="Group-15" mask="url(#mask-2)"><g transform="translate(-17.000000, 0.000000)"><polygon id="Fill-1" fill="#FFF" points="0 48 82.286 48 82.286 .001 0 .001"/><polygon id="Fill-2" fill="#00247D" points="47.846 0 47.846 16.138 76.658 0"/><polygon id="Fill-3" fill="#00247D" points="6.428 0 35.124 16.138 35.124 0"/><polygon id="Fill-4" fill="#00247D" points="62.744 17.356 82.286 17.356 82.286 6.343"/><polygon id="Fill-5" fill="#00247D" points="62.744 31.613 82.286 42.502 82.286 31.613"/><polygon id="Fill-6" fill="#00247D" points="8.057 48 35.123 48 35.123 32.83"/><polygon id="Fill-7" fill="#00247D" points="47.846 48 74.997 48 47.846 32.83"/><polygon id="Fill-8" fill="#00247D" points="0 31.613 0 42.994 20.225 31.613"/><polygon id="Fill-9" fill="#00247D" points="0 17.356 20.225 17.356 0 5.954"/><polygon id="Fill-10" fill="#CF142B" points="80.409 0 49.409 17.355 55.099 17.355 82.287 2.137 82.287 0"/><polygon id="Fill-11" fill="#CF142B" points="53.813 31.613 82.286 47.543 82.286 44.356 59.501 31.613"/><polygon id="Fill-12" fill="#CF142B" points="0 3.658 24.356 17.356 30.047 17.356 0 .466"/><polygon id="Fill-13" fill="#CF142B" points="28.761 31.613 0 47.722 0 48 5.194 48 34.451 31.613"/><polygon id="Fill-14" fill="#CF142B" points="37.668 0 37.668 20.207 0 20.207 0 28.76 37.668 28.76 37.668 48 45.302 48 45.302 28.76 82.287 28.76 82.287 20.207 45.302 20.207 45.302 0"/></g></g></g></svg>