<?xml version="1.0" encoding="UTF-8"?>
<svg width="48px" height="48px" viewBox="0 0 48 48" version="1.1" xmlns="http://www.w3.org/2000/svg" xmlns:xlink="http://www.w3.org/1999/xlink">
    <title>Flag/i_flag_us</title>
    <defs>
        <circle id="path-1" cx="24" cy="24" r="24"></circle>
    </defs>
    <g id="Flag/i_flag_us" stroke="none" stroke-width="1" fill="none" fill-rule="evenodd">
        <mask id="mask-2" fill="white">
            <use xlink:href="#path-1"></use>
        </mask>
        <use id="Oval" fill="#D8D8D8" xlink:href="#path-1"></use>
        <g id="Group-65" mask="url(#mask-2)">
            <g transform="translate(-13.000000, 0.000000)">
                <polygon id="Fill-1" fill="#B22234" points="0 48 82.2864 48 82.2864 44.30784 0 44.30784"></polygon>
                <polygon id="Fill-2" fill="#FFFFFF" points="0 44.30784 82.2864 44.30784 82.2864 40.61472 0 40.61472"></polygon>
                <polygon id="Fill-3" fill="#B22234" points="0 40.61568 82.2864 40.61568 82.2864 36.92352 0 36.92352"></polygon>
                <polygon id="Fill-4" fill="#FFFFFF" points="0 36.92352 82.2864 36.92352 82.2864 33.23136 0 33.23136"></polygon>
                <polygon id="Fill-5" fill="#B22234" points="0 33.23136 82.2864 33.23136 82.2864 29.53824 0 29.53824"></polygon>
                <polygon id="Fill-6" fill="#FFFFFF" points="0 29.5392 82.2864 29.5392 82.2864 25.84704 0 25.84704"></polygon>
                <polygon id="Fill-7" fill="#B22234" points="0 25.84704 82.2864 25.84704 82.2864 22.15488 0 22.15488"></polygon>
                <polygon id="Fill-8" fill="#FFFFFF" points="0 22.15296 82.2864 22.15296 82.2864 18.45984 0 18.45984"></polygon>
                <polygon id="Fill-9" fill="#B22234" points="0 18.4608 82.2864 18.4608 82.2864 14.76864 0 14.76864"></polygon>
                <polygon id="Fill-10" fill="#FFFFFF" points="0 14.76864 82.2864 14.76864 82.2864 11.07648 0 11.07648"></polygon>
                <polygon id="Fill-11" fill="#B22234" points="0 11.07648 82.2864 11.07648 82.2864 7.38432 0 7.38432"></polygon>
                <polygon id="Fill-12" fill="#FFFFFF" points="0 7.38528 82.2864 7.38528 82.2864 3.6912 0 3.6912"></polygon>
                <polygon id="Fill-13" fill="#B22234" points="0 3.6912 82.2864 3.6912 82.2864 0 0 0"></polygon>
                <polygon id="Fill-14" fill="#3C3B6E" points="0 25.84704 37.56864 25.84704 37.56864 0 0 0"></polygon>
                <polygon id="Fill-29" fill="#FFFFFF" points="12.440544 5.121792 12.123744 6.098112 11.097504 6.098112 11.925984 6.701952 11.609184 7.678272 12.440544 7.075392 13.270944 7.678272 12.954144 6.701952 13.784544 6.098112 12.759264 6.098112"></polygon>
                <polygon id="Fill-30" fill="#FFFFFF" points="12.440544 9.436128 12.123744 10.411488 11.097504 10.411488 11.925984 11.016288 11.609184 11.992608 12.440544 11.389728 13.270944 11.992608 12.954144 11.016288 13.784544 10.411488 12.759264 10.411488"></polygon>
                <polygon id="Fill-31" fill="#FFFFFF" points="12.440544 13.75056 12.123744 14.72688 11.097504 14.72688 11.925984 15.33072 11.609184 16.30704 12.440544 15.70416 13.270944 16.30704 12.954144 15.33072 13.784544 14.72688 12.759264 14.72688"></polygon>
                <polygon id="Fill-32" fill="#FFFFFF" points="12.759264 19.040832 12.440544 18.064512 12.123744 19.040832 11.097504 19.040832 11.925984 19.645632 11.609184 20.620992 12.440544 20.019072 13.270944 20.620992 12.954144 19.645632 13.784544 19.040832"></polygon>
                <polygon id="Fill-33" fill="#FFFFFF" points="15.482688 2.84832 15.165888 3.82656 14.140608 3.82656 14.971008 4.42752 14.652288 5.40576 15.482688 4.80096 16.314048 5.40576 15.997248 4.42752 16.827648 3.82656 15.802368 3.82656"></polygon>
                <polygon id="Fill-34" fill="#FFFFFF" points="15.482688 7.162752 15.165888 8.140032 14.140608 8.140032 14.971008 8.742912 14.652288 9.720192 15.482688 9.115392 16.314048 9.720192 15.997248 8.742912 16.827648 8.140032 15.802368 8.140032"></polygon>
                <polygon id="Fill-35" fill="#FFFFFF" points="15.482688 11.476128 15.165888 12.454368 14.140608 12.454368 14.971008 13.056288 14.652288 14.034528 15.482688 13.429728 16.314048 14.034528 15.997248 13.056288 16.827648 12.454368 15.802368 12.454368"></polygon>
                <polygon id="Fill-36" fill="#FFFFFF" points="15.482688 15.792384 15.165888 16.768704 14.140608 16.768704 14.971008 17.372544 14.652288 18.348864 15.482688 17.745984 16.314048 18.348864 15.997248 17.372544 16.827648 16.768704 15.802368 16.768704"></polygon>
                <polygon id="Fill-37" fill="#FFFFFF" points="15.802368 21.082752 15.482688 20.106432 15.165888 21.082752 14.140608 21.082752 14.971008 21.687552 14.652288 22.662912 15.482688 22.060992 16.314048 22.662912 15.997248 21.687552 16.827648 21.082752"></polygon>
                <polygon id="Fill-38" fill="#FFFFFF" points="18.489216 5.121792 18.170496 6.098112 17.145216 6.098112 17.975616 6.701952 17.658816 7.678272 18.489216 7.075392 19.319616 7.678272 19.000896 6.701952 19.831296 6.098112 18.806016 6.098112"></polygon>
                <polygon id="Fill-39" fill="#FFFFFF" points="18.489216 9.436128 18.170496 10.411488 17.145216 10.411488 17.975616 11.016288 17.658816 11.992608 18.489216 11.389728 19.319616 11.992608 19.000896 11.016288 19.831296 10.411488 18.806016 10.411488"></polygon>
                <polygon id="Fill-40" fill="#FFFFFF" points="18.489216 13.75056 18.170496 14.72688 17.145216 14.72688 17.975616 15.33072 17.658816 16.30704 18.489216 15.70416 19.319616 16.30704 19.000896 15.33072 19.831296 14.72688 18.806016 14.72688"></polygon>
                <polygon id="Fill-41" fill="#FFFFFF" points="18.806112 19.040832 18.489312 18.064512 18.170592 19.040832 17.145312 19.040832 17.975712 19.645632 17.658912 20.620992 18.489312 20.019072 19.319712 20.620992 19.000992 19.645632 19.831392 19.040832"></polygon>
                <polygon id="Fill-42" fill="#FFFFFF" points="21.532416 2.84832 21.215616 3.82656 20.188416 3.82656 21.018816 4.42752 20.702016 5.40576 21.532416 4.80096 22.362816 5.40576 22.046016 4.42752 22.876416 3.82656 21.849216 3.82656"></polygon>
                <polygon id="Fill-43" fill="#FFFFFF" points="21.532416 7.162752 21.215616 8.140032 20.188416 8.140032 21.018816 8.742912 20.702016 9.720192 21.532416 9.115392 22.362816 9.720192 22.046016 8.742912 22.876416 8.140032 21.849216 8.140032"></polygon>
                <polygon id="Fill-44" fill="#FFFFFF" points="21.532416 11.476128 21.215616 12.454368 20.188416 12.454368 21.018816 13.056288 20.702016 14.034528 21.532416 13.429728 22.362816 14.034528 22.046016 13.056288 22.876416 12.454368 21.849216 12.454368"></polygon>
                <polygon id="Fill-45" fill="#FFFFFF" points="21.532416 15.792384 21.215616 16.768704 20.188416 16.768704 21.018816 17.372544 20.702016 18.348864 21.532416 17.745984 22.362816 18.348864 22.046016 17.372544 22.876416 16.768704 21.849216 16.768704"></polygon>
                <polygon id="Fill-46" fill="#FFFFFF" points="21.849216 21.082752 21.532416 20.106432 21.215616 21.082752 20.188416 21.082752 21.018816 21.687552 20.702016 22.662912 21.532416 22.060992 22.362816 22.662912 22.046016 21.687552 22.876416 21.082752"></polygon>
                <polygon id="Fill-47" fill="#FFFFFF" points="24.53616 5.121792 24.21936 6.098112 23.19216 6.098112 24.02256 6.701952 23.70576 7.678272 24.53616 7.075392 25.36656 7.678272 25.04976 6.701952 25.88112 6.098112 24.85296 6.098112"></polygon>
                <polygon id="Fill-48" fill="#FFFFFF" points="24.53616 9.436128 24.21936 10.411488 23.19216 10.411488 24.02256 11.016288 23.70576 11.992608 24.53616 11.389728 25.36656 11.992608 25.04976 11.016288 25.88112 10.411488 24.85296 10.411488"></polygon>
                <polygon id="Fill-49" fill="#FFFFFF" points="24.53616 13.75056 24.21936 14.72688 23.19216 14.72688 24.02256 15.33072 23.70576 16.30704 24.53616 15.70416 25.36656 16.30704 25.04976 15.33072 25.88112 14.72688 24.85296 14.72688"></polygon>
                <polygon id="Fill-50" fill="#FFFFFF" points="24.85296 19.040832 24.53616 18.064512 24.21936 19.040832 23.19216 19.040832 24.02256 19.645632 23.70576 20.620992 24.53616 20.019072 25.36656 20.620992 25.04976 19.645632 25.88112 19.040832"></polygon>
                <polygon id="Fill-51" fill="#FFFFFF" points="27.579264 2.84832 27.262464 3.82656 26.235264 3.82656 27.065664 4.42752 26.748864 5.40576 27.579264 4.80096 28.409664 5.40576 28.092864 4.42752 28.923264 3.82656 27.897984 3.82656"></polygon>
                <polygon id="Fill-52" fill="#FFFFFF" points="27.579264 7.162752 27.262464 8.140032 26.235264 8.140032 27.065664 8.742912 26.748864 9.720192 27.579264 9.115392 28.409664 9.720192 28.092864 8.742912 28.923264 8.140032 27.897984 8.140032"></polygon>
                <polygon id="Fill-53" fill="#FFFFFF" points="27.579264 11.476128 27.262464 12.454368 26.235264 12.454368 27.065664 13.056288 26.748864 14.034528 27.579264 13.429728 28.409664 14.034528 28.092864 13.056288 28.923264 12.454368 27.897984 12.454368"></polygon>
                <polygon id="Fill-54" fill="#FFFFFF" points="27.579264 15.792384 27.262464 16.768704 26.235264 16.768704 27.065664 17.372544 26.748864 18.348864 27.579264 17.745984 28.409664 18.348864 28.092864 17.372544 28.923264 16.768704 27.897984 16.768704"></polygon>
                <polygon id="Fill-55" fill="#FFFFFF" points="27.897984 21.082752 27.579264 20.106432 27.262464 21.082752 26.235264 21.082752 27.065664 21.687552 26.748864 22.662912 27.579264 22.060992 28.409664 22.662912 28.092864 21.687552 28.923264 21.082752"></polygon>
                <polygon id="Fill-56" fill="#FFFFFF" points="30.583968 5.121792 30.267168 6.098112 29.240928 6.098112 30.072288 6.701952 29.752608 7.678272 30.583968 7.075392 31.414368 7.678272 31.097568 6.701952 31.928928 6.098112 30.902688 6.098112"></polygon>
                <polygon id="Fill-57" fill="#FFFFFF" points="30.583968 9.436128 30.267168 10.411488 29.240928 10.411488 30.072288 11.016288 29.752608 11.992608 30.583968 11.389728 31.414368 11.992608 31.097568 11.016288 31.928928 10.411488 30.902688 10.411488"></polygon>
                <polygon id="Fill-58" fill="#FFFFFF" points="30.583968 13.75056 30.267168 14.72688 29.240928 14.72688 30.072288 15.33072 29.752608 16.30704 30.583968 15.70416 31.414368 16.30704 31.097568 15.33072 31.928928 14.72688 30.902688 14.72688"></polygon>
                <polygon id="Fill-59" fill="#FFFFFF" points="30.902688 19.040832 30.583968 18.064512 30.267168 19.040832 29.240928 19.040832 30.072288 19.645632 29.752608 20.620992 30.583968 20.019072 31.414368 20.620992 31.097568 19.645632 31.928928 19.040832"></polygon>
                <polygon id="Fill-60" fill="#FFFFFF" points="32.79552 5.405856 33.62688 4.801056 34.4592 5.405856 34.14048 4.427616 34.97184 3.825696 33.9456 3.825696 33.62688 2.848416 33.31008 3.825696 32.28384 3.825696 33.11424 4.427616"></polygon>
                <polygon id="Fill-61" fill="#FFFFFF" points="33.627072 7.162752 33.310272 8.140032 32.284032 8.140032 33.114432 8.742912 32.795712 9.720192 33.627072 9.115392 34.459392 9.720192 34.140672 8.742912 34.971072 8.140032 33.945792 8.140032"></polygon>
                <polygon id="Fill-62" fill="#FFFFFF" points="33.627072 11.476128 33.310272 12.454368 32.284032 12.454368 33.114432 13.056288 32.795712 14.034528 33.627072 13.429728 34.459392 14.034528 34.140672 13.056288 34.971072 12.454368 33.945792 12.454368"></polygon>
                <polygon id="Fill-63" fill="#FFFFFF" points="33.627072 15.792384 33.310272 16.768704 32.284032 16.768704 33.114432 17.372544 32.795712 18.348864 33.627072 17.745984 34.459392 18.348864 34.140672 17.372544 34.971072 16.768704 33.945792 16.768704"></polygon>
                <polygon id="Fill-64" fill="#FFFFFF" points="33.945792 21.082752 33.627072 20.106432 33.310272 21.082752 32.284032 21.082752 33.114432 21.687552 32.795712 22.662912 33.627072 22.060992 34.459392 22.662912 34.140672 21.687552 34.971072 21.082752"></polygon>
            </g>
        </g>
    </g>
</svg>