<?xml version="1.0" encoding="UTF-8"?>
<svg width="48px" height="48px" viewBox="0 0 48 48" version="1.1" xmlns="http://www.w3.org/2000/svg" xmlns:xlink="http://www.w3.org/1999/xlink">
    <title>Flag/i_flag_nz</title>
    <defs>
        <circle id="path-1" cx="24" cy="24" r="24"></circle>
    </defs>
    <g id="Flag/i_flag_nz" stroke="none" stroke-width="1" fill="none" fill-rule="evenodd">
        <mask id="mask-2" fill="white">
            <use xlink:href="#path-1"></use>
        </mask>
        <use id="Oval" fill="#00247D" xlink:href="#path-1"></use>
        <g id="Group-19" mask="url(#mask-2)">
            <g transform="translate(-23.000000, -1.000000)">
                <g id="Group-2" transform="translate(0.000000, -0.000384)">
                    <polygon id="Fill-2" fill="#FFFFFF" points="47.0186057 1.09626594e-13 31.34592 7.83579429 27.8405486 7.83579429 43.5143314 1.09626594e-13 41.7621943 1.09626594e-13 27.42912 7.16763429 27.42912 1.09626594e-13 25.8602057 1.09626594e-13 25.8602057 9.40470857 47.0405486 9.40470857 47.0405486 7.83579429 36.6023314 7.83579429 47.0405486 2.61888 47.0405486 1.09626594e-13"></polygon>
                    <polygon id="Fill-4" fill="#FFFFFF" points="25.860096 14.1087086 25.860096 23.66592 27.4290103 23.66592 27.4290103 16.3457829 42.0736731 23.66592 47.0404389 23.66592 47.0404389 23.5221943 31.3458103 15.6732343 34.8489874 15.6732343 47.0404389 21.76896 47.0404389 20.89344 36.6022217 15.6732343 47.0404389 15.6732343 47.0404389 14.1087086"></polygon>
                    <polygon id="Fill-8" fill="#CF142B" points="43.5142217 5.32907052e-14 27.8404389 7.83579429 31.3458103 7.83579429 47.018496 5.32907052e-14"></polygon>
                    <polygon id="Fill-9" fill="#CF142B" points="31.3458103 15.6730149 47.0404389 23.5219749 47.0404389 21.7698377 34.8489874 15.6730149"></polygon>
                    <polygon id="Fill-10" fill="#CF142B" points="21.156864 3.24819536e-14 21.156864 9.40470857 0.000658285715 9.40470857 0.000658285715 14.10816 21.156864 14.10816 21.156864 23.6653714 25.8603154 23.6653714 25.8603154 14.10816 47.0406583 14.10816 47.0406583 9.40470857 25.8603154 9.40470857 25.8603154 3.24819536e-14"></polygon>
                </g>
                <g id="Group" transform="translate(49.173280, 13.879520)">
                    <polygon id="Fill-11" fill="#FFFFFF" points="8.346688 1.986432 10.433472 1.986432 11.079488 2.90138284e-14 11.722816 1.986432 13.811392 1.986432 12.123328 3.213056 12.767552 5.197696 11.079488 3.971072 9.389632 5.197696 10.035648 3.213056"></polygon>
                    <polygon id="Fill-12" fill="#CF142B" points="9.2724352 2.2891904 10.6513792 2.2891904 11.0796672 0.9765504 11.5052672 2.2891904 12.8842112 2.2891904 11.7677952 3.1009664 12.1951872 4.4136064 11.0796672 3.6018304 9.9632512 4.4136064 10.3888512 3.1009664"></polygon>
                    <polygon id="Fill-13" fill="#FFFFFF" points="1.75740903e-13 10.38464 2.086784 10.38464 2.731904 8.398208 3.376128 10.38464 5.464704 10.38464 3.775744 11.609472 4.419968 13.595904 2.731904 12.36928 1.04384 13.595904 1.688064 11.609472"></polygon>
                    <polygon id="Fill-14" fill="#CF142B" points="0.9249408 10.6873984 2.3038848 10.6873984 2.7321728 9.3747584 3.1577728 10.6873984 4.5385088 10.6873984 3.4220928 11.4973824 3.8485888 12.8118144 2.7321728 12.0000384 1.6157568 12.8118144 2.0413568 11.4973824"></polygon>
                    <polygon id="Fill-15" fill="#FFFFFF" points="15.8034688 8.3004544 17.6608768 8.3004544 18.2343168 6.5362304 18.8095488 8.3004544 20.6669568 8.3004544 19.1634688 9.3926784 19.7387008 11.1595904 18.2343168 10.0664704 16.7326208 11.1595904 17.3060608 9.3926784"></polygon>
                    <polygon id="Fill-16" fill="#CF142B" points="16.6276992 8.5698816 17.8561152 8.5698816 18.2342272 7.4023936 18.6150272 8.5698816 19.8425472 8.5698816 18.8488832 9.2929536 19.2278912 10.4595456 18.2342272 9.7391616 17.2432512 10.4595456 17.6213632 9.2929536"></polygon>
                    <polygon id="Fill-17" fill="#FFFFFF" points="8.045632 23.565696 10.362688 23.565696 11.079488 21.358848 11.795392 23.565696 14.11424 23.565696 12.238912 24.930304 12.954816 27.137152 11.079488 25.772544 9.205952 27.137152 9.921856 24.930304"></polygon>
                    <polygon id="Fill-18" fill="#CF142B" points="9.073792 23.9033984 10.606848 23.9033984 11.07904 22.4420224 11.55392 23.9033984 13.084288 23.9033984 11.84512 24.8047744 12.32 26.2661504 11.07904 25.3611904 9.839872 26.2661504 10.314752 24.8047744"></polygon>
                </g>
            </g>
        </g>
    </g>
</svg>