<svg xmlns="http://www.w3.org/2000/svg" xmlns:xlink="http://www.w3.org/1999/xlink" width="48" height="48" version="1.1" viewBox="0 0 48 48"><title>Flag/i_flag_tw</title><defs><circle id="path-1" cx="24" cy="24" r="24"/></defs><g id="Flag/i_flag_tw" fill="none" fill-rule="evenodd" stroke="none" stroke-width="1"><mask id="mask-2" fill="#fff"><use xlink:href="#path-1"/></mask><use id="Oval" fill="#E50012" xlink:href="#path-1"/><g id="Group-9" mask="url(#mask-2)"><g transform="translate(-12.000000, 0.000000)"><polygon id="Fill-2" fill="#1D2087" points="0 24 36 24 36 0 0 0"/><g id="Group" fill="none" stroke-width="1" transform="translate(15.717793, 4.884055)"><polygon id="Fill-3" fill="#FFF" points="8.541 4.12 10.83 0 10.751 4.713 14.794 2.289 12.37 6.33 17.082 6.253 12.962 8.542 17.082 10.83 12.37 10.752 14.794 14.794 10.751 12.37 10.83 17.082 8.541 12.962 6.253 17.082 6.33 12.37 2.289 14.794 4.713 10.752 0 10.83 4.12 8.542 0 6.253 4.713 6.33 2.289 2.289 6.33 4.713 6.253 0"/><g id="Group-8" transform="translate(3.501474, 3.780353)"><path id="Fill-4" fill="#1D2087" d="M9.46103521,4.76140835 C9.46103521,7.20287477 7.48136189,9.18254809 5.03989546,9.18254809 C2.59764501,9.18254809 0.618755717,7.20287477 0.618755717,4.76140835 C0.618755717,2.31915789 2.59764501,0.339484574 5.03989546,0.339484574 C7.48136189,0.339484574 9.46103521,2.31915789 9.46103521,4.76140835"/><path id="Fill-6" fill="#FFF" d="M8.90821633,4.76140835 C8.90821633,6.89788748 7.17629619,8.62980762 5.03981706,8.62980762 C2.90333793,8.62980762 1.17141779,6.89788748 1.17141779,4.76140835 C1.17141779,2.62414519 2.90333793,0.892225045 5.03981706,0.892225045 C7.17629619,0.892225045 8.90821633,2.62414519 8.90821633,4.76140835"/></g></g></g></g></g></svg>