<svg xmlns="http://www.w3.org/2000/svg" xmlns:xlink="http://www.w3.org/1999/xlink" width="48" height="48" version="1.1" viewBox="0 0 48 48"><title>Flag/i_flag_hk</title><defs><circle id="path-1" cx="24" cy="24" r="24"/></defs><g id="Flag/i_flag_hk" fill="none" fill-rule="evenodd" stroke="none" stroke-width="1"><mask id="mask-2" fill="#fff"><use xlink:href="#path-1"/></mask><use id="Oval" fill="#F50000" xlink:href="#path-1"/><g id="Group-34" mask="url(#mask-2)"><g transform="translate(10.000000, 10.000000)"><path id="Fill-2" fill="#FFF" d="M13.8553,15.0002 C9.9713,13.4332 8.0933,9.0152 9.6623,5.1302 C10.9103,2.0392 14.0313,0.1252 17.3513,0.4132 C16.1223,1.0192 15.3213,2.4962 16.3343,4.0212 C17.4423,5.6952 16.8223,8.5232 14.6673,9.5352 C12.9863,10.3242 11.6183,12.9522 13.8553,15.0002"/><polygon id="Fill-4" fill="red" points="13.174 7.095 14.121 4.915 12.072 6.122 14.44 6.349 12.658 4.774"/><path id="Fill-6" fill="red" d="M13.8925,14.886 C11.0525,13.173 10.9175,9.315 12.3575,7.177 L12.1735,7.059 C10.7885,9.032 10.6485,13.203 13.7905,15.081 L13.8925,14.886 Z"/><path id="Fill-8" fill="#FFF" d="M13.8553,15.0002 C14.1463,10.8222 17.7683,7.6722 21.9463,7.9622 C25.2733,8.1932 28.0583,10.5712 28.8083,13.8192 C27.8533,12.8352 26.2033,12.5292 25.0613,13.9642 C23.8123,15.5362 20.9313,15.8212 19.3013,14.0832 C18.0343,12.7302 15.1113,12.2392 13.8553,15.0002"/><polygon id="Fill-10" fill="red" points="21.164 11.909 23.53 12.137 21.749 10.56 22.264 12.881 23.213 10.702"/><path id="Fill-12" fill="red" d="M13.9745,15.0002 C14.7275,11.7692 18.3555,10.4492 20.8335,11.1562 L20.8875,10.9452 C18.5835,10.2402 14.5725,11.3962 13.7595,14.9642 L13.9745,15.0002 Z"/><path id="Fill-14" fill="#FFF" d="M13.8553,15.0002 C11.1663,18.2082 6.3803,18.6292 3.1733,15.9382 C0.6173,13.7972 -0.2387,10.2362 1.0643,7.1672 C1.2593,8.5232 2.4153,9.7432 4.1793,9.2522 C6.1153,8.7152 8.6133,10.1772 8.9093,12.5412 C9.1403,14.3832 11.2153,16.4962 13.8553,15.0002"/><polygon id="Fill-16" fill="red" points="6.128 13.205 4.345 11.631 4.862 13.952 5.809 11.772 3.762 12.979"/><path id="Fill-18" fill="red" d="M13.7596,14.9299 C11.2516,17.1019 7.5406,16.0389 5.9506,14.0079 L5.7826,14.1479 C7.2326,16.0739 11.1566,17.4959 13.9116,15.0869 L13.7596,14.9299 Z"/><path id="Fill-20" fill="#FFF" d="M13.8553,15.0002 C17.9193,13.9862 22.0353,16.4572 23.0483,20.5212 C23.8583,23.7552 22.4573,27.1382 19.6013,28.8562 C20.2403,27.6462 20.0203,25.9792 18.3053,25.3392 C16.4233,24.6372 15.2623,21.9842 16.4123,19.8962 C17.3053,18.2712 16.8713,15.3432 13.8553,15.0002"/><polygon id="Fill-22" fill="red" points="19.055 20.994 19.571 23.316 20.518 21.135 18.469 22.342 20.836 22.569"/><path id="Fill-24" fill="red" d="M13.8944,15.1135 C17.1994,14.8315 19.5764,17.8725 19.6674,20.4485 L19.8854,20.4365 C19.8454,18.0255 17.5044,14.5675 13.8624,14.8975 L13.8944,15.1135 Z"/><path id="Fill-26" fill="#FFF" d="M13.8553,15.0002 C16.0763,18.5512 14.9973,23.2292 11.4473,25.4502 C8.6193,27.2192 4.9703,26.9332 2.4533,24.7452 C3.8033,24.9792 5.3183,24.2562 5.3993,22.4272 C5.4863,20.4202 7.6493,18.4962 9.9883,18.9432 C11.8113,19.2932 14.4613,17.9732 13.8553,15.0002"/><polygon id="Fill-28" fill="red" points="9.761 21.797 7.714 23.004 10.08 23.232 8.299 21.656 8.815 23.977"/><path id="Fill-30" fill="red" d="M13.7596,15.0715 C15.0486,18.1265 12.8926,21.3285 10.4686,22.2105 L10.5486,22.4155 C12.8296,21.6315 15.3936,18.3375 13.9546,14.9745 L13.7596,15.0715 Z"/><path id="Fill-32" fill="red" d="M13.8553,14.6662 C14.0393,14.6662 14.1893,14.8152 14.1893,15.0002 C14.1893,15.1842 14.0393,15.3352 13.8553,15.3352 C13.6703,15.3352 13.5213,15.1842 13.5213,15.0002 C13.5213,14.8152 13.6703,14.6662 13.8553,14.6662"/></g></g></g></svg>