<?xml version="1.0" encoding="UTF-8"?>
<svg width="48px" height="48px" viewBox="0 0 48 48" version="1.1" xmlns="http://www.w3.org/2000/svg" xmlns:xlink="http://www.w3.org/1999/xlink">
    <title>Flag/i_flag_canada</title>
    <defs>
        <circle id="path-1" cx="24" cy="24" r="24"></circle>
    </defs>
    <g id="Flag/i_flag_canada" stroke="none" stroke-width="1" fill="none" fill-rule="evenodd">
        <mask id="mask-2" fill="white">
            <use xlink:href="#path-1"></use>
        </mask>
        <use id="Oval" fill="#FFFFFF" xlink:href="#path-1"></use>
        <g id="Group-6" mask="url(#mask-2)">
            <g transform="translate(-1.000000, 0.000000)">
                <polygon id="Fill-1" fill="#F91D1E" points="8.8817842e-16 46.7353295 11.7226744 46.7353295 11.7226744 0.735329457 8.8817842e-16 0.735329457"></polygon>
                <polygon id="Fill-2" fill="#F91D1E" points="38.1104651 46.7353295 49.8331395 46.7353295 49.8331395 0.735329457 38.1104651 0.735329457"></polygon>
                <polygon id="Fill-3" fill="#FFFFFF" points="11.7226744 39.7353295 38.1104651 39.7353295 38.1104651 10.6667248 11.7226744 10.6667248"></polygon>
                <path d="M24.9164535,14.4356783 L23.1879651,17.7943992 C22.9914535,18.1600969 22.6402907,18.126376 22.2885465,17.9217248 L21.0379651,17.245562 L21.9711047,22.4054457 C22.1664535,23.348469 21.5373837,23.348469 21.2269186,22.9409109 L19.0426163,20.3938178 L18.6879651,21.6874225 C18.6472674,21.8577713 18.4676163,22.0356783 18.1978488,21.992655 L15.4368023,21.3874225 L16.1623837,24.1350969 C16.3181977,24.7461434 16.4385465,24.9996318 16.005407,25.1618411 L15.0211047,25.6432364 L19.774593,29.6664922 C19.9623837,29.8182364 20.058314,30.0920736 19.9902907,30.3397481 L19.574593,31.7630039 C21.2112209,31.5664922 22.6786628,31.3891667 24.3152907,31.1938178 C24.4606395,31.1914922 24.7019186,31.3211434 24.7007558,31.4949806 L24.4838953,36.7071899 L25.2798256,36.7071899 L25.1542442,31.5060271 C25.1530814,31.3316085 25.371686,31.1914922 25.5170349,31.1938178 C27.1542442,31.3891667 28.6211047,31.5664922 30.258314,31.7630039 L29.8426163,30.3397481 C29.774593,30.0920736 29.8705233,29.8182364 30.058314,29.6664922 L34.8118023,25.6432364 L33.8269186,25.1618411 C33.3937791,24.9996318 33.5147093,24.7461434 33.6705233,24.1350969 L34.3961047,21.3874225 L31.6350581,21.992655 C31.3652907,22.0356783 31.1844767,21.8577713 31.1449419,21.6874225 L30.7897093,20.3938178 L28.6059884,22.9409109 C28.2955233,23.348469 27.6664535,23.348469 27.8618023,22.4054457 L28.7949419,17.245562 L27.5437791,17.9217248 C27.1926163,18.126376 26.8414535,18.1600969 26.6449419,17.7943992 L24.9164535,14.4356783 Z" id="Fill-4" fill="#F91D1E"></path>
            </g>
        </g>
    </g>
</svg>