<svg xmlns="http://www.w3.org/2000/svg" xmlns:xlink="http://www.w3.org/1999/xlink" width="48" height="48" version="1.1" viewBox="0 0 48 48"><title>Flag/i_flag_sa</title><defs><circle id="path-1" cx="24" cy="24" r="24"/></defs><g id="Flag/i_flag_sa" fill="none" fill-rule="evenodd" stroke="none" stroke-width="1"><mask id="mask-2" fill="#fff"><use xlink:href="#path-1"/></mask><use id="Oval" fill="#FFF" xlink:href="#path-1"/><g id="Group-7" mask="url(#mask-2)"><g transform="translate(-6.000000, 0.000000)"><polygon id="Fill-2" fill="#E23D28" points="14.42 0 38.42 15.999 82.284 15.999 82.284 0"/><polygon id="Fill-3" fill="#0C1C8C" points="38.42 32 14.42 48 82.284 48 82.284 32"/><polygon id="Fill-4" fill="#000" points="0 38.386 21.577 24 0 9.615"/><polygon id="Fill-5" fill="#FCB514" points="0 9.615 21.577 24 0 38.386 0 42.23 27.346 24 0 5.769"/><polygon id="Fill-6" fill="#007C59" points="0 0 0 5.769 27.346 24 0 42.23 0 48 8.652 48 37.452 28.8 82.284 28.8 82.284 19.202 37.452 19.202 8.652 0"/></g></g></g></svg>