<svg xmlns="http://www.w3.org/2000/svg" xmlns:xlink="http://www.w3.org/1999/xlink" width="48" height="48" version="1.1" viewBox="0 0 48 48"><title>Flag/i_flag_us</title><defs><circle id="path-1" cx="24" cy="24" r="24"/></defs><g id="Flag/i_flag_us" fill="none" fill-rule="evenodd" stroke="none" stroke-width="1"><mask id="mask-2" fill="#fff"><use xlink:href="#path-1"/></mask><use id="Oval" fill="#D8D8D8" xlink:href="#path-1"/><g id="Group-65" mask="url(#mask-2)"><g transform="translate(-13.000000, 0.000000)"><polygon id="Fill-1" fill="#B22234" points="0 48 82.286 48 82.286 44.308 0 44.308"/><polygon id="Fill-2" fill="#FFF" points="0 44.308 82.286 44.308 82.286 40.615 0 40.615"/><polygon id="Fill-3" fill="#B22234" points="0 40.616 82.286 40.616 82.286 36.924 0 36.924"/><polygon id="Fill-4" fill="#FFF" points="0 36.924 82.286 36.924 82.286 33.231 0 33.231"/><polygon id="Fill-5" fill="#B22234" points="0 33.231 82.286 33.231 82.286 29.538 0 29.538"/><polygon id="Fill-6" fill="#FFF" points="0 29.539 82.286 29.539 82.286 25.847 0 25.847"/><polygon id="Fill-7" fill="#B22234" points="0 25.847 82.286 25.847 82.286 22.155 0 22.155"/><polygon id="Fill-8" fill="#FFF" points="0 22.153 82.286 22.153 82.286 18.46 0 18.46"/><polygon id="Fill-9" fill="#B22234" points="0 18.461 82.286 18.461 82.286 14.769 0 14.769"/><polygon id="Fill-10" fill="#FFF" points="0 14.769 82.286 14.769 82.286 11.076 0 11.076"/><polygon id="Fill-11" fill="#B22234" points="0 11.076 82.286 11.076 82.286 7.384 0 7.384"/><polygon id="Fill-12" fill="#FFF" points="0 7.385 82.286 7.385 82.286 3.691 0 3.691"/><polygon id="Fill-13" fill="#B22234" points="0 3.691 82.286 3.691 82.286 0 0 0"/><polygon id="Fill-14" fill="#3C3B6E" points="0 25.847 37.569 25.847 37.569 0 0 0"/><polygon id="Fill-29" fill="#FFF" points="12.441 5.122 12.124 6.098 11.098 6.098 11.926 6.702 11.609 7.678 12.441 7.075 13.271 7.678 12.954 6.702 13.785 6.098 12.759 6.098"/><polygon id="Fill-30" fill="#FFF" points="12.441 9.436 12.124 10.411 11.098 10.411 11.926 11.016 11.609 11.993 12.441 11.39 13.271 11.993 12.954 11.016 13.785 10.411 12.759 10.411"/><polygon id="Fill-31" fill="#FFF" points="12.441 13.751 12.124 14.727 11.098 14.727 11.926 15.331 11.609 16.307 12.441 15.704 13.271 16.307 12.954 15.331 13.785 14.727 12.759 14.727"/><polygon id="Fill-32" fill="#FFF" points="12.759 19.041 12.441 18.065 12.124 19.041 11.098 19.041 11.926 19.646 11.609 20.621 12.441 20.019 13.271 20.621 12.954 19.646 13.785 19.041"/><polygon id="Fill-33" fill="#FFF" points="15.483 2.848 15.166 3.827 14.141 3.827 14.971 4.428 14.652 5.406 15.483 4.801 16.314 5.406 15.997 4.428 16.828 3.827 15.802 3.827"/><polygon id="Fill-34" fill="#FFF" points="15.483 7.163 15.166 8.14 14.141 8.14 14.971 8.743 14.652 9.72 15.483 9.115 16.314 9.72 15.997 8.743 16.828 8.14 15.802 8.14"/><polygon id="Fill-35" fill="#FFF" points="15.483 11.476 15.166 12.454 14.141 12.454 14.971 13.056 14.652 14.035 15.483 13.43 16.314 14.035 15.997 13.056 16.828 12.454 15.802 12.454"/><polygon id="Fill-36" fill="#FFF" points="15.483 15.792 15.166 16.769 14.141 16.769 14.971 17.373 14.652 18.349 15.483 17.746 16.314 18.349 15.997 17.373 16.828 16.769 15.802 16.769"/><polygon id="Fill-37" fill="#FFF" points="15.802 21.083 15.483 20.106 15.166 21.083 14.141 21.083 14.971 21.688 14.652 22.663 15.483 22.061 16.314 22.663 15.997 21.688 16.828 21.083"/><polygon id="Fill-38" fill="#FFF" points="18.489 5.122 18.17 6.098 17.145 6.098 17.976 6.702 17.659 7.678 18.489 7.075 19.32 7.678 19.001 6.702 19.831 6.098 18.806 6.098"/><polygon id="Fill-39" fill="#FFF" points="18.489 9.436 18.17 10.411 17.145 10.411 17.976 11.016 17.659 11.993 18.489 11.39 19.32 11.993 19.001 11.016 19.831 10.411 18.806 10.411"/><polygon id="Fill-40" fill="#FFF" points="18.489 13.751 18.17 14.727 17.145 14.727 17.976 15.331 17.659 16.307 18.489 15.704 19.32 16.307 19.001 15.331 19.831 14.727 18.806 14.727"/><polygon id="Fill-41" fill="#FFF" points="18.806 19.041 18.489 18.065 18.171 19.041 17.145 19.041 17.976 19.646 17.659 20.621 18.489 20.019 19.32 20.621 19.001 19.646 19.831 19.041"/><polygon id="Fill-42" fill="#FFF" points="21.532 2.848 21.216 3.827 20.188 3.827 21.019 4.428 20.702 5.406 21.532 4.801 22.363 5.406 22.046 4.428 22.876 3.827 21.849 3.827"/><polygon id="Fill-43" fill="#FFF" points="21.532 7.163 21.216 8.14 20.188 8.14 21.019 8.743 20.702 9.72 21.532 9.115 22.363 9.72 22.046 8.743 22.876 8.14 21.849 8.14"/><polygon id="Fill-44" fill="#FFF" points="21.532 11.476 21.216 12.454 20.188 12.454 21.019 13.056 20.702 14.035 21.532 13.43 22.363 14.035 22.046 13.056 22.876 12.454 21.849 12.454"/><polygon id="Fill-45" fill="#FFF" points="21.532 15.792 21.216 16.769 20.188 16.769 21.019 17.373 20.702 18.349 21.532 17.746 22.363 18.349 22.046 17.373 22.876 16.769 21.849 16.769"/><polygon id="Fill-46" fill="#FFF" points="21.849 21.083 21.532 20.106 21.216 21.083 20.188 21.083 21.019 21.688 20.702 22.663 21.532 22.061 22.363 22.663 22.046 21.688 22.876 21.083"/><polygon id="Fill-47" fill="#FFF" points="24.536 5.122 24.219 6.098 23.192 6.098 24.023 6.702 23.706 7.678 24.536 7.075 25.367 7.678 25.05 6.702 25.881 6.098 24.853 6.098"/><polygon id="Fill-48" fill="#FFF" points="24.536 9.436 24.219 10.411 23.192 10.411 24.023 11.016 23.706 11.993 24.536 11.39 25.367 11.993 25.05 11.016 25.881 10.411 24.853 10.411"/><polygon id="Fill-49" fill="#FFF" points="24.536 13.751 24.219 14.727 23.192 14.727 24.023 15.331 23.706 16.307 24.536 15.704 25.367 16.307 25.05 15.331 25.881 14.727 24.853 14.727"/><polygon id="Fill-50" fill="#FFF" points="24.853 19.041 24.536 18.065 24.219 19.041 23.192 19.041 24.023 19.646 23.706 20.621 24.536 20.019 25.367 20.621 25.05 19.646 25.881 19.041"/><polygon id="Fill-51" fill="#FFF" points="27.579 2.848 27.262 3.827 26.235 3.827 27.066 4.428 26.749 5.406 27.579 4.801 28.41 5.406 28.093 4.428 28.923 3.827 27.898 3.827"/><polygon id="Fill-52" fill="#FFF" points="27.579 7.163 27.262 8.14 26.235 8.14 27.066 8.743 26.749 9.72 27.579 9.115 28.41 9.72 28.093 8.743 28.923 8.14 27.898 8.14"/><polygon id="Fill-53" fill="#FFF" points="27.579 11.476 27.262 12.454 26.235 12.454 27.066 13.056 26.749 14.035 27.579 13.43 28.41 14.035 28.093 13.056 28.923 12.454 27.898 12.454"/><polygon id="Fill-54" fill="#FFF" points="27.579 15.792 27.262 16.769 26.235 16.769 27.066 17.373 26.749 18.349 27.579 17.746 28.41 18.349 28.093 17.373 28.923 16.769 27.898 16.769"/><polygon id="Fill-55" fill="#FFF" points="27.898 21.083 27.579 20.106 27.262 21.083 26.235 21.083 27.066 21.688 26.749 22.663 27.579 22.061 28.41 22.663 28.093 21.688 28.923 21.083"/><polygon id="Fill-56" fill="#FFF" points="30.584 5.122 30.267 6.098 29.241 6.098 30.072 6.702 29.753 7.678 30.584 7.075 31.414 7.678 31.098 6.702 31.929 6.098 30.903 6.098"/><polygon id="Fill-57" fill="#FFF" points="30.584 9.436 30.267 10.411 29.241 10.411 30.072 11.016 29.753 11.993 30.584 11.39 31.414 11.993 31.098 11.016 31.929 10.411 30.903 10.411"/><polygon id="Fill-58" fill="#FFF" points="30.584 13.751 30.267 14.727 29.241 14.727 30.072 15.331 29.753 16.307 30.584 15.704 31.414 16.307 31.098 15.331 31.929 14.727 30.903 14.727"/><polygon id="Fill-59" fill="#FFF" points="30.903 19.041 30.584 18.065 30.267 19.041 29.241 19.041 30.072 19.646 29.753 20.621 30.584 20.019 31.414 20.621 31.098 19.646 31.929 19.041"/><polygon id="Fill-60" fill="#FFF" points="32.796 5.406 33.627 4.801 34.459 5.406 34.14 4.428 34.972 3.826 33.946 3.826 33.627 2.848 33.31 3.826 32.284 3.826 33.114 4.428"/><polygon id="Fill-61" fill="#FFF" points="33.627 7.163 33.31 8.14 32.284 8.14 33.114 8.743 32.796 9.72 33.627 9.115 34.459 9.72 34.141 8.743 34.971 8.14 33.946 8.14"/><polygon id="Fill-62" fill="#FFF" points="33.627 11.476 33.31 12.454 32.284 12.454 33.114 13.056 32.796 14.035 33.627 13.43 34.459 14.035 34.141 13.056 34.971 12.454 33.946 12.454"/><polygon id="Fill-63" fill="#FFF" points="33.627 15.792 33.31 16.769 32.284 16.769 33.114 17.373 32.796 18.349 33.627 17.746 34.459 18.349 34.141 17.373 34.971 16.769 33.946 16.769"/><polygon id="Fill-64" fill="#FFF" points="33.946 21.083 33.627 20.106 33.31 21.083 32.284 21.083 33.114 21.688 32.796 22.663 33.627 22.061 34.459 22.663 34.141 21.688 34.971 21.083"/></g></g></g></svg>