<svg xmlns="http://www.w3.org/2000/svg" xmlns:xlink="http://www.w3.org/1999/xlink" width="48" height="48" version="1.1" viewBox="0 0 48 48"><title>Flag/i_flag_eur</title><defs><circle id="path-1" cx="24" cy="24" r="24"/></defs><g id="Flag/i_flag_eur" fill="none" fill-rule="evenodd" stroke="none" stroke-width="1"><mask id="mask-2" fill="#fff"><use xlink:href="#path-1"/></mask><use id="Oval" fill="#039" xlink:href="#path-1"/><g id="Group-14" fill="#FC0" mask="url(#mask-2)"><g transform="translate(4.000000, 4.000000)"><polygon id="Fill-2" points="19.855 .557 19.232 2.475 17.214 2.475 18.846 3.662 18.222 5.582 19.855 4.395 21.489 5.582 20.865 3.662 22.498 2.475 20.478 2.475"/><polygon id="Fill-3" points="20.478 35.808 19.855 33.889 19.232 35.808 17.214 35.808 18.846 36.995 18.222 38.914 19.855 37.728 21.489 38.914 20.865 36.995 22.498 35.808"/><polygon id="Fill-4" points="3.189 21.062 4.821 22.248 4.199 20.328 5.832 19.143 3.812 19.143 3.189 17.223 2.564 19.143 .546 19.143 2.18 20.328 1.556 22.248"/><polygon id="Fill-5" points="11.523 2.788 10.898 4.709 8.88 4.709 10.512 5.893 9.89 7.813 11.523 6.629 13.155 7.813 12.531 5.893 14.166 4.709 12.146 4.709"/><polygon id="Fill-6" points="5.423 8.889 4.799 10.808 2.78 10.808 4.412 11.996 3.789 13.914 5.423 12.729 7.055 13.914 6.432 11.996 8.064 10.808 6.045 10.808"/><polygon id="Fill-7" points="6.047 27.477 5.423 25.557 4.799 27.477 2.78 27.477 4.412 28.663 3.789 30.582 5.423 29.395 7.055 30.582 6.432 28.663 8.064 27.477"/><polygon id="Fill-8" points="12.146 33.577 11.523 31.657 10.898 33.577 8.88 33.577 10.512 34.762 9.888 36.682 11.523 35.495 13.155 36.682 12.531 34.762 14.166 33.577"/><polygon id="Fill-9" points="39.166 19.143 37.146 19.143 36.523 17.223 35.898 19.143 33.881 19.143 35.513 20.329 34.889 22.248 36.523 21.062 38.155 22.248 37.531 20.329"/><polygon id="Fill-10" points="28.189 2.788 27.564 4.709 25.548 4.709 27.18 5.893 26.556 7.813 28.189 6.629 29.821 7.813 29.199 5.893 30.832 4.709 28.812 4.709"/><polygon id="Fill-11" points="33.281 11.996 32.656 13.914 34.289 12.729 35.924 13.914 35.299 11.996 36.931 10.809 34.913 10.809 34.289 8.889 33.665 10.809 31.648 10.809"/><polygon id="Fill-12" points="34.913 27.477 34.289 25.557 33.665 27.477 31.648 27.477 33.281 28.663 32.656 30.582 34.289 29.395 35.924 30.582 35.299 28.663 36.932 27.477"/><polygon id="Fill-13" points="28.812 33.577 28.189 31.657 27.564 33.577 25.548 33.577 27.18 34.762 26.556 36.682 28.189 35.495 29.821 36.682 29.199 34.762 30.832 33.577"/></g></g></g></svg>