<?xml version="1.0" encoding="UTF-8"?>
<svg width="48px" height="48px" viewBox="0 0 48 48" version="1.1" xmlns="http://www.w3.org/2000/svg" xmlns:xlink="http://www.w3.org/1999/xlink">
    <title>Flag/i_flag_china</title>
    <defs>
        <circle id="path-1" cx="24" cy="24" r="24"></circle>
    </defs>
    <g id="Flag/i_flag_china" stroke="none" stroke-width="1" fill="none" fill-rule="evenodd">
        <mask id="mask-2" fill="white">
            <use xlink:href="#path-1"></use>
        </mask>
        <use id="Oval" fill="#F50000" xlink:href="#path-1"></use>
        <g id="Group-7" mask="url(#mask-2)" fill="#FFDD00">
            <g transform="translate(11.000000, 13.000000)">
                <polygon id="Fill-2" points="2.917984 15.372544 4.463584 10.582144 0.399904 7.612864 5.432224 7.603264 7.001824 2.820544 8.565664 7.606144 13.599904 7.618624 9.533344 10.584064 11.076064 15.375424 6.997984 12.424384"></polygon>
                <polygon id="Fill-3" points="16.950496 17.962336 18.649696 18.643936 19.829536 17.245216 19.704736 19.071136 21.400096 19.762336 19.626016 20.207776 19.492576 22.032736 18.520096 20.482336 16.743136 20.921056 17.917216 19.516576"></polygon>
                <polygon id="Fill-4" points="26.144608 8.758912 24.340768 8.444032 23.477728 10.058752 23.219488 8.247232 21.417568 7.923712 23.061088 7.118272 22.810528 5.304832 24.084448 6.619072 25.732768 5.820352 24.876448 7.438912"></polygon>
                <polygon id="Fill-5" points="22.31488 16.959232 22.87744 15.217792 21.4 14.137792 23.22976 14.133952 23.8 12.394432 24.36928 14.134912 26.2 14.138752 24.72064 15.217792 25.28224 16.960192 23.79904 15.886912"></polygon>
                <polygon id="Fill-6" points="17.040544 1.050784 18.700384 1.821664 19.952224 0.485344 19.733344 2.302624 21.390304 3.081184 19.592224 3.433504 19.365664 5.249824 18.474784 3.650464 16.677664 3.995104 17.922784 2.654944"></polygon>
            </g>
        </g>
    </g>
</svg>