<svg xmlns="http://www.w3.org/2000/svg" xmlns:xlink="http://www.w3.org/1999/xlink" width="48" height="48" version="1.1" viewBox="0 0 48 48"><title>Flag/i_flag_china</title><defs><circle id="path-1" cx="24" cy="24" r="24"/></defs><g id="Flag/i_flag_china" fill="none" fill-rule="evenodd" stroke="none" stroke-width="1"><mask id="mask-2" fill="#fff"><use xlink:href="#path-1"/></mask><use id="Oval" fill="#F50000" xlink:href="#path-1"/><g id="Group-7" fill="#FD0" mask="url(#mask-2)"><g transform="translate(11.000000, 13.000000)"><polygon id="Fill-2" points="2.918 15.373 4.464 10.582 .4 7.613 5.432 7.603 7.002 2.821 8.566 7.606 13.6 7.619 9.533 10.584 11.076 15.375 6.998 12.424"/><polygon id="Fill-3" points="16.95 17.962 18.65 18.644 19.83 17.245 19.705 19.071 21.4 19.762 19.626 20.208 19.493 22.033 18.52 20.482 16.743 20.921 17.917 19.517"/><polygon id="Fill-4" points="26.145 8.759 24.341 8.444 23.478 10.059 23.219 8.247 21.418 7.924 23.061 7.118 22.811 5.305 24.084 6.619 25.733 5.82 24.876 7.439"/><polygon id="Fill-5" points="22.315 16.959 22.877 15.218 21.4 14.138 23.23 14.134 23.8 12.394 24.369 14.135 26.2 14.139 24.721 15.218 25.282 16.96 23.799 15.887"/><polygon id="Fill-6" points="17.041 1.051 18.7 1.822 19.952 .485 19.733 2.303 21.39 3.081 19.592 3.434 19.366 5.25 18.475 3.65 16.678 3.995 17.923 2.655"/></g></g></g></svg>