<?xml version="1.0" encoding="UTF-8"?>
<svg width="48px" height="48px" viewBox="0 0 48 48" version="1.1" xmlns="http://www.w3.org/2000/svg" xmlns:xlink="http://www.w3.org/1999/xlink">
    <title>Flag/i_flag_aus</title>
    <defs>
        <circle id="path-1" cx="24" cy="24" r="24"></circle>
    </defs>
    <g id="Flag/i_flag_aus" stroke="none" stroke-width="1" fill="none" fill-rule="evenodd">
        <mask id="mask-2" fill="white">
            <use xlink:href="#path-1"></use>
        </mask>
        <use id="Oval" fill="#00008B" xlink:href="#path-1"></use>
        <g id="Group-12" mask="url(#mask-2)">
            <g transform="translate(-23.000000, -1.000000)">
                <polygon id="Fill-2" fill="#FFFFFF" points="27.646656 29.406816 28.901376 33.304416 32.724096 31.854816 30.461376 35.259936 33.978816 37.346976 29.904576 37.703136 30.465216 41.751456 27.646656 38.789856 24.829056 41.751456 25.390656 37.703136 21.316416 37.346976 24.833856 35.259936 22.571136 31.854816 26.394816 33.304416"></polygon>
                <g id="Group" stroke-width="1" fill="none" transform="translate(51.000000, 12.000000)">
                    <polygon id="Fill-3" fill="#FFFFFF" points="6.070336 26.0909952 6.548032 27.5732352 8.00416 27.0225792 7.142464 28.3189632 8.48416 29.1153792 6.929728 29.2497792 7.144 30.7919232 6.070336 29.6621952 4.99744 30.7919232 5.210944 29.2497792 3.658048 29.1153792 4.998976 28.3189632 4.136512 27.0225792 5.593408 27.5732352"></polygon>
                    <polygon id="Fill-4" fill="#FFFFFF" points="2.412288 9.3809664 2.889216 10.8655104 4.34688 10.3110144 3.484416 11.6112384 4.824576 12.4038144 3.272448 12.5397504 3.485184 14.0811264 2.412288 12.9537024 1.338624 14.0811264 1.552128 12.5397504 -4.63273864e-13 12.4038144 1.34016 11.6112384 0.477696 10.3110144 1.934592 10.8655104"></polygon>
                    <polygon id="Fill-5" fill="#FFFFFF" points="11.070336 -1.70530257e-14 11.548032 1.483776 13.00416 0.93312 12.142464 2.229504 13.48416 3.02592 11.929728 3.16032 12.144 4.702464 11.070336 3.574272 9.99744 4.702464 10.210944 3.16032 8.658048 3.02592 9.998976 2.229504 9.136512 0.93312 10.593408 1.483776"></polygon>
                    <polygon id="Fill-6" fill="#FFFFFF" points="17.7683072 7.072512 18.2444672 8.554752 19.7021312 8.004096 18.8396672 9.30048 20.1798272 10.096128 18.6269312 10.231296 18.8404352 11.775744 17.7683072 10.645248 16.6946432 11.775744 16.9089152 10.231296 15.3544832 10.096128 16.6961792 9.30048 15.8329472 8.004096 17.2913792 8.554752"></polygon>
                    <polygon id="Fill-7" fill="#FFFFFF" points="13.5353216 14.0189952 13.9116416 14.9436672 14.9062016 15.0166272 14.1458816 15.6617472 14.3831936 16.6301952 13.5353216 16.1048832 12.6866816 16.6301952 12.9247616 15.6617472 12.1613696 15.0166272 13.1582336 14.9436672"></polygon>
                </g>
                <g id="Group-2" stroke-width="1" fill="none">
                    <polygon id="Fill-8" fill="#FFFFFF" points="41.9503942 -8.91408159e-14 27.5514415 7.2 27.5514415 -8.91408159e-14 19.6801396 -8.91408159e-14 19.6801396 7.2 5.28118691 -8.91408159e-14 0.000837818182 -8.91408159e-14 0.000837818182 2.63912727 10.4609978 7.87025455 0.000837818182 7.87025455 0.000837818182 15.7446982 10.4630924 15.7446982 0.000837818182 20.9758255 0.000837818182 23.6180945 5.28118691 23.6180945 19.6801396 16.4180945 19.6801396 23.6180945 27.5514415 23.6180945 27.5514415 16.4170473 41.9503942 23.6180945 47.229696 23.6180945 47.229696 20.9758255 36.7674415 15.7446982 47.2317905 15.7446982 47.2317905 7.87025455 36.769536 7.87025455 47.229696 2.63912727 47.229696 -8.91408159e-14"></polygon>
                    <polygon id="Fill-9" fill="#FF0000" points="21.2549236 -8.91408159e-14 21.2549236 9.4464 0.000523636363 9.4464 0.000523636363 14.1675055 21.2549236 14.1675055 21.2549236 23.6180945 25.9781236 23.6180945 25.9781236 14.1675055 47.2293818 14.1675055 47.2293818 9.4464 25.9781236 9.4464 25.9781236 -8.91408159e-14"></polygon>
                    <path d="M43.7110691,-8.67185112e-14 L27.9674182,7.87025455 L31.4883491,7.87025455 L47.2299055,-8.67185112e-14 L43.7110691,-8.67185112e-14 Z M-1.8215732e-13,-8.67185112e-14 L-1.8215732e-13,1.76256 L12.2248145,7.87025455 L15.7436509,7.87025455 L-1.8215732e-13,-8.67185112e-14 Z" id="Fill-10" fill="#FF0000"></path>
                    <path d="M31.4881396,15.7442793 L47.2317905,23.6187229 L47.2317905,21.8572102 L35.0080233,15.7442793 L31.4881396,15.7442793 Z M15.7434415,15.7442793 L0.000837818182,23.6187229 L3.52176873,23.6187229 L19.2643724,15.7442793 L15.7434415,15.7442793 Z" id="Fill-11" fill="#FF0000"></path>
                </g>
            </g>
        </g>
    </g>
</svg>