<svg xmlns="http://www.w3.org/2000/svg" xmlns:xlink="http://www.w3.org/1999/xlink" width="48" height="48" version="1.1" viewBox="0 0 48 48"><title>Flag/i_flag_nz</title><defs><circle id="path-1" cx="24" cy="24" r="24"/></defs><g id="Flag/i_flag_nz" fill="none" fill-rule="evenodd" stroke="none" stroke-width="1"><mask id="mask-2" fill="#fff"><use xlink:href="#path-1"/></mask><use id="Oval" fill="#00247D" xlink:href="#path-1"/><g id="Group-19" mask="url(#mask-2)"><g transform="translate(-23.000000, -1.000000)"><g id="Group-2" transform="translate(0.000000, -0.000384)"><polygon id="Fill-2" fill="#FFF" points="47.019 0 31.346 7.836 27.841 7.836 43.514 0 41.762 0 27.429 7.168 27.429 0 25.86 0 25.86 9.405 47.041 9.405 47.041 7.836 36.602 7.836 47.041 2.619 47.041 0"/><polygon id="Fill-4" fill="#FFF" points="25.86 14.109 25.86 23.666 27.429 23.666 27.429 16.346 42.074 23.666 47.04 23.666 47.04 23.522 31.346 15.673 34.849 15.673 47.04 21.769 47.04 20.893 36.602 15.673 47.04 15.673 47.04 14.109"/><polygon id="Fill-8" fill="#CF142B" points="43.514 0 27.84 7.836 31.346 7.836 47.018 0"/><polygon id="Fill-9" fill="#CF142B" points="31.346 15.673 47.04 23.522 47.04 21.77 34.849 15.673"/><polygon id="Fill-10" fill="#CF142B" points="21.157 0 21.157 9.405 .001 9.405 .001 14.108 21.157 14.108 21.157 23.665 25.86 23.665 25.86 14.108 47.041 14.108 47.041 9.405 25.86 9.405 25.86 0"/></g><g id="Group" transform="translate(49.173280, 13.879520)"><polygon id="Fill-11" fill="#FFF" points="8.347 1.986 10.433 1.986 11.079 0 11.723 1.986 13.811 1.986 12.123 3.213 12.768 5.198 11.079 3.971 9.39 5.198 10.036 3.213"/><polygon id="Fill-12" fill="#CF142B" points="9.272 2.289 10.651 2.289 11.08 .977 11.505 2.289 12.884 2.289 11.768 3.101 12.195 4.414 11.08 3.602 9.963 4.414 10.389 3.101"/><polygon id="Fill-13" fill="#FFF" points="0 10.385 2.087 10.385 2.732 8.398 3.376 10.385 5.465 10.385 3.776 11.609 4.42 13.596 2.732 12.369 1.044 13.596 1.688 11.609"/><polygon id="Fill-14" fill="#CF142B" points=".925 10.687 2.304 10.687 2.732 9.375 3.158 10.687 4.539 10.687 3.422 11.497 3.849 12.812 2.732 12 1.616 12.812 2.041 11.497"/><polygon id="Fill-15" fill="#FFF" points="15.803 8.3 17.661 8.3 18.234 6.536 18.81 8.3 20.667 8.3 19.163 9.393 19.739 11.16 18.234 10.066 16.733 11.16 17.306 9.393"/><polygon id="Fill-16" fill="#CF142B" points="16.628 8.57 17.856 8.57 18.234 7.402 18.615 8.57 19.843 8.57 18.849 9.293 19.228 10.46 18.234 9.739 17.243 10.46 17.621 9.293"/><polygon id="Fill-17" fill="#FFF" points="8.046 23.566 10.363 23.566 11.079 21.359 11.795 23.566 14.114 23.566 12.239 24.93 12.955 27.137 11.079 25.773 9.206 27.137 9.922 24.93"/><polygon id="Fill-18" fill="#CF142B" points="9.074 23.903 10.607 23.903 11.079 22.442 11.554 23.903 13.084 23.903 11.845 24.805 12.32 26.266 11.079 25.361 9.84 26.266 10.315 24.805"/></g></g></g></g></svg>