<svg xmlns="http://www.w3.org/2000/svg" xmlns:xlink="http://www.w3.org/1999/xlink" width="48" height="48" version="1.1" viewBox="0 0 48 48"><title>Flag/i_flag_si</title><defs><circle id="path-1" cx="24" cy="24" r="24"/><circle id="path-3" cx="24" cy="24" r="24"/></defs><g id="Flag/i_flag_si" fill="none" fill-rule="evenodd" stroke="none" stroke-width="1"><mask id="mask-2" fill="#fff"><use xlink:href="#path-1"/></mask><use id="Oval" fill="#FFF" xlink:href="#path-1"/><g id="Group-16" mask="url(#mask-2)"><g transform="translate(-0.000000, 0.000000)"><polygon id="Fill-1" fill="#E8303D" points="0 24 48 24 48 0 0 0"/><g id="Group-15" fill="none" stroke-width="1" transform="translate(6.760000, 4.880000)"><path id="Fill-3" fill="#FFF" d="M4.64968421,8.99971579 C4.64968421,4.47034737 8.23168421,0.786031579 12.7174737,0.601294737 C11.7956842,0.277294737 10.8094737,0.0944526316 9.77778947,0.0944526316 C4.85905263,0.0944526316 0.872526316,4.08192632 0.872526316,8.99971579 C0.872526316,13.9175053 4.85905263,17.9068737 9.77778947,17.9068737 C10.8094737,17.9068737 11.7956842,17.7221368 12.7174737,17.4000316 C8.23168421,17.2152947 4.64968421,13.5290842 4.64968421,8.99971579"/><polygon id="Fill-5" fill="#FFF" points="10.88 9.214 9.672 8.286 8.46 9.214 8.925 7.718 7.713 6.796 9.21 6.8 9.67 5.301 10.13 6.8 11.627 6.796 10.416 7.718"/><polygon id="Fill-7" fill="#FFF" points="20.374 9.214 19.164 8.286 17.953 9.214 18.419 7.718 17.206 6.796 18.703 6.8 19.162 5.301 19.624 6.8 21.12 6.796 19.908 7.718"/><polygon id="Fill-9" fill="#FFF" points="15.631 5.691 14.423 4.763 13.211 5.691 13.677 4.195 12.464 3.273 13.96 3.275 14.422 1.778 14.882 3.275 16.379 3.271 15.166 4.195"/><polygon id="Fill-11" fill="#FFF" points="12.657 14.852 11.446 13.924 10.237 14.852 10.703 13.356 9.488 12.434 10.987 12.438 11.446 10.939 11.906 12.438 13.405 12.434 12.19 13.356"/><polygon id="Fill-13" fill="#FFF" points="18.596 14.852 17.388 13.924 16.179 14.852 16.643 13.356 15.43 12.434 16.928 12.438 17.388 10.939 17.846 12.438 19.343 12.434 18.131 13.356"/></g></g></g><mask id="mask-4" fill="#fff"><use xlink:href="#path-3"/></mask><circle cx="24" cy="24" r="23.5" stroke="#E3E3E3"/></g></svg>