<svg xmlns="http://www.w3.org/2000/svg" xmlns:xlink="http://www.w3.org/1999/xlink" width="150" height="150" version="1.1" viewBox="0 0 150 150"><title>icon/i_foreign_trade</title><desc>Created with Sketch.</desc><g id="icon/i_foreign_trade" fill="none" fill-rule="evenodd" stroke="none" stroke-width="1"><g id="arrow" fill="#484848" fill-rule="nonzero" transform="translate(14.000000, 32.000000)"><path id="Path" d="M119.454318,36.6850671 L85.5148545,2.28100586 C82.5098144,-0.75872334 77.2692789,-0.761946807 74.2769586,2.28100586 C72.7696687,3.80570566 71.9460651,5.83004282 71.9460651,7.98331864 C71.9460651,10.133371 72.7728486,12.1577082 74.2737787,13.682408 L94.7589301,34.4415342 L7.94984145,34.4415342 L7.94984145,34.4383107 C3.56788884,34.4383107 0,38.0550405 0,42.4969778 C0,46.9421385 3.56788884,50.5556448 7.94984145,50.5556448 L94.7557502,50.5556448 L74.2737787,71.3179945 C72.7696687,72.8426943 71.9460651,74.863808 71.9460651,77.0170838 C71.9460651,79.1703596 72.7728486,81.1914733 74.2737787,82.7161731 C77.2851786,85.7655727 82.5257141,85.7559023 85.5116745,82.7193966 L119.765951,47.9929887 C120.172983,47.5707145 121.937848,45.6559752 121.998267,42.6549276 C122.071405,39.1864773 119.807291,37.0138607 119.454318,36.6850671 Z"/></g></g></svg>