<?xml version="1.0" encoding="UTF-8"?>
<svg width="48px" height="48px" viewBox="0 0 48 48" version="1.1" xmlns="http://www.w3.org/2000/svg" xmlns:xlink="http://www.w3.org/1999/xlink">
    <title>Icons/i_investment</title>
    <g id="Icons/i_investment" stroke="none" stroke-width="1" fill="none" fill-rule="evenodd">
        <path d="M33,39 L33,10 C33,9.448 33.448,9 34,9 L36,9 C36.552,9 37,9.448 37,10 L37,39 L33,39 Z M22,39 L22,22 C22,21.448 22.448,21 23,21 L25,21 C25.552,21 26,21.448 26,22 L26,39 L22,39 Z M11,39 L11,18 C11,17.448 11.448,17 12,17 L14,17 C14.552,17 15,17.448 15,18 L15,39 L11,39 Z M42,39 L39,39 L39,10 C39,8.346 37.654,7 36,7 L34,7 C32.346,7 31,8.346 31,10 L31,39 L28,39 L28,22 C28,20.346 26.654,19 25,19 L23,19 C21.346,19 20,20.346 20,22 L20,39 L17,39 L17,18 C17,16.346 15.654,15 14,15 L12,15 C10.346,15 9,16.346 9,18 L9,39 L6,39 C5.447,39 5,39.447 5,40 C5,40.553 5.447,41 6,41 L10,41 L16,41 L21,41 L27,41 L32,41 L38,41 L42,41 C42.553,41 43,40.553 43,40 C43,39.447 42.553,39 42,39 L42,39 Z" id="Fill-1" fill="#B82B22"></path>
    </g>
</svg>