<svg xmlns="http://www.w3.org/2000/svg" xmlns:xlink="http://www.w3.org/1999/xlink" width="48" height="48" version="1.1" viewBox="0 0 48 48"><title>Icons/i_interest_rate</title><defs><polygon id="path-1" points="0 0 37.001 0 37.001 37 0 37"/></defs><g id="Icons/i_interest_rate" fill="none" fill-rule="evenodd" stroke="none" stroke-width="1"><g id="Group-8" transform="translate(6.000000, 6.000000)"><path id="Fill-1" fill="#B82B22" d="M24.9014,20.1162 L17.4674,25.6912 L12.0554,22.0842 C12.0264,22.0642 11.9934,22.0612 11.9624,22.0462 C11.9014,22.0132 11.8404,21.9882 11.7754,21.9702 C11.7134,21.9512 11.6554,21.9392 11.5914,21.9332 C11.5284,21.9282 11.4684,21.9282 11.4054,21.9342 C11.3394,21.9412 11.2784,21.9532 11.2144,21.9712 C11.1564,21.9892 11.1024,22.0122 11.0474,22.0412 C10.9854,22.0722 10.9304,22.1092 10.8764,22.1542 C10.8494,22.1762 10.8184,22.1842 10.7944,22.2092 L7.7944,25.2092 C7.4034,25.5992 7.4034,26.2322 7.7944,26.6232 C7.9894,26.8182 8.2454,26.9162 8.5014,26.9162 C8.7564,26.9162 9.0124,26.8182 9.2084,26.6232 L11.6284,24.2032 L16.9464,27.7482 C16.9714,27.7642 17.0004,27.7712 17.0264,27.7852 C17.0554,27.8022 17.0834,27.8132 17.1134,27.8262 C17.2394,27.8802 17.3684,27.9162 17.5004,27.9162 L17.5014,27.9162 L17.5024,27.9162 C17.5044,27.9162 17.5054,27.9152 17.5074,27.9152 C17.6004,27.9142 17.6924,27.8972 17.7814,27.8712 C17.8074,27.8632 17.8334,27.8522 17.8594,27.8422 C17.9284,27.8152 17.9944,27.7812 18.0564,27.7392 C18.0704,27.7292 18.0874,27.7262 18.1004,27.7162 L26.1004,21.7162 C26.5434,21.3852 26.6324,20.7582 26.3004,20.3162 C25.9694,19.8732 25.3424,19.7842 24.9014,20.1162"/><path id="Fill-3" fill="#B82B22" d="M15.3906,10.5107 C15.3906,9.8417 15.9496,9.5487 16.5486,9.4247 L16.5486,11.6487 C15.8566,11.3227 15.3906,10.8447 15.3906,10.5107 L15.3906,10.5107 Z M18.0046,14.2777 C18.8776,14.6787 19.4946,15.1937 19.4946,15.6037 C19.4946,16.0227 19.3636,16.3657 19.1046,16.6247 C18.8546,16.8747 18.4736,17.0437 18.0046,17.1457 L18.0046,14.2777 Z M16.0046,19.1977 L16.0046,19.9997 C16.0046,20.5527 16.4526,20.9997 17.0046,20.9997 C17.5576,20.9997 18.0046,20.5527 18.0046,19.9997 L18.0046,19.1777 C19.2876,18.9947 20.0726,18.4867 20.5196,18.0387 C21.1576,17.4007 21.4946,16.5577 21.4946,15.6017 C21.4936,13.8727 19.8236,12.8567 18.5486,12.3307 L18.5486,9.3657 C19.6526,9.4297 20.1636,9.5757 20.1926,9.5847 C20.7116,9.7537 21.2756,9.4797 21.4526,8.9597 C21.6316,8.4377 21.3536,7.8687 20.8306,7.6897 C20.7446,7.6597 20.0376,7.4207 18.5486,7.3547 L18.5486,5.9997 C18.5486,5.4477 18.1016,4.9997 17.5486,4.9997 C16.9956,4.9997 16.5486,5.4477 16.5486,5.9997 L16.5486,7.4057 C14.2446,7.7187 13.3906,9.2097 13.3906,10.5107 C13.3906,11.9537 14.6386,13.0367 16.0046,13.5857 L16.0046,17.1797 C14.7606,17.0087 14.1316,16.5717 14.1096,16.5557 C13.6736,16.2157 13.0446,16.2957 12.7056,16.7307 C12.3676,17.1667 12.4456,17.7947 12.8806,18.1337 C13.0076,18.2327 14.0466,18.9897 16.0046,19.1977 L16.0046,19.1977 Z"/><g id="Group-7"><mask id="mask-2" fill="#fff"><use xlink:href="#path-1"/></mask><path id="Fill-5" fill="#B82B22" d="M27.6182,27.5869 C27.6122,27.5919 27.6052,27.5929 27.5992,27.5989 C27.5952,27.6039 27.5932,27.6109 27.5882,27.6169 C24.8732,30.3229 21.1302,31.9999 17.0022,31.9999 C8.7292,31.9999 2.0002,25.2719 2.0002,17.0019 C2.0002,8.7299 8.7292,1.9999 17.0022,1.9999 C25.2732,1.9999 32.0022,8.7299 32.0022,17.0019 C32.0022,21.1289 30.3252,24.8719 27.6182,27.5869 M36.7082,35.2929 L29.6902,28.2749 C32.3632,25.2719 34.0022,21.3289 34.0022,17.0019 C34.0022,7.6269 26.3762,-0.0001 17.0022,-0.0001 C7.6272,-0.0001 0.0002,7.6269 0.0002,17.0019 C0.0002,26.3749 7.6272,33.9999 17.0022,33.9999 C21.3292,33.9999 25.2722,32.3609 28.2762,29.6899 L35.2942,36.7069 C35.4892,36.9019 35.7452,36.9999 36.0012,36.9999 C36.2572,36.9999 36.5132,36.9019 36.7082,36.7069 C37.0982,36.3159 37.0982,35.6839 36.7082,35.2929" mask="url(#mask-2)"/></g></g></g></svg>