<?xml version="1.0" encoding="UTF-8"?>
<svg width="48px" height="48px" viewBox="0 0 48 48" version="1.1" xmlns="http://www.w3.org/2000/svg" xmlns:xlink="http://www.w3.org/1999/xlink">
    <title>Icons/i_infor2</title>
    <g id="Icons/i_infor2" stroke="none" stroke-width="1" fill="none" fill-rule="evenodd">
        <g id="Group-7" transform="translate(3.000000, 3.000000)" fill="#666666">
            <path d="M21,2 C10.523,2 2,10.523 2,21 C2,31.477 10.523,40 21,40 C31.477,40 40,31.477 40,21 C40,10.523 31.477,2 21,2 M21,42 C9.421,42 0,32.579 0,21 C0,9.421 9.421,0 21,0 C32.579,0 42,9.421 42,21 C42,32.579 32.579,42 21,42" id="Fill-1"></path>
            <path d="M21,32.5 C20.447,32.5 20,32.053 20,31.5 L20,19.5 C20,18.947 20.447,18.5 21,18.5 C21.553,18.5 22,18.947 22,19.5 L22,31.5 C22,32.053 21.553,32.5 21,32.5" id="Fill-3"></path>
            <path d="M23,12.5 C23,13.604 22.104,14.5 21,14.5 C19.896,14.5 19,13.604 19,12.5 C19,11.396 19.896,10.5 21,10.5 C22.104,10.5 23,11.396 23,12.5" id="Fill-5"></path>
        </g>
    </g>
</svg>