<?xml version="1.0" encoding="UTF-8"?>
<svg width="48px" height="48px" viewBox="0 0 48 48" version="1.1" xmlns="http://www.w3.org/2000/svg" xmlns:xlink="http://www.w3.org/1999/xlink" >
    <title>Icons/i_logout</title>
    <g id="Icons/i_logout" stroke="none" stroke-width="1" fill="none" fill-rule="evenodd">
        <path d="M26.2969,41 L9.7029,41 C8.2129,41 6.9999,39.787 6.9999,38.297 L6.9999,9.703 C6.9999,8.213 8.2129,7 9.7029,7 L26.2969,7 C26.8499,7 27.2969,6.553 27.2969,6 C27.2969,5.447 26.8499,5 26.2969,5 L9.7029,5 C7.1099,5 4.9999,7.109 4.9999,9.703 L4.9999,38.297 C4.9999,40.891 7.1099,43 9.7029,43 L26.2969,43 C26.8499,43 27.2969,42.553 27.2969,42 C27.2969,41.447 26.8499,41 26.2969,41" id="Fill-1" fill="#FFFFFF"></path>
        <path d="M42.4238,23.2842 L32.4238,13.2932 C32.0328,12.9022 31.4008,12.9022 31.0098,13.2932 C30.6188,13.6832 30.6188,14.3172 31.0098,14.7072 L39.3108,23.0002 L17.7168,23.0002 C17.1638,23.0002 16.7168,23.4472 16.7168,24.0002 C16.7168,24.5532 17.1638,25.0002 17.7168,25.0002 L39.3108,25.0002 L31.0098,33.2932 C30.6188,33.6822 30.6188,34.3162 31.0098,34.7072 C31.2048,34.9022 31.4608,35.0002 31.7168,35.0002 C31.9728,35.0002 32.2288,34.9022 32.4238,34.7072 L42.4238,24.7162 C42.6198,24.5192 42.7168,24.2622 42.7158,24.0052 C42.7158,24.0032 42.7168,24.0022 42.7168,24.0002 C42.7168,23.9982 42.7158,23.9972 42.7158,23.9952 C42.7168,23.7382 42.6198,23.4802 42.4238,23.2842" id="Fill-4" fill="#FFFFFF"></path>
    </g>
</svg>