<?xml version="1.0" encoding="UTF-8"?>
<svg width="48px" height="48px" viewBox="0 0 48 48" version="1.1" xmlns="http://www.w3.org/2000/svg" xmlns:xlink="http://www.w3.org/1999/xlink" >
    <title>Icons/i_loan</title>
    <g id="Icons/i_loan" stroke="none" stroke-width="1" fill="none" fill-rule="evenodd">
        <g id="Group-6" transform="translate(7.000000, 4.000000)" fill="#B82B22">
            <path d="M17,39.0025 C8.729,39.0025 2,32.2735 2,24.0025 C2,15.7315 8.729,9.0025 17,9.0025 C25.271,9.0025 32,15.7315 32,24.0025 C32,32.2735 25.271,39.0025 17,39.0025 M14,2.1265 C14.162,2.1915 14.345,2.2715 14.498,2.3385 C15.297,2.6885 16.391,3.1675 17.615,3.1675 C18.84,3.1675 19.934,2.6885 20.732,2.3385 C20.886,2.2715 21.068,2.1915 21.23,2.1265 C21.229,4.2265 19.477,6.9345 17.615,6.9345 C15.754,6.9345 14.001,4.2265 14,2.1265 M20.884,7.4675 C22.305,6.0995 23.23,3.9965 23.23,2.1245 C23.23,1.5335 23.15,0.6955 22.461,0.2455 C21.686,-0.2605 20.832,0.1125 19.93,0.5065 C19.223,0.8165 18.421,1.1675 17.615,1.1675 C16.81,1.1675 16.008,0.8165 15.301,0.5065 C14.399,0.1115 13.545,-0.2615 12.77,0.2455 C12.08,0.6955 12,1.5335 12,2.1245 C12,3.9045 12.838,5.8945 14.142,7.2625 C6.127,8.6275 0,15.6045 0,24.0025 C0,33.3765 7.626,41.0025 17,41.0025 C26.374,41.0025 34,33.3765 34,24.0025 C34,15.9665 28.39,9.2315 20.884,7.4675" id="Fill-1"></path>
            <path d="M20.5635,27.4029 C20.5635,28.1129 20.3095,28.6829 19.8085,29.0949 C19.3775,29.4499 18.7595,29.6789 18.0055,29.7879 L18.0055,25.2079 C19.3985,25.7629 20.5625,26.6019 20.5635,27.4029 L20.5635,27.4029 Z M16.7155,22.6979 C15.5205,22.2599 14.5905,21.4359 14.5905,20.7509 C14.5905,19.7789 15.3595,19.1579 16.7155,18.9739 L16.7155,22.6979 Z M21.2625,19.2509 C21.7875,19.4219 22.3465,19.1449 22.5255,18.6259 C22.7045,18.1029 22.4255,17.5349 21.9035,17.3549 C21.7875,17.3149 20.8315,17.0109 18.7155,16.9309 L18.7155,14.8599 C18.7155,14.3069 18.2685,13.8599 17.7155,13.8599 C17.1635,13.8599 16.7155,14.3069 16.7155,14.8599 L16.7155,16.9759 C13.7085,17.2879 12.5905,19.1349 12.5905,20.7509 C12.5905,22.4839 14.2085,23.8949 16.0055,24.5649 L16.0055,29.8109 C14.0415,29.6129 13.0395,28.8909 13.0355,28.8879 C12.5985,28.5489 11.9705,28.6289 11.6315,29.0629 C11.2925,29.4999 11.3715,30.1279 11.8065,30.4659 C11.8725,30.5179 13.2975,31.5879 16.0055,31.8139 L16.0055,33.1449 C16.0055,33.6979 16.4535,34.1449 17.0055,34.1449 C17.5585,34.1449 18.0055,33.6979 18.0055,33.1449 L18.0055,31.7989 C19.2585,31.6659 20.2955,31.2849 21.0805,30.6389 C22.0375,29.8509 22.5645,28.7009 22.5635,27.4009 C22.5615,25.2289 20.3285,23.9659 18.7155,23.3369 L18.7155,18.9339 C20.4715,19.0059 21.2305,19.2399 21.2625,19.2509 L21.2625,19.2509 Z" id="Fill-4"></path>
        </g>
    </g>
</svg>