<?xml version="1.0" encoding="UTF-8"?>
<svg width="48px" height="48px" viewBox="0 0 48 48" version="1.1" xmlns="http://www.w3.org/2000/svg" xmlns:xlink="http://www.w3.org/1999/xlink">
    <title>Icons/i_pageBack</title>
    <g id="Icons/i_pageBack" stroke="none" stroke-width="1" fill="none" fill-rule="evenodd">
        <path d="M42,22.9705 L8.445,22.9705 L23.709,7.7065 C24.1,7.3165 24.1,6.6835 23.709,6.2925 C23.318,5.9025 22.686,5.9025 22.295,6.2925 L5.39,23.1985 C5.158,23.3815 5,23.6525 5,23.9705 C5,24.2565 5.123,24.5105 5.314,24.6925 C5.318,24.6965 5.32,24.7025 5.324,24.7065 L22.295,41.6775 C22.49,41.8725 22.746,41.9705 23.002,41.9705 C23.258,41.9705 23.514,41.8725 23.709,41.6775 C24.1,41.2865 24.1,40.6545 23.709,40.2635 L8.416,24.9705 L42,24.9705 C42.553,24.9705 43,24.5225 43,23.9705 C43,23.4185 42.553,22.9705 42,22.9705" id="Fill-1" fill="#222222"></path>
    </g>
</svg>