<svg xmlns="http://www.w3.org/2000/svg" xmlns:xlink="http://www.w3.org/1999/xlink" width="150" height="150" version="1.1" viewBox="0 0 150 150"><title>icon/i_percent</title><desc>Created with Sketch.</desc><g id="icon/i_percent" fill="none" fill-rule="evenodd" stroke="none" stroke-width="1"><path id="％" fill="#3E3E3E" fill-rule="nonzero" d="M42.767663,76 C50.2685688,76 56.3491848,73.5799087 61.0095109,68.739726 C65.669837,63.8995434 68,57.211291 68,48.6749689 C68,40.7106683 65.8473732,34.4404317 61.5421196,29.864259 C57.2368659,25.2880863 51.4669384,23 44.232337,23 C36.7758152,23 30.7062953,25.4310917 26.0237772,30.2932752 C21.3412591,35.1554587 19,41.8767123 19,50.4570361 C19,58.2013284 21.1637228,64.3945621 25.4911685,69.0367372 C29.8186141,73.6789124 35.5774457,76 42.767663,76 Z M49.1130952,128 L114,26 L101.755952,26 L37,128 L49.1130952,128 Z M43.8693467,67 C40.0368509,67 36.9338358,65.5806246 34.5603015,62.7418738 C32.1867672,59.903123 31,55.7750159 31,50.3575526 C31,44.9834289 32.1867672,40.7469726 34.5603015,37.6481836 C36.9338358,34.5493945 40.1675042,33 44.2613065,33 C48.0938023,33 51.1750419,34.47355 53.5050251,37.4206501 C55.8350084,40.3677502 57,44.4416826 57,49.6424474 C57,55.0165711 55.8241206,59.2530274 53.4723618,62.3518164 C51.120603,65.4506055 47.919598,67 43.8693467,67 Z M104.314286,129 C111.672109,129 117.62585,126.546907 122.17551,121.640722 C126.72517,116.734537 129,110.035284 129,101.542964 C129,93.5786633 126.931973,87.3304276 122.795918,82.7982565 C118.659864,78.2660855 113.021769,76 105.881633,76 C98.4367347,76 92.4285714,78.4310917 87.8571429,83.2932752 C83.2857143,88.1554587 81,94.8767123 81,103.457036 C81,111.113325 83.122449,117.284558 87.3673469,121.970735 C91.6122449,126.656912 97.2612245,129 104.314286,129 Z M105.869347,120 C101.906198,120 98.7705193,118.534483 96.4623116,115.603448 C94.1541039,112.672414 93,108.579821 93,103.32567 C93,97.9412516 94.1976549,93.7075351 96.5929648,90.6245211 C98.9882747,87.541507 102.167504,86 106.130653,86 C109.963149,86 113.066164,87.4546616 115.439698,90.3639847 C117.813233,93.2733078 119,97.3767561 119,102.67433 C119,108.145594 117.824121,112.401022 115.472362,115.440613 C113.120603,118.480204 109.919598,120 105.869347,120 Z"/></g></svg>