<svg xmlns="http://www.w3.org/2000/svg" xmlns:xlink="http://www.w3.org/1999/xlink" width="150" height="150" viewBox="0 0 150 150"><defs><clipPath id="clip-i_plus"><rect width="150" height="150"/></clipPath></defs><g id="i_plus" clip-path="url(#clip-i_plus)"><g id="icon_i_plus" data-name="icon/i_plus"><rect id="矩形_2" width="150" height="150" fill="#fff" data-name="矩形 2" opacity="0"/><g id="noun_Plus_733439" transform="translate(10 11)"><g id="Group" transform="translate(0 0.301)"><path id="Path" fill="#3e3e3e" stroke="#3e3e3e" stroke-width="2" d="M65,.739c-3.714,0-6.724,2.739-6.724,6.118v46.9H6.724C3.011,53.758,0,56.5,0,59.876s3.011,6.118,6.724,6.118H58.276v46.9c0,3.379,3.011,6.118,6.724,6.118s6.724-2.739,6.724-6.118v-46.9h51.552c3.714,0,6.724-2.739,6.724-6.118s-3.01-6.118-6.724-6.118H71.724V6.856c0-3.379-3.01-6.118-6.724-6.118Z"/></g></g></g></g></svg>