<?xml version="1.0" encoding="UTF-8"?>
<svg width="150px" height="150px" viewBox="0 0 150 150" version="1.1" xmlns="http://www.w3.org/2000/svg" xmlns:xlink="http://www.w3.org/1999/xlink">
    <!-- Generator: Sketch 63.1 (92452) - https://sketch.com -->
    <title>icon/i_qrcode</title>
    <desc>Created with Sketch.</desc>
    <defs>
        <path d="M65,15.234375 L65,25.390625 L54.84375,25.390625 L54.84375,15.234375 L65,15.234375 Z M54.84375,74.9023438 L54.84375,89.375 L65,89.375 L65,74.9023438 L54.84375,74.9023438 Z M85.3125,130 L85.3125,119.84375 L75.15625,119.84375 L75.15625,109.6875 L65,109.6875 L65,130 L85.3125,130 Z M105.625,54.5898437 L75.15625,54.5898437 L75.15625,64.7460937 L105.625,64.7460937 L105.625,54.5898437 Z M105.625,74.9023438 L119.84375,74.9023438 L119.84375,64.7460938 L105.625,64.7460938 L105.625,74.9023438 Z M105.625,89.375 L105.625,99.53125 L130,99.53125 L130,74.9023438 L119.84375,74.9023438 L119.84375,89.375 L105.625,89.375 Z M75.15625,0 L65,0 L65,15.234375 L75.15625,15.234375 L75.15625,0 Z M65,45.703125 L75.15625,45.703125 L75.15625,25.390625 L65,25.390625 L65,35.546875 L54.84375,35.546875 L54.84375,64.7460937 L65,64.7460937 L65,45.703125 Z M0,54.5898437 L0,74.9023438 L10.15625,74.9023438 L10.15625,64.7460937 L25.390625,64.7460937 L25.390625,54.5898437 L0,54.5898437 Z M75.15625,74.9023438 L75.15625,64.7460938 L65,64.7460938 L65,74.9023438 L75.15625,74.9023438 Z M95.46875,85.0585937 L105.625,85.0585937 L105.625,74.9023438 L95.46875,74.9023438 L95.46875,85.0585937 Z M119.84375,64.7460937 L130,64.7460937 L130,54.5898437 L119.84375,54.5898437 L119.84375,64.7460937 Z M85.3125,74.9023438 L75.15625,74.9023438 L75.15625,89.375 L65,89.375 L65,99.53125 L85.3125,99.53125 L85.3125,74.9023438 Z M54.84375,109.6875 L65,109.6875 L65,99.53125 L54.84375,99.53125 L54.84375,109.6875 Z M85.3125,99.53125 L85.3125,109.6875 L105.625,109.6875 L105.625,99.53125 L85.3125,99.53125 Z M115.78125,119.84375 L115.78125,109.6875 L105.625,109.6875 L105.625,119.84375 L115.78125,119.84375 Z M130,130 L130,119.84375 L115.78125,119.84375 L115.78125,130 L130,130 Z M95.46875,130 L105.625,130 L105.625,119.84375 L95.46875,119.84375 L95.46875,130 Z M45.703125,64.7460937 L45.703125,54.5898437 L35.546875,54.5898437 L35.546875,64.7460937 L25.390625,64.7460937 L25.390625,74.9023438 L54.84375,74.9023438 L54.84375,64.7460937 L45.703125,64.7460937 Z M45.703125,45.703125 L0,45.703125 L0,0 L45.703125,0 L45.703125,45.703125 Z M35.546875,10.15625 L10.15625,10.15625 L10.15625,35.546875 L35.546875,35.546875 L35.546875,10.15625 Z M27.9296875,17.7734375 L17.7734375,17.7734375 L17.7734375,27.9296875 L27.9296875,27.9296875 L27.9296875,17.7734375 Z M130,0 L130,45.703125 L84.296875,45.703125 L84.296875,0 L130,0 Z M119.84375,10.15625 L94.453125,10.15625 L94.453125,35.546875 L119.84375,35.546875 L119.84375,10.15625 Z M112.226562,17.7734375 L102.070312,17.7734375 L102.070312,27.9296875 L112.226562,27.9296875 L112.226562,17.7734375 Z M0,84.296875 L45.703125,84.296875 L45.703125,130 L0,130 L0,84.296875 Z M10.15625,119.84375 L35.546875,119.84375 L35.546875,94.453125 L10.15625,94.453125 L10.15625,119.84375 Z M17.7734375,112.226562 L27.9296875,112.226562 L27.9296875,102.070312 L17.7734375,102.070312 L17.7734375,112.226562 Z" id="path-1"></path>
        <filter x="-5.4%" y="-3.8%" width="110.8%" height="110.8%" filterUnits="objectBoundingBox" id="filter-2">
            <feOffset dx="0" dy="2" in="SourceAlpha" result="shadowOffsetOuter1"></feOffset>
            <feGaussianBlur stdDeviation="2" in="shadowOffsetOuter1" result="shadowBlurOuter1"></feGaussianBlur>
            <feColorMatrix values="0 0 0 0 0   0 0 0 0 0   0 0 0 0 0  0 0 0 0.150240385 0" type="matrix" in="shadowBlurOuter1"></feColorMatrix>
        </filter>
    </defs>
    <g id="icon/i_qrcode" stroke="none" stroke-width="1" fill="none" fill-rule="evenodd">
        <g id="005-qr" transform="translate(10.000000, 10.000000)" fill-rule="nonzero">
            <g id="Shape">
                <use fill="black" fill-opacity="1" filter="url(#filter-2)" xlink:href="#path-1"></use>
                <use fill="#3E3E3E" xlink:href="#path-1"></use>
            </g>
        </g>
    </g>
</svg>