<svg xmlns="http://www.w3.org/2000/svg" xmlns:xlink="http://www.w3.org/1999/xlink" width="150" height="150" viewBox="0 0 150 150"><defs><clipPath id="clip-i_refresh"><rect width="150" height="150"/></clipPath></defs><g id="i_refresh" clip-path="url(#clip-i_refresh)"><g id="icon_i_refresh" data-name="icon/i_refresh"><rect id="矩形_1" width="150" height="150" fill="#fff" data-name="矩形 1" opacity="0"/><path id="Path" fill="#3e3e3e" d="M118.521-15.04a5.9,5.9,0,0,1-5.239-5.844V-33.569l-.126.113a58.922,58.922,0,0,1-80.04-4.406,57.527,57.527,0,0,1,2.072-81.9,58.91,58.91,0,0,1,82.7,2.052,57.555,57.555,0,0,1,15.3,49.583,5.921,5.921,0,0,1-6.785,4.867,5.9,5.9,0,0,1-4.992-6.055l.087-.79a46.825,46.825,0,0,0-38.682-53.935c-25.74-4.329-50.146,12.815-54.517,38.284A46.829,46.829,0,0,0,66.973-31.813l1.7.254A47.584,47.584,0,0,0,107.355-43.93l.743-.724L90.767-50.377a5.88,5.88,0,0,1-3.959-6.671l.175-.68a5.955,5.955,0,0,1,6.744-4.019l.683.172,26.672,8.8a5.888,5.888,0,0,1,4.059,5.585v26.308A5.907,5.907,0,0,1,119.212-15Z" transform="translate(151) rotate(180)"/></g></g></svg>