<?xml version="1.0" encoding="UTF-8"?>
<svg width="150px" height="150px" viewBox="0 0 150 150" version="1.1" xmlns="http://www.w3.org/2000/svg" xmlns:xlink="http://www.w3.org/1999/xlink" >
    <!-- Generator: Sketch 63.1 (92452) - https://sketch.com -->
    <title>icon/i_search</title>
    <desc>Created with Sketch.</desc>
    <g id="icon/i_search" stroke="none" stroke-width="1" fill="none" fill-rule="evenodd">
        <g id="005-magnifying-glass" fill-rule="nonzero">
            <path d="M102.97489,93.0887839 L121.912261,112.164951 C124.303194,114.437075 124.640508,118.044719 122.924204,120.693675 L124,121.770069 C122.364863,123.491323 120.082216,124.216117 117.901861,123.944452 C115.852334,124.207899 113.703132,123.530024 112.165535,121.911216 L93.0893759,102.974302 C91.4727007,101.357626 90.7944805,99.1778768 91.0547154,97.1162755 C90.7866474,94.9100488 91.5118207,92.6318922 93.2304499,91 L94.3066858,92.0768466 C96.9583778,90.3591045 100.583321,90.6964169 102.97489,93.0887839 Z" id="Combined-Shape" fill="#5A5A5A"></path>
            <path d="M128.396313,146.27031 L99.2646863,117.134136 C97.9048086,115.8425 97.6416064,113.838343 98.4750799,112.226679 L98.5806418,112.034972 C98.6911867,111.845545 98.8175237,111.662409 98.9596528,111.487473 L99.106765,111.31562 C99.1576507,111.259202 99.2102912,111.203765 99.2646863,111.14938 L105.250587,105.249482 L111.152175,99.2644445 C112.837861,97.5785185 115.535578,97.5785185 117.137514,99.2644445 L117.137514,99.2644445 L146.26914,128.400899 C151.243573,133.289523 151.243573,141.381125 146.269421,146.270029 L146.26914,146.27031 L146.026165,146.507054 L146.026165,146.507054 L145.779041,146.735755 C144.509351,147.880834 143.072456,148.724621 141.556342,149.267117 C141.383607,149.329056 141.209552,149.387054 141.034596,149.441129 L140.732825,149.530112 C140.12668,149.700878 139.51073,149.825072 138.890323,149.902693 L138.579284,149.937903 C138.378345,149.957972 138.177034,149.973176 137.975531,149.983516 C137.96507,149.983796 137.955058,149.984297 137.945046,149.984786 C137.742701,149.994941 137.539662,149.999935 137.336622,149.999999 L137.336114,149.999719 C134.110655,150.001028 130.884417,148.757798 128.396313,146.27031 Z" id="Combined-Shape" fill="#363636"></path>
            <path d="M16.1538535,16.1538898 C37.6506905,-5.34214902 72.3495916,-5.427069 93.8461465,16.1538898 C115.342137,37.650775 115.427057,72.3497541 93.8461465,93.8457929 C72.3493095,115.342396 37.6504084,115.427034 16.1538535,93.8457929 C-5.34213703,72.349472 -5.42705681,37.6504929 16.1538535,16.1538898 Z M55.0000234,16.1765941 C44.2703344,16.1765941 34.6000134,20.5531477 27.5411684,27.5414206 C20.5529167,34.6000516 16.1766117,44.2706373 16.1766117,55.0001235 C16.1766117,76.3880319 33.6117092,93.8236529 55.0000234,93.8236529 C65.7297124,93.8236529 75.4000335,89.4470993 82.4588784,82.4588264 C89.4471301,75.39996 93.8236705,65.7289038 93.8236705,54.9998882 C93.8236705,33.6117444 76.3883376,16.1765941 55.0000234,16.1765941 Z" id="Combined-Shape" fill="#3E3E3E"></path>
        </g>
    </g>
</svg>