<?xml version="1.0" encoding="UTF-8"?>
<svg width="48px" height="48px" viewBox="0 0 48 48" version="1.1" xmlns="http://www.w3.org/2000/svg" xmlns:xlink="http://www.w3.org/1999/xlink">
    <title>Icons/i_setting</title>
    <g id="Icons/i_setting" stroke="none" stroke-width="1" fill="none" fill-rule="evenodd">
        <g id="Group-5" transform="translate(5.000000, 5.000000)" fill="#B82B22">
            <path d="M34,21 L30.608,21 C30.152,21 29.755,21.309 29.641,21.75 C29.382,22.748 28.988,23.7 28.469,24.58 C28.237,24.973 28.301,25.473 28.623,25.795 L31.021,28.192 C31.801,28.973 31.801,30.241 31.021,31.021 C30.242,31.8 28.973,31.802 28.192,31.021 L25.794,28.623 C25.472,28.301 24.971,28.24 24.579,28.469 C23.698,28.988 22.746,29.382 21.75,29.639 C21.309,29.753 21,30.151 21,30.607 L21,34 C21,35.103 20.103,36 19,36 C17.897,36 17,35.103 17,34 L17,30.606 C17,30.15 16.691,29.752 16.25,29.638 C15.254,29.381 14.303,28.987 13.422,28.468 C13.265,28.375 13.089,28.329 12.914,28.329 C12.655,28.329 12.399,28.43 12.207,28.622 L9.808,31.021 C9.027,31.801 7.758,31.799 6.979,31.021 C6.199,30.241 6.199,28.973 6.979,28.192 L9.379,25.793 C9.701,25.471 9.765,24.97 9.533,24.577 C9.014,23.698 8.62,22.747 8.363,21.75 C8.249,21.309 7.851,21 7.395,21 L4,21 C2.897,21 2,20.103 2,19 C2,17.897 2.897,17 4,17 L7.395,17 C7.851,17 8.249,16.691 8.363,16.25 C8.62,15.254 9.014,14.303 9.533,13.424 C9.765,13.031 9.702,12.53 9.379,12.208 L6.979,9.808 C6.602,9.43 6.394,8.928 6.394,8.394 C6.394,7.859 6.602,7.357 6.979,6.979 C7.735,6.224 9.052,6.224 9.808,6.979 L12.207,9.379 C12.529,9.702 13.032,9.764 13.422,9.533 C14.305,9.013 15.256,8.618 16.25,8.362 C16.691,8.248 17,7.85 17,7.394 L17,4 C17,2.897 17.897,2 19,2 C20.103,2 21,2.897 21,4 L21,7.394 C21,7.85 21.309,8.248 21.75,8.362 C22.746,8.619 23.698,9.013 24.579,9.532 C24.973,9.763 25.472,9.7 25.794,9.378 L28.192,6.979 C28.948,6.224 30.265,6.224 31.021,6.979 C31.398,7.357 31.606,7.859 31.606,8.394 C31.606,8.928 31.398,9.43 31.021,9.808 L28.623,12.206 C28.301,12.528 28.237,13.028 28.469,13.421 C28.988,14.302 29.382,15.253 29.641,16.25 C29.755,16.691 30.152,17 30.608,17 L34,17 C35.103,17 36,17.897 36,19 C36,20.103 35.103,21 34,21 M34,15 L31.358,15 C31.146,14.342 30.881,13.703 30.567,13.09 L32.435,11.222 C33.19,10.467 33.606,9.463 33.606,8.394 C33.606,7.325 33.19,6.321 32.435,5.565 C31.68,4.81 30.676,4.394 29.606,4.394 C28.538,4.394 27.534,4.81 26.778,5.565 L24.91,7.434 C24.297,7.119 23.658,6.855 23,6.643 L23,4 C23,1.794 21.206,0 19,0 C16.794,0 15,1.794 15,4 L15,6.644 C14.343,6.855 13.705,7.12 13.091,7.434 L11.222,5.565 C9.709,4.053 7.074,4.055 5.565,5.565 C4.81,6.321 4.394,7.325 4.394,8.394 C4.394,9.463 4.81,10.467 5.565,11.222 L7.434,13.091 C7.12,13.704 6.856,14.343 6.644,15 L4,15 C1.794,15 0,16.794 0,19 C0,21.206 1.794,23 4,23 L6.644,23 C6.856,23.658 7.12,24.297 7.434,24.909 L5.565,26.778 C4.81,27.534 4.394,28.538 4.394,29.606 C4.394,30.676 4.81,31.68 5.565,32.436 C7.124,33.994 9.661,33.994 11.222,32.436 L13.091,30.566 C13.704,30.881 14.343,31.145 15,31.357 L15,34 C15,36.206 16.794,38 19,38 C21.206,38 23,36.206 23,34 L23,31.358 C23.658,31.146 24.297,30.882 24.91,30.567 L26.778,32.436 C28.34,33.994 30.877,33.994 32.435,32.436 C33.19,31.68 33.606,30.676 33.606,29.606 C33.606,28.538 33.19,27.534 32.435,26.778 L30.567,24.911 C30.881,24.298 31.146,23.659 31.358,23 L34,23 C36.206,23 38,21.206 38,19 C38,16.794 36.206,15 34,15" id="Fill-1"></path>
            <path d="M19.001,24 C16.244,24 14.001,21.757 14.001,19 C14.001,16.243 16.244,14 19.001,14 C21.758,14 24.001,16.243 24.001,19 C24.001,21.757 21.758,24 19.001,24 M19.001,12 C15.142,12 12.001,15.141 12.001,19 C12.001,22.859 15.142,26 19.001,26 C22.86,26 26.001,22.859 26.001,19 C26.001,15.141 22.86,12 19.001,12" id="Fill-3"></path>
        </g>
    </g>
</svg>