<svg xmlns="http://www.w3.org/2000/svg" xmlns:xlink="http://www.w3.org/1999/xlink" width="150" height="150" version="1.1" viewBox="0 0 150 150"><title>icon/footer-icon/share_default</title><g id="icon/footer-icon/share_default" fill="none" fill-rule="evenodd" stroke="none" stroke-width="1"><g id="noun_Social_2375277" fill="#3E3E3E" fill-rule="nonzero" transform="translate(17.000000, 17.000000)"><path id="Shape" d="M85.7366966,29.0103986 C91.7070489,35.4437341 101.552868,36.3701261 108.617564,31.1632568 C115.682261,25.9563876 117.715836,16.2745669 113.343423,8.66350713 C108.971011,1.05244733 99.5851596,-2.06384314 91.5314817,1.42150605 C83.4778038,4.90685524 79.321275,13.8838126 81.872053,22.2832118 L31.2065743,46.7949154 L30.8780796,46.9882254 C26.3389634,41.410059 18.8365568,39.2013556 12.0007488,41.430752 C5.16494078,43.6601485 0.405243809,49.8679533 0.0245418341,57.0506447 C-0.356160141,64.2333361 3.72063189,70.9098757 10.2824438,73.8499539 C16.8442558,76.790032 24.538072,75.3874178 29.6413937,70.3207382 L81.5049118,95.4510336 C80.1782487,102.657961 83.5079163,109.923878 89.8319112,113.622004 C96.1559061,117.32013 104.11826,116.657525 109.744564,111.964929 C115.370868,107.272332 117.454751,99.555914 114.956042,92.6673238 C112.457333,85.7787336 105.911796,81.1949982 98.5866369,81.2040892 C93.0683687,81.2175788 87.8839843,83.850269 84.61595,88.2985649 L33.834532,63.8061924 C34.9666703,60.6193383 35.1280683,57.1680677 34.2982893,53.8893911 L34.5688143,53.8893911 L85.7366966,29.0103986 Z M98.6165381,7.73333333 C103.448425,7.7501548 107.528395,11.3201772 108.178004,16.0997282 C108.827612,20.8792792 105.84802,25.4053925 101.195291,26.7067348 C96.5425614,28.0080771 91.640842,25.6863223 89.7080462,21.2656716 C89.1921724,20.0419359 88.9287081,18.7269523 88.9333333,17.3992893 C88.9333333,14.8357184 89.9535802,12.3771446 91.7695218,10.5644263 C93.5854634,8.75170791 96.0484088,7.73333333 98.6165381,7.73333333 L98.6165381,7.73333333 Z M26.3087992,63.7222904 C24.5066686,67.9476031 19.9771777,70.322448 15.4728304,69.4036674 C10.968483,68.4848867 7.73333333,64.5262382 7.73333333,59.9333333 C7.73333333,55.3404285 10.968483,51.3817799 15.4728304,50.4629993 C19.9771777,49.5442187 24.5066686,51.9190636 26.3087992,56.1443763 C27.3192892,58.5694804 27.3192892,61.2971863 26.3087992,63.7222904 L26.3087992,63.7222904 Z M89.6876906,94.8563997 C91.6072231,90.2884248 96.6703703,87.9116777 101.411224,89.353128 C106.152078,90.7945783 109.03506,95.5873355 108.086664,100.450583 C107.138268,105.313831 102.665683,108.672347 97.7305562,108.227105 C92.795429,107.781864 88.9962637,103.677079 88.9337268,98.7226263 C88.921865,97.3962415 89.1783244,96.0811517 89.6876906,94.8563997 L89.6876906,94.8563997 Z"/></g></g></svg>