<svg xmlns="http://www.w3.org/2000/svg" xmlns:xlink="http://www.w3.org/1999/xlink" width="48" height="48" version="1.1" viewBox="0 0 48 48"><title>Icons/Multicolor/i_smile</title><g id="Icons/Multicolor/i_smile" fill="none" fill-rule="evenodd" stroke="none" stroke-width="1"><g id="Group-9" transform="translate(3.000000, 3.000000)"><path id="Fill-1" fill="#F9BE00" d="M42,21 C42,32.598 32.598,42 21,42 C9.402,42 0,32.598 0,21 C0,9.402 9.402,0 21,0 C32.598,0 42,9.402 42,21"/><path id="Fill-3" fill="#FAFAFA" d="M35,24 C35,30.627 28.732,36 21,36 C13.268,36 7,30.627 7,24 L35,24 Z"/><path id="Fill-5" fill="#6C2A14" d="M16.999,18.0068 C16.564,18.0068 16.164,17.7208 16.039,17.2818 C15.478,15.3228 14.257,14.0068 13,14.0068 C11.743,14.0068 10.522,15.3228 9.961,17.2818 C9.81,17.8138 9.25,18.1198 8.725,17.9678 C8.194,17.8168 7.887,17.2628 8.039,16.7318 C8.86,13.8608 10.808,12.0068 13,12.0068 C15.192,12.0068 17.14,13.8608 17.961,16.7318 C18.113,17.2628 17.806,17.8168 17.275,17.9678 C17.184,17.9938 17.091,18.0068 16.999,18.0068"/><path id="Fill-7" fill="#6C2A14" d="M32.999,18.0068 C32.564,18.0068 32.164,17.7208 32.039,17.2818 C31.478,15.3228 30.257,14.0068 29,14.0068 C27.743,14.0068 26.522,15.3228 25.961,17.2818 C25.81,17.8138 25.251,18.1198 24.725,17.9678 C24.194,17.8168 23.887,17.2628 24.039,16.7318 C24.86,13.8608 26.808,12.0068 29,12.0068 C31.192,12.0068 33.14,13.8608 33.961,16.7318 C34.113,17.2628 33.806,17.8168 33.275,17.9678 C33.184,17.9938 33.091,18.0068 32.999,18.0068"/></g></g></svg>