<?xml version="1.0" encoding="UTF-8"?>
<svg width="150px" height="150px" viewBox="0 0 150 150" version="1.1" xmlns="http://www.w3.org/2000/svg" xmlns:xlink="http://www.w3.org/1999/xlink">
    <!-- Generator: Sketch 63.1 (92452) - https://sketch.com -->
    <title>icon/i_succeed</title>
    <desc>Created with Sketch.</desc>
    <g id="icon/i_succeed" stroke="none" stroke-width="1" fill="none" fill-rule="evenodd">
        <circle id="Oval" fill="#FFFFFF" cx="75" cy="75" r="65"></circle>
        <path d="M75,10 C39.10375,10 10,39.10375 10,75 C10,110.89625 39.10375,140 75,140 C110.89625,140 140,110.89625 140,75 C140,39.10375 110.89625,10 75,10 Z M110.710293,63.8879222 L69.8543599,104.334083 C68.8383658,105.339887 67.4656929,105.901639 66.0335736,105.901639 C64.6014542,105.901639 63.2233771,105.339887 62.2127872,104.334083 L43.5520018,85.8604596 C41.4389502,83.7686013 41.4389502,80.3873878 43.5520018,78.2955295 C45.6650534,76.2036712 49.0805229,76.2036712 51.1935745,78.2955295 L66.0335736,92.986688 L103.068721,56.3229921 C105.181772,54.2311338 108.597242,54.2311338 110.710293,56.3229921 C112.823345,58.4148504 112.823345,61.7960639 110.710293,63.8879222 Z" id="Shape" fill="#3E3E3E" fill-rule="nonzero"></path>
    </g>
</svg>