<svg xmlns="http://www.w3.org/2000/svg" xmlns:xlink="http://www.w3.org/1999/xlink" width="48" height="48" version="1.1" viewBox="0 0 48 48"><title>Icons/i_tag</title><g id="Icons/i_tag" fill="none" fill-rule="evenodd" stroke="none" stroke-width="1"><path id="Stroke-1" fill="#999" fill-rule="nonzero" d="M35,3 L13,3 C10.2387153,3 8,5.23871525 8,8 L8,44 L8.00560011,44.1094666 C8.08691117,44.8949635 9.03545416,45.292497 9.65488067,44.7557323 L24.001,32.322 L38.3450196,44.7556459 C38.9925748,45.3169352 40,44.8569559 40,44 L40,8 C40,5.24771525 37.7522847,3 35,3 Z M35,5 L35.1753623,5.00512642 C36.7425822,5.09696859 38,6.41113172 38,8 L38,41.81 L24.6569804,30.2443541 L24.5594332,30.1696971 C24.1893821,29.9208375 23.6916801,29.9456882 23.3471193,30.2442677 L10,41.81 L10,8 C10,6.34328475 11.3432847,5 13,5 L35,5 Z"/></g></svg>