<svg xmlns="http://www.w3.org/2000/svg" xmlns:xlink="http://www.w3.org/1999/xlink" width="48" height="48" version="1.1" viewBox="0 0 48 48"><title>Icons/i_transfer</title><defs><polygon id="path-1" points=".293 .024 40.358 .024 40.358 18 .293 18"/><polygon id="path-3" points="0 0 40.07 0 40.07 18.026 0 18.026"/></defs><g id="Icons/i_transfer" fill="none" fill-rule="evenodd" stroke="none" stroke-width="1"><g id="Group-9" transform="translate(3.000000, 5.000000)"><g id="Group-3" transform="translate(2.000000, 20.000000)"><mask id="mask-2" fill="#fff"><use xlink:href="#path-1"/></mask><path id="Fill-1" fill="#B82B22" d="M40.0011,2.1738 L37.7031,0.2458 C37.6721,0.2198 37.6341,0.2118 37.6011,0.1908 C37.5391,0.1508 37.4801,0.1128 37.4121,0.0878 C37.3541,0.0658 37.2961,0.0548 37.2341,0.0428 C37.1711,0.0318 37.1101,0.0228 37.0451,0.0237239687 C36.9741,0.0248 36.9081,0.0378 36.8391,0.0538 C36.7991,0.0638 36.7591,0.0578 36.7191,0.0718 L33.8991,1.0978 C33.3811,1.2858 33.1121,1.8608 33.3021,2.3788 C33.4491,2.7848 33.8331,3.0368 34.2411,3.0368 C34.3551,3.0368 34.4701,3.0178 34.5831,2.9768 L35.8131,2.5288 C34.1761,10.3118 27.2861,15.9998 19.1781,15.9998 C10.5211,15.9998 3.2591,9.5238 2.2861,0.9358 C2.2241,0.3868 1.7331,-0.0162 1.1811,0.0548 C0.6321,0.1158 0.2371,0.6118 0.3001,1.1598 C1.3871,10.7608 9.5031,17.9998 19.1781,17.9998 C28.2501,17.9998 35.9561,11.6268 37.7731,2.9138 L38.7161,3.7048 C38.9031,3.8618 39.1311,3.9398 39.3571,3.9398 C39.6441,3.9398 39.9271,3.8188 40.1241,3.5818 C40.4801,3.1588 40.4241,2.5278 40.0011,2.1738" mask="url(#mask-2)"/></g><g id="Group-6"><mask id="mask-4" fill="#fff"><use xlink:href="#path-3"/></mask><path id="Fill-4" fill="#B82B22" d="M2.6915,17.7549 C2.7535,17.8029 2.8225,17.8389 2.8945,17.8719 C2.9235,17.8849 2.9505,17.9029 2.9805,17.9139 C3.0825,17.9479 3.1885,17.9689 3.2975,17.9689 C3.4115,17.9689 3.5275,17.9489 3.6395,17.9079 L6.4595,16.8809 C6.9785,16.6929 7.2465,16.1189 7.0565,15.5999 C6.8685,15.0819 6.2935,14.8119 5.7755,15.0029 L4.5485,15.4489 C6.1925,7.6789 13.0805,1.9999 21.1775,1.9999 C28.3565,1.9999 34.7955,6.5429 37.2005,13.3029 C37.5185,14.1999 37.7625,15.1309 37.9255,16.0709 C37.9885,16.4219 38.0375,16.7759 38.0765,17.1339 C38.1315,17.6469 38.5655,18.0259 39.0695,18.0259 C39.1045,18.0259 39.1415,18.0249 39.1775,18.0209 C39.7265,17.9619 40.1245,17.4679 40.0645,16.9189 C40.0215,16.5169 39.9645,16.1189 39.8965,15.7269 C39.7145,14.6779 39.4415,13.6369 39.0855,12.6329 C36.3975,5.0769 29.2015,-0.0001 21.1775,-0.0001 C12.1165,-0.0001 4.4125,6.3649 2.5875,15.0659 L1.6425,14.2739 C1.2185,13.9179 0.5875,13.9759 0.2345,14.3969 C-0.1215,14.8199 -0.0665,15.4499 0.3575,15.8059 L2.6555,17.7339 C2.6665,17.7439 2.6795,17.7469 2.6915,17.7549" mask="url(#mask-4)"/></g><path id="Fill-7" fill="#B82B22" d="M25.3117,22.8242 C25.3117,23.6632 25.0107,24.3372 24.4167,24.8262 C23.8857,25.2622 23.1247,25.5462 22.1837,25.6602 L22.1837,20.1752 C23.8537,20.8052 25.3107,21.8042 25.3117,22.8242 M18.3417,15.3422 C18.3417,14.1422 19.2947,13.3852 20.9827,13.1972 L20.9827,17.7002 C19.5127,17.2082 18.3417,16.1922 18.3417,15.3422 M26.0117,13.5342 C26.5337,13.7082 27.0967,13.4302 27.2757,12.9102 C27.4547,12.3882 27.1757,11.8202 26.6537,11.6402 C26.5227,11.5952 25.4277,11.2472 22.9827,11.1662 L22.9827,8.7142 C22.9827,8.1622 22.5357,7.7142 21.9827,7.7142 C21.4297,7.7142 20.9827,8.1622 20.9827,8.7142 L20.9827,11.1872 C17.5827,11.4782 16.3417,13.4702 16.3417,15.3422 C16.3417,17.2602 18.1707,18.8172 20.1837,19.5412 L20.1837,25.6722 C17.8407,25.4672 16.6467,24.5992 16.6407,24.5952 C16.2047,24.2562 15.5757,24.3362 15.2377,24.7702 C14.8977,25.2072 14.9767,25.8352 15.4127,26.1742 C15.4857,26.2312 17.1037,27.4382 20.1837,27.6692 L20.1837,29.2862 C20.1837,29.8392 20.6307,30.2862 21.1837,30.2862 C21.7367,30.2862 22.1837,29.8392 22.1837,29.2862 L22.1837,27.6552 C23.6187,27.5182 24.8037,27.0992 25.6887,26.3702 C26.7357,25.5082 27.3127,24.2482 27.3117,22.8232 C27.3097,20.7172 25.2207,19.1922 22.9827,18.3292 L22.9827,13.1692 C25.0817,13.2452 25.9807,13.5242 26.0117,13.5342"/></g></g></svg>