<?xml version="1.0" encoding="UTF-8"?>
<svg width="150px" height="150px" viewBox="0 0 150 150" version="1.1" xmlns="http://www.w3.org/2000/svg" xmlns:xlink="http://www.w3.org/1999/xlink">
    <title>icon/footer-icon/transfer_default</title>
    <g id="icon/footer-icon/transfer_default" stroke="none" stroke-width="1" fill="none" fill-rule="evenodd">
        <g id="noun_transfer_2613176" transform="translate(17.000000, 17.000000)" fill="#3E3E3E" fill-rule="nonzero">
            <path d="M0.353132396,27.3790896 C0.562539105,26.8680101 0.872326076,26.403986 1.26421795,26.0143915 L26.1120057,1.20169908 C27.1624814,0.160094336 28.6896365,-0.242757561 30.1182064,0.144893796 C31.5467763,0.532545153 32.6597273,1.6518063 33.0378215,3.0810624 C33.4159156,4.51031849 33.0017115,6.03243154 31.9512358,7.07403628 L14.1436546,24.8151114 L111.836873,24.8151114 C114.124049,24.8151114 115.978171,26.6666148 115.978171,28.9505601 C115.978171,31.2345054 114.124049,33.0860088 111.836873,33.0860088 L14.1436546,33.0860088 L31.9098229,50.8270839 C33.0916506,51.8377457 33.6064379,53.4246353 33.2425345,54.9353171 C32.8786312,56.4459989 31.6974552,57.6255066 30.1846367,57.9888959 C28.6718182,58.3522853 27.082684,57.8382251 26.0705927,56.6580666 L1.22280497,31.8453742 C0.0334021878,30.6654994 -0.326286253,28.8859237 0.311719417,27.3377351 L0.353132396,27.3790896 Z M115.688281,85.2753719 C115.474097,84.7790457 115.164567,84.3294557 114.777195,83.9520283 L89.9294073,59.1393359 C88.2863047,57.7342063 85.8370008,57.8286787 84.3073335,59.3561855 C82.7776662,60.8836922 82.6830602,63.3295368 84.0901771,64.9703186 L101.856345,82.7113936 L4.16312652,82.7113936 C1.87595081,82.7113936 0.0218285595,84.5628971 0.0218285595,86.8468424 C0.0218285595,89.1307876 1.87595081,90.9822911 4.16312652,90.9822911 L101.856345,90.9822911 L84.0901771,108.723366 C82.9083494,109.734028 82.3935621,111.320918 82.7574655,112.831599 C83.1213688,114.342281 84.3025448,115.521789 85.8153633,115.885178 C87.3281818,116.248568 88.917316,115.734507 89.9294073,114.554349 L114.777195,89.7416565 C115.966598,88.5617817 116.326286,86.782206 115.688281,85.2340174 L115.688281,85.2753719 Z" id="Shape"></path>
        </g>
    </g>
</svg>