<?xml version="1.0" encoding="UTF-8"?>
<svg width="48px" height="48px" viewBox="0 0 48 48" version="1.1" xmlns="http://www.w3.org/2000/svg" xmlns:xlink="http://www.w3.org/1999/xlink">
    <title>Icons/turn</title>
    <g id="Icons/turn" stroke="none" stroke-width="1" fill="none" fill-rule="evenodd">
        <g id="Group-7" transform="translate(5.000000, 5.000000)" fill="#B82B22">
            <path d="M9.7012,0.2939 C9.6092,0.2009 9.4982,0.1279 9.3752,0.0769 C9.1312,-0.0241 8.8552,-0.0241 8.6112,0.0769 C8.4882,0.1279 8.3772,0.2009 8.2852,0.2939 L0.2932,8.2859 C-0.0978,8.6769 -0.0978,9.3099 0.2932,9.6999 C0.4882,9.8959 0.7442,9.9929 1.0002,9.9929 C1.2562,9.9929 1.5122,9.8959 1.7072,9.6999 L7.9932,3.4139 L7.9932,36.9999 C7.9932,37.5529 8.4402,37.9999 8.9932,37.9999 C9.5462,37.9999 9.9932,37.5529 9.9932,36.9999 L9.9932,3.4139 L16.2792,9.6999 C16.4742,9.8959 16.7302,9.9929 16.9862,9.9929 C17.2422,9.9929 17.4982,9.8959 17.6932,9.6999 C18.0842,9.3099 18.0842,8.6769 17.6932,8.2859 L9.7012,0.2939 Z" id="Fill-1"></path>
            <path d="M37.6113,28.2998 C37.2203,27.9088 36.5883,27.9088 36.1973,28.2998 L29.9113,34.5858 L29.9113,0.9998 C29.9113,0.4468 29.4643,-0.0002 28.9113,-0.0002 C28.3583,-0.0002 27.9113,0.4468 27.9113,0.9998 L27.9113,34.5858 L21.6253,28.2998 C21.2343,27.9088 20.6013,27.9088 20.2113,28.2998 C19.8203,28.6908 19.8203,29.3228 20.2113,29.7138 L28.2033,37.7058 C28.2953,37.7988 28.4063,37.8718 28.5293,37.9228 C28.6513,37.9738 28.7813,37.9998 28.9113,37.9998 C29.0413,37.9998 29.1713,37.9738 29.2933,37.9228 C29.4163,37.8718 29.5273,37.7988 29.6193,37.7058 L37.6113,29.7138 C38.0023,29.3228 38.0023,28.6908 37.6113,28.2998" id="Fill-4"></path>
        </g>
    </g>
</svg>