<?xml version="1.0" encoding="UTF-8"?>
<svg width="48px" height="48px" viewBox="0 0 48 48" version="1.1" xmlns="http://www.w3.org/2000/svg" xmlns:xlink="http://www.w3.org/1999/xlink">
    <title>Icons/i_view_off</title>
    <g id="Icons/i_view_off" stroke="none" stroke-width="1" fill="none" fill-rule="evenodd">
        <path d="M45.4121,13.0895 C44.9081,12.8605 44.3151,13.0855 44.0891,13.5885 C44.0281,13.7235 37.8681,27.0005 24.0001,27.0005 C10.4211,27.0005 3.9681,13.7075 3.9041,13.5735 C3.6691,13.0745 3.0731,12.8605 2.5731,13.0975 C2.0741,13.3325 1.8601,13.9275 2.0961,14.4275 C2.1361,14.5125 4.5161,19.4265 9.4211,23.5255 L4.4691,26.3845 C3.9901,26.6605 3.8261,27.2725 4.1021,27.7505 C4.2881,28.0715 4.6241,28.2505 4.9701,28.2505 C5.1401,28.2505 5.3111,28.2075 5.4691,28.1165 L11.1381,24.8445 C12.5991,25.8735 14.2441,26.7975 16.0751,27.5125 L11.8181,31.7685 C11.4281,32.1585 11.4281,32.7915 11.8181,33.1825 C12.0141,33.3775 12.2691,33.4755 12.5251,33.4755 C12.7811,33.4755 13.0371,33.3775 13.2321,33.1825 L18.1831,28.2335 C18.1871,28.2285 18.1891,28.2205 18.1941,28.2155 C19.6881,28.6275 21.2891,28.8945 23.0001,28.9705 L23.0001,35.0005 C23.0001,35.5535 23.4471,36.0005 24.0001,36.0005 C24.5531,36.0005 25.0001,35.5535 25.0001,35.0005 L25.0001,28.9715 C26.7201,28.8975 28.3251,28.6375 29.8201,28.2355 L34.7681,33.1825 C34.9641,33.3775 35.2201,33.4755 35.4751,33.4755 C35.7311,33.4755 35.9871,33.3775 36.1831,33.1825 C36.5731,32.7915 36.5731,32.1585 36.1831,31.7685 L31.9551,27.5415 C33.8071,26.8315 35.4631,25.9105 36.9301,24.8825 L42.5311,28.1165 C42.6881,28.2075 42.8601,28.2505 43.0301,28.2505 C43.3761,28.2505 43.7121,28.0705 43.8971,27.7505 C44.1741,27.2725 44.0101,26.6605 43.5311,26.3845 L38.6471,23.5655 C43.5681,19.4535 45.8731,14.4975 45.9111,14.4125 C46.1391,13.9085 45.9151,13.3175 45.4121,13.0895" id="Fill-1" fill="#B82B22"></path>
    </g>
</svg>