<?xml version="1.0" encoding="UTF-8"?>
<svg width="48px" height="48px" viewBox="0 0 48 48" version="1.1" xmlns="http://www.w3.org/2000/svg" xmlns:xlink="http://www.w3.org/1999/xlink">
    <title>Icons/i_view</title>
    <g id="Icons/i_view" stroke="none" stroke-width="1" fill="none" fill-rule="evenodd">
        <path d="M24,37 C11.805,37 5.357,26.278 4.123,23.996 C5.337,21.712 11.691,11 24,11 C36.444,11 42.707,21.744 43.884,24.001 C42.71,26.261 36.472,37 24,37 M24,9 C8.996,9 2.159,23.436 2.092,23.581 C1.968,23.85 1.97,24.159 2.096,24.427 C2.164,24.572 9.136,39 24,39 C39.145,39 45.846,24.558 45.911,24.412 C46.029,24.15 46.029,23.85 45.911,23.588 C45.846,23.442 39.145,9 24,9" id="Fill-1" fill="#B82B22"></path>
        <path d="M24,31 C20.141,31 17,27.859 17,24 C17,20.141 20.141,17 24,17 C27.859,17 31,20.141 31,24 C31,27.859 27.859,31 24,31 M24,15 C19.037,15 15,19.037 15,24 C15,28.963 19.037,33 24,33 C28.963,33 33,28.963 33,24 C33,19.037 28.963,15 24,15" id="Fill-3" fill="#B82B22"></path>
    </g>
</svg>