<?xml version="1.0" encoding="UTF-8"?>
<svg width="48px" height="48px" viewBox="0 0 48 48" version="1.1" xmlns="http://www.w3.org/2000/svg" xmlns:xlink="http://www.w3.org/1999/xlink">
    <title>Icons/shortcut_i_foreignRate_default</title>
    <g id="Icons/shortcut_i_foreignRate_default" stroke="none" stroke-width="1" fill="none" fill-rule="evenodd">
        <g id="Group-9" transform="translate(5.000000, 5.000000)" fill="#FFFFFF">
            <path d="M15,36 C7.832,36 2,30.168 2,23 C2,15.832 7.832,10 15,10 C22.168,10 28,15.832 28,23 C28,30.168 22.168,36 15,36 M28,2 C32.963,2 37,6.038 37,11 C37,15.336 33.841,19.059 29.659,19.845 C28.509,14.495 24.501,10.2 19.314,8.639 C20.361,4.744 23.882,2 28,2 M29.94,21.826 C35.095,20.899 39,16.329 39,11 C39,4.935 34.065,0 28,0 C22.935,0 18.607,3.395 17.357,8.204 C16.588,8.082 15.804,8 15,8 C6.729,8 0,14.729 0,23 C0,31.271 6.729,38 15,38 C23.271,38 30,31.271 30,23 C30,22.604 29.971,22.215 29.94,21.826" id="Fill-1"></path>
            <path d="M17.9932,25.9756 C17.9932,26.5576 17.7872,27.0236 17.3792,27.3606 C17.0482,27.6326 16.5742,27.8126 16.0052,27.9126 L16.0052,24.2376 C17.1042,24.7006 17.9922,25.3556 17.9932,25.9756 M13.0162,20.1546 C13.0162,19.2256 13.8602,18.8776 14.6262,18.7466 L14.6262,21.6696 C13.7202,21.2936 13.0162,20.6646 13.0162,20.1546 M18.6902,18.9606 C19.2122,19.1336 19.7732,18.8566 19.9512,18.3366 C20.1312,17.8136 19.8522,17.2456 19.3312,17.0656 C19.2302,17.0316 18.4082,16.7726 16.6262,16.6946 L16.6262,14.9996 C16.6262,14.4476 16.1792,13.9996 15.6262,13.9996 C15.0732,13.9996 14.6262,14.4476 14.6262,14.9996 L14.6262,16.7366 C11.9942,17.0506 11.0162,18.7066 11.0162,20.1546 C11.0162,21.7026 12.4232,22.9596 14.0052,23.5756 L14.0052,27.9406 C12.4312,27.7566 11.6392,27.1996 11.6082,27.1766 C11.1722,26.8356 10.5442,26.9146 10.2052,27.3516 C9.8662,27.7876 9.9442,28.4156 10.3802,28.7546 C10.5242,28.8676 11.7222,29.7456 14.0052,29.9556 L14.0052,30.9996 C14.0052,31.5526 14.4522,31.9996 15.0052,31.9996 C15.5572,31.9996 16.0052,31.5526 16.0052,30.9996 L16.0052,29.9396 C17.0772,29.8086 17.9682,29.4656 18.6502,28.9036 C19.5162,28.1896 19.9942,27.1496 19.9932,25.9736 C19.9912,24.0376 18.0592,22.9056 16.6262,22.3316 L16.6262,18.6966 C18.0402,18.7646 18.6642,18.9526 18.6902,18.9606" id="Fill-3"></path>
            <path d="M1.9023,7.5093 L4.5003,9.0093 C4.5013,9.0103 4.5033,9.0103 4.5043,9.0103 C4.5233,9.0223 4.5453,9.0273 4.5643,9.0363 C4.5903,9.0493 4.6153,9.0573 4.6423,9.0683 C4.6483,9.0703 4.6553,9.0733 4.6613,9.0753 C4.7583,9.1113 4.8583,9.1343 4.9593,9.1373 C4.9663,9.1383 4.9733,9.1433 4.9823,9.1433 L5.0003,9.1433 L5.0013,9.1433 C5.1153,9.1433 5.2283,9.1163 5.3393,9.0753 L5.3403,9.0753 C5.3673,9.0653 5.3933,9.0553 5.4203,9.0433 C5.4443,9.0313 5.4713,9.0253 5.4963,9.0103 C5.4973,9.0103 5.4993,9.0103 5.5003,9.0093 L8.0973,7.5093 C8.5763,7.2333 8.7403,6.6213 8.4643,6.1433 C8.1863,5.6633 7.5743,5.5013 7.0973,5.7773 L6.0313,6.3923 L6.0553,5.0113 C6.0553,3.3573 7.4013,2.0113 9.0553,2.0113 L15.0533,2.0113 C15.6063,2.0113 16.0533,1.5633 16.0533,1.0113 C16.0533,0.4593 15.6063,0.0113 15.0533,0.0113 L9.0553,0.0113 C6.2983,0.0113 4.0553,2.2543 4.0553,4.9933 L4.0303,6.4283 L2.9023,5.7773 C2.4233,5.5013 1.8123,5.6633 1.5363,6.1433 C1.2593,6.6213 1.4233,7.2333 1.9023,7.5093" id="Fill-5"></path>
            <path d="M38.0977,25.6357 L35.4997,24.1357 C35.4817,24.1247 35.4607,24.1257 35.4437,24.1157 C35.4037,24.0967 35.3647,24.0807 35.3227,24.0677 C35.2777,24.0517 35.2347,24.0397 35.1887,24.0307 C35.1437,24.0227 35.1017,24.0157 35.0577,24.0137 C35.0367,24.0127 35.0207,24.0017 34.9997,24.0017 C34.9797,24.0017 34.9627,24.0127 34.9427,24.0137 C34.8977,24.0157 34.8557,24.0217 34.8117,24.0307 C34.7647,24.0397 34.7217,24.0517 34.6757,24.0677 C34.6347,24.0817 34.5957,24.0967 34.5577,24.1157 C34.5387,24.1257 34.5187,24.1247 34.4997,24.1357 L31.9027,25.6357 C31.4237,25.9117 31.2597,26.5237 31.5357,27.0017 C31.7217,27.3227 32.0577,27.5017 32.4037,27.5017 C32.5737,27.5017 32.7447,27.4587 32.9027,27.3677 L33.9997,26.7347 L33.9997,30.9997 C33.9997,32.6547 32.6547,33.9997 30.9827,33.9997 L27.8507,34.0557 C27.2977,34.0657 26.8587,34.5217 26.8687,35.0737 C26.8777,35.6187 27.3247,36.0557 27.8687,36.0557 L27.8857,36.0557 L30.9997,35.9997 C33.7567,35.9997 35.9997,33.7567 35.9997,30.9997 L35.9997,26.7347 L37.0977,27.3677 C37.2547,27.4587 37.4267,27.5017 37.5967,27.5017 C37.9427,27.5017 38.2787,27.3227 38.4637,27.0017 C38.7407,26.5237 38.5767,25.9117 38.0977,25.6357" id="Fill-7"></path>
        </g>
    </g>
</svg>