<svg xmlns="http://www.w3.org/2000/svg" xmlns:xlink="http://www.w3.org/1999/xlink" width="48" height="48" version="1.1" viewBox="0 0 48 48"><title>Icons/shortcut_i_account_default</title><g id="Icons/shortcut_i_account_default" fill="none" fill-rule="evenodd" stroke="none" stroke-width="1"><path id="Fill-1" fill="#FFF" d="M7,24 C7,14.963 14.092,7.573 23,7.051 L23,24 C23,24.265 23.105,24.52 23.293,24.707 L35.274,36.688 C32.271,39.361 28.328,41 24,41 C14.626,41 7,33.374 7,24 M41,24 C41,28.328 39.361,32.271 36.688,35.274 L25,23.586 L25,7.051 C33.908,7.573 41,14.963 41,24 M37.465,37.389 C40.883,33.951 43,29.219 43,24 C43,13.523 34.477,5 24,5 C13.523,5 5,13.523 5,24 C5,34.477 13.523,43 24,43 C29.219,43 33.951,40.883 37.389,37.465 C37.403,37.452 37.421,37.448 37.435,37.435 C37.448,37.421 37.452,37.403 37.465,37.389"/></g></svg>