<?xml version="1.0" encoding="UTF-8"?>
<svg width="48px" height="48px" viewBox="0 0 48 48" version="1.1" xmlns="http://www.w3.org/2000/svg" xmlns:xlink="http://www.w3.org/1999/xlink">
    <title>Icons/shortcut_i_cutomer_default</title>
    <g id="Icons/shortcut_i_cutomer_default" stroke="none" stroke-width="1" fill="none" fill-rule="evenodd">
        <path d="M37.6836,31.9424 C37.8866,30.9924 37.9996,30.0094 37.9996,29.0004 L37.9996,22.2064 C39.7206,22.7644 40.9996,24.7054 40.9996,27.0284 C40.9996,29.4934 39.5636,31.5344 37.6836,31.9424 L37.6836,31.9424 Z M23.9996,41.0004 C20.9676,41.0004 18.2036,39.8614 16.0886,38.0004 L18.9996,38.0004 C19.5526,38.0004 19.9996,37.5524 19.9996,37.0004 C19.9996,36.4474 19.5526,36.0004 18.9996,36.0004 L14.2736,36.0004 C12.8496,34.0274 11.9996,31.6134 11.9996,29.0004 L11.9996,21.9974 C14.7676,21.9344 22.0106,21.4084 27.1026,17.8334 C28.3656,19.2654 31.4286,22.1214 35.9996,22.5264 L35.9996,29.0004 C35.9996,35.6174 30.6176,41.0004 23.9996,41.0004 L23.9996,41.0004 Z M11.2226,36.0004 C10.8716,36.0004 10.2846,35.2304 10.0796,33.9374 C10.3636,33.9884 10.6526,34.0224 10.9486,34.0254 C11.2136,34.7114 11.5296,35.3714 11.8946,36.0004 L11.2226,36.0004 Z M6.9996,27.0284 C6.9996,24.7054 8.2796,22.7644 9.9996,22.2064 L9.9996,29.0004 C9.9996,30.0094 10.1136,30.9924 10.3166,31.9424 C8.4366,31.5344 6.9996,29.4934 6.9996,27.0284 L6.9996,27.0284 Z M23.9996,7.0004 C30.6176,7.0004 35.9996,12.3834 35.9996,19.0004 L35.9996,20.5164 C31.0456,19.9764 28.1216,15.9234 28.0916,15.8814 C27.9326,15.6544 27.6866,15.5034 27.4126,15.4644 C27.1446,15.4274 26.8606,15.5024 26.6446,15.6764 C22.0926,19.3504 14.7286,19.9094 11.9996,19.9894 L11.9996,19.0004 C11.9996,12.3834 17.3826,7.0004 23.9996,7.0004 L23.9996,7.0004 Z M42.9996,27.0284 C42.9996,23.5674 40.8326,20.6914 37.9996,20.1334 L37.9996,19.0004 C37.9996,11.2804 31.7196,5.0004 23.9996,5.0004 C16.2806,5.0004 9.9996,11.2804 9.9996,19.0004 L9.9996,20.1334 C7.1666,20.6914 4.9996,23.5674 4.9996,27.0284 C4.9996,29.6154 6.2116,31.8734 8.0046,33.0854 C8.0336,35.8914 9.4046,38.0004 11.2226,38.0004 L13.2916,38.0004 C15.8616,41.0524 19.7056,43.0004 23.9996,43.0004 C29.9476,43.0004 35.0266,39.2664 37.0516,34.0254 C40.3356,33.9924 42.9996,30.8674 42.9996,27.0284 L42.9996,27.0284 Z" id="Fill-1" fill="#FFFFFF"></path>
    </g>
</svg>