<svg xmlns="http://www.w3.org/2000/svg" xmlns:xlink="http://www.w3.org/1999/xlink" width="25" height="25" viewBox="0 0 25 25">
  <defs>
    <clipPath id="clip-side_menu_i_1">
      <rect width="25" height="25"/>
    </clipPath>
  </defs>
  <g id="side_menu_i_1" clip-path="url(#clip-side_menu_i_1)">
    <g id="Path" transform="translate(2 2)" fill="#d8d8d8" stroke-miterlimit="10">
      <path d="M 17.66304397583008 21.16666412353516 L 4.003623962402344 21.16666412353516 C 2.071723937988281 21.16666412353516 0.5000039935112 19.59494400024414 0.5000039935112 17.66304397583008 L 0.5000039935112 4.003623962402344 C 0.5000039935112 2.071723937988281 2.071723937988281 0.5000039935112 4.003623962402344 0.5000039935112 L 17.66304397583008 0.5000039935112 C 19.59494400024414 0.5000039935112 21.16666412353516 2.071723937988281 21.16666412353516 4.003623962402344 L 21.16666412353516 17.66304397583008 C 21.16666412353516 19.59494400024414 19.59494400024414 21.16666412353516 17.66304397583008 21.16666412353516 Z" stroke="none"/>
      <path d="M 4.003623962402344 1.000003814697266 C 2.347423553466797 1.000003814697266 1.000003814697266 2.347423553466797 1.000003814697266 4.003623962402344 L 1.000003814697266 17.66304397583008 C 1.000003814697266 19.31924438476563 2.347423553466797 20.66666412353516 4.003623962402344 20.66666412353516 L 17.66304397583008 20.66666412353516 C 19.31924438476563 20.66666412353516 20.66666412353516 19.31924438476563 20.66666412353516 17.66304397583008 L 20.66666412353516 4.003623962402344 C 20.66666412353516 2.347423553466797 19.31924438476563 1.000003814697266 17.66304397583008 1.000003814697266 L 4.003623962402344 1.000003814697266 M 4.003623962402344 3.814697265625e-06 L 17.66304397583008 3.814697265625e-06 C 19.87418365478516 3.814697265625e-06 21.66666412353516 1.792484283447266 21.66666412353516 4.003623962402344 L 21.66666412353516 17.66304397583008 C 21.66666412353516 19.87418365478516 19.87418365478516 21.66666412353516 17.66304397583008 21.66666412353516 L 4.003623962402344 21.66666412353516 C 1.792484283447266 21.66666412353516 3.814697265625e-06 19.87418365478516 3.814697265625e-06 17.66304397583008 L 3.814697265625e-06 4.003623962402344 C 3.814697265625e-06 1.792484283447266 1.792484283447266 3.814697265625e-06 4.003623962402344 3.814697265625e-06 Z" stroke="none" fill="#979797"/>
    </g>
  </g>
</svg>
