<?xml version="1.0" encoding="utf-8"?>
<!-- Generator: Adobe Illustrator 21.0.0, SVG Export Plug-In . SVG Version: 6.00 Build 0)  -->
<svg version="1.1" id="Capa_1" xmlns="http://www.w3.org/2000/svg" xmlns:xlink="http://www.w3.org/1999/xlink" x="0px" y="0px"
	 viewBox="0 0 60 60" style="enable-background:new 0 0 60 60;" xml:space="preserve">
<style type="text/css">
	.st0{fill:#212B31;}
</style>
<path class="st0" d="M52.7,0.2c-3.5,0-6.6,2.6-7.2,6l-1.9,1.9c-3.5,3.5-8.6,5.5-13.7,5.5H16.3c-3,0-5.6,1.8-6.8,4.5
	c-5.3,0-9.6,4.3-9.6,9.6c0,5.3,4.3,9.6,9.6,9.6c0.7,1.8,2.2,3.2,3.9,3.9v11.2c0,4,3.3,7.3,7.3,7.3s7.3-3.3,7.3-7.3V41.8h1.7
	c5.1,0,10.2,2.1,13.7,5.5l1.9,1.9c0.6,3.5,3.7,6,7.2,6c4,0,7.3-3.3,7.3-7.3V7.5C60,3.4,56.7,0.2,52.7,0.2z M45.3,14.1v27.4
	c-3.6-2.8-8-4.6-12.7-5.1V19.2C37.3,18.7,41.7,16.9,45.3,14.1z M22.5,41.8v10.7c0,0.9-0.7,1.7-1.7,1.7c-0.9,0-1.7-0.7-1.7-1.7V41.8
	H22.5z M14.7,21c0-0.9,0.7-1.7,1.7-1.7H27v16.8H16.3c-0.9,0-1.7-0.7-1.7-1.7V21z M9,23.9v7.7c-1.9-0.3-3.3-1.9-3.3-3.9
	S7.1,24.2,9,23.9z"/>
</svg>
