<?xml version="1.0" encoding="UTF-8"?>
<svg width="22px" height="22px" viewBox="0 0 22 22" version="1.1" xmlns="http://www.w3.org/2000/svg" xmlns:xlink="http://www.w3.org/1999/xlink">
    <!-- Generator: Sketch 51.2 (57519) - http://www.bohemiancoding.com/sketch -->
    <title>015-advertising</title>
    <desc>Created with Sketch.</desc>
    <defs></defs>
    <g id="APP更新通知0810-final" stroke="none" stroke-width="1" fill="none" fill-rule="evenodd">
        <g id="APP更新通知-0808" transform="translate(-29.000000, -137.000000)" fill="#FFFFFF" fill-rule="nonzero">
            <g id="Group-9" transform="translate(20.000000, 128.000000)">
                <g id="Group">
                    <g id="015-advertising" transform="translate(9.411765, 9.411765)">
                        <path d="M20.8958673,0.917132796 C20.62841,0.481355607 20.2060499,0.174624054 19.7057387,0.0541814597 C19.2054691,-0.0652684761 18.6897509,0.0150128 18.2635599,0.273021352 L10.3215408,4.9192847 L2.80471346,4.92308989 C1.21246206,5.06069721 -0.0190155963,6.41195392 0.000222338326,7.98779968 L0.000222338326,10.8728382 C0.00213780368,10.937816 0.00601037493,11.0018425 0.011756771,11.0735208 C0.0800472748,11.7931156 0.425455646,12.4438862 0.985396137,12.9045212 C1.54533663,13.3651148 2.24477296,13.5791982 2.88745323,13.5199282 L4.81162146,13.5199282 L4.81162146,18.5188336 C4.81353692,18.5838114 4.81740949,18.6478379 4.82315589,18.7195161 C4.89144639,19.439111 5.23685476,20.0898815 5.79679526,20.5505165 C6.29419164,20.9595333 6.9051418,21.1764706 7.47948993,21.1764706 C7.55356847,21.1764706 7.62573154,21.1726654 7.69789462,21.1659649 L9.62206284,21.1659649 C10.1541042,21.1659649 10.5841678,20.7378395 10.5841678,20.2103241 L10.5841678,13.684296 L18.25011,18.3477654 C18.2529832,18.349668 18.2548986,18.3515706 18.2578135,18.3525633 C18.5002447,18.4959197 18.7773626,18.5876579 19.0601852,18.6153697 C19.1236871,18.6220701 19.1881466,18.624924 19.2506908,18.624924 C19.695162,18.624924 20.1213947,18.4739158 20.4677191,18.1891468 C20.8650533,17.8652092 21.1113571,17.4064768 21.1661977,16.8053805 L21.1661977,2.10972956 C21.2095039,1.69405371 21.1152297,1.27358001 20.8958673,0.917132796 Z M8.65999955,19.2565859 L7.60749298,19.2584884 C7.40545303,19.2794997 7.1889638,19.2145219 7.02448362,19.0788172 C6.86000345,18.9431125 6.75894183,18.7529356 6.73587296,18.4987323 L6.73587296,13.5199282 L8.66004119,13.5199282 L8.66004119,19.2565859 L8.65999955,19.2565859 Z M8.65999955,11.6115418 L5.79487979,11.6124931 C5.78717629,11.6124931 5.78142989,11.6086879 5.77372639,11.6086879 C5.76602289,11.6086879 5.76027649,11.6124931 5.75257299,11.6124931 L2.79700995,11.6143957 C2.59497,11.6344557 2.37848077,11.5704292 2.2140006,11.4347245 C2.04947878,11.2990197 1.9484588,11.1088429 1.92538994,10.8546395 L1.92538994,7.97535009 C1.91768644,7.3828569 2.37756468,6.87924803 2.88749487,6.83147633 L8.65999955,6.83147633 L8.65999955,11.6115418 Z M15.3946508,14.37043 L11.0863945,11.7501004 C10.9353642,11.6593135 10.7621811,11.6105905 10.5841678,11.6105905 L10.5841678,6.83151769 C10.7563931,6.83151769 10.9247458,6.78564858 11.0729029,6.69965952 L15.3946508,4.17106817 L15.3946508,14.37043 Z M19.2429873,2.05335481 L19.2477759,16.7145936 L17.2985817,15.5296072 C17.3024126,15.4961464 17.3187774,15.466532 17.3187774,15.4321199 L17.3187774,3.04531043 L19.253564,1.9138449 C19.2468598,1.95971401 19.2429873,2.00653441 19.2429873,2.05335481 Z" id="Shape"></path>
                    </g>
                </g>
            </g>
        </g>
    </g>
</svg>