<?xml version="1.0" encoding="utf-8"?>
<!-- Generator: Adobe Illustrator 22.1.0, SVG Export Plug-In . SVG Version: 6.00 Build 0)  -->
<svg version="1.1" id="Capa_1" xmlns="http://www.w3.org/2000/svg" xmlns:xlink="http://www.w3.org/1999/xlink" x="0px" y="0px"
	 viewBox="0 0 512 512" style="enable-background:new 0 0 512 512;" xml:space="preserve">
<style type="text/css">
	.st0{fill:#212B31;stroke:#212B31;stroke-width:3;stroke-miterlimit:10;}
	.st1{fill:#212B31;stroke:#212B31;stroke-width:10;stroke-miterlimit:10;}
</style>
<circle class="st0" cx="226.7" cy="322.5" r="28.7"/>
<path class="st1" d="M239.6,468.2H85.2c-21.6,0-39.1-17.5-39.1-39.1V268.9c0-21.6,17.5-39.1,39.1-39.1h281.4
	c21.6,0,39.1,17.5,39.1,39.1V308c0,10.7,8.8,19.5,19.5,19.5c10.7,0,19.5-8.8,19.5-19.5v-39.1c0-43.1-35.1-78.2-78.2-78.2h-23.5
	v-68.9C343.1,58.5,290.5,7,225.9,7S108.6,58.5,108.6,121.8v68.9H85.2C42.1,190.7,7,225.8,7,268.9v160.2c0,43.1,35.1,78.2,78.2,78.2
	h154.4c10.7,0,19.5-8.8,19.5-19.5C259.1,477,250.3,468.2,239.6,468.2z M147.7,121.8c0-41.7,35.1-75.7,78.2-75.7s78.2,34,78.2,75.7
	v68.9H147.7V121.8z"/>
<path class="st1" d="M495.8,323.8c-8.8-6.2-20.9-4.3-27.1,4.5l-95.9,133.9c-2.6,3-5.9,3.7-7.7,3.8c-1.8,0.1-5.3-0.1-8.4-3
	l-61.9-60.4c-7.7-7.5-20-7.4-27.5,0.3c-7.5,7.7-7.4,20,0.3,27.5l62.1,60.6c0.1,0.1,0.1,0.1,0.2,0.2c9.3,8.9,21.7,13.8,34.5,13.8
	c1.1,0,2.2,0,3.3-0.1c13.9-1,26.9-7.7,35.7-18.6c0.2-0.3,0.5-0.6,0.7-0.9l96.3-134.5C506.6,342.3,504.6,330.1,495.8,323.8z"/>
<circle class="st0" cx="125" cy="322.5" r="28.7"/>
<circle class="st0" cx="328.3" cy="322.5" r="28.7"/>
</svg>
