<?xml version="1.0" encoding="utf-8"?>
<!-- Generator: Adobe Illustrator 22.1.0, SVG Export Plug-In . SVG Version: 6.00 Build 0)  -->
<svg version="1.1" id="Capa_1" xmlns="http://www.w3.org/2000/svg" xmlns:xlink="http://www.w3.org/1999/xlink" x="0px" y="0px"
	 viewBox="0 0 512 512" style="enable-background:new 0 0 512 512;" xml:space="preserve">
<style type="text/css">
	.st0{fill:#FFFFFF;}
</style>
<g>
	<g>
		<path class="st0" d="M13.5,61.7c-4.3,0-7.7,3-7.7,6.7v436.9c0,3.7,3.5,6.7,7.7,6.7H486c4.3,0,7.7-3,7.7-6.7c0-3.7-3.5-6.7-7.7-6.7
			H444h-5.1h-46.2h-5.1h-46.2h-5.1h-46.2h-5.1h-46.2h-5.1h-46.2h-5.1h-46.2h-5.1H84.5h-5.1H21.2v-81.2V413v-40.2v-4.5v-40.2v-4.5
			v-40.2v-4.5v-40.2v-4.5V194v-4.5v-40.2v-4.5v-40.2v-4.5V68.4C21.2,64.7,17.7,61.7,13.5,61.7z"/>
		<rect x="66.5" y="361.3" class="st0" width="358.5" height="45.8"/>
		<rect x="66.5" y="264.3" class="st0" width="254.5" height="45.8"/>
		<rect x="66.5" y="168.1" class="st0" width="399.8" height="45.8"/>
	</g>
</g>
</svg>
