<svg xmlns="http://www.w3.org/2000/svg" xmlns:xlink="http://www.w3.org/1999/xlink" id="Capa_1" x="0" y="0" version="1.1" viewBox="0 0 512 512" style="enable-background:new 0 0 512 512" xml:space="preserve"><style type="text/css">.st0{fill:#fff}</style><g><g><path d="M13.5,61.7c-4.3,0-7.7,3-7.7,6.7v436.9c0,3.7,3.5,6.7,7.7,6.7H486c4.3,0,7.7-3,7.7-6.7c0-3.7-3.5-6.7-7.7-6.7 H444h-5.1h-46.2h-5.1h-46.2h-5.1h-46.2h-5.1h-46.2h-5.1h-46.2h-5.1h-46.2h-5.1H84.5h-5.1H21.2v-81.2V413v-40.2v-4.5v-40.2v-4.5 v-40.2v-4.5v-40.2v-4.5V194v-4.5v-40.2v-4.5v-40.2v-4.5V68.4C21.2,64.7,17.7,61.7,13.5,61.7z" class="st0"/><rect width="358.5" height="45.8" x="66.5" y="361.3" class="st0"/><rect width="254.5" height="45.8" x="66.5" y="264.3" class="st0"/><rect width="399.8" height="45.8" x="66.5" y="168.1" class="st0"/></g></g></svg>