<?xml version="1.0" encoding="UTF-8"?>
<svg width="26px" height="25px" viewBox="0 0 26 25" version="1.1" xmlns="http://www.w3.org/2000/svg" xmlns:xlink="http://www.w3.org/1999/xlink">
    <!-- Generator: Sketch 51.2 (57519) - http://www.bohemiancoding.com/sketch -->
    <title>002-edit</title>
    <desc>Created with Sketch.</desc>
    <defs></defs>
    <g id="新增大額交易通知" stroke="none" stroke-width="1" fill="none" fill-rule="evenodd">
        <g id="大額交易通知列表0820" transform="translate(-330.000000, -263.000000)" fill="#0FA1B8" fill-rule="nonzero" stroke="#0FA1B8">
            <g id="Group-9" transform="translate(0.000000, 232.000000)">
                <g id="Group">
                    <g id="Group-7">
                        <g id="002-edit" transform="translate(331.000000, 32.000000)">
                            <path d="M11.8283842,6.79045103 L9.60845907,9.01458547 C8.79059192,9.83400342 7.96805124,10.6534214 7.15485762,11.4822041 C6.96324303,11.6788644 6.8183637,11.9410782 6.76228138,12.1986095 C6.46784921,13.5518197 6.18276409,14.9050299 5.89767896,16.2582402 L5.73877906,17.0074223 C5.66400263,17.3726486 5.76214669,17.7378749 6.0098436,17.9860414 C6.20145819,18.1780194 6.46784921,18.2857143 6.7482608,18.2857143 C6.82771075,18.2857143 6.90716071,18.2763495 6.98661066,18.2623023 L7.80915134,18.089054 C9.11773878,17.8127931 10.4309998,17.5318498 11.7395872,17.2602713 C12.0433664,17.1947178 12.3004104,17.0589286 12.5200661,16.8388563 C16.193458,13.1538167 19.8668499,9.47345952 23.5402418,5.79778472 C23.8113064,5.5262062 23.9608592,5.2031214 23.9982474,4.8051184 C24.002921,4.73956496 23.9982474,4.67401153 23.9842268,4.61314048 C23.9608592,4.51949271 23.9421651,4.42116256 23.9187975,4.32751479 C23.8673887,4.08871299 23.8113064,3.81713447 23.6991417,3.55492073 C23.0121333,1.98163826 21.8717928,0.857865072 20.310835,0.225742652 C19.9977087,0.0993181686 19.6658883,0.057176674 19.3761296,0.0197175677 L19.2966797,0.0103527911 C18.8760623,-0.04115348 18.4928331,0.0993181686 18.1610127,0.436450126 C16.0579258,2.55288963 13.9408182,4.67401153 11.8283842,6.79045103 Z M19.1424533,1.13880837 C19.1518004,1.13880837 19.1564739,1.13880837 19.1658209,1.13880837 L19.2452709,1.14817315 C19.4882943,1.17626748 19.7126235,1.20436181 19.8902176,1.27928002 C21.1614168,1.79434273 22.0961221,2.71209083 22.6616188,4.00443 C22.7270482,4.15426643 22.7691099,4.34624435 22.8111717,4.54758704 C22.8251923,4.62250526 22.8438864,4.69742347 22.8579069,4.77234168 C22.8392128,4.85662467 22.8064981,4.91281333 22.7410688,4.97368438 C19.0630034,8.64935919 15.3896115,12.3343988 11.7162196,16.014756 C11.6554637,16.075627 11.5993814,16.1037213 11.5152579,16.1224509 C10.2019969,16.3987118 8.89340951,16.6749727 7.58014853,16.9512336 L6.8884666,17.0963877 L7.01932534,16.4829948 C7.30441047,15.134467 7.58949559,13.7812568 7.87925424,12.4327289 C7.88860129,12.3905874 7.9259895,12.325034 7.96805124,12.2782101 C8.78124487,11.4541098 9.59443849,10.6346918 10.4123056,9.81995626 L12.6322308,7.59582182 C14.7493383,5.47469993 16.8664459,3.35357803 18.9788799,1.22777375 C19.0676769,1.15285553 19.1097386,1.13880837 19.1424533,1.13880837 Z" id="Shape"></path>
                            <path d="M1.75589801,5.68156819 L9.63712664,5.68156819 C9.94407025,5.68156819 10.1923335,5.43336624 10.1923335,5.12649838 C10.1923335,4.81963052 9.94407025,4.57142857 9.63712664,4.57142857 L1.75589801,4.57142857 C0.785414536,4.57142857 0,5.36116204 0,6.32689324 L0,21.1016782 C0,22.0719222 0.789928413,22.8571429 1.75589801,22.8571429 L16.5298163,22.8571429 C17.5002997,22.8571429 18.2857143,22.0674094 18.2857143,21.1016782 L18.2857143,13.5428007 C18.2857143,13.2359329 18.0374511,12.9877309 17.7305075,12.9877309 C17.4235638,12.9877309 17.1753006,13.2359329 17.1753006,13.5428007 L17.1753006,21.1016782 C17.1753006,21.4581864 16.8818986,21.751516 16.5253024,21.751516 L1.75589801,21.751516 C1.39930176,21.751516 1.10589978,21.4581864 1.10589978,21.1016782 L1.10589978,6.33140601 C1.10589978,5.97489776 1.39930176,5.68156819 1.75589801,5.68156819 Z" id="Shape"></path>
                        </g>
                    </g>
                </g>
            </g>
        </g>
    </g>
</svg>