<?xml version="1.0" encoding="utf-8"?>
<!-- Generator: Adobe Illustrator 22.1.0, SVG Export Plug-In . SVG Version: 6.00 Build 0)  -->
<svg version="1.1" id="圖層_1" xmlns="http://www.w3.org/2000/svg" xmlns:xlink="http://www.w3.org/1999/xlink" x="0px" y="0px"
	 viewBox="0 0 60 60" style="enable-background:new 0 0 60 60;" xml:space="preserve">
<style type="text/css">
	.st0{fill:#202A30;}
</style>
<desc>Created with Sketch.</desc>
<g id="Symbols">
	<g id="icon_x2F_footer_x2F_6" transform="translate(-19.000000, 0.000000)">
		<g id="growth-1" transform="translate(19.000000, 0.000000)">
			<path id="Shape" class="st0" d="M5.9,35.4H1.4c-0.5,0-1,0.6-1,1.3v2.6v11.2v2.6c0,0.7,0.4,1.3,1,1.3h4.4c0.5,0,1-0.6,1-1.3v-2.6
				V39.3v-2.6C6.8,36,6.4,35.4,5.9,35.4z"/>
			<path id="Shape_1_" class="st0" d="M18.5,27h-4.4c-0.5,0-1,0.6-1,1.4v10.3v4v10.3c0,0.8,0.4,1.4,1,1.4h4.4c0.5,0,1-0.6,1-1.4
				V42.7v-4V28.4C19.5,27.6,19.1,27,18.5,27z"/>
			<path id="Shape_2_" class="st0" d="M33.3,31.4V20.1h4.2c0.8,0,1.2-0.9,0.8-1.6L29.8,4.3c-0.4-0.6-1.3-0.6-1.7,0l-8.5,14.3
				c-0.4,0.7,0.1,1.6,0.8,1.6h4.2v33c0,0.8,0.6,1.4,1.3,1.4h6c0.7,0,1.3-0.6,1.3-1.4c-2.4-2.9-3.9-6.7-3.9-10.9
				C29.4,38.1,30.9,34.3,33.3,31.4z"/>
			<path id="Shape_3_" class="st0" d="M46.9,29.1c-7,0-12.7,6.1-12.7,13.7c0,7.6,5.7,13.7,12.7,13.7c7,0,12.7-6.1,12.7-13.7
				S53.9,29.1,46.9,29.1z M50.6,48.2c-0.6,0.7-1.3,1.2-2.1,1.5c-0.4,0.1-0.5,0.3-0.5,0.7c0,0.4,0,0.8,0,1.2c0,0.4-0.2,0.6-0.5,0.6
				c-0.4,0-0.8,0-1.2,0c-0.3,0-0.5-0.2-0.5-0.6c0-0.3,0-0.6,0-0.9c0-0.6,0-0.7-0.6-0.8c-0.7-0.1-1.5-0.3-2.2-0.7
				c-0.5-0.3-0.6-0.4-0.4-1c0.1-0.5,0.2-0.9,0.4-1.3c0.1-0.5,0.3-0.6,0.7-0.3c0.8,0.4,1.5,0.7,2.4,0.8c0.5,0.1,1.1,0,1.6-0.2
				c0.9-0.4,1.1-1.6,0.3-2.3c-0.3-0.2-0.6-0.4-0.9-0.6c-0.8-0.4-1.7-0.7-2.4-1.2c-1.3-0.8-2-1.9-2-3.6c0.1-1.9,1.1-3,2.6-3.6
				c0.7-0.3,0.7-0.3,0.7-1c0-0.3,0-0.5,0-0.7c0-0.6,0.1-0.6,0.6-0.7c0.2,0,0.3,0,0.5,0c1.1,0,1.1,0,1.1,1.2c0,0.8,0,0.8,0.8,1
				c0.6,0.1,1.2,0.3,1.7,0.6c0.3,0.1,0.4,0.4,0.3,0.7c-0.1,0.5-0.3,1-0.4,1.5c-0.1,0.5-0.3,0.6-0.7,0.3c-0.8-0.4-1.7-0.6-2.7-0.6
				c-0.2,0-0.5,0-0.7,0.2c-0.8,0.4-0.9,1.4-0.2,2c0.3,0.3,0.7,0.5,1.2,0.7c0.7,0.3,1.4,0.6,2.1,1C51.5,43.3,52.1,46.2,50.6,48.2z"/>
		</g>
	</g>
</g>
<desc>Created with Sketch.</desc>
</svg>
