<svg xmlns="http://www.w3.org/2000/svg" xmlns:xlink="http://www.w3.org/1999/xlink" width="18" height="20" version="1.1" viewBox="0 0 18 20"><title>Group 8</title><desc>Created with Sketch.</desc><g id="約定轉帳0806-final" fill="none" fill-rule="evenodd" stroke="none" stroke-width="1"><g id="約定轉帳-0808" fill="#107778" fill-rule="nonzero" transform="translate(-228.000000, -468.000000)"><g id="Group-8" transform="translate(228.000000, 468.000000)"><path id="Chevron_Right" d="M4.27326767,5.64863259 L12.4158992,13.7345164 C12.7731925,14.0885413 13.3520647,14.0885413 13.7102601,13.7345164 C14.0675534,13.3804915 14.0675534,12.8054625 13.7102601,12.4514376 L6.21349323,5.00713052 L13.7093579,-2.43717654 C14.0666511,-2.79120143 14.0666511,-3.36623048 13.7093579,-3.72115164 C13.3520647,-4.07517654 12.7722902,-4.07517654 12.414997,-3.72115164 L4.27236541,4.36465749 C3.9205609,4.71502263 3.9205609,5.29908902 4.27326767,5.64863259 Z" transform="translate(8.993427, 5.006682) rotate(-90.000000) translate(-8.993427, -5.006682)"/><path id="Chevron_Right" d="M4.27326767,15.6486326 L12.4158992,23.7345164 C12.7731925,24.0885413 13.3520647,24.0885413 13.7102601,23.7345164 C14.0675534,23.3804915 14.0675534,22.8054625 13.7102601,22.4514376 L6.21349323,15.0071305 L13.7093579,7.56282346 C14.0666511,7.20879857 14.0666511,6.63376952 13.7093579,6.27884836 C13.3520647,5.92482346 12.7722902,5.92482346 12.414997,6.27884836 L4.27236541,14.3646575 C3.9205609,14.7150226 3.9205609,15.299089 4.27326767,15.6486326 Z" transform="translate(8.993427, 15.006682) rotate(-90.000000) translate(-8.993427, -15.006682)"/></g></g></g></svg>