<?xml version="1.0" encoding="utf-8"?>
<!-- Generator: Adobe Illustrator 22.1.0, SVG Export Plug-In . SVG Version: 6.00 Build 0)  -->
<svg  width="26px" height="25px" version="1.1" xmlns="http://www.w3.org/2000/svg" xmlns:xlink="http://www.w3.org/1999/xlink" x="0px" y="0px"
	 viewBox="0 0 26 25" style="enable-background:new 0 0 26 25;" xml:space="preserve">
<style type="text/css">
	.st0{fill:#FFFFFF;stroke:#FFFFFF;stroke-width:1.0304;}
	.st1{fill:#FFFFFF;}
</style>
<title>header</title>
<desc>Created with Sketch.</desc>
<g id="頁面設計">
	<g id="授權放行1-copy" transform="translate(-332.000000, -32.000000)">
		<g id="Group-14" transform="translate(20.000000, 31.000000)">
			<g id="header" transform="translate(313.000000, 2.000000)">
				<path id="Shape" class="st0" d="M21.1-0.5H2.9C1-0.5-0.5,1-0.5,2.8v12c0,1.8,1.5,3.3,3.4,3.3h0.4l0,4.9l7.3-4.9h10.5
					c1.9,0,3.4-1.5,3.4-3.3v-12C24.5,1,23-0.5,21.1-0.5z M23.5,14.7c0,1.3-1.1,2.3-2.4,2.3H10.3l-6,4l0-4H2.9c-1.3,0-2.4-1-2.4-2.3
					V2.8c0-1.3,1.1-2.3,2.4-2.3h18.2c1.3,0,2.4,1,2.4,2.3L23.5,14.7L23.5,14.7L23.5,14.7z"/>
				<path class="st1" d="M18.5,7.4H3.3C2.8,7.4,2.4,7,2.4,6.5V6.3c0-0.5,0.4-0.9,0.9-0.9h15.2c0.5,0,0.9,0.4,0.9,0.9v0.2
					C19.4,7,19,7.4,18.5,7.4z"/>
				<path class="st1" d="M15.8,12.1H3.6c-0.5,0-0.9-0.4-0.9-0.9V11c0-0.5,0.4-0.9,0.9-0.9h12.2c0.5,0,0.9,0.4,0.9,0.9v0.2
					C16.7,11.7,16.3,12.1,15.8,12.1z"/>
			</g>
		</g>
	</g>
</g>
</svg>
