<?xml version="1.0" encoding="UTF-8"?>
<svg width="500px" height="500px" viewBox="0 0 500 500" version="1.1" xmlns="http://www.w3.org/2000/svg" xmlns:xlink="http://www.w3.org/1999/xlink">
    <!-- Generator: Sketch 51.3 (57544) - http://www.bohemiancoding.com/sketch -->
    <title>i-info-accountdetail</title>
    <desc>Created with Sketch.</desc>
    <defs></defs>
    <g id="i-info-accountdetail" stroke="none" stroke-width="1" fill="none" fill-rule="evenodd">
        <g id="Group-2" transform="translate(74.000000, 40.000000)" fill="#FFFFFF" fill-rule="nonzero">
            <g id="i-left-inquiry">
                <g id="Group">
                    <path d="M297.743595,410.27438 L53.6572678,410.27438 C24.1165636,410.27438 0.166896634,387.41157 0.166896634,359.188981 L0.166896634,51.169146 C0.166896634,22.9465565 24.0331153,0.0837465565 53.6572678,0.0837465565 L213.794588,0.0837465565 C218.050452,0.0837465565 222.13942,1.67493113 225.060111,4.60606061 L346.477412,120.846281 C349.481551,123.693664 351.150518,127.546006 351.150518,131.649587 L351.150518,359.188981 C351.150518,387.327824 327.284299,410.27438 297.743595,410.27438 Z M53.6572678,30.6512397 C41.8076068,30.6512397 32.2110503,39.8633609 32.2110503,51.169146 L32.2110503,359.105234 C32.2110503,370.411019 41.8076068,379.62314 53.6572678,379.62314 L297.660146,379.62314 C309.509807,379.62314 319.106364,370.411019 319.106364,359.105234 L319.106364,137.930579 L207.118723,30.7349862 L53.6572678,30.6512397 Z" id="Shape"></path>
                    <path d="M335.128441,146.89146 L251.095986,146.89146 C221.555281,146.89146 197.605614,124.02865 197.605614,95.8060606 L197.605614,15.4093664 C197.605614,6.95096419 204.78217,0.0837465565 213.627691,0.0837465565 C222.473213,0.0837465565 229.649768,6.95096419 229.649768,15.4093664 L229.649768,95.8060606 C229.649768,107.111846 239.246325,116.323967 251.095986,116.323967 L335.128441,116.323967 C343.973962,116.323967 351.150518,123.191185 351.150518,131.649587 C351.150518,140.107989 343.973962,146.89146 335.128441,146.89146 Z" id="Shape"></path>
                </g>
            </g>
            <g id="005-list-4" transform="translate(63.875893, 237.575758)">
                <path d="M21.6354893,0.294292306 C9.68530255,0.294292306 0,9.58954024 0,21.057676 C0,32.5261622 9.68530255,41.8210596 21.6354893,41.8210596 C33.5856761,41.8210596 43.2709787,32.5261622 43.2709787,21.057676 C43.2709787,9.58954024 33.5853108,0.294292306 21.6354893,0.294292306 Z M21.6354893,55.6633154 C9.68530255,55.6633154 0,64.9582127 0,76.426699 C0,87.8948347 9.68530255,97.1900826 21.6354893,97.1900826 C33.5856761,97.1900826 43.2709787,87.8948347 43.2709787,76.426699 C43.2709787,64.9582127 33.5853108,55.6633154 21.6354893,55.6633154 Z M209.142333,7.21542019 L72.1179325,7.21542019 C64.1488277,7.21542019 57.6942729,13.4097981 57.6942729,21.057676 C57.6942729,28.7052032 64.1488277,34.8999317 72.1179325,34.8999317 L209.141968,34.8999317 C217.111072,34.8999317 223.565627,28.7052032 223.565627,21.057676 C223.565993,13.4097981 217.111438,7.21542019 209.142333,7.21542019 Z M209.142333,62.5840927 L72.1179325,62.5840927 C64.1488277,62.5840927 57.6942729,68.7788211 57.6942729,76.4263484 C57.6942729,84.0738757 64.1488277,90.2682536 72.1179325,90.2682536 L209.141968,90.2682536 C217.111072,90.2682536 223.565627,84.0738757 223.565627,76.4263484 C223.565627,68.7788211 217.111438,62.5840927 209.142333,62.5840927 Z" id="Shape"></path>
            </g>
            <path d="M85.167858,118.818068 C85.167858,136.835749 99.4955758,151.494971 117.105805,151.494971 C122.974957,151.494971 127.751787,156.382324 127.751787,162.387273 C127.751787,168.392221 122.974957,173.279574 117.105805,173.279574 C113.315946,173.279574 109.781148,171.189046 107.879287,167.824913 C104.935007,162.619868 98.4226602,160.838524 93.3325499,163.850926 C88.2424397,166.863327 86.5041502,173.526353 89.4456578,178.734234 C93.2992812,185.547595 99.3985419,190.607977 106.459822,193.172206 L106.459822,205.08566 C106.459822,211.101955 111.225563,215.977961 117.105805,215.977961 C122.986046,215.977961 127.751787,211.101955 127.751787,205.08566 L127.751787,193.192062 C140.144376,188.693314 149.043751,176.586976 149.043751,162.387273 C149.043751,144.369591 134.716034,129.710369 117.105805,129.710369 C111.236653,129.710369 106.459822,124.823016 106.459822,118.818068 C106.459822,112.81312 111.236653,107.925767 117.105805,107.925767 C120.895664,107.925767 124.430462,110.016294 126.335095,113.380427 C129.276602,118.585472 135.788949,120.366817 140.87906,117.354415 C145.96917,114.342013 147.710231,107.678988 144.765952,102.471106 C140.912328,95.6577455 134.813068,90.5973639 127.751787,88.0331347 L127.751787,75.6856896 C127.751787,69.6693953 122.986046,64.7933884 117.105805,64.7933884 C111.225563,64.7933884 106.459822,69.6693953 106.459822,75.6856896 L106.459822,88.0132787 C94.0700063,92.5120264 85.167858,104.618365 85.167858,118.818068 Z" id="Shape"></path>
        </g>
    </g>
</svg>