<?xml version="1.0" encoding="UTF-8"?>
<svg width="500px" height="500px" viewBox="0 0 500 500" version="1.1" xmlns="http://www.w3.org/2000/svg" xmlns:xlink="http://www.w3.org/1999/xlink">
    <!-- Generator: Sketch 51.3 (57544) - http://www.bohemiancoding.com/sketch -->
    <title>i-info-authorize</title>
    <desc>Created with Sketch.</desc>
    <defs></defs>
    <g id="i-info-authorize" stroke="none" stroke-width="1" fill="none" fill-rule="evenodd">
        <path d="M122.997309,305.320747 C130.729509,305.320747 136.997309,311.678576 136.997309,319.521839 C136.997309,327.365102 130.729509,333.722931 122.997309,333.722931 C115.265109,333.722931 108.997309,327.365102 108.997309,319.521839 C108.997309,311.678576 115.265109,305.320747 122.997309,305.320747 Z M178.997309,319.521839 C178.997309,327.365102 185.265109,333.722931 192.997309,333.722931 C200.729509,333.722931 206.997309,327.365102 206.997309,319.521839 C206.997309,311.678576 200.729509,305.320747 192.997309,305.320747 C185.265109,305.320747 178.997309,311.678576 178.997309,319.521839 Z M262.997309,319.521839 C262.997309,311.678576 256.729509,305.320747 248.997309,305.320747 C241.265109,305.320747 234.997309,311.678576 234.997309,319.521839 C234.997309,327.365102 241.265109,333.722931 248.997309,333.722931 C256.729509,333.722931 262.997309,327.365102 262.997309,319.521839 Z M304.997309,319.521839 C304.997309,327.365102 311.265109,333.722931 318.997309,333.722931 C326.729509,333.722931 332.997309,327.365102 332.997309,319.521839 C332.997309,311.678576 326.729509,305.320747 318.997309,305.320747 C311.265109,305.320747 304.997309,311.678576 304.997309,319.521839 Z M248.622309,444.890854 C248.622309,454.082178 241.347184,461.532759 232.372309,461.532759 L103.997309,461.532759 C68.1563087,461.532759 38.9973087,431.670525 38.9973087,394.96514 L38.9973087,258.501522 C38.9973087,221.796137 68.1563087,191.933904 103.997309,191.933904 L123.467246,191.933904 L123.467246,133.242899 C123.467246,79.3472583 167.205746,35.5 220.967246,35.5 C274.728746,35.5 318.467246,79.3472583 318.467246,133.242899 L318.467246,191.933904 L337.997309,191.933904 C373.838309,191.933904 402.997309,221.796137 402.997309,258.501522 L402.997309,291.785332 C402.997309,300.976656 395.722184,308.427236 386.747309,308.427236 C377.772434,308.427236 370.497309,300.976656 370.497309,291.785332 L370.497309,258.501522 C370.497309,240.14883 355.917809,225.217713 337.997309,225.217713 L103.997309,225.217713 C86.0768087,225.217713 71.4973087,240.14883 71.4973087,258.501522 L71.4973087,394.96514 C71.4973087,413.317833 86.0768087,428.24895 103.997309,428.24895 L232.372309,428.24895 C241.347184,428.24895 248.622309,435.69953 248.622309,444.890854 Z M276.997309,191.712012 L276.997309,130.800266 C276.997309,93.9124496 248.735509,63.9021839 213.997309,63.9021839 C179.259109,63.9021839 150.997309,93.9124496 150.997309,130.800266 L150.997309,191.712012 L276.997309,191.712012 Z M451.946568,308.395666 C444.370223,303.108329 433.830652,304.809386 428.409458,312.194064 L345.256082,425.40605 C342.985372,427.972846 340.139392,428.526984 338.614339,428.625644 C337.050484,428.72677 334.039178,428.533562 331.388048,426.109 L277.650154,374.99424 C270.981419,368.650423 260.300983,368.779502 253.7942,375.277887 C247.286574,381.777094 247.416474,392.187334 254.085209,398.53033 L307.917575,449.735527 C316.139199,457.366854 326.911577,461.532759 337.995207,461.532759 C338.947522,461.532759 339.902368,461.502339 340.857213,461.439855 C352.931116,460.65551 364.204535,454.932426 371.785097,445.738988 C371.98079,445.500561 372.169734,445.258022 372.352774,445.009729 L455.843552,331.337331 C461.266433,323.953476 459.522069,313.681358 451.946568,308.395666 Z" id="授權icon" stroke="#FFFFFF" fill="#FFFFFF" fill-rule="nonzero"></path>
    </g>
</svg>