<?xml version="1.0" encoding="UTF-8"?>
<svg width="29px" height="36px" viewBox="0 0 29 36" version="1.1" xmlns="http://www.w3.org/2000/svg" xmlns:xlink="http://www.w3.org/1999/xlink">
    <!-- Generator: Sketch 51.1 (57501) - http://www.bohemiancoding.com/sketch -->
    <title>交易icon</title>
    <desc>Created with Sketch.</desc>
    <defs></defs>
    <g id="登入結果通知0808-final" stroke="none" stroke-width="1" fill="none" fill-rule="evenodd">
        <g id="登入結果通知-0808-1-copy" transform="translate(-36.000000, -240.000000)" fill="#FFFFFF" fill-rule="nonzero">
            <g id="Group-6" transform="translate(0.000000, 219.000000)">
                <g id="Group-10" transform="translate(20.000000, 9.000000)">
                    <g id="Group-2">
                        <g id="交易icon" transform="translate(16.666667, 12.222222)">
                            <path d="M25.5120056,27.9241061 C19.5238936,34.2485976 9.90907486,34.458378 3.67820151,28.5689867 L5.67914313,28.5689867 L5.67914313,26.3157895 L1.4712806,26.3157895 L1.41978578,26.3157895 L0,26.3157895 L0,27.83864 L0,27.8697186 L0,32.3139558 L2.13335687,32.3139558 L2.13335687,30.1306854 C5.56144068,33.4327848 9.91643126,35.0877193 14.2714218,35.0877193 C18.8912429,35.0877193 23.5037076,33.230774 27.0200683,29.5168834 L27.7777778,28.7166099 L26.2697152,27.1238326 L25.5120056,27.9241061 Z" id="Shape"></path>
                            <path d="M25.6370645,2.77622247 L25.6370645,4.96142839 C22.2089807,1.65640164 17.8539901,0 13.4989995,0 C8.87917844,0 4.26671375,1.85859151 0.750353107,5.57577454 L0,6.36898096 L1.50806262,7.96317034 L2.26577213,7.16218738 C8.25388418,0.832089088 17.8687029,0.622122683 24.0995763,6.5167351 L22.0986347,6.5167351 L22.0986347,8.77192982 L26.3064972,8.77192982 L26.357992,8.77192982 L27.7777778,8.77192982 L27.7777778,7.24772925 L27.7777778,7.21662312 L27.7777778,2.77622247 L25.6370645,2.77622247 Z" id="Shape"></path>
                            <path d="M14.619883,27.7777778 C20.2706909,27.7777778 24.8538012,23.198018 24.8538012,17.5474772 C24.8538012,11.8969363 20.2706909,7.30994152 14.619883,7.30994152 C8.96907516,7.30994152 4.38596491,11.8897013 4.38596491,17.5402421 C4.38596491,23.190783 8.96907516,27.7777778 14.619883,27.7777778 Z M8.6059127,18.0901027 C8.6059127,17.8947575 8.76570418,17.7355873 8.96181191,17.7355873 L9.9350873,17.7355873 C9.9350873,17.5185371 9.9350873,17.3087219 9.9350873,17.0916717 L8.96181191,17.0916717 C8.76570418,17.0916717 8.6059127,16.9325015 8.6059127,16.7371563 L8.6059127,15.9485405 C8.6059127,15.7531953 8.76570418,15.5940251 8.96181191,15.5940251 L10.1965643,15.5940251 L10.2401438,15.47103 C10.5742532,14.4147189 11.1480499,13.510343 12.0269031,12.8302523 C12.724175,12.2876267 13.5376589,11.9909914 14.4019856,11.8535262 C15.6367379,11.658181 16.8279108,11.8245862 17.9900307,12.2731567 C18.0626632,12.3020967 18.1352957,12.3382717 18.2079281,12.3744468 C18.4839316,12.540852 18.5565641,12.7434322 18.4330889,13.0400675 C18.3023504,13.3511728 18.1716119,13.6695131 18.0336102,13.9733834 C17.9101349,14.2410787 17.7430802,14.3206638 17.4598135,14.2555487 C17.067598,14.1687286 16.6826458,14.0457335 16.2904304,13.9661484 C15.4624199,13.7997433 14.6416728,13.7852732 13.8354521,14.1036136 C13.1454435,14.3785439 12.724175,14.8994644 12.433645,15.5578501 C12.433645,15.5650851 12.433645,15.5723201 12.4263818,15.5795551 L14.8305173,15.5795551 C15.026625,15.5795551 15.1864165,15.7387253 15.1864165,15.9340705 L15.1864165,16.7226863 C15.1864165,16.9180315 15.026625,17.0772017 14.8305173,17.0772017 L12.0777458,17.0772017 C12.0777458,17.2870169 12.0777458,17.4968321 12.0777458,17.7211173 L14.8305173,17.7211173 C15.026625,17.7211173 15.1864165,17.8802875 15.1864165,18.0756327 L15.1864165,18.8642485 C15.1864165,19.0595937 15.026625,19.2187639 14.8305173,19.2187639 L12.317433,19.2187639 C12.6224895,20.0869648 13.1163905,20.7525855 14.0388231,21.0492208 C14.7796745,21.280741 15.5277892,21.266271 16.2759039,21.1143359 C16.6608561,21.0347508 17.0458083,20.9189907 17.4307605,20.8249356 C17.7358169,20.7525855 17.8956084,20.8394056 18.0263469,21.1143359 C18.1716119,21.4254412 18.3023504,21.7437815 18.4330889,22.0621218 C18.5493009,22.3515221 18.4766684,22.5758074 18.1788752,22.7132725 C17.8738187,22.8507377 17.5469725,22.9664978 17.2273895,23.0605529 C15.9781106,23.4078332 14.7288318,23.4150682 13.4940794,23.0171428 C11.9978501,22.5323973 11.0027849,21.5122613 10.4071985,20.0797298 C10.2909865,19.8047995 10.218354,19.5081642 10.131195,19.2187639 L8.95454866,19.2187639 C8.75844093,19.2187639 8.59864945,19.0595937 8.59864945,18.8642485 L8.59864945,18.0901027 L8.6059127,18.0901027 Z" id="Shape"></path>
                        </g>
                    </g>
                </g>
            </g>
        </g>
    </g>
</svg>