<?xml version="1.0" encoding="UTF-8" standalone="no"?>
<svg xmlns="http://www.w3.org/2000/svg" height="500px" width="500px" version="1.1" xmlns:xlink="http://www.w3.org/1999/xlink" viewBox="0 0 500 500"><!-- Generator: Sketch 51.3 (57544) - http://www.bohemiancoding.com/sketch -->
 <title>i-info-trade</title>
 <desc>Created with Sketch.</desc>
 <g id="i-info-trade" fill-rule="evenodd" fill="none">
  <g id="Group" fill-rule="nonzero" fill="#fff" transform="translate(40 37)">
   <g id="015-money-2">
    <path id="Shape" d="m44.371 111c2.901 2.15 6.267 3.17 9.609 3.17 5.05 0 10.026-2.36 13.221-6.82 5.311-7.399 3.701-17.768-3.595-23.155-7.297-5.387-17.519-3.755-22.83 3.647-5.312 7.402-3.702 17.768 3.595 23.158z"/>
    <path id="Shape" d="m21.517 167.85c1.675 0.56 3.374 0.82 5.049 0.82 6.889 0 13.295-4.45 15.542-11.45 2.786-8.71-1.903-18.06-10.492-20.9-8.579-2.82-17.804 1.94-20.591 10.64-2.7953 8.71 1.903 18.06 10.492 20.89z"/>
    <path id="Shape" d="m96.666 70.908c3.334 0 6.704-1.036 9.614-3.175h-0.01c7.3-5.387 8.91-15.756 3.6-23.157-5.31-7.402-15.533-9.035-22.829-3.647-7.297 5.387-8.907 15.748-3.595 23.158 3.194 4.459 8.17 6.821 13.22 6.821z"/>
    <path id="Shape" d="m1.1372 215.84c0.1064 0.53 0.2366 1.05 0.3922 1.58 0.1555 0.51 0.3348 1.02 0.5395 1.52s0.4331 1 0.6861 1.47c0.2448 0.47 0.5231 0.94 0.817 1.39 0.294 0.46 0.6133 0.9 0.9563 1.31 0.3349 0.42 0.7025 0.83 1.0782 1.21 0.3758 0.38 0.7762 0.75 1.1929 1.09 0.4086 0.34 0.8417 0.68 1.2911 0.97 0.4413 0.3 0.9072 0.59 1.373 0.83 0.4659 0.26 0.9565 0.49 1.4465 0.7 0.491 0.21 0.997 0.39 1.503 0.55 0.515 0.15 1.038 0.29 1.553 0.39 0.523 0.11 1.061 0.2 1.585 0.24 0.539 0.06 1.078 0.09 1.609 0.09 0.532 0 1.07-0.03 1.61-0.09 0.523-0.05 1.062-0.13 1.585-0.24 0.523-0.1 1.038-0.24 1.552-0.39 0.507-0.16 1.014-0.34 1.503-0.55 0.491-0.21 0.981-0.44 1.447-0.7 0.474-0.24 0.932-0.53 1.373-0.83 0.449-0.29 0.883-0.63 1.291-0.97 0.417-0.34 0.817-0.71 1.193-1.09s0.743-0.79 1.078-1.21c0.335-0.41 0.662-0.85 0.956-1.31 0.294-0.45 0.573-0.92 0.817-1.39 0.253-0.47 0.483-0.97 0.687-1.47 0.203-0.5 0.384-1.01 0.539-1.52 0.156-0.53 0.286-1.05 0.392-1.58 0.107-0.53 0.189-1.07 0.237-1.61 0.057-0.54 0.082-1.09 0.082-1.63s-0.025-1.08-0.082-1.63c-0.049-0.53-0.131-1.08-0.237-1.61-0.106-0.52-0.236-1.05-0.392-1.57-0.155-0.52-0.335-1.03-0.539-1.53-0.205-0.5-0.434-0.99-0.687-1.47-0.244-0.47-0.523-0.94-0.817-1.39-0.293-0.45-0.621-0.89-0.956-1.31s-0.702-0.83-1.078-1.21-0.776-0.75-1.193-1.09c-0.408-0.35-0.842-0.67-1.291-0.97-0.441-0.3-0.899-0.58-1.373-0.83-0.466-0.26-0.956-0.49-1.447-0.7-0.49-0.2-0.997-0.39-1.503-0.54-0.515-0.16-1.03-0.29-1.552-0.4-0.523-0.11-1.062-0.19-1.585-0.24-1.07-0.11-2.149-0.11-3.219 0-0.524 0.05-1.062 0.13-1.585 0.24-0.515 0.11-1.039 0.24-1.553 0.4-0.506 0.15-1.013 0.34-1.503 0.54-0.49 0.21-0.9806 0.44-1.4465 0.7-0.4658 0.25-0.9317 0.53-1.373 0.83-0.4494 0.3-0.8825 0.62-1.2911 0.97-0.4167 0.34-0.8171 0.71-1.1929 1.09-0.3757 0.38-0.7433 0.79-1.0782 1.21-0.343 0.42-0.6615 0.86-0.9563 1.31-0.2939 0.45-0.5722 0.92-0.817 1.39-0.253 0.48-0.4823 0.97-0.6861 1.47-0.2039 0.5-0.384 1.01-0.5395 1.53-0.1556 0.52-0.2858 1.05-0.3922 1.57-0.1064 0.53-0.18831 1.08-0.23662 1.61-0.05731 0.55-0.08187 1.09-0.08187 1.63s0.02456 1.09 0.08187 1.63c0.04913 0.54 0.13102 1.08 0.23662 1.61z"/>
    <path id="Shape" d="m150.39 43.092c1.68 0 3.38-0.257 5.05-0.813 8.59-2.826 13.29-12.175 10.5-20.887-2.79-8.702-12.01-13.468-20.59-10.642-8.59 2.826-13.29 12.175-10.5 20.887 2.25 7.004 8.65 11.455 15.54 11.455z"/>
    <path id="Shape" d="m399.3 257.34c-8.58-2.82-17.8 1.94-20.59 10.64-2.79 8.72 1.9 18.06 10.49 20.9 1.68 0.55 3.38 0.81 5.06 0.81 6.89 0 13.29-4.45 15.53-11.45 2.8-8.71-1.9-18.06-10.49-20.9z"/>
    <path id="Shape" d="m227.08 406.61l-0.03-0.27c-0.05-0.43-0.11-0.85-0.19-1.27-0.35-1.84-1-3.56-1.89-5.13-0.15-0.25-0.29-0.5-0.45-0.74-0.1-0.17-0.21-0.32-0.32-0.48-0.21-0.31-0.43-0.61-0.66-0.9-0.08-0.1-0.17-0.21-0.25-0.31-0.26-0.32-0.54-0.63-0.83-0.92-0.06-0.07-0.12-0.13-0.19-0.19-0.28-0.29-0.59-0.57-0.9-0.84-0.11-0.09-0.21-0.18-0.32-0.27-0.28-0.23-0.58-0.45-0.88-0.66-0.15-0.11-0.3-0.21-0.46-0.32-0.24-0.16-0.49-0.31-0.75-0.46-1.54-0.9-3.23-1.55-5.03-1.91-0.42-0.08-0.85-0.15-1.28-0.19-0.6-0.07-1.21-0.12-1.83-0.12-61.81 0-119.16-33.26-150.91-86.14l37.352-0.06c9.028-0.01 16.328-7.44 16.318-16.6-0.01-9.15-7.33-16.55-16.342-16.55h-0.026l-47.804 0.07h-0.16c-12.93 0-25.039 5.07-34.117 14.27-9.2846 9.42-14.368 22.07-14.313 35.54l-0.00011 47.92c0 9.16 7.3168 16.58 16.342 16.58 9.026 0 16.343-7.42 16.343-16.58v-44.84c16.169 26.16 37.824 48.52 63.607 65.49 33.85 22.28 73.16 34.05 113.68 34.06h0.03c0.53 0 1.06-0.03 1.6-0.09 0.08 0 0.15-0.01 0.22-0.02 0.43-0.05 0.88-0.12 1.31-0.21 1.79-0.35 3.47-1 5-1.9 0.26-0.15 0.52-0.31 0.78-0.48 0.14-0.09 0.29-0.19 0.43-0.29 0.32-0.22 0.62-0.45 0.91-0.69 0.1-0.08 0.19-0.16 0.29-0.24 0.32-0.27 0.63-0.56 0.92-0.86 0.06-0.05 0.12-0.11 0.18-0.17 0.29-0.3 0.57-0.61 0.84-0.94 0.08-0.1 0.16-0.19 0.24-0.29 0.23-0.3 0.45-0.6 0.67-0.92 0.1-0.14 0.2-0.29 0.29-0.43 0.17-0.27 0.33-0.54 0.48-0.82 0.89-1.55 1.53-3.26 1.87-5.08 0.09-0.42 0.15-0.85 0.2-1.28l0.03-0.27c0.05-0.52 0.08-1.06 0.08-1.59v-0.01-0.02c0-0.52-0.03-1.05-0.08-1.58z"/>
    <path id="Shape" d="m403.66 38.541c-9.03 0-16.35 7.422-16.35 16.578v44.844c-16.17-26.167-37.82-48.523-63.6-65.491-33.86-22.281-73.18-34.058-113.71-34.058-0.62 0.00041-1.23 0.04276-1.83 0.11086-0.43 0.04817-0.87 0.11543-1.31 0.20263-1.78 0.35291-3.46 1.0065-4.99 1.8985-0.27 0.1569-0.54 0.3205-0.8 0.4933-0.56 0.3703-1.09 0.7723-1.6 1.2083-0.33 0.2782-0.65 0.573-0.95 0.8761-0.05 0.0474-0.1 0.0939-0.14 0.1412-0.3 0.3065-0.59 0.6295-0.87 0.9642-0.07 0.0914-0.15 0.1827-0.22 0.2749-0.24 0.3006-0.47 0.6154-0.69 0.9376-0.1 0.1362-0.19 0.2724-0.28 0.4119-0.17 0.2649-0.33 0.5373-0.48 0.8122-0.88 1.5533-1.53 3.2593-1.88 5.0773-0.08 0.427-0.14 0.861-0.19 1.29-0.01 0.084-0.02 0.165-0.03 0.248-0.06 0.548-0.08 1.094-0.08 1.631 0 0.538 0.02 1.083 0.08 1.629 0.01 0.085 0.02 0.168 0.03 0.252 0.05 0.427 0.11 0.86 0.19 1.284 0.35 1.82 1 3.528 1.88 5.083 0.15 0.275 0.31 0.546 0.48 0.81 0.09 0.141 0.19 0.278 0.28 0.415 0.22 0.319 0.45 0.63 0.68 0.928 0.08 0.098 0.16 0.194 0.24 0.289 0.27 0.329 0.55 0.647 0.85 0.95 0.05 0.053 0.1 0.105 0.15 0.157 0.3 0.301 0.62 0.592 0.95 0.868 0.09 0.077 0.18 0.154 0.27 0.229 0.29 0.242 0.6 0.474 0.92 0.696 0.14 0.101 0.28 0.198 0.43 0.293 0.25 0.167 0.51 0.327 0.77 0.48 1.54 0.896 3.22 1.552 5.02 1.905 0.43 0.085 0.86 0.151 1.29 0.199 0.08 0.009 0.16 0.022 0.24 0.029 0.53 0.056 1.06 0.081 1.59 0.081 61.8 0 119.15 33.26 150.91 86.141l-37.36 0.06c-9.02 0.01-16.33 7.45-16.31 16.6 0.01 9.15 7.32 16.55 16.34 16.55h0.02l47.81-0.07h0.16c12.93 0 25.04-5.06 34.12-14.27 9.28-9.42 14.36-22.06 14.31-35.53v-47.931c0-9.156-7.32-16.578-16.34-16.578z"/>
    <path id="Shape" d="m376.45 314.2c-7.3-5.39-17.52-3.75-22.83 3.65s-3.7 17.77 3.59 23.16c2.9 2.13 6.27 3.17 9.6 3.17 5.05 0 10.03-2.37 13.23-6.82 5.31-7.4 3.7-17.77-3.59-23.16z"/>
    <path id="Shape" d="m419.68 209.36c-0.11-0.52-0.24-1.05-0.39-1.57-0.16-0.52-0.34-1.03-0.54-1.53-0.21-0.5-0.43-0.99-0.69-1.47-0.24-0.48-0.52-0.94-0.81-1.39-0.3-0.46-0.63-0.89-0.96-1.31-0.34-0.42-0.7-0.83-1.08-1.21-0.37-0.38-0.77-0.75-1.19-1.09-0.41-0.35-0.84-0.67-1.29-0.97-0.44-0.3-0.91-0.58-1.38-0.83-0.46-0.26-0.95-0.49-1.44-0.7-0.49-0.2-1-0.39-1.51-0.55-0.51-0.15-1.03-0.28-1.55-0.39s-1.06-0.19-1.58-0.24c-1.07-0.11-2.15-0.11-3.22 0-0.53 0.05-1.06 0.13-1.59 0.24-0.51 0.11-1.03 0.24-1.55 0.39-0.51 0.16-1.01 0.34-1.5 0.55s-0.98 0.44-1.45 0.7c-0.46 0.25-0.93 0.53-1.37 0.83-0.45 0.3-0.88 0.62-1.29 0.97-0.42 0.34-0.82 0.71-1.2 1.09-0.37 0.38-0.74 0.79-1.07 1.21-0.34 0.42-0.67 0.85-0.96 1.31-0.29 0.45-0.57 0.91-0.82 1.39s-0.48 0.97-0.68 1.47c-0.21 0.5-0.39 1.01-0.54 1.53-0.16 0.52-0.29 1.05-0.4 1.57-0.1 0.53-0.18 1.08-0.23 1.61-0.06 0.54-0.08 1.09-0.08 1.63s0.02 1.09 0.08 1.63c0.05 0.53 0.13 1.08 0.23 1.61 0.11 0.52 0.24 1.05 0.4 1.58 0.15 0.51 0.33 1.02 0.54 1.52 0.2 0.5 0.43 1 0.68 1.47s0.53 0.94 0.82 1.39c0.29 0.46 0.62 0.9 0.96 1.31 0.33 0.42 0.7 0.83 1.07 1.21 0.38 0.38 0.78 0.75 1.2 1.09 0.41 0.34 0.84 0.67 1.29 0.97 0.44 0.3 0.91 0.58 1.37 0.83 0.47 0.26 0.96 0.49 1.45 0.7s0.99 0.39 1.5 0.55c0.52 0.15 1.04 0.29 1.55 0.39 0.53 0.11 1.06 0.19 1.59 0.24 0.54 0.06 1.08 0.09 1.61 0.09s1.07-0.03 1.61-0.09c0.52-0.05 1.06-0.13 1.58-0.24 0.52-0.1 1.04-0.24 1.55-0.39 0.51-0.16 1.02-0.34 1.51-0.55s0.98-0.44 1.44-0.7c0.47-0.25 0.94-0.53 1.38-0.83 0.45-0.29 0.88-0.63 1.29-0.97 0.42-0.34 0.82-0.71 1.19-1.09 0.38-0.38 0.74-0.79 1.08-1.21 0.33-0.41 0.66-0.85 0.96-1.31 0.29-0.45 0.57-0.92 0.81-1.39 0.26-0.47 0.49-0.97 0.69-1.47s0.38-1.01 0.54-1.52c0.15-0.53 0.28-1.06 0.39-1.58 0.11-0.53 0.19-1.08 0.24-1.61 0.05-0.54 0.08-1.09 0.08-1.63s-0.03-1.09-0.08-1.63c-0.05-0.53-0.13-1.08-0.24-1.61z"/>
    <path id="Shape" d="m314.55 357.47c-7.3 5.38-8.91 15.75-3.6 23.15 3.2 4.46 8.18 6.83 13.23 6.83 3.33 0 6.7-1.03 9.6-3.18 7.29-5.39 8.9-15.75 3.6-23.16-5.31-7.4-15.53-9.03-22.83-3.64z"/>
    <path id="Shape" d="m265.38 382.92c-8.59 2.83-13.29 12.18-10.5 20.89 2.24 7 8.65 11.45 15.54 11.46 1.67 0 3.37-0.26 5.05-0.82 8.59-2.83 13.28-12.17 10.5-20.89-2.79-8.7-12.01-13.46-20.59-10.64z"/>
   </g>
   <path id="Shape" d="m155.97 176.21c0 30.35 24.35 55.05 54.27 55.05 9.97 0 18.09 8.23 18.09 18.35 0 10.11-8.12 18.34-18.09 18.34-6.44 0-12.45-3.52-15.68-9.19-5-8.76-16.06-11.76-24.71-6.69-8.65 5.08-11.61 16.3-6.61 25.07 6.55 11.48 16.91 20 28.91 24.32v20.07c0 10.14 8.1 18.35 18.09 18.35s18.09-8.21 18.09-18.35v-20.03c21.05-7.58 36.17-27.98 36.17-51.89 0-30.36-24.34-55.05-54.26-55.05-9.97 0-18.09-8.23-18.09-18.35 0-10.11 8.12-18.35 18.09-18.35 6.44 0 12.44 3.53 15.68 9.19 5 8.77 16.06 11.77 24.71 6.7 8.65-5.08 11.61-16.3 6.61-25.07-6.55-11.48-16.91-20.01-28.91-24.33v-20.8c0-10.13-8.1-18.343-18.09-18.343s-18.09 8.213-18.09 18.343v20.77c-21.05 7.58-36.18 27.97-36.18 51.89z"/>
  </g>
 </g>
</svg>
