<?xml version="1.0" encoding="UTF-8"?>
<svg width="500px" height="500px" viewBox="0 0 500 500" version="1.1" xmlns="http://www.w3.org/2000/svg" xmlns:xlink="http://www.w3.org/1999/xlink">
    <!-- Generator: Sketch 51.3 (57544) - http://www.bohemiancoding.com/sketch -->
    <title>i-info-check</title>
    <desc>Created with Sketch.</desc>
    <defs></defs>
    <g id="i-info-check" stroke="none" stroke-width="1" fill="none" fill-rule="evenodd">
        <g id="iconmonstr-debit-1" transform="translate(40.000000, 99.000000)" fill="#FFFFFF" fill-rule="nonzero">
            <path d="M349.307953,97.4910365 L63.5410195,97.4910365 L63.5410195,81.3123864 L349.307953,81.3123864 L349.307953,97.4910365 Z M203.197139,129.932164 L63.5410195,129.932164 L63.5410195,146.110814 L203.280966,146.110814 L203.280966,129.932164 L203.197139,129.932164 Z M419.136012,67.900034 L419.136012,240.584071 C419.136012,277.887176 388.874392,308.148796 351.571287,308.148796 L67.5647252,308.148796 C30.2616201,308.148796 0,277.887176 0,240.584071 L0,67.900034 C0,30.5969289 30.2616201,0.33530881 67.5647252,0.33530881 L351.48746,0.33530881 C388.874392,0.33530881 419.136012,30.5969289 419.136012,67.900034 Z M380.994635,270.175074 L380.994635,37.3031051 L38.1413771,37.3031051 L38.1413771,270.175074 L380.994635,270.175074 Z M284.67718,221.052333 L299.598422,234.297031 L314.519664,221.052333 L329.440906,234.297031 L357.7745,208.729734 L344.362148,194.898246 L329.440906,207.975289 L314.519664,194.730591 L299.598422,207.975289 L284.67718,194.730591 L269.755938,207.975289 L254.834696,194.730591 L226.584928,220.046407 L239.997281,234.213204 L254.834696,221.052333 L269.755938,234.297031 L284.67718,221.052333 Z M63.5410195,210.993069 L203.280966,210.993069 L203.280966,194.814419 L63.5410195,194.814419 L63.5410195,210.993069 Z M350.062398,128.423274 L350.062398,144.601924 L256.175931,144.601924 L256.175931,128.423274 L350.062398,128.423274 Z" id="Shape"></path>
        </g>
    </g>
</svg>