<?xml version="1.0" encoding="UTF-8"?>
<svg width="500px" height="500px" viewBox="0 0 500 500" version="1.1" xmlns="http://www.w3.org/2000/svg" xmlns:xlink="http://www.w3.org/1999/xlink">
    <!-- Generator: Sketch 51.3 (57544) - http://www.bohemiancoding.com/sketch -->
    <title>i-info-market</title>
    <desc>Created with Sketch.</desc>
    <defs></defs>
    <g id="i-info-market" stroke="none" stroke-width="1" fill="none" fill-rule="evenodd">
        <g id="growth-1" transform="translate(40.000000, 66.000000)" fill="#FFFFFF" fill-rule="nonzero">
            <path d="M33.57781,223.924731 L5.93713733,223.924731 C2.6387277,223.924731 0,227.99646 0,233.086121 L0,250.798142 L0,328.771751 L0,346.483771 C0,351.573432 2.6387277,355.645161 5.93713733,355.645161 L33.57781,355.645161 C36.8762196,355.645161 39.5149473,351.573432 39.5149473,346.483771 L39.5149473,328.771751 L39.5149473,250.798142 L39.5149473,233.086121 C39.5809155,227.99646 36.8762196,223.924731 33.57781,223.924731 Z" id="Shape"></path>
            <path d="M125.783115,158.064516 L98.141616,158.064516 C94.8431077,158.064516 92.2043011,162.176191 92.2043011,167.315784 L92.2043011,236.700291 L92.2043011,263.837343 L92.2043011,333.221851 C92.2043011,338.361444 94.8431077,342.473118 98.141616,342.473118 L125.783115,342.473118 C129.081623,342.473118 131.72043,338.361444 131.72043,333.221851 L131.72043,263.837343 L131.72043,236.700291 L131.72043,167.315784 C131.72043,162.176191 129.081623,158.064516 125.783115,158.064516 Z" id="Shape"></path>
            <path d="M227.602713,193.77881 L227.602713,114.752438 L256.617147,114.752438 C261.919785,114.752438 265.221428,108.502362 262.420034,103.735356 L203.390668,3.41635459 C200.689325,-1.13878486 194.486239,-1.13878486 191.784895,3.41635459 L132.755529,103.735356 C129.954135,108.502362 133.155728,114.752438 138.558416,114.752438 L167.57285,114.752438 L167.57285,346.111148 C167.57285,351.407822 171.574841,355.645161 176.577329,355.645161 L218.498184,355.645161 C223.500673,355.645161 227.502664,351.407822 227.502664,346.111148 C210.694302,325.665988 200.389175,299.076685 200.389175,269.839046 C200.589275,240.812214 210.794352,214.118038 227.602713,193.77881 Z" id="Shape"></path>
            <path d="M322.715054,171.236559 C275.477382,171.236559 237.096774,212.46354 237.096774,263.44086 C237.096774,314.312199 275.37897,355.645161 322.715054,355.645161 C369.952725,355.645161 408.333333,314.418181 408.333333,263.44086 C408.333333,212.46354 370.051137,171.236559 322.715054,171.236559 Z M347.318008,299.686689 C343.578359,304.561859 338.75618,307.847299 333.048294,309.543011 C330.587999,310.284884 329.505469,311.66265 329.603881,314.418181 C329.702293,317.173712 329.603881,319.82326 329.603881,322.578791 C329.603881,325.016376 328.422939,326.28816 326.257879,326.394142 C323.502348,326.500124 320.845229,326.500124 318.089698,326.394142 C315.727815,326.394142 314.546873,324.910394 314.546873,322.366827 C314.546873,320.35317 314.546873,318.339513 314.448461,316.431838 C314.448461,312.086578 314.251638,311.874614 310.315165,311.238722 C305.296162,310.390866 300.375572,309.119083 295.750216,306.78748 C292.108979,304.879805 291.813744,303.925967 292.797862,299.898653 C293.585156,296.825176 294.372451,293.857681 295.258157,290.890187 C296.242275,287.392782 297.127982,286.968854 300.080336,288.664566 C305.197751,291.526078 310.511989,293.115808 316.219874,293.857681 C319.861111,294.387591 323.403936,293.963663 326.749938,292.373934 C333.048294,289.406439 334.032413,281.563775 328.718175,276.794587 C326.946762,275.204857 324.880114,274.039056 322.715054,272.979236 C317.203992,270.329687 311.397695,268.422012 306.280281,265.03059 C297.816864,259.62551 292.502626,252.100791 293.093097,240.972686 C293.78198,228.466815 300.375572,220.62415 311.004048,216.490854 C315.432579,214.795143 315.432579,214.795143 315.432579,209.919973 C315.432579,208.224262 315.432579,206.52855 315.432579,204.938821 C315.530991,201.229452 316.121462,200.593561 319.565876,200.487579 C320.648406,200.487579 321.730936,200.487579 322.813466,200.487579 C330.194352,200.487579 330.194352,200.487579 330.194352,208.436225 C330.194352,214.053269 330.194352,214.053269 335.410178,214.901125 C339.346651,215.537016 343.184711,216.8088 346.825949,218.610493 C348.892597,219.564331 349.581479,221.048078 348.991009,223.379681 C348.105302,226.771104 347.219596,230.268508 346.235478,233.659931 C345.25136,236.839389 344.365653,237.369299 341.511711,235.885552 C335.803825,232.918057 329.800704,231.646274 323.403936,232.070201 C321.730936,232.176183 320.156347,232.388147 318.581758,233.130021 C313.070696,235.673588 312.184989,242.244469 316.908757,246.271783 C319.27064,248.285441 321.927759,249.769188 324.781702,251.040971 C329.603881,253.160611 334.524472,255.28025 339.149827,258.03578 C353.714776,266.302373 357.651248,286.226981 347.318008,299.686689 Z" id="Shape"></path>
        </g>
    </g>
</svg>