<svg xmlns="http://www.w3.org/2000/svg" xmlns:xlink="http://www.w3.org/1999/xlink" width="500" height="500" version="1.1" viewBox="0 0 500 500"><title>i-info-security</title><desc>Created with Sketch.</desc><g id="i-info-security" fill="none" fill-rule="evenodd" stroke="none" stroke-width="1"><g id="Group-12-Copy" fill="#FFF" fill-rule="nonzero" transform="translate(69.000000, 40.000000)"><g id="006-shield-2"><path id="Shape" stroke="#FFF" stroke-width=".5" d="M186.666667,0 L11.6666667,58.4978118 L11.6666667,102.237124 L40.8333333,102.237124 L40.8333333,77.2642959 L186.666667,28.5250558 L332.5,77.2642959 L332.5,255.545895 C332.5,312.502174 232.370833,368.211822 186.666667,388.251746 C140.9625,368.238631 40.8333333,312.528983 40.8333333,255.545895 L40.8333333,235.438947 L11.6666667,235.438947 L11.6666667,255.545895 C11.6666667,344.633075 173.804167,412.380083 180.702083,415.235269 L186.666667,417.741935 L192.63125,415.288888 C199.529167,412.380083 361.666667,344.633075 361.666667,255.545895 L361.666667,58.4978118 L186.666667,0 Z"/><rect id="Rectangle-path" width="35" height="32.396" x="8.167" y="128.333"/><rect id="Rectangle-path" width="35" height="32.396" x="8.167" y="180.737"/></g><g id="Group-9" transform="translate(68.118280, 112.903226)"><path id="Shape" d="M234.072541,75.5148095 C233.487823,74.717056 231.481649,71.9962462 230.23486,70.493983 C224.665481,63.7820147 211.623685,48.062843 193.477457,34.1862349 C170.211825,16.3933822 146.269151,7.37263063 122.315664,7.37263063 C98.3621769,7.37263063 74.4195027,16.3933822 51.1547024,34.184641 C33.0059791,48.062843 19.9650151,63.7812177 14.40229,70.4868104 C13.152174,71.9922614 11.1443363,74.7146651 10.5587863,75.5132156 C6.5273077,81.0106221 6.52647595,88.3410288 10.5571228,93.8384353 C11.1435045,94.6377828 13.1513422,97.3617804 14.3972995,98.8608557 C19.9650151,105.572824 33.0059791,121.291199 51.1538707,135.169401 C74.4195027,152.961456 98.3621769,161.982208 122.315664,161.982208 C146.269151,161.982208 170.210993,152.961456 193.477457,135.170198 C211.623685,121.292793 224.666313,105.574418 230.237355,98.8592618 C231.483313,97.3569986 233.487823,94.6385797 234.072541,93.8408262 C238.104852,88.3426227 238.104852,81.012216 234.072541,75.5148095 Z M122.315595,137.586149 C93.5390467,137.586149 63.3762249,119.797677 32.5691883,84.6774194 C63.3742875,49.5580899 93.5371092,31.7686899 122.315595,31.7686899 C151.090207,31.7686899 181.256903,49.5618028 212.062971,84.6783476 C181.255935,119.796749 151.093113,137.586149 122.315595,137.586149 Z"/><ellipse id="Oval" cx="126.281" cy="83.737" rx="31.725" ry="30.108"/></g></g></g></svg>