<svg xmlns="http://www.w3.org/2000/svg" xmlns:xlink="http://www.w3.org/1999/xlink" id="Слой_1" x="0" y="0" version="1.1" viewBox="0 0 25 26" style="enable-background:new 0 0 25 26" xml:space="preserve"><style type="text/css">.st0{fill:#fff;stroke:#fff;stroke-width:.25;stroke-miterlimit:10}.st1,.st2{fill:#107778}.st2{stroke:#107778;stroke-width:.5;stroke-miterlimit:10}</style><g><path d="M24.6,21.9c0,0,0-0.1,0.1-0.1v-0.1c0-0.1,0-0.1,0-0.2c0,0,0,0,0-0.1l-1.9-9.7v-0.1v-0.1l0,0l-0.1-0.1l-0.1-0.1 l-0.1-0.1c0,0-0.1,0-0.1-0.1h-0.1c-0.1,0-0.1,0-0.2,0l0,0H22h-0.1l-2.8,1.4c0.4-0.9,0.8-2,0.8-3.3c0-4-3.2-7.3-7.2-7.3l0,0l0,0 c-4,0-7.2,3.3-7.2,7.3c0,1.3,0.4,2.4,0.8,3.2l-3.5,1.7l0,0c-0.1,0-0.1,0.1-0.1,0.1l-0.1,0.1l-0.1,0.1c0,0,0,0.1-0.1,0.1 c0,0,0,0,0,0.1l-1.9,9.7c0,0,0,0,0,0.1s0,0.1,0,0.2s0,0.1,0,0.1s0,0,0,0.1v0.1c0,0,0,0,0,0.1s0.1,0.1,0.2,0.2l0,0 c0.1,0.1,0.2,0.1,0.2,0.1l0,0H1l0,0l0,0l0,0c0.1,0,0.2,0,0.3-0.1l0,0l6.9-2.9l8.4,3l0,0c0.1,0,0.2,0,0.2,0c0.1,0,0.2,0,0.3-0.1l0,0 l7.1-3.1c0,0,0,0,0.1,0l0.1-0.1l0.1-0.1C24.6,22,24.6,21.9,24.6,21.9z M3.6,15.4l3.3-1.6l1.4,1.9l-0.5,5.2L2,23.3L3.6,15.4z M8.7,20.9l0.4-4l2.7,3.7c0.1,0.2,0.4,0.3,0.6,0.3c0.2,0,0.5-0.1,0.6-0.3l2.4-3.3l0.6,6.2L8.7,20.9z M17.2,23.6l-0.8-7.4l0.8-1.1 l4.3-2.1l1.6,8.1L17.2,23.6z M12.5,3.5c3.2,0,5.7,2.6,5.7,5.7c0,1.5-0.7,2.8-1.2,3.6l0,0L12.5,19L8,12.9l0,0 c-0.6-0.8-1.2-2.1-1.2-3.6C6.8,6.1,9.3,3.5,12.5,3.5z" class="st0"/><path d="M12.5,12.5c1.8,0,3.2-1.4,3.2-3.2s-1.4-3.2-3.2-3.2S9.3,7.5,9.3,9.3S10.7,12.5,12.5,12.5z" class="st0"/></g><g><polygon points="3.6 15.4 6.9 13.8 8.3 15.7 7.8 20.9 2 23.3" class="st1"/><path d="M8.7,20.9l0.4-4l2.7,3.7c0.1,0.2,0.4,0.3,0.6,0.3c0.2,0,0.5-0.1,0.6-0.3l2.4-3.3l0.6,6.2L8.7,20.9z" class="st1"/><polygon points="17.2 23.6 16.4 16.2 17.2 15.1 21.5 13 23.1 21.1" class="st1"/><path d="M12.5,3.5c3.2,0,5.7,2.6,5.7,5.7c0,1.5-0.7,2.8-1.2,3.6l0,0L12.5,19L8,12.9l0,0c-0.6-0.8-1.2-2.1-1.2-3.6 C6.8,6.1,9.3,3.5,12.5,3.5z" class="st2"/></g><path d="M12.6,12.6c1.8,0,3.2-1.4,3.2-3.2s-1.4-3.2-3.2-3.2S9.4,7.6,9.4,9.4S10.8,12.6,12.6,12.6z" class="st0"/></svg>