<?xml version="1.0" encoding="UTF-8"?>
<svg width="500px" height="500px" viewBox="0 0 500 500" version="1.1" xmlns="http://www.w3.org/2000/svg" xmlns:xlink="http://www.w3.org/1999/xlink">
    <!-- Generator: Sketch 51.3 (57544) - http://www.bohemiancoding.com/sketch -->
    <title>i-left-變更語系</title>
    <desc>Created with Sketch.</desc>
    <defs></defs>
    <g id="i-left-變更語系" stroke="none" stroke-width="1" fill="none" fill-rule="evenodd">
        <g id="i-left-eva1" transform="translate(2.000000, 0.000000)" fill="#107778" fill-rule="nonzero">
            <path d="M204.2,418.4 L204,417.7 C203.9,417.5 203.9,417.3 203.8,417 L203.8,416.8 L203.5,415.8 C203.4,415.5 203.2,414.9 202.9,414.3 C202.7,413.9 202.5,413.4 202.2,413 C202.2,413 202.2,413 202.2,412.9 L201.8,412.1 L201.6,411.9 C201.6,411.9 201.6,411.8 201.5,411.8 L201,411 C200.5,410.2 199.8,409.6 199.4,409.1 L199.2,408.9 C199,408.6 198.6,408.4 198.3,408.1 L198.2,408.1 C197.9,407.8 197.6,407.6 197.3,407.4 C197.1,407.2 196.9,407.1 196.7,407 C196.4,406.8 196.2,406.6 196,406.5 C195.3,406 194.5,405.6 193.7,405.4 L136.1,382.2 C131.9,380.5 127.3,380.5 123.1,382.3 C119,384.1 115.7,387.3 114,391.5 C110.5,400.1 114.6,410 123.3,413.6 L149.3,424.1 C132.3,429.5 113.6,428.3 97.4,420.6 L96.2,420 L96.1,420 C70.6,407.7 54.7,381.3 55.3,352.4 C55.4,347.9 53.7,343.6 50.6,340.3 C47.5,337 43.2,335.2 38.7,335.1 C34.2,335 29.9,336.7 26.6,339.8 C23.3,342.9 21.5,347.2 21.4,351.7 C20.3,394.4 44.5,433.5 82.8,451.3 C97,458 112.1,461.5 127.7,461.5 C136.6,461.5 145.4,460.4 154.1,458.1 L148.4,471.9 C146.7,476.1 146.7,480.7 148.5,485 C150.3,489.2 153.6,492.4 157.7,494 C159.6,494.8 161.8,495.2 164.1,495.2 C171,495.2 177.2,491.1 179.8,484.7 L203.5,426.6 L203.5,426.3 C203.5,426.1 203.6,426 203.6,425.8 C203.6,425.7 203.7,425.5 203.7,425.4 L203.8,425 C203.9,424.4 204,424 204,423.6 L204.2,422.9 L204.2,420.6 C204.2,420.1 204.1,419.6 204.1,419.3 L204.2,418.4 Z" id="Shape"></path>
            <path d="M420.2,45.8 C397.6,35 371.7,32.7 347.6,38.9 L353.4,24.8 C355.2,20.5 355.1,15.8 353.3,11.5 C351.5,7.2 348.1,4 343.9,2.3 C339.6,0.5 334.9,0.6 330.6,2.4 C326.3,4.2 323.1,7.6 321.4,11.8 L297.2,71 L297,71.9 C297,72.1 296.9,72.2 296.9,72.4 L296.8,72.8 C296.7,73.4 296.6,73.9 296.6,74.2 L296.4,74.9 L296.4,77.2 C296.4,77.7 296.5,78.2 296.5,78.5 L296.5,79.3 L296.7,80 C296.8,80.2 296.8,80.5 296.9,80.7 L296.9,80.9 L297.2,81.9 C297.3,82.3 297.5,82.8 297.8,83.5 C298,84 298.3,84.4 298.6,84.8 C298.6,84.8 298.6,84.8 298.6,84.9 L299,85.8 L299.2,86 C299.2,86 299.2,86.1 299.3,86.1 L299.9,86.9 C300.4,87.7 301.1,88.4 301.5,88.8 L301.7,89 C302,89.3 302.3,89.5 302.6,89.8 L302.7,89.8 C303,90.1 303.3,90.3 303.6,90.5 C303.8,90.7 304.1,90.8 304.2,90.9 C304.5,91.1 304.7,91.3 304.9,91.4 C305.6,91.9 306.4,92.3 307.2,92.6 L365.9,116.3 C374.7,119.9 384.8,115.7 388.4,106.8 C392,98 387.8,87.9 378.9,84.3 L352.4,73.6 C369.7,68.1 388.8,69.3 405.4,77.2 L406.7,77.8 C432.7,90.3 449,117.2 448.3,146.7 C448.2,151.3 449.9,155.7 453.1,159 C456.3,162.4 460.6,164.2 465.4,164.3 L465.6,164.3 C475,164.3 482.7,156.7 482.9,147.4 C483.9,103.6 459.3,63.7 420.2,45.8 Z" id="Shape"></path>
            <path d="M496.2,276.8 C491.2,244.4 475.4,214.4 451.6,192.1 C429.6,171.6 402.3,158.4 372.6,154 C345.4,150 318,153.6 292.9,164.5 C287.7,131.4 271.2,101 246.1,78.3 C219.1,53.8 184.2,40.4 147.8,40.4 C108.4,40.4 71.3,55.7 43.4,83.4 C15.4,111.2 0,148.3 0,187.8 C0,227.2 15.4,264.3 43.4,292.1 C71.2,319.8 108.3,335.1 147.8,335.1 C167.9,335.1 187.3,331.1 205.5,323.3 C209.8,350.4 221.4,375.5 239.4,396.5 C259.1,419.4 284.8,435.6 314,443.2 L314.6,443.4 L314.8,443.4 C326.4,446.2 338.2,447.6 349.8,447.6 C403.9,447.6 453.7,418.2 479.7,370.9 C495.4,342.7 501.2,309.2 496.2,276.8 Z M264.8,187.8 C264.8,252.5 212.3,305.1 147.8,305.1 C82.9,305.1 30.1,252.5 30.1,187.8 C30.1,123.1 82.9,70.5 147.8,70.5 C212.3,70.5 264.8,123.1 264.8,187.8 Z M424.9,378.7 C422.7,380.1 420.2,380.4 417.8,379.6 C414.9,378.7 412.4,376.3 411.1,373.1 L388,319.4 L317.7,319.4 L293.3,376.6 C291.5,380.9 287.9,383.6 284,383.6 C282.5,383.6 281,383.1 279.5,382.2 C274.2,379 272,370.9 274.7,364.5 L343.5,203.4 C345.4,199.1 348.9,196.4 352.8,196.4 C356.7,196.4 360.3,199.1 362.1,203.4 L429.8,361 C432.6,367.4 430.4,375.3 424.9,378.7 Z" id="Shape"></path>
            <polygon id="Shape" points="352.6 244 331.7 292.8 373.7 292.8"></polygon>
            <path d="M227.6,251.4 C225.9,248.7 223.4,246.7 219.7,245.2 L219.3,245 C208.1,241 197.6,236.1 188,230.5 C180.4,226 173.2,220.8 166.6,215.1 C174,205.6 180.4,195.4 185.7,184.5 C191.2,172.9 195.8,159.6 199.2,144.8 L215.3,144.8 C221.6,144.8 224.5,141.3 225.4,139.7 C226.8,137.3 227.6,134.4 227.6,131.1 C227.6,127.7 226.9,124.7 225.4,122.4 C224.5,120.8 221.6,117.2 215.2,117.2 L165.6,117.2 C165.2,114.9 164.4,112.6 163,110 C159.5,103.3 155.2,97.3 150.2,92.4 C146.6,88.8 143.6,87 140.4,86.6 C137.9,86.3 134.1,86.7 130.7,90.4 L130.3,90.8 C125.2,97.1 125.6,104.5 131.5,111.2 C133.1,113.2 134.8,115.3 136.2,117.4 L79.7,117.4 C73.2,117.4 70.4,120.8 69.4,122.8 C68.2,125 67.6,127.7 67.6,131.3 C67.6,134.4 68.2,137.1 69.4,139.5 L69.5,139.6 C70.7,141.6 73.6,145.1 79.9,145.1 L95,145.1 C96.5,151.1 98.3,157 100.3,163.2 C102.5,169.9 105.4,177 108.9,184.2 C112.2,190.8 115.8,197.2 119.7,203.1 C122.5,207.4 125.6,211.6 128.8,215.7 C121.7,221.9 114.1,227.3 106.4,231.8 C96.9,237.2 87,241.9 76.8,245.7 C72.1,247.2 68.8,249.6 67,252.6 C65,255.9 64.6,259.7 65.8,264.1 C66.9,268.3 69.2,271.3 72.5,272.9 C73.8,273.5 75.3,273.8 77,273.8 C79.3,273.8 81.8,273.3 85,272.3 C90.3,270.4 96,268 103,264.7 C108.8,261.9 114.6,258.7 120.8,254.9 C126.3,251.5 131.7,247.9 137.3,243.7 C140.5,241.3 143.8,238.7 147.3,235.7 C150.1,238.2 153.2,240.8 156.7,243.3 C161.6,247 167.1,250.8 173,254.5 C178.8,258.1 184.9,261.4 191.1,264.4 C197.5,267.4 204,270.1 210.5,272.2 C214.8,273.5 218.3,273.6 221.3,272.6 C225.2,271.2 227.8,268.1 228.9,263.6 C230,258.2 229.6,254.4 227.6,251.4 Z M172.3,144.6 C166.9,164.7 158.6,181.9 147.4,196 C141.6,189 136.5,181.4 132.4,173.2 C128.2,164.8 124.6,155.2 121.5,144.5 L172.3,144.5 L172.3,144.6 Z" id="Shape"></path>
        </g>
    </g>
</svg>