<?xml version="1.0" encoding="UTF-8"?>
<svg width="500px" height="500px" viewBox="0 0 500 500" version="1.1" xmlns="http://www.w3.org/2000/svg" xmlns:xlink="http://www.w3.org/1999/xlink">
    <!-- Generator: Sketch 51.3 (57544) - http://www.bohemiancoding.com/sketch -->
    <title>i-left-聯絡客服1</title>
    <desc>Created with Sketch.</desc>
    <defs></defs>
    <g id="i-left-聯絡客服1" stroke="none" stroke-width="1" fill="none" fill-rule="evenodd">
        <g id="i-left-eva6" transform="translate(2.000000, 13.000000)" fill="#107778" fill-rule="nonzero">
            <g id="i-left-eva3" transform="translate(0.000000, 149.000000)">
                <path d="M287.7,268.3 L225.8,219.6 C221.3,216.1 214.6,216.6 210.8,221 L190.2,244.4 C185,250.4 176.1,251.6 169.6,247.2 L166.2,245 C154.3,237.2 139.5,227.6 110.9,194.2 C82.3,160.8 74.9,144.7 69,131.5 L67.3,127.8 C64,120.6 66.4,111.9 72.9,107.4 L98.5,89.8 C103.3,86.5 104.8,79.9 102,74.8 L63.2,5.7 C60.3,0.4 53.8,-1.5 48.5,1.3 L20.3,15.9 C13.2,19.6 7.7,25.7 5,33.3 C-16,94.1 33.4,169.9 78.6,222.8 C119.6,270.8 178.6,325 235.7,325 C241.5,325 247.2,324.5 252.9,323.3 C260.7,321.7 267.4,317.1 271.9,310.4 L290.1,284 C293.4,278.8 292.4,272 287.7,268.3 Z" id="Shape"></path>
            </g>
            <g id="Group" transform="translate(128.000000, 0.000000)">
                <path d="M353.190585,14.8052459 C343.690205,5.30754098 331.116173,0 317.703872,0 L50.2961276,0 C22.5401164,0 0,22.6268852 0,50.375082 L0,233.624918 C0,261.373115 22.5401164,284 50.2961276,284 L317.703872,284 C345.459884,284 368,261.373115 368,233.624918 L368,50.4681967 C367.906859,36.9665574 362.690964,24.3029508 353.190585,14.8052459 Z M317.703872,250.199344 L50.2961276,250.199344 C41.1683118,250.199344 33.8101746,242.750164 33.8101746,233.624918 L33.8101746,50.4681967 C33.8101746,41.3429508 41.2614528,33.8937705 50.2961276,33.8937705 L317.703872,33.8937705 C326.831688,33.8937705 334.189825,41.3429508 334.189825,50.4681967 L334.189825,235.207869 C333.351557,243.588197 326.272842,250.199344 317.703872,250.199344 Z" id="Shape"></path>
                <path d="M242.068381,140.357312 L323.219754,67.5827744 C330.11436,61.3316282 330.673382,50.602049 324.430968,43.6977979 C318.188555,36.7935469 307.473965,36.2337428 300.579359,42.484889 L185.51398,145.582151 L167.718443,129.627733 L166.973081,128.881327 C166.320888,128.228222 165.668696,127.668418 164.830163,127.015314 L70.1690894,42.2982876 C63.1813133,36.0471414 52.4667233,36.7002462 46.3174803,43.6977979 C43.3360292,47.0566228 41.7521333,51.4417552 42.0316443,55.9201882 C42.3111554,60.3986213 44.2677327,64.5971524 47.7150356,67.5827744 L129.798112,140.917116 L47.8082059,217.610283 C41.0999409,223.95473 40.7272595,234.684309 47.0628431,241.495259 L47.1560135,241.58856 C50.4169756,244.947385 54.8891523,246.906699 59.4544994,246.906699 C63.7403354,246.906699 67.8398307,245.320588 71.0076225,242.334966 L155.047276,163.682484 L174.426708,180.943112 C177.50133,183.648832 181.507655,185.234944 185.700321,185.234944 C189.892986,185.234944 193.992482,183.648832 196.973933,180.849811 L216.912387,162.936079 L300.393019,242.334966 C303.56081,245.320588 307.660306,247 312.039312,247 C316.69783,247 320.983665,245.133986 324.337798,241.681861 C327.412419,238.416337 329.089486,234.124505 328.996315,229.552771 C328.903145,225.074338 327.039738,220.875807 323.778776,217.796884 L242.068381,140.357312 Z" id="Shape"></path>
            </g>
        </g>
    </g>
</svg>