<?xml version="1.0" encoding="utf-8"?>
<!-- Generator: Adobe Illustrator 22.1.0, SVG Export Plug-In . SVG Version: 6.00 Build 0)  -->
<svg version="1.1" id="Capa_1" xmlns="http://www.w3.org/2000/svg" xmlns:xlink="http://www.w3.org/1999/xlink" x="0px" y="0px"
	 viewBox="0 0 512 512" style="enable-background:new 0 0 512 512;" xml:space="preserve">
<style type="text/css">
	.st0{fill:#107778;}
	.st1{fill:#FFFFFF;stroke:#FFFFFF;stroke-width:6;stroke-miterlimit:10;}
	.st2{fill:#107778;stroke:#107778;stroke-width:20;stroke-miterlimit:10;}
	.st3{fill:#107778;stroke:#107778;stroke-width:13.4711;stroke-miterlimit:10;}
</style>
<g>
	<g>
		<g>
			<g>
				<g>
					<path class="st0" d="M412.9,275.7c0-63.8-51.9-115.6-115.6-115.6S181.7,212,181.7,275.7s51.8,115.7,115.6,115.7
						S412.9,339.5,412.9,275.7z"/>
					<path class="st1" d="M305.6,210.1v-16.9h-16.5v16.9c-18.5,2.1-33,17.7-33,36.7c0,20.5,16.7,37.2,37.2,37.2h8.3
						c11.4,0,20.6,9.3,20.6,20.6c0,11.4-9.3,20.6-20.6,20.6h-8.3c-11.4,0-20.6-9.3-20.6-20.6v-4.1h-16.5v4.1
						c0,19.1,14.5,34.7,33,36.7v16.9h16.5v-16.9c18.5-2.1,33-17.7,33-36.7c0-20.5-16.7-37.2-37.2-37.2h-8.3
						c-11.4,0-20.6-9.3-20.6-20.6c0-11.4,9.3-20.6,20.6-20.6h8.3c11.4,0,20.6,9.3,20.6,20.6v4.1h16.5v-4.1
						C338.6,227.8,324.1,212.2,305.6,210.1z"/>
				</g>
				<path class="st2" d="M36.2,79.9h322v51.5H383V54.1c0-23.7-27.7-42.9-61.9-42.9H73.4c-34.2,0-61.9,19.2-61.9,42.9V389h24.8V79.9z
					"/>
				<path class="st3" d="M8.2,462.2c0,22.8,27.7,41.3,61.9,41.3h247.8c34.2,0,61.9-18.5,61.9-41.3v-41.3H8.2V462.2z"/>
			</g>
		</g>
	</g>
</g>
<g>
	<g>
		<path class="st0" d="M506.1,370.7l-50.8-50.8c-2-2-4.4-3-7.1-3c-2.7,0-5,1.1-7.1,3l-5.9,5.9c-2,1.8-3,4.2-3,7.1
			c0,2.9,1.1,5.1,3,7.1l22.9,22.9h-55c-2.7,0-5,0.9-6.6,2.9c-1.7,2-2.6,4.4-2.6,7.1v9.9c0,2.7,0.9,5.1,2.6,7.1
			c1.7,2,3.9,2.9,6.6,2.9h55l-22.9,22.9c-2,2-3,4.4-3,7.1c0,2.7,1.1,5.1,3,7.1l5.9,5.9c2,2,4.4,2.9,7.1,2.9c2.7,0,5.1-0.9,7.1-2.9
			l50.8-50.8c2-2,2.9-4.2,2.9-7.1C509,374.8,508.1,372.5,506.1,370.7z"/>
	</g>
	<g>
		<g>
			<path class="st0" d="M59,211.3c0,2.9,0.9,5.2,2.9,7.2l51.6,51.6c2,2,4.4,2.9,7.2,2.9s5.1-0.9,7.2-2.9l6-6c2-2,3.1-4.4,3.1-7.2
				s-1.1-5.2-3.1-7.2l-23.4-23.3h55.9c2.8,0,5.1-0.9,6.7-2.9c1.7-2,2.5-4.4,2.5-7.2v-10.2c0-2.8-0.9-5.2-2.5-7.2
				c-1.6-2-4-2.9-6.7-2.9h-55.9l23.3-23.3c2-1.9,3.1-4.3,3.1-7.2s-1.1-5.2-3.1-7.2l-6-6c-2-2-4.4-3.1-7.2-3.1s-5.2,1.1-7.2,3.1
				l-51.6,51.6C59.9,205.9,59,208.4,59,211.3z"/>
		</g>
	</g>
</g>
</svg>
