<?xml version="1.0" encoding="UTF-8"?>
<svg width="500px" height="500px" viewBox="0 0 500 500" version="1.1" xmlns="http://www.w3.org/2000/svg" xmlns:xlink="http://www.w3.org/1999/xlink">
    <!-- Generator: Sketch 51.3 (57544) - http://www.bohemiancoding.com/sketch -->
    <title>i-left-聯絡客服1-open</title>
    <desc>Created with Sketch.</desc>
    <defs></defs>
    <g id="i-left-聯絡客服1-open" stroke="none" stroke-width="1" fill="none" fill-rule="evenodd">
        <g id="i-left-eva6" transform="translate(2.000000, 13.000000)" fill="#FFFFFF" fill-rule="nonzero">
            <path d="M287.7,417.3 L225.8,368.6 C221.3,365.1 214.6,365.6 210.8,370 L190.2,393.4 C185,399.4 176.1,400.6 169.6,396.2 L166.2,394 C154.3,386.2 139.5,376.6 110.9,343.2 C82.3,309.8 74.9,293.7 69,280.5 L67.3,276.8 C64,269.6 66.4,260.9 72.9,256.4 L98.5,238.8 C103.3,235.5 104.8,228.9 102,223.8 L63.2,154.7 C60.3,149.4 53.8,147.5 48.5,150.3 L20.3,164.9 C13.2,168.6 7.7,174.7 5,182.3 C-16,243.1 33.4,318.9 78.6,371.8 C119.6,419.8 178.6,474 235.7,474 C241.5,474 247.2,473.5 252.9,472.3 C260.7,470.7 267.4,466.1 271.9,459.4 L290.1,433 C293.4,427.8 292.4,421 287.7,417.3 Z" id="Shape"></path>
            <path d="M481.190585,14.8052459 C471.690205,5.30754098 459.116173,0 445.703872,0 L178.296128,0 C150.540116,0 128,22.6268852 128,50.375082 L128,233.624918 C128,261.373115 150.540116,284 178.296128,284 L445.703872,284 C473.459884,284 496,261.373115 496,233.624918 L496,50.4681967 C495.906859,36.9665574 490.690964,24.3029508 481.190585,14.8052459 Z M445.703872,250.199344 L178.296128,250.199344 C169.168312,250.199344 161.810175,242.750164 161.810175,233.624918 L161.810175,50.4681967 C161.810175,41.3429508 169.261453,33.8937705 178.296128,33.8937705 L445.703872,33.8937705 C454.831688,33.8937705 462.189825,41.3429508 462.189825,50.4681967 L462.189825,235.207869 C461.351557,243.588197 454.272842,250.199344 445.703872,250.199344 Z" id="Shape"></path>
            <path d="M370.068381,140.357312 L451.219754,67.5827744 C458.11436,61.3316282 458.673382,50.602049 452.430968,43.6977979 C446.188555,36.7935469 435.473965,36.2337428 428.579359,42.484889 L313.51398,145.582151 L295.718443,129.627733 L294.973081,128.881327 C294.320888,128.228222 293.668696,127.668418 292.830163,127.015314 L198.169089,42.2982876 C191.181313,36.0471414 180.466723,36.7002462 174.31748,43.6977979 C171.336029,47.0566228 169.752133,51.4417552 170.031644,55.9201882 C170.311155,60.3986213 172.267733,64.5971524 175.715036,67.5827744 L257.798112,140.917116 L175.808206,217.610283 C169.099941,223.95473 168.727259,234.684309 175.062843,241.495259 L175.156013,241.58856 C178.416976,244.947385 182.889152,246.906699 187.454499,246.906699 C191.740335,246.906699 195.839831,245.320588 199.007622,242.334966 L283.047276,163.682484 L302.426708,180.943112 C305.50133,183.648832 309.507655,185.234944 313.700321,185.234944 C317.892986,185.234944 321.992482,183.648832 324.973933,180.849811 L344.912387,162.936079 L428.393019,242.334966 C431.56081,245.320588 435.660306,247 440.039312,247 C444.69783,247 448.983665,245.133986 452.337798,241.681861 C455.412419,238.416337 457.089486,234.124505 456.996315,229.552771 C456.903145,225.074338 455.039738,220.875807 451.778776,217.796884 L370.068381,140.357312 Z" id="Shape"></path>
        </g>
    </g>
</svg>