<?xml version="1.0" encoding="utf-8"?>
<!-- Generator: Adobe Illustrator 22.1.0, SVG Export Plug-In . SVG Version: 6.00 Build 0)  -->
<svg version="1.1" id="Capa_1" xmlns="http://www.w3.org/2000/svg" xmlns:xlink="http://www.w3.org/1999/xlink" x="0px" y="0px"
	 viewBox="0 0 512 512" style="enable-background:new 0 0 512 512;" xml:space="preserve">
<style type="text/css">
	.st0{fill:#107778;}
</style>
<g>
	<g>
		<path class="st0" d="M447,5.3c-29,0-53.1,21.4-57.3,49.3l-17.6,17.6c-30.7,30.7-75.9,49-120.9,49H135.3
			c-25.2,0-46.7,16.2-54.6,38.6h-3.3C34.7,159.9,0,194.6,0,237.2s34.7,77.3,77.3,77.3h3.3c5.8,16.4,18.9,29.5,35.3,35.3v99.9
			c0,32,26,58,58,58s58-26,58-58v-96.6h19.3c45,0,90.2,18.3,120.9,49l17.6,17.6C393.9,447.6,418,469,447,469c32,0,58-26,58-58V63.3
			C505,31.3,479,5.3,447,5.3z M77.3,275.8c-21.3,0-38.6-17.3-38.6-38.6s17.3-38.6,38.6-38.6V275.8z M193.2,449.7
			c0,10.7-8.7,19.3-19.3,19.3s-19.3-8.7-19.3-19.3v-96.6h38.6L193.2,449.7L193.2,449.7z M231.9,314.5h-96.6
			c-10.7,0-19.3-8.7-19.3-19.3v-116c0-10.7,8.7-19.3,19.3-19.3h96.6V314.5z M389.1,365.2c-32.6-28.3-74.6-45.8-118.6-49.8V159.1
			c44-4,86-21.6,118.6-49.8V365.2z"/>
	</g>
</g>
</svg>
