<?xml version="1.0" encoding="utf-8"?>
<!-- Generator: Adobe Illustrator 22.1.0, SVG Export Plug-In . SVG Version: 6.00 Build 0)  -->
<svg version="1.1" id="Capa_1" xmlns="http://www.w3.org/2000/svg" xmlns:xlink="http://www.w3.org/1999/xlink" x="0px" y="0px"
	 viewBox="0 0 490 490" style="enable-background:new 0 0 490 490;" xml:space="preserve">
<style type="text/css">
	.st0{fill:#107778;stroke:#107778;stroke-width:6;stroke-miterlimit:10;}
	.st1{fill:#107778;stroke:#107778;stroke-width:5;stroke-miterlimit:10;}
	.st2{fill:#107778;}
</style>
<g>
	<g>
		<path class="st0" d="M397.6,390.8c-81.4,81.4-212.1,84.1-296.8,8.3H128v-29H70.9h-0.7H50.9v19.6v0.4v57.2h29v-28.1
			c46.6,42.5,105.8,63.8,165,63.8c62.8,0,125.5-23.9,173.3-71.7l10.3-10.3L408,380.5L397.6,390.8z"/>
		<path class="st1" d="M410,46.7v28.1C363.5,32.3,304.2,11,245.1,11c-62.9,0-125.5,23.9-173.3,71.7L61.5,92.9L82,113.4l10.3-10.3
			c81.5-81.4,212.2-84.1,296.8-8.3h-27.2v29h57.2h0.7h19.3v-19.6v-0.4V46.7H410z"/>
		<path class="st2" d="M244.9,386.5c77.8,0,140.9-63.3,140.9-141.4s-63.1-141.5-140.9-141.5S104,166.9,104,245
			S167.1,386.5,244.9,386.5z M162.1,252.6c0-2.7,2.2-4.9,4.9-4.9h13.4c0-3,0-5.9,0-8.9H167c-2.7,0-4.9-2.2-4.9-4.9V223
			c0-2.7,2.2-4.9,4.9-4.9h17l0.6-1.7c4.6-14.6,12.5-27.1,24.6-36.5c9.6-7.5,20.8-11.6,32.7-13.5c17-2.7,33.4-0.4,49.4,5.8
			c1,0.4,2,0.9,3,1.4c3.8,2.3,4.8,5.1,3.1,9.2c-1.8,4.3-3.6,8.7-5.5,12.9c-1.7,3.7-4,4.8-7.9,3.9c-5.4-1.2-10.7-2.9-16.1-4
			c-11.4-2.3-22.7-2.5-33.8,1.9c-9.5,3.8-15.3,11-19.3,20.1c0,0.1,0,0.2-0.1,0.3h33.1c2.7,0,4.9,2.2,4.9,4.9v10.9
			c0,2.7-2.2,4.9-4.9,4.9H210c0,2.9,0,5.8,0,8.9h37.9c2.7,0,4.9,2.2,4.9,4.9v10.9c0,2.7-2.2,4.9-4.9,4.9h-34.6
			c4.2,12,11,21.2,23.7,25.3c10.2,3.2,20.5,3,30.8,0.9c5.3-1.1,10.6-2.7,15.9-4c4.2-1,6.4,0.2,8.2,4c2,4.3,3.8,8.7,5.6,13.1
			c1.6,4,0.6,7.1-3.5,9c-4.2,1.9-8.7,3.5-13.1,4.8c-17.2,4.8-34.4,4.9-51.4-0.6c-20.6-6.7-34.3-20.8-42.5-40.6
			c-1.6-3.8-2.6-7.9-3.8-11.9H167c-2.7,0-4.9-2.2-4.9-4.9V252.6L162.1,252.6L162.1,252.6z"/>
	</g>
</g>
</svg>
