<?xml version="1.0" encoding="utf-8"?>
<!-- Generator: Adobe Illustrator 22.1.0, SVG Export Plug-In . SVG Version: 6.00 Build 0)  -->
<svg version="1.1" id="圖層_1" xmlns="http://www.w3.org/2000/svg" xmlns:xlink="http://www.w3.org/1999/xlink" x="0px" y="0px"
	 viewBox="0 0 591 591" style="enable-background:new 0 0 591 591;" xml:space="preserve">
<style type="text/css">
	.st0{fill:#107778;}
	.st1{fill:#FFFFFF;}
</style>
<g id="surface1">
	<path class="st0" d="M17,163.2c-0.2,1.2-0.3,2.4-0.4,3.5V191c0,10,6.3,19,15.6,22.5v35.8c0,12,9.5,21.8,21.4,22.4v206.6
		c-12,0.6-21.4,10.4-21.4,22.4v35.7c-9.4,3.6-15.6,12.6-15.6,22.7v23.8c0,4.4,3.6,8,8,8h541.6c4.4,0,8-3.6,8-8V559
		c0-10.1-6.2-19.1-15.6-22.7v-35.9c0-12-9.5-21.8-21.4-22.4V271.7c12-0.6,21.4-10.4,21.4-22.4v-35.8c9.4-3.5,15.6-12.5,15.6-22.5
		v-24.1c0-1.2-0.2-2.4-0.4-3.5c4,1.8,8.8,0,10.5-4.1c1.8-4,0-8.8-4.1-10.5L299.2,0.9c-2.3-1.2-5.2-1.2-7.5,0L10.5,148.6
		c-3.9,2.1-5.4,6.9-3.4,10.9C9,163,13.3,164.6,17,163.2z M254.6,271.7v206.6c-12,0.6-21.4,10.4-21.4,22.4v34.2H157v-34.2
		c0-12-9.5-21.8-21.4-22.4V271.7c12-0.6,21.4-10.4,21.4-22.4v-34.2h76.1v34.2c0,12,9.4,21.9,21.4,22.4H254.6z M455.5,271.7v206.6
		c-12,0.6-21.4,10.4-21.4,22.4v34.2h-76.2v-34.2c0-12-9.5-21.8-21.4-22.4V271.7c12-0.6,21.4-10.4,21.4-22.4v-34.2H434v34.2
		c0,12,9.4,21.9,21.4,22.4H455.5z M262.5,255.8h-7c-3.5,0-6.4-2.9-6.4-6.4v-5.8h92.6v5.8c0,3.5-2.9,6.4-6.4,6.4H262.5z M262.5,494.2
		h72.8c3.5,0,6.4,2.9,6.4,6.4v5.8h-92.6v-5.8c0-3.5,2.9-6.4,6.4-6.4H262.5z M48.3,249.5v-6h92.6v5.8c0,3.5-2.9,6.4-6.4,6.4h-80
		c-3.5-0.1-6.3-3-6.3-6.5L48.3,249.5L48.3,249.5z M48.3,500.8c0-3.6,2.9-6.4,6.4-6.4h79.8c3.6,0,6.4,2.9,6.4,6.4v5.8H48.3V500.8z
		 M558.3,559.3V575H32.6v-15.7c0-4.6,3.7-8.3,8.3-8.3h509c4.5,0,8.2,3.6,8.3,8.1L558.3,559.3L558.3,559.3z M542.6,500.8v5.8H450
		v-5.8c0-3.6,2.9-6.4,6.4-6.4h79.9c3.4,0.1,6.2,2.8,6.3,6.3V500.8z M542.6,249.5c0,3.5-2.9,6.4-6.4,6.4h-79.7
		c-3.5,0-6.4-2.9-6.4-6.4v-6h92.6L542.6,249.5z M32.6,166.9c0-4.4,3.6-8,8-8h509.6c4.4,0,8,3.6,8,8v24.3c0,4.4-3.6,8-8,8H40.7
		c-4.4,0-8-3.6-8-8v-24.3H32.6z"/>
</g>
<g>
	<path class="st0" d="M292.9,235c-78.2,0-141.5,63.3-141.5,141.5S214.7,518,292.9,518s141.5-63.3,141.5-141.5S371.1,235,292.9,235z"
		/>
	<path class="st1" d="M362.5,404.4c0-9.7-2.5-18.4-7.6-25.6c-4.9-7.2-11.2-12.4-18.8-15.3c-8.1-3.2-21.7-6.9-40.6-11.1
		c-12.1-2.8-15.8-4.9-17.5-6.7c-2.8-2.5-4.3-6.1-4.3-10c0-5.7,2.8-15.1,20.9-15.1c9.3,0,16.9,2.5,22.6,7.9c1.9,1.9,3.5,3.9,4.9,6.3
		l0,0l0.4,0.5c0.8,1.1,1.9,1.9,3.2,1.9h29.3c2,0,3.7-1.6,3.7-3.7c0-0.5-0.5-2.5-1.1-4c-7.7-20.4-22.9-32-46.8-36.1v-16.9
		c0-3.2-2.5-5.7-5.7-5.7h-22.8c-3.2,0-5.7,2.5-5.7,5.7v17.5c-14.1,2.9-24.8,8.4-31.8,16.9c-7.9,9.6-11.7,20-11.7,32.2
		c0,10.8,3.5,20.2,10.7,28.7c7.2,8.4,25,15.5,53.2,21.3c8.1,1.6,13.6,3.7,17.1,6.1c4,2.8,6.4,7.2,6.4,12.1c0,6.8-4,14.9-23.3,14.9
		c-6.7,0-12.1-0.9-16.9-3.2c-6.8-2.9-12-7.7-15.3-14.8l-0.1-0.4v-0.1c-0.5-1.3-1.9-2-3.3-2h-32.4c-2,0-3.7,1.6-3.7,3.7
		c0,0.5,0.4,1.6,0.4,1.9c7.7,25.2,24.5,39.6,51.3,44v17.7c0,3.2,2.5,5.7,5.7,5.7h22.8c3.2,0,5.7-2.5,5.7-5.7v-17.7
		c15.3-2.5,27.6-8.1,36.6-16.5C357.7,429.6,362.5,418.3,362.5,404.4z"/>
</g>
</svg>
