<?xml version="1.0" encoding="utf-8"?>
<!-- Generator: Adobe Illustrator 22.1.0, SVG Export Plug-In . SVG Version: 6.00 Build 0)  -->
<svg version="1.1" id="Слой_1" xmlns="http://www.w3.org/2000/svg" xmlns:xlink="http://www.w3.org/1999/xlink" x="0px" y="0px"
	 viewBox="0 0 26 26" style="enable-background:new 0 0 26 26;" xml:space="preserve">
<style type="text/css">
	.st0{fill:#FFFFFF;stroke:#FFFFFF;stroke-miterlimit:10;}
</style>
<g>
	<path class="st0" d="M5.8,24.2v-6.7C7,17.2,8,16.1,8,14.7s-1-2.6-2.3-2.9v-10C5.8,1.3,5.4,1,5,1S4.2,1.3,4.2,1.8v10
		C3,12.1,2,13.3,2,14.7s1,2.5,2.2,2.9v6.6C4.2,24.8,4.6,25,5,25S5.8,24.8,5.8,24.2z"/>
	<path class="st0" d="M12.2,1.8v1.6C11,3.8,10,4.9,10,6.3s1,2.6,2.3,2.9v15C12.2,24.8,12.6,25,13,25s0.8-0.3,0.8-0.8V9.1
		c1.3-0.3,2.3-1.5,2.3-2.9s-1-2.6-2.3-2.9V1.8C13.8,1.4,13.5,1,13,1S12.2,1.3,12.2,1.8z M14.5,6.3c0,0.8-0.7,1.5-1.5,1.5
		s-1.5-0.7-1.5-1.5s0.7-1.5,1.5-1.5S14.5,5.4,14.5,6.3z"/>
	<path class="st0" d="M20.2,1.8v14.5C19,16.6,18,17.8,18,19.2c0,1.4,1,2.6,2.3,2.9v2.1C20.2,24.8,20.6,25,21,25s0.8-0.3,0.8-0.8V22
		c1.2-0.2,2.2-1.4,2.2-2.8s-1-2.6-2.3-2.9V1.8C21.8,1.4,21.5,1,21,1S20.2,1.3,20.2,1.8z M22.5,19.2c0,0.8-0.7,1.5-1.5,1.5
		s-1.5-0.7-1.5-1.5s0.7-1.5,1.5-1.5S22.5,18.4,22.5,19.2z"/>
</g>
</svg>
