<?xml version="1.0" encoding="utf-8"?>
<!-- Generator: Adobe Illustrator 22.1.0, SVG Export Plug-In . SVG Version: 6.00 Build 0)  -->
<svg version="1.1" id="Layer_1" xmlns="http://www.w3.org/2000/svg" xmlns:xlink="http://www.w3.org/1999/xlink" x="0px" y="0px"
	 viewBox="0 0 512 512" style="enable-background:new 0 0 512 512;" xml:space="preserve">
<style type="text/css">
	.st0{fill:#FFFFFF;stroke:#FFFFFF;stroke-width:20.5881;stroke-miterlimit:10;}
	.st1{fill:#FFFFFF;stroke:#FFFFFF;stroke-width:25.7351;stroke-miterlimit:10;}
</style>
<g>
	<g>
		<g>
			<path class="st0" d="M242,466.5c0,4.7,4.4,8.6,9.9,8.6h207.7c21.8,0,40.5-15.9,40.5-34.8V72c0-18.8-18.7-33.6-40.5-33.6H251.9
				c-5.5,0-9.9,3.8-9.9,8.6c0,4.7,4.4,8.6,9.9,8.6h207.7c10.9,0,20.7,7.1,20.7,16.5v368.3c0,9.4-9.8,17.6-20.7,17.6H251.9
				C246.4,457.9,242,461.8,242,466.5z"/>
		</g>
	</g>
	<g>
		<g>
			<path class="st1" d="M18.7,269L130,380.3c2.4,2.4,5.6,3.7,8.7,3.7s6.3-1.1,8.7-3.5c4.8-4.8,4.8-12.4,0-17.3l-90.2-89.7h279.2
				c6.8,0,12.4-5.5,12.4-12.4c0-6.8-5.5-12.4-12.4-12.4H55.2l92.7-103.4c4.6-5.1,4.2-13.3-0.9-17.9c-5.1-4.6-12.9-4.2-17.5,0.9
				L18.3,251.9C13.9,256.8,14.1,264.3,18.7,269z"/>
		</g>
	</g>
</g>
</svg>
