<?xml version="1.0" encoding="utf-8"?>
<!-- Generator: Adobe Illustrator 22.1.0, SVG Export Plug-In . SVG Version: 6.00 Build 0)  -->
<svg version="1.1" id="Capa_1" xmlns="http://www.w3.org/2000/svg" xmlns:xlink="http://www.w3.org/1999/xlink" x="0px" y="0px"
	 viewBox="0 0 512 512" style="enable-background:new 0 0 512 512;" xml:space="preserve">
<style type="text/css">
	.st0{fill:#107778;stroke:#107778;stroke-width:4.8453;stroke-miterlimit:10;}
	.st1{fill:#107778;}
</style>
<g>
	<g>
		<g>
			<path class="st0" d="M257.5,6.4C120.4,6.4,9.4,117.4,9.4,254.5s111,248.1,248.1,248.1s248.1-111,248.1-248.1S394.6,6.4,257.5,6.4
				z M257.5,463.8c-115.7,0-209.3-93.6-209.3-209.3S141.8,45.2,257.5,45.2s209.3,93.6,209.3,209.3S373.2,463.8,257.5,463.8z"/>
		</g>
	</g>
</g>
<g>
	<path class="st1" d="M216.1,193.8h-48.6c-0.2-23.8,7.9-43.5,24.5-59s38.4-23.3,65.5-23.3c17.4,0,32.3,3.2,44.5,9.6
		s22,15.7,29.4,27.8c7.4,12.1,11,24.9,11,38.2c0,7.3-1.2,14.5-3.5,21.5c-2.4,7-6.1,14.3-11.1,21.7c-3,4.3-10.1,11.6-21.3,21.9
		c-10.8,9.8-17.5,16.7-20.2,20.7s-5,9.4-6.9,16c-1.9,6.7-3,16-3.5,27.8h-50.3l-0.2-8.3c0-16.6,3-31.6,9.1-45.2
		c6.1-13.5,15.9-26.2,29.5-38.1c13.1-11.5,21-19.4,23.7-23.7s4.1-9.4,4.1-15.2c0-7.9-3.3-14.6-9.9-20.1s-15.5-8.3-26.6-8.3
		c-11.4,0-20.7,3.4-28,10.1C220,174.5,216.3,183.2,216.1,193.8z M251.6,337.9c9,0,16.7,3.1,23.1,9.3c6.4,6.2,9.6,13.7,9.6,22.4
		c0,8.8-3.2,16.3-9.5,22.5s-13.9,9.4-22.8,9.4c-8.9,0-16.5-3.1-22.7-9.4c-6.2-6.2-9.4-13.8-9.4-22.5c0-8.8,3.1-16.3,9.3-22.4
		C235.3,341,242.8,337.9,251.6,337.9z"/>
</g>
</svg>
