<?xml version="1.0" encoding="utf-8"?>
<!-- Generator: Adobe Illustrator 22.1.0, SVG Export Plug-In . SVG Version: 6.00 Build 0)  -->
<svg version="1.1" id="Layer_1" xmlns="http://www.w3.org/2000/svg" xmlns:xlink="http://www.w3.org/1999/xlink" x="0px" y="0px"
	 viewBox="0 0 512 512" style="enable-background:new 0 0 512 512;" xml:space="preserve">
<style type="text/css">
	.st0{fill:#107778;stroke:#FFFFFF;stroke-width:0.8832;stroke-miterlimit:10;}
	.st1{fill:#107778;stroke:#107778;stroke-width:6;stroke-miterlimit:10;}
</style>
<g>
	<g>
		<g>
			<path class="st0" d="M418.8,149.6l-36.9-48.1c-15.4-19.9-43.9-23.6-63.7-8.3l0,0c-19.8,15.3-23.6,43.8-8.3,63.7l36.9,48.1
				c15.3,19.8,43.9,23.6,63.7,8.3C430.4,198,434.2,169.4,418.8,149.6z"/>
		</g>
	</g>
	<g>
		<g>
			<path class="st1" d="M480.9,107.9l-41.3-53.7C399.7,2.4,325.2-7.4,273.3,32.5c-47.2,36.3-59.4,101.5-31.1,152.1l-229,176.3
				c-7.4,5.7-8.8,16.3-3.1,23.8l41.3,53.7c5.7,7.4,16.3,8.8,23.8,3.1l13.5-10.3l51.6,67.1c5.7,7.4,16.3,8.8,23.8,3.1l53.7-41.3l0,0
				l0,0l53.7-41.3c7.4-5.7,8.8-16.3,3.1-23.8L223,328l81.5-62.6c41.2,40.2,107.2,45.6,155,9C511.1,234.2,520.8,160,480.9,107.9z
				 M237.2,402.2l-26.9,20.7L200,409.4c-5.7-7.4-16.3-8.8-23.8-3.1c-7.4,5.7-8.8,16.3-3.1,23.8l10.3,13.5l-26.8,20.7l-41.3-53.7
				c10-7.7,72.5-55.8,80.5-62L237.2,402.2z M438.5,247.4c-37,28.5-90.2,21.7-118.7-15.5c-5.7-7.4-16.3-8.8-23.8-3.1
				c0,0-222.4,171-228.1,175.5l-20.7-26.9l228.1-175.5c7.4-5.7,8.8-16.3,3.1-23.8c-28.4-37-21.4-90.3,15.5-118.8
				s90.3-21.5,118.7,15.5l41.3,53.7C482.6,165.7,475.6,218.7,438.5,247.4z"/>
		</g>
	</g>
</g>
</svg>
