<?xml version="1.0" encoding="utf-8"?>
<!-- Generator: Adobe Illustrator 22.1.0, SVG Export Plug-In . SVG Version: 6.00 Build 0)  -->
<svg version="1.1" id="圖層_1" xmlns="http://www.w3.org/2000/svg" xmlns:xlink="http://www.w3.org/1999/xlink" x="0px" y="0px"
	 viewBox="0 0 512 512" style="enable-background:new 0 0 512 512;" xml:space="preserve">
<style type="text/css">
	.st0{fill:#FFFFFF;stroke:#FFFFFF;stroke-width:4.3173;stroke-miterlimit:10;}
	.st1{fill:#FFFFFF;stroke:#FFFFFF;stroke-width:4.0495;stroke-miterlimit:10;}
	.st2{fill:#FFFFFF;stroke:#FFFFFF;stroke-width:4.9979;stroke-miterlimit:10;}
	.st3{fill:#107778;stroke:#107778;stroke-width:4.0495;stroke-miterlimit:10;}
</style>
<title></title>
<g id="_1">
	<g>
		<path class="st0" d="M402.8,501.9H110.3c-35.4,0-64.1-27.3-64.1-61V73.1c0-33.7,28.6-61,64.1-61h191.9c5.1,0,10,1.9,13.5,5.4
			l145.5,138.8c3.6,3.4,5.6,8,5.6,12.9v271.7C466.8,474.5,438.2,501.9,402.8,501.9z M110.3,48.6c-14.2,0-25.7,11-25.7,24.5v367.7
			c0,13.5,11.5,24.5,25.7,24.5h292.4c14.2,0,25.7-11,25.7-24.5V176.7l-134.2-128L110.3,48.6L110.3,48.6z"/>
		<path class="st0" d="M447.6,187.4H346.9c-35.4,0-64.1-27.3-64.1-61v-96c0-10.1,8.6-18.3,19.2-18.3s19.2,8.2,19.2,18.3v96
			c0,13.5,11.5,24.5,25.7,24.5h100.7c10.6,0,19.2,8.2,19.2,18.3C466.8,179.3,458.2,187.4,447.6,187.4L447.6,187.4z"/>
	</g>
	<g>
		<path class="st1" d="M227.1,389.9c-50.8,0-92.1-42.3-92.1-94.4s41.3-94.4,92.1-94.4s92.1,42.3,92.1,94.4c0,25-9.7,49-27,66.7
			C275,380,251.5,389.9,227.1,389.9z M227.1,237.9c-31.1,0-56.2,25.9-56.2,57.6s25.2,57.6,56.2,57.6c31.1,0,56.2-25.9,56.2-57.6
			c0-15.3-6-29.9-16.5-40.7C256.3,244,241.9,237.9,227.1,237.9z"/>
		<path class="st2" d="M340.5,434.5c-5.9,0-11.5-2.5-15.7-6.7L268.4,370c-8.5-9.1-8.3-23.4,0.6-32.1c8.5-8.5,22.1-8.5,30.7,0
			l56.4,57.8c8.8,8.9,8.5,23.3,0,32.1C352,432,346.5,434.5,340.5,434.5L340.5,434.5z"/>
	</g>
</g>
<path class="st3" d="M227.1,237.9c-31.1,0-56.2,25.9-56.2,57.6s25.2,57.6,56.2,57.6c31.1,0,56.2-25.9,56.2-57.6
	c0-15.3-6-29.9-16.5-40.7C256.3,244,241.9,237.9,227.1,237.9z"/>
</svg>
