<svg xmlns="http://www.w3.org/2000/svg" xmlns:xlink="http://www.w3.org/1999/xlink" id="Слой_1" style="enable-background:new 0 0 27 28" width="28" height="27" x="0" y="0" version="1.1" viewBox="0 0 27 28" xml:space="preserve"><style type="text/css">.st0{fill:#fff;stroke:#fff;stroke-width:.25;stroke-miterlimit:10}</style><switch><g><path d="m24.6 20.9s0-0.1 0.1-0.1v-0.1-0.2-0.1l-1.9-9.7v-0.2l-0.1-0.1-0.1-0.1-0.1-0.1s-0.1 0-0.1-0.1h-0.1-0.2-0.2l-2.8 1.4c0.4-0.9 0.8-2 0.8-3.3 0-4-3.2-7.3-7.2-7.3s-7.2 3.3-7.2 7.3c0 1.3 0.4 2.4 0.8 3.2l-3.5 1.7c-0.1 0-0.1 0.1-0.1 0.1l-0.1 0.1-0.1 0.1s0 0.1-0.1 0.1v0.1l-1.9 9.7v0.1s0 0.1 0 0.2 0 0.1 0 0.1 0 0 0 0.1v0.1 0.1s0.1 0.1 0.2 0.2c0.1 0.1 0.2 0.1 0.2 0.1h0.1c0.1 0 0.2 0 0.3-0.1l6.9-2.9 8.4 3h0.2c0.1 0 0.2 0 0.3-0.1l7.1-3.1h0.1l0.1-0.1 0.1-0.1c0.1 0.1 0.1 0 0.1 0zm-21-6.5l3.3-1.6 1.4 1.9-0.5 5.2-5.8 2.4 1.6-7.9zm5.1 5.5l0.4-4 2.7 3.7c0.1 0.2 0.4 0.3 0.6 0.3s0.5-0.1 0.6-0.3l2.4-3.3 0.6 6.2-7.3-2.6zm8.5 2.7l-0.8-7.4 0.8-1.1 4.3-2.1 1.6 8.1-5.9 2.5zm-4.7-20.1c3.2 0 5.7 2.6 5.7 5.7 0 1.5-0.7 2.8-1.2 3.6l-4.5 6.2-4.5-6.1c-0.6-0.8-1.2-2.1-1.2-3.6 0-3.2 2.5-5.8 5.7-5.8z" class="st0"/><path d="m12.5 11.5c1.8 0 3.2-1.4 3.2-3.2s-1.4-3.2-3.2-3.2-3.2 1.4-3.2 3.2 1.4 3.2 3.2 3.2z" class="st0"/></g></switch></svg>