<?xml version="1.0" encoding="iso-8859-1"?>
<!-- Generator: Adobe Illustrator 19.0.0, SVG Export Plug-In . SVG Version: 6.00 Build 0)  -->
<svg xmlns="http://www.w3.org/2000/svg" xmlns:xlink="http://www.w3.org/1999/xlink" version="1.1" id="Capa_1" x="0px" y="0px" viewBox="0 0 512.002 512.002" style="enable-background:new 0 0 512.002 512.002;" xml:space="preserve" width="512px" height="512px">
<g>
	<g>
		<path d="M503.344,331.427c-7.524-19.899-28.72-30.842-49.255-25.471l-168.227,43.492l-80.476-58.833    c-3.332-2.436-7.516-3.404-11.576-2.68L18.462,319.172c-7.215,1.285-12.47,7.559-12.47,14.888v127.366    c0,4.464,1.972,8.699,5.387,11.572c3.416,2.874,7.926,4.092,12.323,3.327l115.785-20.117l127.807,54.579    c1.904,0.814,3.925,1.215,5.938,1.215c2.798,0,5.582-0.776,8.022-2.303l205.291-128.442    C503.245,370.809,510.31,349.853,503.344,331.427z M60.681,439.203l-24.444,4.247v-96.723l24.444-4.354V439.203z M470.504,355.618    L271.91,479.869l-124.661-53.236c-1.886-0.805-3.906-1.215-5.939-1.215c-0.864,0-1.73,0.074-2.589,0.224l-47.797,8.305v-96.963    l101.828-18.14L273.671,378c0.075,0.056,0.151,0.112,0.228,0.166l2.634,1.927c3.402,2.487,5.612,6.154,6.221,10.325    c0.609,4.171-0.46,8.315-3.009,11.671c-5.074,6.681-14.438,8.155-21.317,3.354l-53.314-37.192    c-6.85-4.778-16.276-3.099-21.054,3.751c-4.779,6.849-3.099,16.276,3.75,21.055l53.314,37.192    c8.013,5.589,17.165,8.286,26.233,8.286c13.833-0.002,27.457-6.282,36.472-18.151c7.499-9.873,10.643-22.067,8.852-34.335    c-0.585-4.002-1.669-7.847-3.214-11.466l152.235-39.357c5.573-1.464,11.315,1.505,13.353,6.896    C476.941,347.113,475.028,352.787,470.504,355.618z" fill="#FFFFFF"/>
	</g>
</g>
<g>
	<g>
		<path d="M256.01,0c-69.045,0-125.216,56.172-125.216,125.216s56.172,125.216,125.216,125.216s125.216-56.172,125.216-125.216    S325.055,0,256.01,0z M256.01,220.189c-52.367,0-94.972-42.605-94.972-94.972c0-52.368,42.605-94.972,94.972-94.972    c52.368,0,94.972,42.605,94.972,94.972C350.982,177.584,308.377,220.189,256.01,220.189z" fill="#FFFFFF"/>
	</g>
</g>
<g>
	<g>
		<path d="M256.01,110.095c-2.168,0-3.933-1.764-3.933-3.933c0-2.167,1.764-3.932,3.933-3.932h19.055    c8.351,0,15.122-6.771,15.122-15.122s-6.771-15.122-15.122-15.122h-3.933v-1.274c0-8.351-6.771-15.122-15.122-15.122    c-8.351,0-15.122,6.771-15.122,15.122v4.813c-11.279,5.59-19.055,17.22-19.055,30.637c0,18.845,15.332,34.177,34.177,34.177    c2.169,0,3.933,1.764,3.933,3.933c0,2.167-1.764,3.932-3.933,3.932h-19.055c-8.351,0-15.122,6.771-15.122,15.122    s6.771,15.122,15.122,15.122h3.933v1.274c0,8.351,6.771,15.122,15.122,15.122c8.351,0,15.122-6.771,15.122-15.122v-4.813    c11.279-5.59,19.055-17.22,19.055-30.637C290.186,125.427,274.855,110.095,256.01,110.095z" fill="#FFFFFF"/>
	</g>
</g>
<g>
</g>
<g>
</g>
<g>
</g>
<g>
</g>
<g>
</g>
<g>
</g>
<g>
</g>
<g>
</g>
<g>
</g>
<g>
</g>
<g>
</g>
<g>
</g>
<g>
</g>
<g>
</g>
<g>
</g>
</svg>
