<?xml version="1.0" encoding="utf-8"?>
<!-- Generator: Adobe Illustrator 21.0.0, SVG Export Plug-In . SVG Version: 6.00 Build 0)  -->
<svg version="1.1" id="Layer_1" xmlns="http://www.w3.org/2000/svg" xmlns:xlink="http://www.w3.org/1999/xlink" x="0px" y="0px"
	 viewBox="0 0 60 60" style="enable-background:new 0 0 60 60;" xml:space="preserve">
<style type="text/css">
	.st0{fill:#212B31;}
</style>
<g>
	<path class="st0" d="M44.2,26.6c0.3,0,0.5,0.1,0.8,0.1c1.3,0,2.6-0.4,3.6-1.2c1.3-1,2.1-2.4,2.3-4c0.2-1.6-0.2-3.1-1.2-4.4
		l-4.4-5.7c-2-2.6-5.7-3.1-8.3-1.1c-2.6,2-3.1,5.7-1.1,8.3l4.4,5.7C41.2,25.6,42.6,26.4,44.2,26.6z"/>
	<path class="st0" d="M57,12.1l-4.9-6.3C47.2-0.6,38-1.8,31.7,3.1c-2.8,2.1-4.7,5.2-5.4,8.7c-0.6,3.3-0.2,6.6,1.3,9.6L1,41.9
		c-1.1,0.9-1.3,2.5-0.5,3.6l4.9,6.3c0.9,1.1,2.5,1.3,3.6,0.5l1.1-0.9l5.7,7.4c0.5,0.7,1.3,1,2.1,1c0.6,0,1.1-0.2,1.6-0.5l12.7-9.7
		c1.1-0.9,1.3-2.5,0.5-3.6l-5.7-7.4l8.7-6.7c2.4,2.2,5.5,3.5,8.8,3.7c3.5,0.2,7-0.8,9.8-3c3.1-2.4,5-5.8,5.5-9.7
		C60.4,19,59.3,15.2,57,12.1z M20.2,47.2c-1.1,0.9-1.3,2.5-0.5,3.6l0.9,1.1l-2.2,1.7l-4.2-5.4l0.9-0.7c2.3-1.7,6.2-4.8,7.7-5.9
		l4.2,5.4l-2.2,1.7l-0.9-1.1C23,46.6,21.4,46.3,20.2,47.2z M34.3,26.3c-1,0.8-22.9,17.6-26.4,20.3l-1.7-2.2L32.6,24
		c1.1-0.9,1.3-2.5,0.5-3.6c-3.1-4.1-2.4-10,1.7-13.2c2-1.5,4.4-2.2,6.9-1.9C44.2,5.7,46.5,7,48,8.9l4.9,6.3c3.2,4.1,2.4,10-1.7,13.2
		c-2,1.5-4.5,2.2-6.9,1.9c-2.5-0.3-4.7-1.6-6.2-3.6C37.1,25.6,35.5,25.4,34.3,26.3z"/>
</g>
</svg>
