<?xml version="1.0" encoding="utf-8"?>
<!-- Generator: Adobe Illustrator 21.0.0, SVG Export Plug-In . SVG Version: 6.00 Build 0)  -->
<svg version="1.1" id="Слой_1" xmlns="http://www.w3.org/2000/svg" xmlns:xlink="http://www.w3.org/1999/xlink" x="0px" y="0px"
	 viewBox="0 0 60 60" style="enable-background:new 0 0 60 60;" xml:space="preserve">
<style type="text/css">
	.st0{fill:#212B31;}
</style>
<g>
	<path class="st0" d="M13.7,26.2l0-22.9c0.2-0.8,0-1.7-0.5-2.3C12.6,0.4,11.7,0,10.8,0C9.3,0,7.7,1.2,7.7,3.1v23.1
		c-3.1,1.2-5.3,4.4-5.3,7.8c0,3.3,2.1,6.4,5.3,7.8v15c0,1.9,1.3,3.1,3.1,3.1s3.1-1.3,3.1-3.1V41.7c3.2-1.2,5.3-4.2,5.3-7.6
		C19.2,30.6,16.9,27.4,13.7,26.2z"/>
	<path class="st0" d="M33.1,5.8V3.1C33.1,1.6,32,0,30,0c-1.9,0-3.1,1.3-3.1,3.1v3c-3.2,1.4-5.3,4.4-5.3,7.8c0,3.5,2.3,6.7,5.5,7.9
		l0,34.9c-0.2,1.2,0.2,1.9,0.5,2.4c0.5,0.6,1.3,1,2.3,1c1.5,0,3.1-1.2,3.1-3.1V21.5c3.2-1.2,5.5-4.3,5.5-7.9S36.4,7,33.1,5.8z
		 M32.4,13.9c0,1.3-1.1,2.4-2.4,2.4s-2.4-1.1-2.4-2.4s1.1-2.4,2.4-2.4C31.2,11.5,32.4,12.4,32.4,13.9z"/>
	<path class="st0" d="M52.1,37V3.2c0.1-0.8,0-1.5-0.5-2.1C51,0.4,50.2,0,49.2,0c-1.9,0-3.1,1.3-3.1,3.1V37c-3.1,1.2-5.3,4.4-5.3,7.8
		c0,3.5,2.3,6.7,5.5,7.9l0,3.9c-0.2,1.2,0.2,1.9,0.5,2.4c0.5,0.6,1.3,1,2.3,1c1.5,0,3.1-1.2,3.1-3.1v-4.3c3-1,5.3-4.2,5.3-7.7
		C57.6,41.4,55.3,38.2,52.1,37z M51.6,44.9c0,1.3-1.1,2.4-2.4,2.4c-1.3,0-2.4-1.1-2.4-2.4s1.1-2.4,2.4-2.4
		C50.5,42.5,51.6,43.6,51.6,44.9z"/>
</g>
</svg>
