<?xml version="1.0" encoding="UTF-8"?>
<svg width="20px" height="15px" viewBox="0 0 20 15" version="1.1" xmlns="http://www.w3.org/2000/svg" xmlns:xlink="http://www.w3.org/1999/xlink">
    <!-- Generator: Sketch 51.2 (57519) - http://www.bohemiancoding.com/sketch -->
    <title>003-email</title>
    <desc>Created with Sketch.</desc>
    <defs></defs>
    <g id="卡片" stroke="none" stroke-width="1" fill="none" fill-rule="evenodd">
        <g id="聯絡客服0816" transform="translate(-27.000000, -91.000000)" fill="#FFFFFF" fill-rule="nonzero">
            <g id="Group" transform="translate(0.000000, 74.000000)">
                <g id="Group-5" transform="translate(10.000000, 12.000000)">
                    <g id="Group-6">
                        <g id="Group-3">
                            <g id="003-email" transform="translate(17.000000, 5.000000)">
                                <path d="M17.8412603,0 L1.71917926,0 C0.772408139,0 0,0.771567651 0,1.71917926 L0,13.1803743 C0,14.1247768 0.76896978,14.8995536 1.71917926,14.8995536 L17.8412603,14.8995536 C18.7856628,14.8995536 19.5604396,14.1305838 19.5604396,13.1803743 L19.5604396,1.71917926 C19.5604396,0.774776786 18.7914698,0 17.8412603,0 Z M17.6038607,1.14611951 L9.81666638,8.93335208 L1.96211839,1.14611951 L17.6038607,1.14611951 Z M1.14611951,12.9430512 L1.14611951,1.95103923 L6.66579284,7.42337783 L1.14611951,12.9430512 Z M1.95654061,13.7534341 L7.4796905,8.23028417 L9.4149897,10.1489646 C9.63901786,10.3710826 10.0005422,10.3703567 10.2236534,10.1472072 L12.1106628,8.26019789 L17.603899,13.7534341 L1.95654061,13.7534341 Z M18.4143201,12.943013 L12.9210839,7.44977679 L18.4143201,1.9565024 L18.4143201,12.943013 Z" id="Shape"></path>
                            </g>
                        </g>
                    </g>
                </g>
            </g>
        </g>
    </g>
</svg>