<?xml version="1.0" encoding="utf-8"?>
<!-- Generator: Adobe Illustrator 22.1.0, SVG Export Plug-In . SVG Version: 6.00 Build 0)  -->
<svg version="1.1" id="Capa_1" xmlns="http://www.w3.org/2000/svg" xmlns:xlink="http://www.w3.org/1999/xlink" x="0px" y="0px"
	 viewBox="0 0 60 60" style="enable-background:new 0 0 60 60;" xml:space="preserve">
<style type="text/css">
	.st0{fill:none;stroke:#3399CC;stroke-width:4;stroke-linecap:round;stroke-linejoin:round;stroke-miterlimit:10;}
	.st1{fill:#212B31;}
</style>
<g>
	<g>
		<g>
			<path class="st0" d="M12.4,46.6"/>
		</g>
		<g>
			<path class="st0" d="M3.9,40.8"/>
		</g>
		<g>
			<g>
				<path class="st1" d="M8.6,45.3c6.6,8.9,18.1,12.8,28.7,9.6c5.6-1.7,10.4-5.1,13.8-9.9c0.3-0.4,0.6-0.9,0.9-1.4
					c0.5-0.8,1.6-1.1,2.5-0.6c0.8,0.5,1.1,1.6,0.6,2.5c-0.3,0.5-0.7,1-1,1.5c-3.9,5.4-9.3,9.3-15.7,11.3C26.3,62,13.1,57.6,5.6,47.4
					C5,46.6,5.2,45.5,6,44.9c0.2-0.1,0.4-0.2,0.6-0.3C7.3,44.4,8.1,44.6,8.6,45.3z"/>
			</g>
			<g>
				<path class="st1" d="M4.5,42.5l10.3,2c1,0.2,1.6,1.1,1.4,2.1c-0.2,1-1.1,1.6-2.1,1.4l-7.4-1.5l2.1,7.2c0.3,1-0.3,1.9-1.2,2.2
					l0,0c-1,0.3-2-0.2-2.2-1.2l-3-10c-0.2-0.6,0-1.3,0.4-1.7c0.2-0.2,0.5-0.4,0.8-0.5C3.9,42.4,4.2,42.4,4.5,42.5z"/>
			</g>
			<g>
				<path class="st1" d="M53.5,12.2c0.6,0.8,0.4,1.9-0.4,2.5c-0.8,0.6-1.9,0.4-2.5-0.4C44,5.5,32.4,1.6,21.8,4.8
					C16.2,6.5,11.4,9.9,8,14.7c-0.3,0.4-0.6,0.9-0.9,1.4c-0.5,0.8-1.6,1.1-2.5,0.6c-0.8-0.5-1.1-1.6-0.6-2.5c0.3-0.5,0.7-1,1-1.5
					c4-5.5,9.4-9.4,15.8-11.3C32.9-2.3,46,2.1,53.5,12.2z"/>
			</g>
			<g>
				<path class="st1" d="M51.6,3.9c1-0.3,1.9,0.1,2.2,1.1l2.9,9.9c0.2,0.6,0,1.3-0.4,1.7c-0.4,0.5-1.1,0.7-1.7,0.6l-10.3-2
					c-1-0.2-1.6-1.1-1.4-2.1s1.2-1.6,2.1-1.4l7.4,1.5L50.3,6C50,5,50.6,4.2,51.6,3.9L51.6,3.9z"/>
			</g>
		</g>
	</g>
	<path class="st1" d="M29.6,14.9c-8.2,0-14.8,6.6-14.8,14.8s6.6,14.8,14.8,14.8s14.8-6.6,14.8-14.8S37.8,14.9,29.6,14.9z M36.9,36.6
		c-1.7,1.3-3.8,2-6,2c-4.4,0-8.3-2.9-9.3-7h-0.9c-0.4,0-0.7-0.2-0.8-0.6c-0.1-0.5,0.3-0.9,0.8-0.9h0.7c0-0.2,0-0.4,0-0.5
		c0-0.5,0-1,0.1-1.4h-0.7c-0.4,0-0.7-0.2-0.8-0.6c-0.1-0.5,0.3-0.9,0.8-0.9h1.1c1.3-3.6,4.9-6.1,9-6.1c2.2,0,4.3,0.7,6,2
		c0.3,0.3,0.4,0.7,0.2,1.1c-0.3,0.3-0.8,0.4-1.1,0.1c-1.4-1.1-3.2-1.7-5-1.7c-3.2,0-6.1,1.8-7.3,4.6H33c0.4,0,0.7,0.2,0.8,0.6
		c0.1,0.5-0.3,0.9-0.8,0.9H23c-0.1,0.5-0.1,1-0.1,1.4c0,0.2,0,0.4,0,0.5h8.6c0.4,0,0.7,0.2,0.8,0.6c0.1,0.5-0.3,0.9-0.8,0.9h-8.3
		c0.9,3.2,4.1,5.4,7.6,5.4c1.8,0,3.6-0.6,5-1.7c0.3-0.3,0.8-0.2,1.1,0.1C37.2,35.9,37.2,36.4,36.9,36.6z"/>
</g>
</svg>
