<svg xmlns="http://www.w3.org/2000/svg" xmlns:xlink="http://www.w3.org/1999/xlink" width="375" height="160" version="1.1" viewBox="0 0 375 160"><title>裝置管理-OTP-1112-2 Copy</title><desc>Created with Sketch.</desc><defs><rect id="path-1" width="375" height="160" x="0" y="0"/><path id="path-3" d="M43.2926897,2.4623419 L2.02260981,48.005928 C-0.544579986,50.8383516 -0.330884042,55.2172461 2.4994721,57.7859053 L2.67991744,57.9490334 C5.51067908,60.5180984 9.88597175,60.3042464 12.452756,57.471417 L53.7232414,11.9282367 C56.2900257,9.09540727 56.0759243,4.71691863 53.2455681,2.1482594 L53.0651228,1.98472548 C51.7407756,0.78277151 50.077029,0.189910351 48.4197703,0.189910351 C46.5350289,0.189504559 44.6583973,0.955638624 43.2926897,2.4623419"/><linearGradient id="linearGradient-5" x1="-53.002%" x2="88.179%" y1="157.827%" y2="10.032%"><stop offset="0%" stop-color="#85C7C2"/><stop offset="100%" stop-color="#C6E7E3"/></linearGradient><path id="path-6" d="M64.7503265,2.38153777 L53.765907,14.5697207 C56.3415949,11.7111383 56.1271238,7.29284521 53.2865011,4.70083453 L53.1054012,4.53581395 C50.2647785,1.94339379 45.8732083,2.15959942 43.2975204,5.01777233 L1.87733419,50.9753911 C-0.6991676,53.833564 -0.484696514,58.2518571 2.35633318,60.8438677 L2.53702609,61.0088883 C5.37805578,63.6013085 9.769219,63.3851028 12.3453138,60.5269299 L23.3297333,48.3391565 C20.7536385,51.1977389 20.9681096,55.616032 23.8091393,58.2076332 L23.9898322,58.3730632 C26.8308619,60.9646644 31.2220251,60.7492778 33.7981199,57.8906954 L75.2187131,11.9330767 C77.793994,9.07490374 77.5799299,4.65620117 74.7393072,2.06459998 L74.5582073,1.89957939 C73.2286494,0.686289083 71.5592748,0.0884477578 69.8960047,0.0884477578 C68.0044267,0.0880382774 66.1205811,0.860727717 64.7503265,2.38153777"/><linearGradient id="linearGradient-8" x1="-1.822%" x2="99.994%" y1="122.063%" y2="-19.521%"><stop offset="0%" stop-color="#85C7C2"/><stop offset="100%" stop-color="#C6E7E3"/></linearGradient><path id="path-9" d="M2.10992338,2.67170769 C-0.529670429,5.58280973 -0.309878054,10.0829231 2.60164105,12.7229339 L2.78640011,12.8910105 C5.69833627,15.5310213 10.1980325,15.311229 12.8380434,12.4001269 C15.4780543,9.48860781 15.2582619,4.98849449 12.3467428,2.34890067 L12.1619838,2.18040709 C10.7990208,0.944648442 9.08864408,0.33573598 7.38368919,0.33573598 C5.4455959,0.33573598 3.51459268,1.12273448 2.10992338,2.67170769"/><linearGradient id="linearGradient-11" x1="22.213%" x2="101.433%" y1="82.157%" y2="-9.527%"><stop offset="0%" stop-color="#85C7C2"/><stop offset="100%" stop-color="#C6E7E3"/></linearGradient><path id="path-12" d="M32.7418005,1.87069811 L1.62935548,35.9807072 C-0.30570823,38.1021844 -0.144486934,41.3813843 1.98934835,43.3048353 L2.12526403,43.42779 C4.25909931,45.351241 7.55740133,45.1909534 9.49246504,43.0698821 L40.6040937,8.95987296 C42.5395656,6.83839579 42.3783443,3.55919591 40.244509,1.63533913 L40.1085933,1.51279014 C39.1102457,0.612744935 37.856393,0.168809201 36.6066219,0.168809201 C35.1862418,0.168809201 33.7711678,0.742192375 32.7418005,1.87069811"/><linearGradient id="linearGradient-14" x1="28.594%" x2="151.502%" y1="72.949%" y2="-58.818%"><stop offset="0%" stop-color="#F59A40"/><stop offset="100%" stop-color="#F5C43A"/></linearGradient><path id="path-15" d="M32.7756773,1.78264139 L1.66404867,35.8926505 C-0.271423195,38.0137219 -0.110201899,41.2929218 2.02363339,43.2167785 L2.15954906,43.3397333 C4.29338435,45.2631843 7.59168636,45.1028967 9.52675008,42.9818253 L40.6387869,8.87181624 C42.5738506,6.75033907 42.4126293,3.47113919 40.278794,1.54728241 L40.1428783,1.42473342 C39.1441226,0.524688213 37.8902699,0.0807524782 36.6409069,0.0803466869 C35.2205269,0.0803466869 33.8054529,0.654135653 32.7756773,1.78264139"/><linearGradient id="linearGradient-17" x1="5.933%" x2="128.841%" y1="97.243%" y2="-34.523%"><stop offset="0%" stop-color="#F59A40"/><stop offset="100%" stop-color="#F5C43A"/></linearGradient><path id="path-18" d="M9.12267645,2.19555875 L2.09664114,9.9436926 C-0.318597131,12.6070492 -0.11746466,16.7236704 2.54547979,19.1389086 L2.71528835,19.2930552 C5.37864496,21.7082935 9.49567826,21.507161 11.9109165,18.8438044 L18.937364,11.0956706 C21.3526023,8.43231397 21.1514698,4.31486852 18.4881132,1.90045455 L18.3183046,1.74630795 C17.0719428,0.615762113 15.5073959,0.0585262517 13.9469706,0.0585262517 C12.1742847,0.0589384084 10.4073689,0.778976167 9.12267645,2.19555875"/><linearGradient id="linearGradient-20" x1="-151.073%" x2="42.985%" y1="269.417%" y2="57.654%"><stop offset="0%" stop-color="#85C7C2"/><stop offset="100%" stop-color="#C6E7E3"/></linearGradient><linearGradient id="linearGradient-21" x1="-40.318%" x2="78.513%" y1="140.673%" y2="21.374%"><stop offset="0%" stop-color="#ED405C"/><stop offset="100%" stop-color="#F48448"/></linearGradient><path id="path-22" d="M28.1320171,1.8329493 L1.3172079,31.8835152 C-0.350252113,33.7522683 -0.211724666,36.6416054 1.62744097,38.3362058 L1.7444197,38.4443126 C3.58358534,40.1392606 6.42630537,39.9981308 8.09444946,38.1286825 L34.9089166,8.07846419 C36.5763766,6.20901581 36.4375072,3.32037392 34.5986836,1.62542593 L34.4817048,1.51766672 C33.6207824,0.724419939 32.5399263,0.333358312 31.4631747,0.333358312 C30.2386604,0.333010701 29.0192769,0.838436129 28.1320171,1.8329493"/><linearGradient id="linearGradient-24" x1="7.457%" x2="93.156%" y1="106.734%" y2="-7.551%"><stop offset="0%" stop-color="#90CDC8"/><stop offset="100%" stop-color="#C6E7E2"/></linearGradient><path id="path-25" d="M42.1052204,1.69428552 L34.9563348,9.57448343 C36.632924,7.72654694 36.4933229,4.86973888 34.6444672,3.19367148 L34.5268722,3.08676891 C32.6780165,1.41104525 29.820319,1.55060296 28.1440737,3.39888318 L1.18832902,33.1147056 C-0.488604033,34.9629858 -0.349002881,37.8194502 1.49950893,39.4955175 L1.61744783,39.6024201 C3.46630349,41.2784875 6.32400097,41.1389298 8.00024633,39.2906496 L15.1487881,31.4101079 C13.4728866,33.2583882 13.6124877,36.1148525 15.4606557,37.7909199 L15.5785946,37.8978225 C17.4274503,39.5738899 20.2851477,39.4343321 21.9617369,37.5860519 L48.9178254,7.8702295 C49.6966348,7.01157151 50.0834607,5.93532725 50.0889622,4.86080169 L50.0889622,4.81508451 C50.0834607,3.59206404 49.5838536,2.3755746 48.6063017,1.48907382 L48.4883628,1.38217125 C47.6229044,0.598104443 46.5363536,0.211398984 45.4539289,0.211398984 C44.222963,0.211055246 42.9971549,0.710850568 42.1052204,1.69428552"/><path id="path-27" d="M1.17308757,1.62483131 C-0.505801481,3.47622312 -0.366008832,6.33784062 1.48538298,8.01638536 L1.60348366,8.1234679 C3.45453115,9.80235696 6.31649297,9.66256431 7.99503771,7.81082819 C9.67358245,5.96012501 9.5337898,3.09816319 7.68308663,1.41927414 L7.56498594,1.31219159 C6.69834038,0.52680481 5.61064339,0.139448332 4.52638957,0.139448332 C3.29407949,0.139448332 2.06624553,0.639740744 1.17308757,1.62483131"/><path id="path-29" d="M0.000398423807,2.50085705 C0.000398423807,3.80140483 1.20445236,4.85564197 2.69079268,4.85564197 C4.17634449,4.85564197 5.38039842,3.80140483 5.38039842,2.50085705 C5.38039842,1.20030927 4.17634449,0.146072128 2.69079268,0.146072128 C1.20445236,0.146072128 0.000398423807,1.20030927 0.000398423807,2.50085705"/><linearGradient id="linearGradient-31" x1="-.015%" x2="100.015%" y1="50%" y2="50%"><stop offset="0%" stop-color="#F59A40"/><stop offset="100%" stop-color="#F5C43A"/></linearGradient><path id="path-32" d="M0,3.45924047 C0,5.32472396 1.72820539,6.83591402 3.86018651,6.83591402 C5.99103661,6.83591402 7.719242,5.32472396 7.719242,3.45924047 C7.719242,1.59474664 5.99103661,0.0815772743 3.86018651,0.0815772743 C1.72820539,0.0815772743 0,1.59474664 0,3.45924047"/><linearGradient id="linearGradient-34" x1="0%" x2="100%" y1="50.009%" y2="50.009%"><stop offset="0%" stop-color="#F59A40"/><stop offset="100%" stop-color="#F5C43A"/></linearGradient><path id="path-35" d="M0.323520131,2.98044667 C0.323520131,4.46556315 1.52800951,5.67084081 3.01470255,5.67084081 C4.49981903,5.67084081 5.70352013,4.46556315 5.70352013,2.98044667 C5.70352013,1.49454191 4.49981903,0.290052531 3.01470255,0.290052531 C1.52800951,0.290052531 0.323520131,1.49454191 0.323520131,2.98044667"/><linearGradient id="linearGradient-37" x1=".008%" x2="100.008%" y1="49.993%" y2="49.993%"><stop offset="0%" stop-color="#F59A40"/><stop offset="100%" stop-color="#F5C43A"/></linearGradient><path id="path-38" d="M0.167977137,3.11489254 C0.167977137,4.81195936 1.57304157,6.18924979 3.3045444,6.18924979 C5.03788633,6.18924979 6.4438703,4.81195936 6.4438703,3.11489254 C6.4438703,1.41782572 5.03788633,0.0414360759 3.3045444,0.0414360759 C1.57304157,0.0414360759 0.167977137,1.41782572 0.167977137,3.11489254"/><linearGradient id="linearGradient-40" x1="-.007%" x2="99.993%" y1="49.999%" y2="49.999%"><stop offset="0%" stop-color="#F59A40"/><stop offset="100%" stop-color="#F5C43A"/></linearGradient></defs><g id="裝置管理-OTP-1112-2-Copy" fill="none" fill-rule="evenodd" stroke="none" stroke-width="1"><g id="背景飛條"><mask id="mask-2" fill="#fff"><use xlink:href="#path-1"/></mask><g mask="url(#mask-2)"><g transform="translate(177.334185, 88.874916) rotate(20.000000) translate(-177.334185, -88.874916) translate(60.834185, -10.125084)"><g id="Group-3" transform="translate(50.336988, 25.171044)"><mask id="mask-4" fill="#fff"><use xlink:href="#path-3"/></mask><path id="Fill-1" fill="url(#linearGradient-5)" d="M43.2926897,2.4623419 L2.02260981,48.005928 C-0.544579986,50.8383516 -0.330884042,55.2172461 2.4994721,57.7859053 L2.67991744,57.9490334 C5.51067908,60.5180984 9.88597175,60.3042464 12.452756,57.471417 L53.7232414,11.9282367 C56.2900257,9.09540727 56.0759243,4.71691863 53.2455681,2.1482594 L53.0651228,1.98472548 C51.7407756,0.78277151 50.077029,0.189910351 48.4197703,0.189910351 C46.5350289,0.189504559 44.6583973,0.955638624 43.2926897,2.4623419" mask="url(#mask-4)"/></g><g id="Group-6" transform="translate(37.574850, 57.451746)"><mask id="mask-7" fill="#fff"><use xlink:href="#path-6"/></mask><path id="Fill-4" fill="url(#linearGradient-8)" d="M64.7503265,2.38153777 L53.765907,14.5697207 C56.3415949,11.7111383 56.1271238,7.29284521 53.2865011,4.70083453 L53.1054012,4.53581395 C50.2647785,1.94339379 45.8732083,2.15959942 43.2975204,5.01777233 L1.87733419,50.9753911 C-0.6991676,53.833564 -0.484696514,58.2518571 2.35633318,60.8438677 L2.53702609,61.0088883 C5.37805578,63.6013085 9.769219,63.3851028 12.3453138,60.5269299 L23.3297333,48.3391565 C20.7536385,51.1977389 20.9681096,55.616032 23.8091393,58.2076332 L23.9898322,58.3730632 C26.8308619,60.9646644 31.2220251,60.7492778 33.7981199,57.8906954 L75.2187131,11.9330767 C77.793994,9.07490374 77.5799299,4.65620117 74.7393072,2.06459998 L74.5582073,1.89957939 C73.2286494,0.686289083 71.5592748,0.0884477578 69.8960047,0.0884477578 C68.0044267,0.0880382774 66.1205811,0.860727717 64.7503265,2.38153777" mask="url(#mask-7)"/></g><g id="Group-9" transform="translate(35.322708, 129.520289)"><mask id="mask-10" fill="#fff"><use xlink:href="#path-9"/></mask><path id="Fill-7" fill="url(#linearGradient-11)" d="M2.10992338,2.67170769 C-0.529670429,5.58280973 -0.309878054,10.0829231 2.60164105,12.7229339 L2.78640011,12.8910105 C5.69833627,15.5310213 10.1980325,15.311229 12.8380434,12.4001269 C15.4780543,9.48860781 15.2582619,4.98849449 12.3467428,2.34890067 L12.1619838,2.18040709 C10.7990208,0.944648442 9.08864408,0.33573598 7.38368919,0.33573598 C5.4455959,0.33573598 3.51459268,1.12273448 2.10992338,2.67170769" mask="url(#mask-10)"/></g><g id="Group-18" transform="translate(140.422667, 116.758151)"><mask id="mask-13" fill="#fff"><use xlink:href="#path-12"/></mask><path id="Fill-16" fill="url(#linearGradient-14)" d="M32.7418005,1.87069811 L1.62935548,35.9807072 C-0.30570823,38.1021844 -0.144486934,41.3813843 1.98934835,43.3048353 L2.12526403,43.42779 C4.25909931,45.351241 7.55740133,45.1909534 9.49246504,43.0698821 L40.6040937,8.95987296 C42.5395656,6.83839579 42.3783443,3.55919591 40.244509,1.63533913 L40.1085933,1.51279014 C39.1102457,0.612744935 37.856393,0.168809201 36.6066219,0.168809201 C35.1862418,0.168809201 33.7711678,0.742192375 32.7418005,1.87069811" mask="url(#mask-13)"/></g><g id="Group-21" transform="translate(141.924095, 99.491730)"><mask id="mask-16" fill="#fff"><use xlink:href="#path-15"/></mask><path id="Fill-19" fill="url(#linearGradient-17)" d="M32.7756773,1.78264139 L1.66404867,35.8926505 C-0.271423195,38.0137219 -0.110201899,41.2929218 2.02363339,43.2167785 L2.15954906,43.3397333 C4.29338435,45.2631843 7.59168636,45.1028967 9.52675008,42.9818253 L40.6387869,8.87181624 C42.5738506,6.75033907 42.4126293,3.47113919 40.278794,1.54728241 L40.1428783,1.42473342 C39.1441226,0.524688213 37.8902699,0.0807524782 36.6409069,0.0803466869 C35.2205269,0.0803466869 33.8054529,0.654135653 32.7756773,1.78264139" mask="url(#mask-16)"/></g><g id="Group-24" transform="translate(67.603410, 142.282427)"><mask id="mask-19" fill="#fff"><use xlink:href="#path-18"/></mask><path id="Fill-22" fill="url(#linearGradient-20)" d="M9.12267645,2.19555875 L2.09664114,9.9436926 C-0.318597131,12.6070492 -0.11746466,16.7236704 2.54547979,19.1389086 L2.71528835,19.2930552 C5.37864496,21.7082935 9.49567826,21.507161 11.9109165,18.8438044 L18.937364,11.0956706 C21.3526023,8.43231397 21.1514698,4.31486852 18.4881132,1.90045455 L18.3183046,1.74630795 C17.0719428,0.615762113 15.5073959,0.0585262517 13.9469706,0.0585262517 C12.1742847,0.0589384084 10.4073689,0.778976167 9.12267645,2.19555875" mask="url(#mask-19)"/></g><g id="Group-10" transform="translate(205.009995, 37.619445) rotate(178.000000) translate(-205.009995, -37.619445) translate(178.509995, 1.119445)"><g id="Group-3" transform="translate(4.648278, 0.000000)"><mask id="mask-23" fill="#fff"><use xlink:href="#path-22"/></mask><use id="Clip-2" fill="url(#linearGradient-21)" xlink:href="#path-22"/><path id="Fill-1" fill="url(#linearGradient-24)" d="M28.1320171,1.8329493 L1.3172079,31.8835152 C-0.350252113,33.7522683 -0.211724666,36.6416054 1.62744097,38.3362058 L1.7444197,38.4443126 C3.58358534,40.1392606 6.42630537,39.9981308 8.09444946,38.1286825 L34.9089166,8.07846419 C36.5763766,6.20901581 36.4375072,3.32037392 34.5986836,1.62542593 L34.4817048,1.51766672 C33.6207824,0.724419939 32.5399263,0.333358312 31.4631747,0.333358312 C30.2386604,0.333010701 29.0192769,0.838436129 28.1320171,1.8329493" mask="url(#mask-23)"/></g><g id="Group-6" transform="translate(1.859311, 14.874489)"><mask id="mask-26" fill="#fff"><use xlink:href="#path-25"/></mask><path id="Fill-4" fill="url(#linearGradient-24)" d="M34.9563348,9.57448343 C36.632924,7.72654694 36.4933229,4.86973888 34.6444672,3.19367148 L34.5268722,3.08676891 C32.6780165,1.41104525 29.820319,1.55060296 28.1440737,3.39888318 L1.18832902,33.1147056 C-0.488604033,34.9629858 -0.349002881,37.8194502 1.49950893,39.4955175 L1.61744783,39.6024201 C3.46630349,41.2784875 6.32400097,41.1389298 8.00024633,39.2906496 L15.1487881,31.4101079 C13.4728866,33.2583882 13.6124877,36.1148525 15.4606557,37.7909199 L15.5785946,37.8978225 C17.4274503,39.5738899 20.2851477,39.4343321 21.9617369,37.5860519 L48.9178254,7.8702295 C49.6966348,7.01157151 50.0834607,5.93532725 50.0889622,4.86080169 C50.0834607,3.59206404 49.5838536,2.3755746 48.6063017,1.48907382 L48.4883628,1.38217125 C47.6229044,0.598104443 46.5363536,0.211398984 45.4539289,0.211398984 C44.222963,0.211055246 42.9971549,0.710850568 42.1052204,1.69428552 L34.9563348,9.57448343 Z" mask="url(#mask-26)"/></g><g id="Group-9" transform="translate(0.000000, 62.286922)"><mask id="mask-28" fill="#fff"><use xlink:href="#path-27"/></mask><path id="Fill-7" fill="url(#linearGradient-24)" d="M1.17308757,1.62483131 C-0.505801481,3.47622312 -0.366008832,6.33784062 1.48538298,8.01638536 L1.60348366,8.1234679 C3.45453115,9.80235696 6.31649297,9.66256431 7.99503771,7.81082819 C9.67358245,5.96012501 9.5337898,3.09816319 7.68308663,1.41927414 L7.56498594,1.31219159 C6.69834038,0.52680481 5.61064339,0.139448332 4.52638957,0.139448332 C3.29407949,0.139448332 2.06624553,0.639740744 1.17308757,1.62483131" mask="url(#mask-28)"/></g></g><g id="迷你點" transform="translate(0.364505, 48.440459)"><g id="Group-67" transform="translate(190.699832, 62.830958)"><mask id="mask-30" fill="#fff"><use xlink:href="#path-29"/></mask><path id="Fill-65" fill="url(#linearGradient-31)" d="M0.000398423806,2.50085705 C0.000398423806,3.80140483 1.20445236,4.85564197 2.69079268,4.85564197 C4.17634449,4.85564197 5.38039842,3.80140483 5.38039842,2.50085705 C5.38039842,1.20030927 4.17634449,0.146072128 2.69079268,0.146072128 C1.20445236,0.146072128 0.000398423806,1.20030927 0.000398423806,2.50085705" mask="url(#mask-30)"/></g><g id="Group-70"><mask id="mask-33" fill="#fff"><use xlink:href="#path-32"/></mask><path id="Fill-68" fill="url(#linearGradient-34)" d="M0,3.45924047 C0,5.32472396 1.72820539,6.83591402 3.86018651,6.83591402 C5.99103661,6.83591402 7.719242,5.32472396 7.719242,3.45924047 C7.719242,1.59474664 5.99103661,0.0815772743 3.86018651,0.0815772743 C1.72820539,0.0815772743 0,1.59474664 0,3.45924047" mask="url(#mask-33)"/></g><g id="Group-82" fill="#1B417C" transform="translate(40.904844, 5.577933)"><path id="Fill-71" d="M189.195488,73.6091071 C189.195488,75.0966609 187.991611,76.3016978 186.505488,76.3016978 C185.019366,76.3016978 183.815488,75.0966609 183.815488,73.6091071 C183.815488,72.1215534 185.019366,70.9157273 186.505488,70.9157273 C187.991611,70.9157273 189.195488,72.1215534 189.195488,73.6091071"/><path id="Fill-76" d="M142.265379,2.82905691 C142.265379,4.31639272 141.06089,5.52204212 139.574985,5.52204212 C138.08908,5.52204212 136.885379,4.31639272 136.885379,2.82905691 C136.885379,1.3417211 138.08908,0.1360717 139.574985,0.1360717 C141.06089,0.1360717 142.265379,1.3417211 142.265379,2.82905691"/><path id="Fill-78" d="M5.69702583,135.16012 C5.69702583,136.647456 4.49253645,137.852316 3.00663169,137.852316 C1.52072693,137.852316 0.317025832,136.647456 0.317025832,135.16012 C0.317025832,133.672784 1.52072693,132.467135 3.00663169,132.467135 C4.49253645,132.467135 5.69702583,133.672784 5.69702583,135.16012"/><path id="Fill-80" d="M60.3509014,78.0646953 C60.3509014,79.5520311 59.146412,80.7568914 57.6605072,80.7568914 C56.1746025,80.7568914 54.9709014,79.5520311 54.9709014,78.0646953 C54.9709014,76.5773594 56.1746025,75.37171 57.6605072,75.37171 C59.146412,75.37171 60.3509014,76.5773594 60.3509014,78.0646953"/></g><g id="Group-85" transform="translate(82.739344, 31.608289)"><mask id="mask-36" fill="#fff"><use xlink:href="#path-35"/></mask><path id="Fill-83" fill="url(#linearGradient-37)" d="M0.323520131,1.47989543 C0.323520131,2.13669707 0.85621276,2.66973832 1.51371165,2.66973832 C2.17051329,2.66973832 2.7028573,2.13669707 2.7028573,1.47989543 C2.7028573,0.82274516 2.17051329,0.290052531 1.51371165,0.290052531 C0.85621276,0.290052531 0.323520131,0.82274516 0.323520131,1.47989543" mask="url(#mask-36)"/></g><g id="Group-90" fill="#1B417C" transform="translate(43.693811, 4.648278)"><path id="Fill-86" d="M5.44908669,2.13119142 C5.44908669,3.30553551 4.24459731,4.25747066 2.75869255,4.25747066 C1.27357607,4.25747066 0.069086688,3.30553551 0.069086688,2.13119142 C0.069086688,0.956847333 1.27357607,0.00491217996 2.75869255,0.00491217996 C4.24459731,0.00491217996 5.44908669,0.956847333 5.44908669,2.13119142"/><path id="Fill-88" d="M5.44908669,58.3893809 C5.44908669,59.563725 4.24459731,60.5156601 2.75869255,60.5156601 C1.27357607,60.5156601 0.069086688,59.563725 0.069086688,58.3893809 C0.069086688,57.2150368 1.27357607,56.2631016 2.75869255,56.2631016 C4.24459731,56.2631016 5.44908669,57.2150368 5.44908669,58.3893809"/></g><g id="Group-93" transform="translate(22.311733, 91.106244)"><mask id="mask-39" fill="#fff"><use xlink:href="#path-38"/></mask><path id="Fill-91" fill="url(#linearGradient-40)" d="M0.167977137,3.54092326 C0.167977137,5.47323095 1.73515662,7.04143608 3.66643868,7.04143608 C5.59977201,7.04143608 7.16797714,5.47323095 7.16797714,3.54092326 C7.16797714,1.60861556 5.59977201,0.0414360759 3.66643868,0.0414360759 C1.73515662,0.0414360759 0.167977137,1.60861556 0.167977137,3.54092326" mask="url(#mask-39)"/></g></g></g></g></g></g></svg>