<?xml version="1.0" encoding="utf-8"?>
<!-- Generator: Adobe Illustrator 23.0.1, SVG Export Plug-In . SVG Version: 6.00 Build 0)  -->
<svg version="1.1" id="圖層_1" xmlns="http://www.w3.org/2000/svg" xmlns:xlink="http://www.w3.org/1999/xlink" x="0px" y="0px"
	 viewBox="0 0 201.5 80.4" style="enable-background:new 0 0 201.5 80.4;" xml:space="preserve">
<style type="text/css">
	.st0{opacity:0.798;clip-path:url(#SVGID_2_);}
	.st1{filter:url(#filter-3);}
	.st2{fill:url(#SVGID_3_);}
	.st3{fill:url(#Oval_1_);}
	.st4{fill:#A6B5BC;}
	.st5{fill:#F4F4F4;}
	.st6{opacity:0.7;}
	.st7{fill:#737B87;}
	.st8{filter:url(#filter-6);}
	.st9{fill:#FFFFFF;}
</style>
<filter  filterUnits="objectBoundingBox" height="2109.0%" id="filter-6" width="124.5%" x="-12.2%" y="-1045.5%">
	<feOffset  dx="0" dy="-1" in="SourceAlpha" result="shadowOffsetOuter1"></feOffset>
	<feGaussianBlur  in="shadowOffsetOuter1" result="shadowBlurOuter1" stdDeviation="8"></feGaussianBlur>
	<feColorMatrix  in="shadowBlurOuter1" type="matrix" values="0 0 0 0 0   0 0 0 0 0   0 0 0 0 0  0 0 0 0.197209013 0">
		</feColorMatrix>
</filter>
<filter  filterUnits="objectBoundingBox" height="283.4%" id="filter-3" width="283.4%" x="-91.7%" y="-85.8%">
	<feMorphology  in="SourceAlpha" operator="dilate" radius="12.5" result="shadowSpreadOuter1"></feMorphology>
	<feOffset  dx="0" dy="4" in="shadowSpreadOuter1" result="shadowOffsetOuter1"></feOffset>
	<feGaussianBlur  in="shadowOffsetOuter1" result="shadowBlurOuter1" stdDeviation="7.5"></feGaussianBlur>
	<feColorMatrix  in="shadowBlurOuter1" type="matrix" values="0 0 0 0 1   0 0 0 0 1   0 0 0 0 1  0 0 0 1 0"></feColorMatrix>
</filter>
<title>Group 2</title>
<desc>Created with Sketch.</desc>
<g>
	<defs>
		<rect id="SVGID_1_" x="0.8" width="199.8" height="79.6"/>
	</defs>
	<clipPath id="SVGID_2_">
		<use xlink:href="#SVGID_1_"  style="overflow:visible;"/>
	</clipPath>
	<g id="查無結果-final" class="st0">
		<g id="查無結果-1" transform="translate(-74.000000, -311.000000)">
			<g id="Group-3" transform="translate(88.000000, 311.000000)">
				<g id="Group-2">
					<g id="plant404-01" transform="translate(31.000000, 0.048780)">
						<g id="Group">
							<g transform="translate(27.376470, 32.036340)">
								<g id="光暈">
									<g class="st1">
										<circle id="path-2_1_" cx="23.5" cy="36.8" r="33.8"/>
									</g>
									<g>
										
											<radialGradient id="SVGID_3_" cx="-588.5679" cy="520.5533" r="0.5" gradientTransform="matrix(67.6226 0 0 -67.6226 39823.9844 35237.9922)" gradientUnits="userSpaceOnUse">
											<stop  offset="0" style="stop-color:#FFFFFF"/>
											<stop  offset="1" style="stop-color:#FFFFFF;stop-opacity:0.4387"/>
										</radialGradient>
										<circle class="st2" cx="23.5" cy="36.8" r="33.8"/>
									</g>
								</g>
								
									<linearGradient id="Oval_1_" gradientUnits="userSpaceOnUse" x1="-589.8668" y1="521.2266" x2="-588.8696" y2="521.2362" gradientTransform="matrix(75.3765 0 0 -75.0415 44447.7344 39151.9258)">
									<stop  offset="0" style="stop-color:#C4D1D8"/>
									<stop  offset="0.54" style="stop-color:#8AA0AC"/>
									<stop  offset="1" style="stop-color:#4D6A78;stop-opacity:0"/>
								</linearGradient>
								<ellipse id="Oval" class="st3" cx="24.9" cy="37.9" rx="37.7" ry="37.5"/>
								<ellipse class="st4" cx="21.9" cy="35.9" rx="34.8" ry="34.7"/>
								<path id="Shape" class="st5" d="M9.5,18.9c-2.1,0-4-1.3-4.8-3.2c-0.8-1.9-0.4-4.2,1.1-5.6S9.6,8.2,11.5,9s3.2,2.7,3.2,4.8
									C14.7,16.6,12.4,18.9,9.5,18.9z M9.5,10.6c-1.3,0-2.4,0.8-2.9,1.9c-0.5,1.2-0.2,2.5,0.7,3.4c0.9,0.9,2.2,1.2,3.4,0.7
									c1.2-0.5,1.9-1.6,1.9-2.9C12.6,12,11.2,10.6,9.5,10.6z"/>
								<path class="st5" d="M15.4,20C9,24.6,2.1,20.7,1.3,14.9c0-0.3,0-0.6,0.2-0.8s0.4-0.3,0.7-0.3h0.1c0.5,0,0.9,0.4,1,0.8
									c0.6,4.4,5.8,7.4,10.6,3.8c0.1-0.1,0.2-0.1,0.2-0.2c3.6-4.8,0.6-10-3.8-10.6c-0.5-0.1-0.8-0.5-0.8-1V6.5
									c0-0.3,0.1-0.5,0.3-0.7c0.2-0.2,0.5-0.3,0.8-0.2c5.9,0.8,9.8,7.7,5.1,14.1C15.6,19.8,15.5,19.9,15.4,20z"/>
								<path class="st5" d="M-0.4,47C-3,44-2.6,39.4,0.5,36.8c3.1-2.6,7.7-2.2,10.3,0.9c2.6,3.1,2.2,7.6-0.9,10.2
									C6.8,50.5,2.2,50.1-0.4,47z M9.2,39c-1.4-1.6-3.5-2.2-5.6-1.6S0.2,39.8,0,41.9C-0.2,44,0.9,46,2.8,47c1.9,1,4.1,0.7,5.8-0.6
									C10.8,44.5,11.1,41.2,9.2,39z"/>
								<path class="st5" d="M40.3,25.2c-1.3-1-2-2.7-1.5-4.4s1.8-2.8,3.5-3.1s3.3,0.6,4.2,2c0.9,1.4,0.8,3.3-0.3,4.6
									c-0.7,0.9-1.7,1.5-2.7,1.6S41.1,25.9,40.3,25.2z M44,20.2c-0.7-0.5-1.6-0.6-2.3-0.1c-0.7,0.4-1.1,1.2-1,2.1s0.7,1.5,1.5,1.7
									c0.8,0.2,1.7-0.1,2.2-0.8C45.1,22.2,44.9,20.9,44,20.2z"/>
								<path class="st5" d="M38.6,55.1c-1.8,0-3.4-1.2-4-2.9c-0.1-0.3,0-0.6,0.1-0.9s0.5-0.4,0.8-0.4h0.1c0.4,0,0.8,0.3,1,0.7
									c0.3,0.8,1.1,1.4,2,1.4c0.9,0,1.7-0.5,2-1.4c0.1-0.4,0.5-0.7,1-0.7h0.1c0.3,0,0.6,0.1,0.8,0.4s0.2,0.6,0.1,0.9
									C42,54,40.4,55.1,38.6,55.1z"/>
								<path class="st5" d="M30.8,34.2c1.4,2.5,0.5,5.6-2,7.1c-2.5,1.4-5.7,0.5-7.1-2c-1.4-2.5-0.5-5.6,2-7.1
									c1.2-0.7,2.6-0.8,4-0.5C29,32.1,30.2,33,30.8,34.2z M23.6,38.3c0.6,1.1,1.8,1.7,3.1,1.6c1.3-0.2,2.3-1,2.6-2.3
									c0.3-1.2-0.1-2.5-1.1-3.3c-1-0.8-2.4-0.9-3.5-0.3C23.3,34.9,22.7,36.8,23.6,38.3z"/>
								<path class="st5" d="M-3.6,49.7c-2.1-2.5-3-5.7-2.6-8.9c0-0.3,0.2-0.5,0.4-0.7C-5.5,40-5.2,40-4.9,40l0.1,0
									c0.5,0.1,0.8,0.6,0.7,1.1c-0.5,3.7,1.2,7.3,4.4,9.2c3.2,1.9,7.2,1.8,10.2-0.3c0.4-0.3,1-0.2,1.3,0.2l0.1,0.1
									c0.2,0.2,0.3,0.5,0.2,0.8c0,0.3-0.2,0.5-0.4,0.7C6.9,55.1,0.3,54.2-3.6,49.7z"/>
								<path class="st5" d="M20,61.3c-0.1-0.1-0.2-0.1-0.2-0.2c-2.1-2.9-0.6-6,1.9-6.9c0.3-0.1,0.6,0,0.9,0.1
									c0.3,0.2,0.4,0.5,0.4,0.8v0.1c0,0.4-0.3,0.8-0.7,0.9c-0.7,0.2-1.1,0.8-1.3,1.4c-0.2,0.7,0,1.4,0.4,1.9
									c0.1,0.1,0.1,0.2,0.2,0.2c0.5,0.4,1.3,0.6,1.9,0.4c0.7-0.2,1.2-0.7,1.4-1.3c0.1-0.4,0.5-0.7,1-0.7H26c0.3,0,0.6,0.1,0.8,0.4
									s0.2,0.6,0.1,0.9C26.1,62,22.9,63.5,20,61.3z"/>
								<path class="st5" d="M-2.1,30.2c-1.7,0-3.2-1-3.9-2.6c-0.6-1.6-0.3-3.3,0.9-4.5c1.2-1.2,3-1.5,4.5-0.9s2.6,2.2,2.6,3.8
									C2.1,28.4,0.2,30.2-2.1,30.2z M-2.1,24c-0.8,0-1.6,0.5-1.9,1.3c-0.3,0.8-0.1,1.7,0.4,2.3c0.6,0.6,1.5,0.8,2.3,0.5
									S0,26.9,0,26.1c0-0.6-0.2-1.1-0.6-1.5S-1.5,24-2.1,24L-2.1,24z"/>
								<path class="st5" d="M33.1,17.8c-2.9,2.1-6.1,0.6-6.9-1.9c-0.1-0.3,0-0.6,0.1-0.9c0.2-0.3,0.5-0.4,0.8-0.4h0.1
									c0.4,0,0.8,0.3,1,0.7c0.2,0.6,0.8,1.1,1.4,1.3s1.4,0,1.9-0.4c0.1-0.1,0.2-0.1,0.2-0.2c0.4-0.5,0.6-1.2,0.4-1.9
									s-0.7-1.2-1.3-1.4c-0.4-0.1-0.7-0.5-0.7-0.9v-0.1c0-0.3,0.1-0.6,0.4-0.8c0.3-0.2,0.6-0.2,0.9-0.1c2.5,0.8,4,3.9,1.9,6.9
									C33.3,17.6,33.3,17.7,33.1,17.8z"/>
								<path class="st5" d="M32.6,33.2L32.6,33.2c-0.5,0.3-1,0.2-1.4-0.2c-1.9-2.5-5.3-3.2-8.1-1.7c-2.7,1.5-3.9,4.8-2.7,7.7
									c0.2,0.5,0,1-0.5,1.2l-0.1,0c-0.2,0.1-0.5,0.2-0.8,0.1c-0.3-0.1-0.5-0.3-0.6-0.6c-1.6-3.9,0-8.3,3.7-10.3
									c3.6-2,8.3-1.1,10.8,2.3c0.2,0.2,0.2,0.5,0.2,0.8C33.1,32.8,32.9,33.1,32.6,33.2z"/>
								<path class="st5" d="M44.8,43.7c-2.9,0-5.2-2.3-5.2-5.2c0-2.9,2.3-5.2,5.2-5.2c2.9,0,5.2,2.3,5.2,5.2
									C50,41.4,47.7,43.7,44.8,43.7z M44.8,35.4c-1.3,0-2.4,0.8-2.9,1.9c-0.5,1.2-0.2,2.5,0.7,3.4c0.9,0.9,2.2,1.2,3.4,0.7
									s1.9-1.6,1.9-2.9c0-0.8-0.3-1.6-0.9-2.2C46.4,35.7,45.6,35.4,44.8,35.4L44.8,35.4z"/>
								<path class="st5" d="M10.4,33.3c-1.8,0-3.4-1.2-4-2.9c-0.1-0.3,0-0.6,0.2-0.9c0.2-0.2,0.5-0.4,0.8-0.4h0.1
									c0.4,0,0.8,0.3,1,0.7c0.3,0.8,1.1,1.4,2,1.4c0.9,0,1.7-0.6,2-1.4c0.1-0.4,0.5-0.7,1-0.7h0.1c0.3,0,0.6,0.1,0.8,0.4
									c0.2,0.2,0.2,0.6,0.2,0.9C13.9,32.2,12.3,33.3,10.4,33.3z"/>
								<path class="st5" d="M43.7,29.3c-6.9,0-9.8-6.3-7.3-10.8c0.1-0.3,0.4-0.4,0.7-0.5c0.3-0.1,0.6,0,0.8,0.2l0.1,0.1
									c0.4,0.3,0.5,0.8,0.3,1.2c-1.7,3.2,0.3,7.7,5.2,7.7c0.1,0,0.2,0,0.3,0c4.7-1.4,5.4-6.3,2.8-8.9c-0.3-0.3-0.4-0.9-0.1-1.3
									l0.1-0.1c0.2-0.2,0.4-0.4,0.7-0.4c0.3,0,0.6,0.1,0.8,0.3c3.6,3.7,2.6,10.5-4,12.4C43.9,29.3,43.8,29.3,43.7,29.3z"/>
								<path class="st5" d="M24,11.5c-1.3,0-2.4-0.8-2.9-1.9s-0.2-2.5,0.7-3.4s2.2-1.2,3.4-0.7s1.9,1.6,1.9,2.9
									C27.1,10.2,25.7,11.5,24,11.5z M24,7.4c-0.6,0-1,0.5-1,1c0,0.6,0.5,1,1,1s1-0.5,1-1C25,7.9,24.5,7.4,24,7.4z"/>
							</g>
						</g>
						<g transform="translate(2.000000, 31.000000)" class="st6">
							<polygon class="st7" points="2.6,24.1 0.1,24.1 0.1,21.6 -2.5,21.6 -2.5,24.1 -5.1,24.1 -5.1,26.6 -2.5,26.6 -2.5,29.2 
								0.1,29.2 0.1,26.6 2.6,26.6 							"/>
							<polygon id="Shape-Copy" class="st7" points="77.8,23.8 77,23.8 77,23 76.2,23 76.2,23.8 75.4,23.8 75.4,24.6 76.2,24.6 
								76.2,25.4 77,25.4 77,24.6 77.8,24.6 							"/>
							<polygon id="Shape-Copy-3" class="st7" points="-10.4,19.5 -11.2,19.5 -11.2,18.7 -12,18.7 -12,19.5 -12.8,19.5 -12.8,20.3 
								-12,20.3 -12,21.1 -11.2,21.1 -11.2,20.3 -10.4,20.3 							"/>
							<rect id="Rectangle-path" x="20.5" y="0.1" class="st7" width="4.3" height="4.3"/>
							<polygon id="Shape-Copy-2" class="st7" points="91.9,16.8 90.4,16.8 90.4,18.3 88.9,18.3 88.9,19.8 90.4,19.8 90.4,21.3 
								91.9,21.3 91.9,19.8 93.4,19.8 93.4,18.3 91.9,18.3 							"/>
							<polygon id="Shape-Copy-4" class="st7" points="32.1,14.4 30.6,14.4 30.6,15.9 29.1,15.9 29.1,17.4 30.6,17.4 30.6,19 
								32.1,19 32.1,17.4 33.6,17.4 33.6,15.9 32.1,15.9 							"/>
							<rect id="Rectangle-path-2" x="79.3" y="36.3" class="st7" width="2.9" height="2.9"/>
							<polygon id="Shape-2" class="st7" points="15.3,43 13.1,43 13.1,45.2 10.8,45.2 10.8,47.4 13.1,47.4 13.1,49.6 15.3,49.6 
								15.3,47.4 17.6,47.4 17.6,45.2 15.3,45.2 							"/>
						</g>
						<g id="flag" transform="translate(68.000000, 3.000000)">
							<path class="st5" d="M9.5,11.3l4.9,6.9l0.1,0.1c0.1,0.1,0.1,0.2,0.1,0.3c-0.1,0.2-0.4,0.2-0.6,0.2l-18.1-2.4l1.5-12
								c0.1-0.5,0-1-0.1-1.5l18.5,2.5c0.2,0,0.4,0.1,0.5,0.3c0,0.1,0,0.2-0.1,0.3L9.5,11.3z"/>
							<path class="st5" d="M-5.6,2.5c-0.4-0.1-0.8,0-1.1,0.2c-0.3,0.2-0.5,0.6-0.6,1L-11,31.5c1,0.2,2,0.4,2.9,0.7l3.8-28.1
								C-4.3,3.3-4.8,2.5-5.6,2.5z"/>
							<path class="st4" d="M18,5c-0.3-0.9-1.1-1.6-2.1-1.7L-5.5,0.5l-0.3,0c-1.7-0.1-3.2,1.2-3.4,2.9L-12.6,31
								c0.6,0.1,1.3,0.2,1.9,0.4l3.5-27.8c0-0.4,0.2-0.7,0.5-1c0.3-0.2,0.7-0.3,1-0.3C-4.9,2.5-4.4,3.2-4.5,4L-8,32.1
								c0.6,0.2,1.2,0.4,1.8,0.6l1.8-14.6l18.1,2.4c0.1,0,0.2,0,0.3,0c0.8,0,1.6-0.4,2.1-1.1c0.5-0.8,0.4-1.9-0.2-2.6l-3.8-5.3
								l5-4.1C18,6.9,18.3,5.9,18,5z M16.1,5.9l-6.5,5.4l4.9,6.9l0.1,0.1c0.1,0.1,0.1,0.2,0.1,0.3c-0.1,0.2-0.4,0.2-0.6,0.2
								l-18.1-2.4l1.5-12c0.1-0.5,0-1-0.1-1.5l18.5,2.5c0.2,0,0.4,0.1,0.5,0.3C16.2,5.7,16.2,5.9,16.1,5.9z"/>
							<g transform="translate(14.000000, 5.000000)">
								<path class="st4" d="M-7.2,1.5c-0.6-0.6-1.3-1-2.2-1.1c-0.9-0.2-1.7,0-2.5,0.5c-0.4,0.3-0.7,0.7-0.9,1.1
									c-0.1,0.2-0.1,0.5,0,0.8c0.2,0.3,0.5,0.5,0.8,0.4s0.6-0.2,0.7-0.5c0.1-0.2,0.3-0.4,0.5-0.5C-10.5,2-10.1,2-9.7,2
									c0.4,0,0.8,0.2,1.1,0.5c0.2,0.3,0.3,0.7,0.2,1.1c0,0.2-0.1,0.4-0.3,0.5c-0.2,0.2-0.5,0.4-0.9,0.6c-0.5,0.2-0.9,0.5-1.2,0.8
									c-0.3,0.3-0.5,0.8-0.5,1.3l-0.1,0.9l1.7,0.2l0.1-0.7c0-0.3,0.1-0.5,0.3-0.7C-9.1,6.3-8.8,6.1-8.5,6C-8,5.8-7.6,5.5-7.2,5.1
									c0.4-0.4,0.6-0.9,0.6-1.5C-6.5,2.9-6.7,2.1-7.2,1.5z"/>
								<path class="st4" d="M-10.6,8.6c-0.3-0.1-0.7,0-1,0.2C-11.8,9-12,9.3-12,9.7c0,0.3,0,0.7,0.3,0.9c0.2,0.3,0.5,0.5,0.9,0.5
									h0.2c0.6,0,1.1-0.5,1.2-1.1c0.1-0.3,0-0.7-0.2-1C-9.9,8.8-10.2,8.6-10.6,8.6z"/>
							</g>
						</g>
					</g>
					<g>
						<g class="st8">
							<path id="path-5_1_" d="M185.4,78H-11.9c-0.4-0.1-0.9,0.1-1.2,0.5c-0.3,0.4-0.3,1,0,1.4c0.3,0.4,0.7,0.6,1.2,0.5h197.3
								c0.4,0.1,0.9-0.1,1.2-0.5c0.3-0.4,0.3-1,0-1.4C186.3,78.1,185.8,77.9,185.4,78z"/>
						</g>
						<g>
							<path class="st9" d="M185.4,78H-11.9c-0.4-0.1-0.9,0.1-1.2,0.5c-0.3,0.4-0.3,1,0,1.4c0.3,0.4,0.7,0.6,1.2,0.5h197.3
								c0.4,0.1,0.9-0.1,1.2-0.5c0.3-0.4,0.3-1,0-1.4C186.3,78.1,185.8,77.9,185.4,78z"/>
						</g>
					</g>
				</g>
			</g>
		</g>
	</g>
</g>
</svg>
