<?xml version="1.0" encoding="utf-8"?>
<!-- Generator: Adobe Illustrator 23.0.1, SVG Export Plug-In . SVG Version: 6.00 Build 0)  -->
<svg version="1.1" xmlns="http://www.w3.org/2000/svg" xmlns:xlink="http://www.w3.org/1999/xlink" x="0px" y="0px"
	 viewBox="0 0 85 64" style="enable-background:new 0 0 85 64;" xml:space="preserve">
<style type="text/css">
	.st0{display:none;}
	.st1{display:inline;}
	.st2{fill:#354047;}
	.st3{display:inline;fill:#354047;}
</style>
<g id="圖層_1" class="st0">
	<g class="st1">
		<g>
			<path class="st2" d="M72.57,20.05L43.4-6.93c-0.65-0.6-1.66-0.6-2.31,0L11.93,20.05C10.8,21.1,11.54,23,13.09,23h10.03
				c0.35,0,0.63,0.28,0.63,0.63V59.3c0,0.94,0.76,1.7,1.7,1.7h33.6c0.94,0,1.7-0.76,1.7-1.7V23.63c0-0.35,0.28-0.63,0.63-0.63h10.03
				C72.96,23,73.7,21.1,72.57,20.05z"/>
		</g>
		<path class="st2" d="M58.25,71h-32c-1.1,0-2-0.9-2-2s0.9-2,2-2h32c1.1,0,2,0.9,2,2S59.35,71,58.25,71z"/>
	</g>
</g>
<g id="圖層_2" class="st0">
	<path class="st3" d="M72.82,25.05L43.65-1.93c-0.65-0.6-1.66-0.6-2.31,0L12.18,25.05C11.05,26.1,11.79,28,13.34,28h10.03
		c0.35,0,0.63,0.28,0.63,0.63V64.3c0,0.94,0.76,1.7,1.7,1.7h33.6c0.94,0,1.7-0.76,1.7-1.7V28.63c0-0.35,0.28-0.63,0.63-0.63h10.03
		C73.21,28,73.95,26.1,72.82,25.05z"/>
</g>
<g id="圖層_3" class="st0">
	<path class="st3" d="M42.5,1.09L68.34,25h-6.71c-2,0-3.63,1.63-3.63,3.63V63H27V28.63c0-2-1.63-3.63-3.63-3.63h-6.71L42.5,1.09
		 M42.5-2.38c-0.41,0-0.83,0.15-1.15,0.45L12.18,25.05C11.05,26.1,11.79,28,13.34,28h10.03c0.35,0,0.63,0.28,0.63,0.63V64.3
		c0,0.94,0.76,1.7,1.7,1.7h33.6c0.94,0,1.7-0.76,1.7-1.7V28.63c0-0.35,0.28-0.63,0.63-0.63h10.03c1.55,0,2.29-1.9,1.15-2.95
		L43.65-1.93C43.33-2.23,42.91-2.38,42.5-2.38L42.5-2.38z"/>
</g>
<g id="圖層_4">
	<g>
		<path class="st2" d="M69.83,2H34.12c-3.61,0-7.1,1.39-9.58,3.83L3.18,26.81C1.77,28.19,1,30.03,1,32s0.77,3.81,2.18,5.19
			l21.36,20.98c2.48,2.43,5.97,3.83,9.58,3.83h35.71C77.09,62,83,56.52,83,49.79V14.21C83,7.48,77.09,2,69.83,2z M79,49.79
			c0,4.53-4.11,8.21-9.17,8.21H34.12c-2.57,0-5.04-0.98-6.78-2.68L5.98,34.34C5.35,33.72,5,32.89,5,32s0.35-1.72,0.98-2.34
			L27.35,8.68C29.08,6.98,31.55,6,34.12,6h35.71C74.89,6,79,9.69,79,14.21V49.79z"/>
		<path class="st2" d="M58.41,21.59c-0.78-0.78-2.05-0.78-2.83,0L48,29.17l-7.59-7.59c-0.78-0.78-2.05-0.78-2.83,0
			s-0.78,2.05,0,2.83L45.17,32l-7.59,7.59c-0.78,0.78-0.78,2.05,0,2.83C37.98,42.8,38.49,43,39,43s1.02-0.2,1.41-0.59L48,34.83
			l7.59,7.59C55.98,42.8,56.49,43,57,43s1.02-0.2,1.41-0.59c0.78-0.78,0.78-2.05,0-2.83L50.83,32l7.59-7.59
			C59.2,23.63,59.2,22.37,58.41,21.59z"/>
	</g>
</g>
</svg>
