<?xml version="1.0" encoding="utf-8"?>
<!-- Generator: Adobe Illustrator 23.0.1, SVG Export Plug-In . SVG Version: 6.00 Build 0)  -->
<svg version="1.1" xmlns="http://www.w3.org/2000/svg" xmlns:xlink="http://www.w3.org/1999/xlink" x="0px" y="0px"
	 viewBox="0 0 64 72" style="enable-background:new 0 0 64 72;" xml:space="preserve">
<style type="text/css">
	.st0{display:none;}
	.st1{display:inline;}
	.st2{fill:#354047;}
	.st3{display:inline;fill:#354047;}
</style>
<g id="圖層_1" class="st0">
	<g class="st1">
		<g>
			<path class="st2" d="M62.57,24.05L33.4-2.93c-0.65-0.6-1.66-0.6-2.31,0L1.93,24.05C0.8,25.1,1.54,27,3.09,27h10.03
				c0.35,0,0.63,0.28,0.63,0.63V63.3c0,0.94,0.76,1.7,1.7,1.7h33.6c0.94,0,1.7-0.76,1.7-1.7V27.63c0-0.35,0.28-0.63,0.63-0.63h10.03
				C62.96,27,63.7,25.1,62.57,24.05z"/>
		</g>
		<path class="st2" d="M48.25,75h-32c-1.1,0-2-0.9-2-2s0.9-2,2-2h32c1.1,0,2,0.9,2,2S49.35,75,48.25,75z"/>
	</g>
</g>
<g id="圖層_2" class="st0">
	<path class="st3" d="M62.82,29.05L33.65,2.07c-0.65-0.6-1.66-0.6-2.31,0L2.18,29.05C1.05,30.1,1.79,32,3.34,32h10.03
		c0.35,0,0.63,0.28,0.63,0.63V68.3c0,0.94,0.76,1.7,1.7,1.7h33.6c0.94,0,1.7-0.76,1.7-1.7V32.63c0-0.35,0.28-0.63,0.63-0.63h10.03
		C63.21,32,63.95,30.1,62.82,29.05z"/>
</g>
<g id="圖層_3">
	<path class="st2" d="M32.5,5.09L58.34,29h-6.71c-2,0-3.63,1.63-3.63,3.63V67H17V32.63c0-2-1.63-3.63-3.63-3.63H6.66L32.5,5.09
		 M32.5,1.62c-0.41,0-0.83,0.15-1.15,0.45L2.18,29.05C1.05,30.1,1.79,32,3.34,32h10.03c0.35,0,0.63,0.28,0.63,0.63V68.3
		c0,0.94,0.76,1.7,1.7,1.7h33.6c0.94,0,1.7-0.76,1.7-1.7V32.63c0-0.35,0.28-0.63,0.63-0.63h10.03c1.55,0,2.29-1.9,1.15-2.95
		L33.65,2.07C33.33,1.77,32.91,1.62,32.5,1.62L32.5,1.62z"/>
</g>
</svg>
