<?xml version="1.0" encoding="utf-8"?>
<!-- Generator: Adobe Illustrator 23.0.1, SVG Export Plug-In . SVG Version: 6.00 Build 0)  -->
<svg version="1.1" xmlns="http://www.w3.org/2000/svg" xmlns:xlink="http://www.w3.org/1999/xlink" x="0px" y="0px"
	 viewBox="0 0 64 82" style="enable-background:new 0 0 64 82;" xml:space="preserve">
<style type="text/css">
	.st0{fill:#354047;}
	.st1{display:none;}
	.st2{display:inline;fill:#354047;}
</style>
<g id="圖層_1">
	<g>
		<g>
			<path class="st0" d="M62.57,29.05L33.4,2.07c-0.65-0.6-1.66-0.6-2.31,0L1.93,29.05C0.8,30.1,1.54,32,3.09,32h10.03
				c0.35,0,0.63,0.28,0.63,0.63V68.3c0,0.94,0.76,1.7,1.7,1.7h33.6c0.94,0,1.7-0.76,1.7-1.7V32.63c0-0.35,0.28-0.63,0.63-0.63h10.03
				C62.96,32,63.7,30.1,62.57,29.05z"/>
		</g>
		<path class="st0" d="M48.25,80h-32c-1.1,0-2-0.9-2-2s0.9-2,2-2h32c1.1,0,2,0.9,2,2S49.35,80,48.25,80z"/>
	</g>
</g>
<g id="圖層_2" class="st1">
	<path class="st2" d="M62.82,34.05L33.65,7.07c-0.65-0.6-1.66-0.6-2.31,0L2.18,34.05C1.05,35.1,1.79,37,3.34,37h10.03
		c0.35,0,0.63,0.28,0.63,0.63V73.3c0,0.94,0.76,1.7,1.7,1.7h33.6c0.94,0,1.7-0.76,1.7-1.7V37.63c0-0.35,0.28-0.63,0.63-0.63h10.03
		C63.21,37,63.95,35.1,62.82,34.05z"/>
</g>
</svg>
