<?xml version="1.0" encoding="UTF-8"?>
<svg width="20px" height="23px" viewBox="0 0 20 23" version="1.1" xmlns="http://www.w3.org/2000/svg" xmlns:xlink="http://www.w3.org/1999/xlink">
    <!-- Generator: Sketch 51.1 (57501) - http://www.bohemiancoding.com/sketch -->
    <title>Mask Copy 2</title>
    <desc>Created with Sketch.</desc>
    <defs></defs>
    <g id="裝置管理0810" stroke="none" stroke-width="1" fill="none" fill-rule="evenodd">
        <g id="裝置管理0810-1" transform="translate(-330.000000, -459.000000)" fill="#3D4953">
            <g id="Group-9" transform="translate(0.000000, 284.000000)">
                <g id="Group" transform="translate(0.000000, 46.000000)">
                    <g id="Group-7" transform="translate(0.000000, 14.000000)">
                        <g id="Group-6" transform="translate(330.000000, 39.000000)">
                            <path d="M8.57142857,84.3928571 L8.57142857,94.0357143 C8.57142857,94.3315625 8.3315625,94.5714286 8.03571429,94.5714286 L6.96428571,94.5714286 C6.6684375,94.5714286 6.42857143,94.3315625 6.42857143,94.0357143 L6.42857143,84.3928571 C6.42857143,84.0970089 6.6684375,83.8571429 6.96428571,83.8571429 L8.03571429,83.8571429 C8.3315625,83.8571429 8.57142857,84.0970089 8.57142857,84.3928571 Z M13.0357143,83.8571429 L11.9642857,83.8571429 C11.6684375,83.8571429 11.4285714,84.0970089 11.4285714,84.3928571 L11.4285714,94.0357143 C11.4285714,94.3315625 11.6684375,94.5714286 11.9642857,94.5714286 L13.0357143,94.5714286 C13.3315625,94.5714286 13.5714286,94.3315625 13.5714286,94.0357143 L13.5714286,84.3928571 C13.5714286,84.0970089 13.3315625,83.8571429 13.0357143,83.8571429 Z M18.9285714,79.5714286 C19.5203125,79.5714286 20,80.0511161 20,80.6428571 L20,81.1785714 C20,81.4744196 19.7601339,81.7142857 19.4642857,81.7142857 L18.5714286,81.7142857 L18.5714286,96.7142857 C18.5714286,97.8977679 17.6120536,98.8571429 16.4285714,98.8571429 L3.57142857,98.8571429 C2.38794643,98.8571429 1.42857143,97.8977679 1.42857143,96.7142857 L1.42857143,81.7142857 L0.535714286,81.7142857 C0.239866071,81.7142857 0,81.4744196 0,81.1785714 L0,80.6428571 C0,80.0511161 0.4796875,79.5714286 1.07142857,79.5714286 L4.39334821,79.5714286 L5.91200893,77.0403571 C6.29927806,76.3949158 6.99679925,75.9999928 7.74950893,76 L12.2505357,76 C13.0032454,75.9999928 13.7007666,76.3949158 14.0880357,77.0403571 L15.6066518,79.5714286 L18.9285714,79.5714286 Z M6.89236607,79.5714286 L13.1076786,79.5714286 L12.3285714,78.2729018 C12.2801628,78.1922216 12.1929726,78.1428562 12.0988839,78.1428571 L7.90120536,78.1428571 C7.80711665,78.1428562 7.7199265,78.1922216 7.67151786,78.2729018 L6.89236607,79.5714286 Z M16.4285714,81.7142857 L3.57142857,81.7142857 L3.57142857,96.4464286 C3.57142857,96.594362 3.6913523,96.7142857 3.83928571,96.7142857 L16.1607143,96.7142857 C16.3086477,96.7142857 16.4285714,96.594362 16.4285714,96.4464286 L16.4285714,81.7142857 Z" id="Mask-Copy-2"></path>
                        </g>
                    </g>
                </g>
            </g>
        </g>
    </g>
</svg>