<svg xmlns="http://www.w3.org/2000/svg" xmlns:xlink="http://www.w3.org/1999/xlink" id="圖層_1" style="enable-background:new 0 0 18 18" x="0" y="0" version="1.1" viewBox="0 0 18 18" xml:space="preserve"><style type="text/css">.st0{fill:#1899ae;stroke:#1899ae;stroke-width:.7}</style><switch><g><desc>Created with Sketch.</desc><desc>Created with Sketch.</desc><g id="新增大額交易通知"><g id="大額交易通知列表0816-B" transform="translate(-330 -263)"><g id="Group-9" transform="translate(0 232)"><g id="Group"><g id="Group-7"><g id="_x30_02-edit" transform="translate(331 32)"><path id="Shape" d="m7.9 4.1l-1.6 1.6c-0.5 0.6-1.1 1.1-1.7 1.7-0.1 0.1-0.2 0.3-0.3 0.5-0.2 0.9-0.4 1.9-0.6 2.8l-0.1 0.5c-0.1 0.3 0 0.5 0.2 0.7 0.1 0.1 0.3 0.2 0.5 0.2h0.2l0.6-0.1c0.9-0.2 1.8-0.4 2.8-0.6 0.2 0 0.4-0.1 0.5-0.3 2.6-2.6 5.1-5.2 7.7-7.7 0.2-0.2 0.3-0.4 0.3-0.7v-0.1-0.2c0-0.2-0.1-0.4-0.2-0.5-0.5-1.1-1.3-1.9-2.4-2.3-0.2-0.1-0.5-0.1-0.7-0.1h-0.1c-0.3 0-0.6 0.1-0.8 0.3l-4.3 4.3zm5.1-3.9c0.2 0 0.4 0 0.5 0.1 0.9 0.4 1.5 1 1.9 1.9 0 0.1 0.1 0.2 0.1 0.4v0.2c0 0.1 0 0.1-0.1 0.1-2.6 2.6-5.1 5.2-7.7 7.7l-0.1 0.1c-0.9 0.2-1.8 0.4-2.8 0.6l-0.5 0.1 0.1-0.4c0.3-1 0.5-2 0.7-2.9 0 0 0-0.1 0.1-0.1 0.6-0.6 1.1-1.2 1.7-1.7l1.6-1.6c1.5-1.5 3-3 4.4-4.5h0.1z" class="st0"/><path id="Shape_1_" d="m0.8 3.4h5.5c0.2 0 0.4-0.2 0.4-0.4s-0.2-0.4-0.4-0.4h-5.5c-0.7 0-1.2 0.6-1.2 1.2v10.3c0 0.7 0.6 1.2 1.2 1.2h10.3c0.7 0 1.2-0.6 1.2-1.2v-5.2c0-0.2-0.2-0.4-0.4-0.4s-0.4 0.2-0.4 0.4v5.3c0 0.2-0.2 0.5-0.5 0.5h-10.2c-0.2 0-0.5-0.2-0.5-0.5v-10.4c0.1-0.2 0.3-0.4 0.5-0.4z" class="st0"/></g></g></g></g></g></g></g></switch></svg>